  0
SECTION
  2
HEADER
  9
$ACADVER
  1
AC1014
  9
$ACADMAINTVER
 70
     9
  9
$DWGCODEPAGE
  3
ANSI_1252
  9
$INSBASE
 10
0.0
 20
0.0
 30
0.0
  9
$EXTMIN
 10
1.000000000000000E+20
 20
1.000000000000000E+20
 30
1.000000000000000E+20
  9
$EXTMAX
 10
-1.000000000000000E+20
 20
-1.000000000000000E+20
 30
-1.000000000000000E+20
  9
$LIMMIN
 10
0.0
 20
0.0
  9
$LIMMAX
 10
12.0
 20
9.0
  9
$ORTHOMODE
 70
     0
  9
$REGENMODE
 70
     1
  9
$FILLMODE
 70
     1
  9
$QTEXTMODE
 70
     0
  9
$MIRRTEXT
 70
     1
  9
$DRAGMODE
 70
     2
  9
$LTSCALE
 40
1.0
  9
$OSMODE
 70
    37
  9
$ATTMODE
 70
     1
  9
$TEXTSIZE
 40
0.2
  9
$TRACEWID
 40
0.05
  9
$TEXTSTYLE
  7
STANDARD
  9
$CLAYER
  8
0
  9
$CELTYPE
  6
BYLAYER
  9
$CECOLOR
 62
   256
  9
$CELTSCALE
 40
1.0
  9
$DELOBJ
 70
     1
  9
$DISPSILH
 70
     0
  9
$DIMSCALE
 40
1.0
  9
$DIMASZ
 40
0.18
  9
$DIMEXO
 40
0.0625
  9
$DIMDLI
 40
0.38
  9
$DIMRND
 40
0.0
  9
$DIMDLE
 40
0.0
  9
$DIMEXE
 40
0.18
  9
$DIMTP
 40
0.0
  9
$DIMTM
 40
0.0
  9
$DIMTXT
 40
0.18
  9
$DIMCEN
 40
0.09
  9
$DIMTSZ
 40
0.0
  9
$DIMTOL
 70
     0
  9
$DIMLIM
 70
     0
  9
$DIMTIH
 70
     1
  9
$DIMTOH
 70
     1
  9
$DIMSE1
 70
     0
  9
$DIMSE2
 70
     0
  9
$DIMTAD
 70
     0
  9
$DIMZIN
 70
     0
  9
$DIMBLK
  1

  9
$DIMASO
 70
     1
  9
$DIMSHO
 70
     1
  9
$DIMPOST
  1

  9
$DIMAPOST
  1

  9
$DIMALT
 70
     0
  9
$DIMALTD
 70
     2
  9
$DIMALTF
 40
0.0393700787401575
  9
$DIMLFAC
 40
1.0
  9
$DIMTOFL
 70
     0
  9
$DIMTVP
 40
0.0
  9
$DIMTIX
 70
     0
  9
$DIMSOXD
 70
     0
  9
$DIMSAH
 70
     0
  9
$DIMBLK1
  1

  9
$DIMBLK2
  1

  9
$DIMSTYLE
  2
STANDARD
  9
$DIMCLRD
 70
     0
  9
$DIMCLRE
 70
     0
  9
$DIMCLRT
 70
     0
  9
$DIMTFAC
 40
1.0
  9
$DIMGAP
 40
0.09
  9
$DIMJUST
 70
     0
  9
$DIMSD1
 70
     0
  9
$DIMSD2
 70
     0
  9
$DIMTOLJ
 70
     1
  9
$DIMTZIN
 70
     0
  9
$DIMALTZ
 70
     0
  9
$DIMALTTZ
 70
     0
  9
$DIMFIT
 70
     3
  9
$DIMUPT
 70
     0
  9
$DIMUNIT
 70
     2
  9
$DIMDEC
 70
     4
  9
$DIMTDEC
 70
     4
  9
$DIMALTU
 70
     2
  9
$DIMALTTD
 70
     2
  9
$DIMTXSTY
  7
STANDARD
  9
$DIMAUNIT
 70
     0
  9
$LUNITS
 70
     2
  9
$LUPREC
 70
     4
  9
$SKETCHINC
 40
0.1
  9
$FILLETRAD
 40
0.5
  9
$AUNITS
 70
     0
  9
$AUPREC
 70
     0
  9
$MENU
  1
.
  9
$ELEVATION
 40
0.0
  9
$PELEVATION
 40
0.0
  9
$THICKNESS
 40
0.0
  9
$LIMCHECK
 70
     0
  9
$CHAMFERA
 40
0.0
  9
$CHAMFERB
 40
0.0
  9
$CHAMFERC
 40
0.0
  9
$CHAMFERD
 40
0.0
  9
$SKPOLY
 70
     0
  9
$TDCREATE
 40
2458616.007337187
  9
$TDUPDATE
 40
2458616.007337257
  9
$TDINDWG
 40
0.0000000116
  9
$TDUSRTIMER
 40
0.0000000116
  9
$USRTIMER
 70
     1
  9
$ANGBASE
 50
0.0
  9
$ANGDIR
 70
     0
  9
$PDMODE
 70
     0
  9
$PDSIZE
 40
0.0
  9
$PLINEWID
 40
0.0
  9
$COORDS
 70
     1
  9
$SPLFRAME
 70
     0
  9
$SPLINETYPE
 70
     6
  9
$SPLINESEGS
 70
     8
  9
$ATTDIA
 70
     0
  9
$ATTREQ
 70
     1
  9
$HANDLING
 70
     1
  9
$HANDSEED
  5
10000212
  9
$SURFTAB1
 70
     6
  9
$SURFTAB2
 70
     6
  9
$SURFTYPE
 70
     6
  9
$SURFU
 70
     6
  9
$SURFV
 70
     6
  9
$UCSNAME
  2

  9
$UCSORG
 10
0.0
 20
0.0
 30
0.0
  9
$UCSXDIR
 10
1.0
 20
0.0
 30
0.0
  9
$UCSYDIR
 10
0.0
 20
1.0
 30
0.0
  9
$PUCSNAME
  2

  9
$PUCSORG
 10
0.0
 20
0.0
 30
0.0
  9
$PUCSXDIR
 10
1.0
 20
0.0
 30
0.0
  9
$PUCSYDIR
 10
0.0
 20
1.0
 30
0.0
  9
$USERI1
 70
     0
  9
$USERI2
 70
     0
  9
$USERI3
 70
     0
  9
$USERI4
 70
     0
  9
$USERI5
 70
     0
  9
$USERR1
 40
0.0
  9
$USERR2
 40
0.0
  9
$USERR3
 40
0.0
  9
$USERR4
 40
0.0
  9
$USERR5
 40
0.0
  9
$WORLDVIEW
 70
     1
  9
$SHADEDGE
 70
     3
  9
$SHADEDIF
 70
    70
  9
$TILEMODE
 70
     1
  9
$MAXACTVP
 70
    64
  9
$PINSBASE
 10
0.0
 20
0.0
 30
0.0
  9
$PLIMCHECK
 70
     0
  9
$PEXTMIN
 10
1.000000000000000E+20
 20
1.000000000000000E+20
 30
1.000000000000000E+20
  9
$PEXTMAX
 10
-1.000000000000000E+20
 20
-1.000000000000000E+20
 30
-1.000000000000000E+20
  9
$PLIMMIN
 10
0.0
 20
0.0
  9
$PLIMMAX
 10
12.0
 20
9.0
  9
$UNITMODE
 70
     0
  9
$VISRETAIN
 70
     1
  9
$PLINEGEN
 70
     0
  9
$PSLTSCALE
 70
     1
  9
$TREEDEPTH
 70
  3020
  9
$PICKSTYLE
 70
     1
  9
$CMLSTYLE
  2
STANDARD
  9
$CMLJUST
 70
     0
  9
$CMLSCALE
 40
1.0
  9
$PROXYGRAPHICS
 70
     1
  9
$MEASUREMENT
 70
     0
  0
ENDSEC
  0
SECTION
  2
CLASSES
  0
CLASS
  1
ACDBDICTIONARYWDFLT
  2
AcDbDictionaryWithDefault
  3
ObjectDBX Classes
 90
        0
280
     0
281
     0
  0
CLASS
  1
VISUALSTYLE
  2
AcDbVisualStyle
  3
ObjectDBX Classes
 90
     4095
280
     0
281
     0
  0
CLASS
  1
MATERIAL
  2
AcDbMaterial
  3
ObjectDBX Classes
 90
     1153
280
     0
281
     0
  0
CLASS
  1
SCALE
  2
AcDbScale
  3
ObjectDBX Classes
 90
     1153
280
     0
281
     0
  0
CLASS
  1
TABLESTYLE
  2
AcDbTableStyle
  3
ObjectDBX Classes
 90
     4095
280
     0
281
     0
  0
CLASS
  1
MLEADERSTYLE
  2
AcDbMLeaderStyle
  3
ACDB_MLEADERSTYLE_CLASS
 90
     4095
280
     0
281
     0
  0
CLASS
  1
SUN
  2
AcDbSun
  3
SCENEOE
 90
     1153
280
     0
281
     0
  0
CLASS
  1
SORTENTSTABLE
  2
AcDbSortentsTable
  3
ObjectDBX Classes
 90
        0
280
     0
281
     0
  0
CLASS
  1
DICTIONARYVAR
  2
AcDbDictionaryVar
  3
ObjectDBX Classes
 90
        0
280
     0
281
     0
  0
CLASS
  1
XRECORD
  2
AcDbXrecord
  3
ObjectDBX Classes
 90
        0
280
     0
281
     0
  0
CLASS
  1
LWPOLYLINE
  2
AcDbPolyline
  3
ObjectDBX Classes
 90
        0
280
     0
281
     1
  0
CLASS
  1
HATCH
  2
AcDbHatch
  3
ObjectDBX Classes
 90
        0
280
     0
281
     1
  0
CLASS
  1
ACDBPLACEHOLDER
  2
AcDbPlaceHolder
  3
ObjectDBX Classes
 90
        0
280
     0
281
     0
  0
CLASS
  1
LAYOUT
  2
AcDbLayout
  3
ObjectDBX Classes
 90
        0
280
     0
281
     0
  0
ENDSEC
  0
SECTION
  2
TABLES
  0
TABLE
  2
VPORT
  5
8
102
{ACAD_XDICTIONARY
360
10000207
102
}
330
0
100
AcDbSymbolTable
 70
     1
  0
VPORT
  5
29
330
8
100
AcDbSymbolTableRecord
100
AcDbViewportTableRecord
  2
*ACTIVE
 70
     0
 10
0.0
 20
0.0
 11
1.0
 21
1.0
 12
10.42990654205607
 22
4.5
 13
0.0
 23
0.0
 14
0.5
 24
0.5
 15
0.5
 25
0.5
 16
0.0
 26
0.0
 36
1.0
 17
0.0
 27
0.0
 37
0.0
 40
9.0
 41
1.972972972850329
 42
50.0
 43
0.0
 44
0.0
 50
0.0
 51
0.0
 71
     0
 72
   100
 73
     1
 74
     3
 75
     0
 76
     0
 77
     0
 78
     0
  0
ENDTAB
  0
TABLE
  2
LTYPE
  5
5
330
0
100
AcDbSymbolTable
 70
     7
  0
LTYPE
  5
14
330
5
100
AcDbSymbolTableRecord
100
AcDbLinetypeTableRecord
  2
BYBLOCK
 70
     0
  3

 72
    65
 73
     0
 40
0.0
  0
LTYPE
  5
15
330
5
100
AcDbSymbolTableRecord
100
AcDbLinetypeTableRecord
  2
BYLAYER
 70
     0
  3

 72
    65
 73
     0
 40
0.0
  0
LTYPE
  5
16
330
5
100
AcDbSymbolTableRecord
100
AcDbLinetypeTableRecord
  2
CONTINUOUS
 70
     0
  3
Solid line
 72
    65
 73
     0
 40
0.0
  0
LTYPE
  5
10000024
330
5
100
AcDbSymbolTableRecord
100
AcDbLinetypeTableRecord
  2
ONS_PHANTOM
 70
     0
  3
Onshape Phantom line ______ __ __ ______
 72
    65
 73
     6
 40
0.4999999999999999
 49
0.25
 74
     0
 49
-0.05
 74
     0
 49
0.05
 74
     0
 49
-0.05
 74
     0
 49
0.05
 74
     0
 49
-0.05
 74
     0
  0
LTYPE
  5
10000025
330
5
100
AcDbSymbolTableRecord
100
AcDbLinetypeTableRecord
  2
CENTER
 70
     0
  3
Center line ____ _ ____ _ ____ _
 72
    65
 73
     4
 40
0.7199999999999999
 49
0.45
 74
     0
 49
-0.09
 74
     0
 49
0.09
 74
     0
 49
-0.09
 74
     0
  0
LTYPE
  5
10000026
330
5
100
AcDbSymbolTableRecord
100
AcDbLinetypeTableRecord
  2
DASHED
 70
     0
  3
Dashed line __ __ __ __ __
 72
    65
 73
     2
 40
0.75
 49
0.5
 74
     0
 49
-0.25
 74
     0
  0
LTYPE
  5
10000027
330
5
100
AcDbSymbolTableRecord
100
AcDbLinetypeTableRecord
  2
ONS_DASHDOT
 70
     0
  3
Onshape Dashed with Dot _ . ____ . ____
 72
    65
 73
     4
 40
0.71
 49
0.5
 74
     0
 49
-0.1
 74
     0
 49
0.01
 74
     0
 49
-0.1
 74
     0
  0
LTYPE
  5
10000028
330
5
100
AcDbSymbolTableRecord
100
AcDbLinetypeTableRecord
  2
ONS_DOTTED
 70
     0
  3
Onshape Dotted line . . . . . . .
 72
    65
 73
     2
 40
0.11
 49
0.01
 74
     0
 49
-0.1
 74
     0
  0
LTYPE
  5
10000029
330
5
100
AcDbSymbolTableRecord
100
AcDbLinetypeTableRecord
  2
HIDDEN
 70
     0
  3
Hidden line ____ ____ ____ ____ 
 72
    65
 73
     2
 40
0.15
 49
0.1
 74
     0
 49
-0.05
 74
     0
  0
ENDTAB
  0
TABLE
  2
LAYER
  5
2
330
0
100
AcDbSymbolTable
 70
    36
  0
LAYER
  5
10
330
2
100
AcDbSymbolTableRecord
100
AcDbLayerTableRecord
  2
0
 70
     0
 62
     7
  6
CONTINUOUS
  0
LAYER
  5
1000002A
330
2
100
AcDbSymbolTableRecord
100
AcDbLayerTableRecord
  2
SECTION_CUTTING_LINE
 70
     0
 62
     7
  6
ONS_PHANTOM
  0
LAYER
  5
1000002B
330
2
100
AcDbSymbolTableRecord
100
AcDbLayerTableRecord
  2
DETAIL_VIEW_BORDER
 70
     0
 62
     7
  6
CONTINUOUS
  0
LAYER
  5
1000002C
330
2
100
AcDbSymbolTableRecord
100
AcDbLayerTableRecord
  2
DETAIL_VIEW_PARENT_BORDER
 70
     0
 62
     7
  6
ONS_PHANTOM
  0
LAYER
  5
1000002D
330
2
100
AcDbSymbolTableRecord
100
AcDbLayerTableRecord
  2
TEXT
 70
     0
 62
     7
  6
CONTINUOUS
  0
LAYER
  5
1000002E
330
2
100
AcDbSymbolTableRecord
100
AcDbLayerTableRecord
  2
SKETCHED_GEOMETRY
 70
     0
 62
    -7
  6
CONTINUOUS
  0
LAYER
  5
1000002F
330
2
100
AcDbSymbolTableRecord
100
AcDbLayerTableRecord
  2
VIRTUAL_SHARPS
 70
     0
 62
    -7
  6
CONTINUOUS
  0
LAYER
  5
10000030
330
2
100
AcDbSymbolTableRecord
100
AcDbLayerTableRecord
  2
CENTERLINES
 70
     0
 62
    -7
  6
CENTER
  0
LAYER
  5
10000031
330
2
100
AcDbSymbolTableRecord
100
AcDbLayerTableRecord
  2
CENTERMARKS
 70
     0
 62
    -7
  6
CONTINUOUS
  0
LAYER
  5
10000032
330
2
100
AcDbSymbolTableRecord
100
AcDbLayerTableRecord
  2
TABLES
 70
     0
 62
     7
  6
CONTINUOUS
  0
LAYER
  5
10000033
330
2
100
AcDbSymbolTableRecord
100
AcDbLayerTableRecord
  2
IMAGES
 70
     0
 62
    -7
  6
CONTINUOUS
  0
LAYER
  5
10000034
330
2
100
AcDbSymbolTableRecord
100
AcDbLayerTableRecord
  2
ANNOTATION_LINES
 70
     0
 62
    -7
  6
CONTINUOUS
  0
LAYER
  5
10000035
330
2
100
AcDbSymbolTableRecord
100
AcDbLayerTableRecord
  2
ANNOTATION_TEXT
 70
     0
 62
    -7
  6
CONTINUOUS
  0
LAYER
  5
10000036
330
2
100
AcDbSymbolTableRecord
100
AcDbLayerTableRecord
  2
SIDE_THREAD_SYMBOLS
 70
     0
 62
     7
  6
HIDDEN
  0
LAYER
  5
10000037
330
2
100
AcDbSymbolTableRecord
100
AcDbLayerTableRecord
  2
SIDE_THREAD_SYMBOLS_HIDDEN
 70
     0
 62
    -7
  6
HIDDEN
  0
LAYER
  5
10000038
330
2
100
AcDbSymbolTableRecord
100
AcDbLayerTableRecord
  2
SURFACE_THREAD_SYMBOLS
 70
     0
 62
     7
  6
HIDDEN
  0
LAYER
  5
10000039
330
2
100
AcDbSymbolTableRecord
100
AcDbLayerTableRecord
  2
SURFACE_THREAD_SYMBOLS_ON_
 70
     0
 62
     7
  6
HIDDEN
  0
LAYER
  5
1000003A
330
2
100
AcDbSymbolTableRecord
100
AcDbLayerTableRecord
  2
SURFACE_THREAD_SYMBOLS_HID
 70
     0
 62
    -7
  6
HIDDEN
  0
LAYER
  5
1000003B
330
2
100
AcDbSymbolTableRecord
100
AcDbLayerTableRecord
  2
BLIND_THREAD_SYMBOLS
 70
     0
 62
     7
  6
CONTINUOUS
  0
LAYER
  5
1000003C
330
2
100
AcDbSymbolTableRecord
100
AcDbLayerTableRecord
  2
BLIND_THREAD_SYMBOLS_HIDDE
 70
     0
 62
    -7
  6
HIDDEN
  0
LAYER
  5
1000003D
330
2
100
AcDbSymbolTableRecord
100
AcDbLayerTableRecord
  2
EXPLODE_LINES
 70
     0
 62
     7
  6
CONTINUOUS
  0
LAYER
  5
1000003E
330
2
100
AcDbSymbolTableRecord
100
AcDbLayerTableRecord
  2
BREAK_LINES
 70
     0
 62
    -7
  6
CONTINUOUS
  0
LAYER
  5
1000003F
330
2
100
AcDbSymbolTableRecord
100
AcDbLayerTableRecord
  2
SHEETMETAL_BEND_LINES_UP
 70
     0
 62
     7
  6
CENTER
  0
LAYER
  5
10000040
330
2
100
AcDbSymbolTableRecord
100
AcDbLayerTableRecord
  2
SHEETMETAL_BEND_LINES_DOWN
 70
     0
 62
     7
  6
CENTER
  0
LAYER
  5
10000041
330
2
100
AcDbSymbolTableRecord
100
AcDbLayerTableRecord
  2
SHEETMETAL_BEND_TANGENT_LI
 70
     0
 62
     7
  6
CONTINUOUS
  0
LAYER
  5
10000042
330
2
100
AcDbSymbolTableRecord
100
AcDbLayerTableRecord
  2
SHEETMETAL_CUT_LINES
 70
     0
 62
     7
  6
CONTINUOUS
  0
LAYER
  5
10000043
330
2
100
AcDbSymbolTableRecord
100
AcDbLayerTableRecord
  2
HIDDEN
 70
     0
 62
    -7
  6
HIDDEN
  0
LAYER
  5
10000044
330
2
100
AcDbSymbolTableRecord
100
AcDbLayerTableRecord
  2
VISIBLE
 70
     0
 62
     7
  6
CONTINUOUS
  0
LAYER
  5
10000045
330
2
100
AcDbSymbolTableRecord
100
AcDbLayerTableRecord
  2
MODELSKETCH_VISIBLE
 70
     0
 62
     7
  6
CONTINUOUS
  0
LAYER
  5
10000046
330
2
100
AcDbSymbolTableRecord
100
AcDbLayerTableRecord
  2
MODELSKETCH_CONSTRUCTION
 70
     0
 62
    -7
  6
CENTER
  0
LAYER
  5
10000047
330
2
100
AcDbSymbolTableRecord
100
AcDbLayerTableRecord
  2
HIDDEN_BASE_VIEW
 70
     0
 62
     7
  6
CONTINUOUS
  0
LAYER
  5
10000048
330
2
100
AcDbSymbolTableRecord
100
AcDbLayerTableRecord
  2
TANGENT_LINES
 70
     0
 62
    -7
  6
CONTINUOUS
  0
LAYER
  5
10000049
330
2
100
AcDbSymbolTableRecord
100
AcDbLayerTableRecord
  2
TANGENT_HIDDEN
 70
     0
 62
    -7
  6
HIDDEN
  0
LAYER
  5
1000004A
330
2
100
AcDbSymbolTableRecord
100
AcDbLayerTableRecord
  2
INVISIBLE_LINES
 70
     0
 62
    -7
  6
CONTINUOUS
  0
LAYER
  5
1000004B
330
2
100
AcDbSymbolTableRecord
100
AcDbLayerTableRecord
  2
VIEW_HATCHES
 70
     0
 62
    -7
  6
CONTINUOUS
  0
LAYER
  5
1000004C
330
2
100
AcDbSymbolTableRecord
100
AcDbLayerTableRecord
  2
SECTION_JOG_LINES
 70
     0
 62
    -7
  6
CONTINUOUS
  0
ENDTAB
  0
TABLE
  2
STYLE
  5
3
330
0
100
AcDbSymbolTable
 70
     2
  0
STYLE
  5
11
330
3
100
AcDbSymbolTableRecord
100
AcDbTextStyleTableRecord
  2
STANDARD
 70
     0
 40
0.0
 41
1.0
 50
0.0
 71
     0
 42
0.2
  3
txt
  4

  0
STYLE
  5
10000004
330
3
100
AcDbSymbolTableRecord
100
AcDbTextStyleTableRecord
  2
TTFSTYLE
 70
     0
 40
0.0
 41
1.0
 50
0.0
 71
     0
 42
0.2
  3
Verdana.ttf
  4

1001
ACAD
1000
Verdana
1071
       34
  0
ENDTAB
  0
TABLE
  2
VIEW
  5
6
330
0
100
AcDbSymbolTable
 70
     0
  0
ENDTAB
  0
TABLE
  2
UCS
  5
7
330
0
100
AcDbSymbolTable
 70
     0
  0
ENDTAB
  0
TABLE
  2
APPID
  5
9
330
0
100
AcDbSymbolTable
 70
     2
  0
APPID
  5
12
330
9
100
AcDbSymbolTableRecord
100
AcDbRegAppTableRecord
  2
ACAD
 70
     0
  0
APPID
  5
10000211
330
9
100
AcDbSymbolTableRecord
100
AcDbRegAppTableRecord
  2
ACAD_MLEADERVER
 70
     0
  0
ENDTAB
  0
TABLE
  2
DIMSTYLE
  5
A
330
0
100
AcDbSymbolTable
 70
     1
  0
DIMSTYLE
105
27
330
A
100
AcDbSymbolTableRecord
100
AcDbDimStyleTableRecord
  2
STANDARD
 70
     0
  3

  4

  5

  6

  7

 40
1.0
 41
0.18
 42
0.0625
 43
0.38
 44
0.18
 45
0.0
 46
0.0
 47
0.0
 48
0.0
140
0.18
141
0.09
142
0.0
143
25.4
144
1.0
145
0.0
146
1.0
147
0.09
 71
     0
 72
     0
 73
     1
 74
     1
 75
     0
 76
     0
 77
     0
 78
     0
170
     0
171
     2
172
     0
173
     0
174
     0
175
     0
176
     0
177
     0
178
     0
270
     2
271
     4
272
     4
273
     2
274
     2
340
11
275
     0
280
     0
281
     0
282
     0
283
     1
284
     0
285
     0
286
     0
287
     3
288
     0
  0
ENDTAB
  0
TABLE
  2
BLOCK_RECORD
  5
1
330
0
100
AcDbSymbolTable
 70
     0
  0
BLOCK_RECORD
  5
1F
102
{ACAD_XDICTIONARY
360
100001DC
102
}
330
1
100
AcDbSymbolTableRecord
100
AcDbBlockTableRecord
  2
*MODEL_SPACE
  0
BLOCK_RECORD
  5
1B
330
1
100
AcDbSymbolTableRecord
100
AcDbBlockTableRecord
  2
*PAPER_SPACE
  0
ENDTAB
  0
ENDSEC
  0
SECTION
  2
BLOCKS
  0
BLOCK
  5
20
330
1F
100
AcDbEntity
  8
0
100
AcDbBlockBegin
  2
*MODEL_SPACE
 70
     0
 10
0.0
 20
0.0
 30
0.0
  3
*MODEL_SPACE
  1

  0
ENDBLK
  5
21
330
1F
100
AcDbEntity
  8
0
100
AcDbBlockEnd
  0
BLOCK
  5
1C
330
1B
100
AcDbEntity
 67
     1
  8
0
100
AcDbBlockBegin
  2
*PAPER_SPACE
 70
     0
 10
0.0
 20
0.0
 30
0.0
  3
*PAPER_SPACE
  1

  0
ENDBLK
  5
1D
330
1B
100
AcDbEntity
 67
     1
  8
0
100
AcDbBlockEnd
  0
ENDSEC
  0
SECTION
  2
ENTITIES
  0
SPLINE
  5
1000004D
102
{ACAD_XDICTIONARY
360
1000004E
102
}
330
1F
100
AcDbEntity
  8
VISIBLE
100
AcDbSpline
210
0.0
220
0.0
230
1.0
 70
     8
 71
     3
 72
   130
 73
   126
 74
     0
 42
0.000000001
 43
0.00000001
 40
4.0
 40
4.0
 40
4.0
 40
4.0
 40
4.0078125
 40
4.015625
 40
4.0234375
 40
4.03125
 40
4.046875
 40
4.0625
 40
4.078125
 40
4.09375
 40
4.125
 40
4.15625
 40
4.1875
 40
4.25
 40
4.3125
 40
4.375
 40
4.4375
 40
4.5
 40
4.5625
 40
4.625
 40
4.6875
 40
4.75
 40
4.78125
 40
4.8125
 40
4.84375
 40
4.875
 40
4.90625
 40
4.921875
 40
4.9375
 40
4.953125
 40
4.96875
 40
4.9765625
 40
4.984375
 40
4.9921875
 40
5.0
 40
5.0078125
 40
5.015625
 40
5.03125
 40
5.046875
 40
5.0625
 40
5.09375
 40
5.125
 40
5.1875
 40
5.25
 40
5.3125
 40
5.375
 40
5.4375
 40
5.5
 40
5.5625
 40
5.625
 40
5.6875
 40
5.71875
 40
5.75
 40
5.78125
 40
5.796875
 40
5.8125
 40
5.828125
 40
5.84375
 40
5.8515625
 40
5.859375
 40
5.86328125
 40
5.8671875
 40
5.87109375
 40
5.873046875
 40
5.875
 40
5.876953125
 40
5.87890625
 40
5.8828125
 40
5.88671875
 40
5.890625
 40
5.8984375
 40
5.90625
 40
5.921875
 40
5.9375
 40
5.953125
 40
5.96875
 40
6.0
 40
6.03125
 40
6.0625
 40
6.125
 40
6.1875
 40
6.25
 40
6.3125
 40
6.375
 40
6.5
 40
6.625
 40
6.75
 40
6.8125
 40
6.875
 40
6.9375
 40
7.0
 40
7.0625
 40
7.09375
 40
7.125
 40
7.15625
 40
7.171875
 40
7.1875
 40
7.203125
 40
7.21875
 40
7.2265625
 40
7.234375
 40
7.2421875
 40
7.24609375
 40
7.248046875
 40
7.25
 40
7.251953125
 40
7.25390625
 40
7.2578125
 40
7.265625
 40
7.2734375
 40
7.28125
 40
7.296875
 40
7.3125
 40
7.328125
 40
7.34375
 40
7.375
 40
7.40625
 40
7.4375
 40
7.5
 40
7.5625
 40
7.625
 40
7.6875
 40
7.75
 40
7.875
 40
8.0
 40
8.0
 40
8.0
 40
8.0
 10
-11.00214323079302
 20
-21.8106599954338
 30
0.0
 10
-11.00289290793613
 20
-21.8106599954338
 30
0.0
 10
-11.00316170955093
 20
-21.81065999543381
 30
0.0
 10
-11.00620454723705
 20
-21.81065999543381
 30
0.0
 10
-11.01186786341057
 20
-21.8106599954338
 30
0.0
 10
-11.02216088988499
 20
-21.8106599954338
 30
0.0
 10
-11.04040402558598
 20
-21.81065999543379
 30
0.0
 10
-11.07051282678215
 20
-21.81065999543379
 30
0.0
 10
-11.10858185379996
 20
-21.8106599954338
 30
0.0
 10
-11.16956572007645
 20
-21.81065999543379
 30
0.0
 10
-11.26426197459194
 20
-21.81065999543379
 30
0.0
 10
-11.4051696500265
 20
-21.8106599954338
 30
0.0
 10
-11.62637966694806
 20
-21.8106599954338
 30
0.0
 10
-11.95970978880973
 20
-21.81065999543381
 30
0.0
 10
-12.43243252443863
 20
-21.81065999543381
 30
0.0
 10
-12.95970018666529
 20
-21.81065999543383
 30
0.0
 10
-13.5233311370907
 20
-21.81065999543383
 30
0.0
 10
-14.10514373077989
 20
-21.81065999543388
 30
0.0
 10
-14.68695632454354
 20
-21.81065999543377
 30
0.0
 10
-15.25058727474569
 20
-21.81065999543421
 30
0.0
 10
-15.77785493779138
 20
-21.81065999543262
 30
0.0
 10
-16.171790548272
 20
-21.81065999543752
 30
0.0
 10
-16.45057574918047
 20
-21.81065999542755
 30
0.0
 10
-16.63921030186514
 20
-21.81065999545801
 30
0.0
 10
-16.80511779628035
 20
-21.81065999534356
 30
0.0
 10
-16.94602554510994
 20
-21.81065999577092
 30
0.0
 10
-17.04072157020601
 20
-21.8106599944417
 30
0.0
 10
-17.10170590450818
 20
-21.81065999715227
 30
0.0
 10
-17.13977350221079
 20
-21.81065998887457
 30
0.0
 10
-17.1698876696489
 20
-21.81066001995241
 30
0.0
 10
-17.18811410897315
 20
-21.8106599232577
 30
0.0
 10
-17.19844118435566
 20
-21.81066012044711
 30
0.0
 10
-17.20400052012874
 20
-21.81065951825937
 30
0.0
 10
-17.20743374273563
 20
-21.81066177911829
 30
0.0
 10
-17.20834728837227
 20
-21.81065333787031
 30
0.0
 10
-17.21452099292166
 20
-21.81068556730743
 30
0.0
 10
-17.22315186090467
 20
-21.81085243453681
 30
0.0
 10
-17.23375490832784
 20
-21.81125946306094
 30
0.0
 10
-17.24646836474415
 20
-21.81207214629542
 30
0.0
 10
-17.2632945862633
 20
-21.81357948637807
 30
0.0
 10
-17.28412661347338
 20
-21.81625046451076
 30
0.0
 10
-17.31695193377433
 20
-21.8221597028602
 30
0.0
 10
-17.35693941286482
 20
-21.83253152918757
 30
0.0
 10
-17.40294227620722
 20
-21.84948153470508
 30
0.0
 10
-17.44668613412961
 20
-21.87065929091061
 30
0.0
 10
-17.48791662411882
 20
-21.89579458158425
 30
0.0
 10
-17.52639556724484
 20
-21.9246277689159
 30
0.0
 10
-17.56189219572976
 20
-21.95691127866888
 30
0.0
 10
-17.59417565494782
 20
-21.99240797780602
 30
0.0
 10
-17.62300878302684
 20
-22.03088696312565
 30
0.0
 10
-17.64395485543625
 20
-22.06524585634706
 30
0.0
 10
-17.65873285893919
 20
-22.09398941400726
 30
0.0
 10
-17.66879330753871
 20
-22.11614392693793
 30
0.0
 10
-17.67629615810144
 20
-22.13507638808361
 30
0.0
 10
-17.68175274191188
 20
-22.15048761000818
 30
0.0
 10
-17.6855680046245
 20
-22.16217415300692
 30
0.0
 10
-17.68910185192668
 20
-22.17398464173563
 30
0.0
 10
-17.69180842288607
 20
-22.18392512955159
 30
0.0
 10
-17.69382902836298
 20
-22.19193647161686
 30
0.0
 10
-17.69503020133932
 20
-22.19696277703214
 30
0.0
 10
-17.69595627424447
 20
-22.20100687228937
 30
0.0
 10
-17.69662711508248
 20
-22.20402104540808
 30
0.0
 10
-17.69718743109233
 20
-22.2066200561698
 30
0.0
 10
-17.69758889212078
 20
-22.20851948688027
 30
0.0
 10
-17.69798779221534
 20
-22.21044596640096
 30
0.0
 10
-17.69799093764543
 20
-22.21046455876802
 30
0.0
 10
-17.69813271839021
 20
-22.21115590566127
 30
0.0
 10
-17.69826158763041
 20
-22.2117915845171
 30
0.0
 10
-17.69843495685528
 20
-22.21265252518637
 30
0.0
 10
-17.69865695994968
 20
-22.21376659154201
 30
0.0
 10
-17.6989330084502
 20
-22.21517149438392
 30
0.0
 10
-17.69936506763706
 20
-22.21741408113211
 30
0.0
 10
-17.69989014491317
 20
-22.22022191727003
 30
0.0
 10
-17.70049539591605
 20
-22.22359397129255
 30
0.0
 10
-17.70107615248726
 20
-22.22696973787905
 30
0.0
 10
-17.70181786860542
 20
-22.23147506860068
 30
0.0
 10
-17.7026841079681
 20
-22.23711462240995
 30
0.0
 10
-17.70362683041704
 20
-22.24389342643617
 30
0.0
 10
-17.70475565764252
 20
-22.25294537278466
 30
0.0
 10
-17.70592802023373
 20
-22.26428271877158
 30
0.0
 10
-17.70695760187727
 20
-22.27791411712424
 30
0.0
 10
-17.70761398599773
 20
-22.29156303192882
 30
0.0
 10
-17.70790070848465
 20
-22.30522055051089
 30
0.0
 10
-17.7077940845778
 20
-22.32343031568709
 30
0.0
 10
-17.70675055555677
 20
-22.34617021226175
 30
0.0
 10
-17.70405587501116
 20
-22.37335295128281
 30
0.0
 10
-17.7006130765484
 20
-22.39585949387894
 30
0.0
 10
-17.6971393450762
 20
-22.41374168313875
 30
0.0
 10
-17.69417319196886
 20
-22.4270826714437
 30
0.0
 10
-17.69084471715425
 20
-22.44034372407981
 30
0.0
 10
-17.68715192384425
 20
-22.45351532171269
 30
0.0
 10
-17.68376893340899
 20
-22.46440895606482
 30
0.0
 10
-17.68087765415624
 20
-22.47306917875517
 30
0.0
 10
-17.67861632240975
 20
-22.47953571314986
 30
0.0
 10
-17.67665413527294
 20
-22.48489948151876
 30
0.0
 10
-17.67503745565116
 20
-22.48917491850701
 30
0.0
 10
-17.67380153315862
 20
-22.49237326595079
 30
0.0
 10
-17.67254166692384
 20
-22.49556430530664
 30
0.0
 10
-17.67147323184138
 20
-22.49821383906354
 30
0.0
 10
-17.67060404837844
 20
-22.50033525928581
 30
0.0
 10
-17.66995327955514
 20
-22.50190761703247
 30
0.0
 10
-17.66938358094585
 20
-22.50326875034468
 30
0.0
 10
-17.66902622095597
 20
-22.50411725770245
 30
0.0
 10
-17.66875251611587
 20
-22.50476317317265
 30
0.0
 10
-17.66874054745273
 20
-22.50479300028192
 30
0.0
 10
-17.66798785366624
 20
-22.5065599066992
 30
0.0
 10
-17.66723570047163
 20
-22.50830615042218
 30
0.0
 10
-17.66578532894968
 20
-22.51163696948597
 30
0.0
 10
-17.66373499745143
 20
-22.51622513666875
 30
0.0
 10
-17.66118281047295
 20
-22.52175789728062
 30
0.0
 10
-17.65770329219841
 20
-22.52906374979908
 30
0.0
 10
-17.65319083054944
 20
-22.53811039842493
 30
0.0
 10
-17.64752569155359
 20
-22.54880998883612
 30
0.0
 10
-17.64161278750035
 20
-22.5593534438851
 30
0.0
 10
-17.63340467548849
 20
-22.5731966697171
 30
0.0
 10
-17.62254651948489
 20
-22.59008938581709
 30
0.0
 10
-17.6085921006193
 20
-22.60967282399841
 30
0.0
 10
-17.58879504376024
 20
-22.63482836764099
 30
0.0
 10
-17.56189212572226
 20
-22.66440889993179
 30
0.0
 10
-17.52639549527436
 20
-22.69669235246611
 30
0.0
 10
-17.48791663681254
 20
-22.72552548711304
 30
0.0
 10
-17.44668586339453
 20
-22.75066077217468
 30
0.0
 10
-17.3883622047606
 20
-22.77889760433822
 30
0.0
 10
-17.30979707306892
 20
-22.80362556867759
 30
0.0
 10
-17.24246061522863
 20
-22.81065999543379
 30
0.0
 10
-17.20814423079306
 20
-22.8106599954338
 30
0.0
  0
SPLINE
  5
10000050
102
{ACAD_XDICTIONARY
360
10000051
102
}
330
1F
100
AcDbEntity
  8
VISIBLE
100
AcDbSpline
210
0.0
220
0.0
230
1.0
 70
     8
 71
     3
 72
   130
 73
   126
 74
     0
 42
0.000000001
 43
0.00000001
 40
0.0
 40
0.0
 40
0.0
 40
0.0
 40
0.0078125
 40
0.015625
 40
0.0234375
 40
0.03125
 40
0.046875
 40
0.0625
 40
0.078125
 40
0.09375
 40
0.125
 40
0.15625
 40
0.1875
 40
0.25
 40
0.3125
 40
0.375
 40
0.4375
 40
0.5
 40
0.5625
 40
0.625
 40
0.6875
 40
0.75
 40
0.78125
 40
0.8125
 40
0.84375
 40
0.875
 40
0.90625
 40
0.921875
 40
0.9375
 40
0.953125
 40
0.96875
 40
0.9765625
 40
0.984375
 40
0.9921875
 40
1.0
 40
1.0078125
 40
1.015625
 40
1.03125
 40
1.046875
 40
1.0625
 40
1.09375
 40
1.125
 40
1.1875
 40
1.25
 40
1.3125
 40
1.375
 40
1.4375
 40
1.5
 40
1.5625
 40
1.625
 40
1.6875
 40
1.71875
 40
1.75
 40
1.78125
 40
1.796875
 40
1.8125
 40
1.828125
 40
1.84375
 40
1.8515625
 40
1.859375
 40
1.86328125
 40
1.8671875
 40
1.87109375
 40
1.873046875
 40
1.875
 40
1.876953125
 40
1.87890625
 40
1.8828125
 40
1.88671875
 40
1.890625
 40
1.8984375
 40
1.90625
 40
1.921875
 40
1.9375
 40
1.953125
 40
1.96875
 40
2.0
 40
2.03125
 40
2.0625
 40
2.125
 40
2.1875
 40
2.25
 40
2.3125
 40
2.375
 40
2.5
 40
2.625
 40
2.75
 40
2.8125
 40
2.875
 40
2.9375
 40
3.0
 40
3.0625
 40
3.09375
 40
3.125
 40
3.15625
 40
3.171875
 40
3.1875
 40
3.203125
 40
3.21875
 40
3.2265625
 40
3.234375
 40
3.2421875
 40
3.24609375
 40
3.248046875
 40
3.25
 40
3.251953125
 40
3.25390625
 40
3.2578125
 40
3.265625
 40
3.2734375
 40
3.28125
 40
3.296875
 40
3.3125
 40
3.328125
 40
3.34375
 40
3.375
 40
3.40625
 40
3.4375
 40
3.5
 40
3.5625
 40
3.625
 40
3.6875
 40
3.75
 40
3.875
 40
4.0
 40
4.0
 40
4.0
 40
4.0
 10
-17.20814423079309
 20
-22.81065999543379
 30
0.0
 10
-17.20739455365002
 20
-22.81065999543379
 30
0.0
 10
-17.20712575203526
 20
-22.81065999543379
 30
0.0
 10
-17.20408291434909
 20
-22.8106599954338
 30
0.0
 10
-17.1984195981755
 20
-22.8106599954338
 30
0.0
 10
-17.18812657170102
 20
-22.81065999543379
 30
0.0
 10
-17.16988343599993
 20
-22.8106599954338
 30
0.0
 10
-17.13977463480365
 20
-22.81065999543379
 30
0.0
 10
-17.10170560778573
 20
-22.81065999543381
 30
0.0
 10
-17.04072174150911
 20
-22.8106599954338
 30
0.0
 10
-16.94602548699344
 20
-22.8106599954338
 30
0.0
 10
-16.80511781155869
 20
-22.81065999543381
 30
0.0
 10
-16.5839077946369
 20
-22.81065999543381
 30
0.0
 10
-16.25057767277495
 20
-22.81065999543381
 30
0.0
 10
-15.77785493714579
 20
-22.81065999543383
 30
0.0
 10
-15.25058727491892
 20
-22.81065999543382
 30
0.0
 10
-14.68695632449336
 20
-22.81065999543383
 30
0.0
 10
-14.1051437308041
 20
-22.8106599954338
 30
0.0
 10
-13.52333113704042
 20
-22.81065999543391
 30
0.0
 10
-12.95970018683835
 20
-22.81065999543349
 30
0.0
 10
-12.43243252379278
 20
-22.81065999543506
 30
0.0
 10
-12.03849691331236
 20
-22.81065999543016
 30
0.0
 10
-11.75971171240409
 20
-22.81065999544014
 30
0.0
 10
-11.57107715971957
 20
-22.81065999540965
 30
0.0
 10
-11.40516966530454
 20
-22.81065999552412
 30
0.0
 10
-11.26426191647523
 20
-22.81065999509672
 30
0.0
 10
-11.16956589137913
 20
-22.81065999642594
 30
0.0
 10
-11.1085815570776
 20
-22.81065999371538
 30
0.0
 10
-11.07051395937367
 20
-22.81066000199305
 30
0.0
 10
-11.04039979194105
 20
-22.81065997091525
 30
0.0
 10
-11.02217335260024
 20
-22.8106600676098
 30
0.0
 10
-11.01184627725182
 20
-22.8106598704207
 30
0.0
 10
-11.00628694137488
 20
-22.81066047260744
 30
0.0
 10
-11.00285371915811
 20
-22.8106582117523
 30
0.0
 10
-11.00194017206167
 20
-22.81066665298615
 30
0.0
 10
-10.99576645163664
 20
-22.81063442360776
 30
0.0
 10
-10.98713556051139
 20
-22.81046755669133
 30
0.0
 10
-10.97653248558859
 20
-22.81006052892756
 30
0.0
 10
-10.96381899678854
 20
-22.80924784720589
 30
0.0
 10
-10.94699273341953
 20
-22.80774050991539
 30
0.0
 10
-10.92616065600616
 20
-22.80506953669326
 30
0.0
 10
-10.89333525956289
 20
-22.79916030906131
 30
0.0
 10
-10.85334769240757
 20
-22.78878850116345
 30
0.0
 10
-10.8073447332923
 20
-22.77183852488568
 30
0.0
 10
-10.76360078863664
 20
-22.75066080444293
 30
0.0
 10
-10.72237022041528
 20
-22.72552555583976
 30
0.0
 10
-10.68389120714187
 20
-22.69669241700497
 30
0.0
 10
-10.64839451617649
 20
-22.66440896251801
 30
0.0
 10
-10.61611100169224
 20
-22.62891232586124
 30
0.0
 10
-10.58727782511664
 20
-22.59043341068923
 30
0.0
 10
-10.56633171764695
 20
-22.55607458266051
 30
0.0
 10
-10.55155368925366
 20
-22.52733108140733
 30
0.0
 10
-10.54149322358525
 20
-22.50517661297144
 30
0.0
 10
-10.53399036016219
 20
-22.48624419079192
 30
0.0
 10
-10.5285337669137
 20
-22.47083300122129
 30
0.0
 10
-10.52471849755802
 20
-22.45914648309319
 30
0.0
 10
-10.52118464405967
 20
-22.44733601985827
 30
0.0
 10
-10.51847806831983
 20
-22.43739555381826
 30
0.0
 10
-10.51645745925532
 20
-22.42938422951227
 30
0.0
 10
-10.51525628413698
 20
-22.42435793532097
 30
0.0
 10
-10.51433020957909
 20
-22.42031384916598
 30
0.0
 10
-10.51365936753289
 20
-22.41729968281575
 30
0.0
 10
-10.51309905054009
 20
-22.41470067805404
 30
0.0
 10
-10.51269758874535
 20
-22.4128012514411
 30
0.0
 10
-10.51229868807176
 20
-22.4108747769846
 30
0.0
 10
-10.51229554211695
 20
-22.41085618213586
 30
0.0
 10
-10.51215376066006
 20
-22.41016483457142
 30
0.0
 10
-10.51202489054531
 20
-22.40952915397485
 30
0.0
 10
-10.51185152028371
 20
-22.40866821160839
 30
0.0
 10
-10.51162951582803
 20
-22.40755414286057
 30
0.0
 10
-10.51135346566334
 20
-22.40614923708613
 30
0.0
 10
-10.51092140389354
 20
-22.40390664564473
 30
0.0
 10
-10.51039632353613
 20
-22.40109880369619
 30
0.0
 10
-10.50979106906635
 20
-22.39772674277473
 30
0.0
 10
-10.50921030925351
 20
-22.39435096937008
 30
0.0
 10
-10.50846858910639
 20
-22.38984562966649
 30
0.0
 10
-10.50760234524377
 20
-22.38420606483963
 30
0.0
 10
-10.50665961820962
 20
-22.37742724794284
 30
0.0
 10
-10.5055307858988
 20
-22.36837528491856
 30
0.0
 10
-10.50435841876988
 20
-22.35703791902677
 30
0.0
 10
-10.50332883424201
 20
-22.34340649837229
 30
0.0
 10
-10.50267244944897
 20
-22.32975756291076
 30
0.0
 10
-10.50238572815332
 20
-22.31610002536172
 30
0.0
 10
-10.50249235567204
 20
-22.29789023718916
 30
0.0
 10
-10.5035358921401
 20
-22.27515031621851
 30
0.0
 10
-10.5062305835779
 20
-22.24796755488951
 30
0.0
 10
-10.50967339048518
 20
-22.22546099937432
 30
0.0
 10
-10.5131471269819
 20
-22.2075788030144
 30
0.0
 10
-10.51611328265502
 20
-22.19423781094059
 30
0.0
 10
-10.51944175849632
 20
-22.18097675602051
 30
0.0
 10
-10.52313455095877
 20
-22.16780515750153
 30
0.0
 10
-10.52651753884829
 20
-22.15691152348995
 30
0.0
 10
-10.52940881479608
 20
-22.1482513016582
 30
0.0
 10
-10.53167014338901
 20
-22.14178476818304
 30
0.0
 10
-10.53363232730185
 20
-22.13642100079484
 30
0.0
 10
-10.53524900396704
 20
-22.1321455647094
 30
0.0
 10
-10.53648492404833
 20
-22.12894721800015
 30
0.0
 10
-10.53774478767388
 20
-22.12575617942953
 30
0.0
 10
-10.53881322041081
 20
-22.12310664637935
 30
0.0
 10
-10.53968240189701
 20
-22.12098522672444
 30
0.0
 10
-10.5403331691748
 20
-22.11941286947526
 30
0.0
 10
-10.54090286648464
 20
-22.11805173639509
 30
0.0
 10
-10.54126022547694
 20
-22.11720322958111
 30
0.0
 10
-10.54153392984083
 20
-22.11655731383493
 30
0.0
 10
-10.54154589786006
 20
-22.11652748817597
 30
0.0
 10
-10.5422985920825
 20
-22.11476057687653
 30
0.0
 10
-10.54305074550066
 20
-22.11301432886508
 30
0.0
 10
-10.54450111762748
 20
-22.10968350129207
 30
0.0
 10
-10.54655145001511
 20
-22.10509532256705
 30
0.0
 10
-10.54910363829178
 20
-22.09956254799833
 30
0.0
 10
-10.55258315854763
 20
-22.09225667712291
 30
0.0
 10
-10.55709562318699
 20
-22.08321000585575
 30
0.0
 10
-10.56276076662493
 20
-22.07251038885483
 30
0.0
 10
-10.5686736760122
 20
-22.06196690781742
 30
0.0
 10
-10.57688179636505
 20
-22.04812364819022
 30
0.0
 10
-10.58773996516616
 20
-22.03123089154087
 30
0.0
 10
-10.60169440333365
 20
-22.01164740769915
 30
0.0
 10
-10.62149149128375
 20
-21.98649180752714
 30
0.0
 10
-10.64839445827818
 20
-21.95691121335043
 30
0.0
 10
-10.68389116298756
 20
-21.92462770206531
 30
0.0
 10
-10.72237010976338
 20
-21.89579452483279
 30
0.0
 10
-10.76360098349721
 20
-21.87065921305101
 30
0.0
 10
-10.82192478882866
 20
-21.84242236432492
 30
0.0
 10
-10.90049012198334
 20
-21.81769440884047
 30
0.0
 10
-10.96782675352032
 20
-21.81065999543379
 30
0.0
 10
-11.00214323079304
 20
-21.8106599954338
 30
0.0
  0
SPLINE
  5
10000053
102
{ACAD_XDICTIONARY
360
10000054
102
}
330
1F
100
AcDbEntity
  8
VISIBLE
100
AcDbSpline
210
0.0
220
0.0
230
1.0
 70
     8
 71
     3
 72
   129
 73
   125
 74
     0
 42
0.000000001
 43
0.00000001
 40
0.0
 40
0.0
 40
0.0
 40
0.0
 40
0.0078125
 40
0.015625
 40
0.0234375
 40
0.03125
 40
0.046875
 40
0.0625
 40
0.09375
 40
0.125
 40
0.15625
 40
0.1875
 40
0.25
 40
0.3125
 40
0.375
 40
0.4375
 40
0.5
 40
0.5625
 40
0.625
 40
0.6875
 40
0.75
 40
0.78125
 40
0.8125
 40
0.84375
 40
0.875
 40
0.90625
 40
0.921875
 40
0.9375
 40
0.953125
 40
0.96875
 40
0.9765625
 40
0.984375
 40
0.9921875
 40
1.0
 40
1.0078125
 40
1.015625
 40
1.03125
 40
1.046875
 40
1.0625
 40
1.09375
 40
1.125
 40
1.1875
 40
1.25
 40
1.3125
 40
1.375
 40
1.4375
 40
1.5
 40
1.5625
 40
1.625
 40
1.6875
 40
1.71875
 40
1.75
 40
1.78125
 40
1.796875
 40
1.8125
 40
1.828125
 40
1.84375
 40
1.8515625
 40
1.859375
 40
1.86328125
 40
1.8671875
 40
1.87109375
 40
1.873046875
 40
1.875
 40
1.876953125
 40
1.87890625
 40
1.8828125
 40
1.88671875
 40
1.890625
 40
1.8984375
 40
1.90625
 40
1.921875
 40
1.9375
 40
1.953125
 40
1.96875
 40
2.0
 40
2.03125
 40
2.0625
 40
2.125
 40
2.1875
 40
2.25
 40
2.3125
 40
2.375
 40
2.5
 40
2.625
 40
2.75
 40
2.8125
 40
2.875
 40
2.9375
 40
3.0
 40
3.0625
 40
3.09375
 40
3.125
 40
3.15625
 40
3.171875
 40
3.1875
 40
3.203125
 40
3.21875
 40
3.2265625
 40
3.234375
 40
3.2421875
 40
3.24609375
 40
3.248046875
 40
3.25
 40
3.251953125
 40
3.25390625
 40
3.2578125
 40
3.265625
 40
3.2734375
 40
3.28125
 40
3.296875
 40
3.3125
 40
3.328125
 40
3.34375
 40
3.375
 40
3.40625
 40
3.4375
 40
3.5
 40
3.5625
 40
3.625
 40
3.6875
 40
3.75
 40
3.875
 40
4.0
 40
4.0
 40
4.0
 40
4.0
 10
-26.86443520592322
 20
-27.76239886829782
 30
0.0
 10
-26.86392429499326
 20
-27.76203218309855
 30
0.0
 10
-26.86374110466983
 20
-27.76190070581688
 30
0.0
 10
-26.86166738611869
 20
-27.760412380053
 30
0.0
 10
-26.85780779290891
 20
-27.7576423165798
 30
0.0
 10
-26.85079300478394
 20
-27.75260774238994
 30
0.0
 10
-26.83836022978017
 20
-27.74368463209386
 30
0.0
 10
-26.81100067736404
 20
-27.72404844437331
 30
0.0
 10
-26.76324210590363
 20
-27.68977170401594
 30
0.0
 10
-26.68579935765468
 20
-27.63419037289305
 30
0.0
 10
-26.58976945683595
 20
-27.56526888139399
 30
0.0
 10
-26.43901313793505
 20
-27.45706976567086
 30
0.0
 10
-26.21184597879076
 20
-27.29402992813734
 30
0.0
 10
-25.8896816881152
 20
-27.06280982656668
 30
0.0
 10
-25.53034458339162
 20
-26.80491047441289
 30
0.0
 10
-25.1462256122975
 20
-26.52922496213781
 30
0.0
 10
-24.74971570589032
 20
-26.24464636827489
 30
0.0
 10
-24.35320579968446
 20
-25.96006777455662
 30
0.0
 10
-23.96908682798664
 20
-25.68438226184765
 30
0.0
 10
-23.60974972547737
 20
-25.42648291128495
 30
0.0
 10
-23.34127947637093
 20
-25.23379948836767
 30
0.0
 10
-23.15128514646123
 20
-25.09743891232889
 30
0.0
 10
-23.02272919978073
 20
-25.0051731959804
 30
0.0
 10
-22.90966192375483
 20
-24.92402383288106
 30
0.0
 10
-22.81363217363613
 20
-24.85510244901477
 30
0.0
 10
-22.74909607847188
 20
-24.80878433622596
 30
0.0
 10
-22.70753477311002
 20
-24.77895542408505
 30
0.0
 10
-22.68159139328385
 20
-24.76033564588083
 30
0.0
 10
-22.66106838442305
 20
-24.74560606644535
 30
0.0
 10
-22.64864681053107
 20
-24.73669111424255
 30
0.0
 10
-22.64160905223543
 20
-24.73163981157042
 30
0.0
 10
-22.63781963163709
 20
-24.72892085242802
 30
0.0
 10
-22.6354824502705
 20
-24.72724065570397
 30
0.0
 10
-22.63485020225109
 20
-24.72679727064787
 30
0.0
 10
-22.62982455497199
 20
-24.72315065612673
 30
0.0
 10
-22.62291940971123
 20
-24.71798937789588
 30
0.0
 10
-22.61453800577499
 20
-24.71147296575158
 30
0.0
 10
-22.60468469736919
 20
-24.70340083575289
 30
0.0
 10
-22.5918931817777
 20
-24.69236488024188
 30
0.0
 10
-22.57652648898901
 20
-24.67804838125241
 30
0.0
 10
-22.55330405969792
 20
-24.65410779331846
 30
0.0
 10
-22.52686514275432
 20
-24.62236572221952
 30
0.0
 10
-22.49937475939372
 20
-24.58177194552223
 30
0.0
 10
-22.47618476812993
 20
-24.5390606688561
 30
0.0
 10
-22.45734423696434
 20
-24.49459971696032
 30
0.0
 10
-22.44289528324867
 20
-24.44873890604225
 30
0.0
 10
-22.43288102873848
 20
-24.40181392485975
 30
0.0
 10
-22.42735075527463
 20
-24.35415203171936
 30
0.0
 10
-22.42636250015741
 20
-24.3060791007202
 30
0.0
 10
-22.42937948704344
 20
-24.26595217755881
 30
0.0
 10
-22.43413333550126
 20
-24.23398371486066
 30
0.0
 10
-22.43887787474969
 20
-24.21011900382963
 30
0.0
 10
-22.44382154017465
 20
-24.1903632205403
 30
0.0
 10
-22.44837446822834
 20
-24.17466128267696
 30
0.0
 10
-22.45208905343971
 20
-24.1629423523543
 30
0.0
 10
-22.45610453488803
 20
-24.15128681406307
 30
0.0
 10
-22.45970175240018
 20
-24.14163286132252
 30
0.0
 10
-22.46273141680673
 20
-24.13394614889241
 30
0.0
 10
-22.46468629228327
 20
-24.12916232089271
 30
0.0
 10
-22.46629195838707
 20
-24.1253368608769
 30
0.0
 10
-22.46750445424334
 20
-24.12249694622767
 30
0.0
 10
-22.46856467026912
 20
-24.12005876060011
 30
0.0
 10
-22.46934603287199
 20
-24.11828154996978
 30
0.0
 10
-22.47014524781604
 20
-24.11648385714461
 30
0.0
 10
-22.47015353252738
 20
-24.11646691991755
 30
0.0
 10
-22.47044145603715
 20
-24.1158225908524
 30
0.0
 10
-22.47070740999028
 20
-24.11523101635642
 30
0.0
 10
-22.47106855647428
 20
-24.11443048888197
 30
0.0
 10
-22.47153778362972
 20
-24.11339596146662
 30
0.0
 10
-22.47213268336552
 20
-24.1120936418325
 30
0.0
 10
-22.47308927130956
 20
-24.11001981009008
 30
0.0
 10
-22.47429987339803
 20
-24.10743252509077
 30
0.0
 10
-22.47577432304502
 20
-24.10434011390846
 30
0.0
 10
-22.47727083686934
 20
-24.10125896833383
 30
0.0
 10
-22.479295206495
 20
-24.09716629680106
 30
0.0
 10
-22.48187974962524
 20
-24.09207955890799
 30
0.0
 10
-22.48506642578037
 20
-24.08602268091903
 30
0.0
 10
-22.48942732178455
 20
-24.07801055393468
 30
0.0
 10
-22.49508540964096
 20
-24.06811634677089
 30
0.0
 10
-22.50219710060408
 20
-24.0564416640476
 30
0.0
 10
-22.50962219601316
 20
-24.04497034855588
 30
0.0
 10
-22.51735262707804
 20
-24.03370757976407
 30
0.0
 10
-22.52805692474007
 20
-24.01897583825978
 30
0.0
 10
-22.54216379217338
 20
-24.00111002198416
 30
0.0
 10
-22.56020260497364
 20
-23.98059750226725
 30
0.0
 10
-22.57612263203913
 20
-23.96432020845302
 30
0.0
 10
-22.58937144489451
 20
-23.95181785449727
 30
0.0
 10
-22.59956002667603
 20
-23.94270889460838
 30
0.0
 10
-22.60999636089684
 20
-23.93387613720968
 30
0.0
 10
-22.62067651971206
 20
-23.92532848081809
 30
0.0
 10
-22.62977676357601
 20
-23.91845084407274
 30
0.0
 10
-22.63717528149187
 20
-23.91310096569203
 30
0.0
 10
-22.64278292749279
 20
-23.90916597075291
 30
0.0
 10
-22.6475045447843
 20
-23.90595245833184
 30
0.0
 10
-22.65131088308872
 20
-23.90342166807996
 30
0.0
 10
-22.65417985926959
 20
-23.90154391345537
 30
0.0
 10
-22.65706402699288
 20
-23.89968605728352
 30
0.0
 10
-22.65947693213042
 20
-23.89815651062258
 30
0.0
 10
-22.66142002960009
 20
-23.89693983352037
 30
0.0
 10
-22.66286553602778
 20
-23.89604187161031
 30
0.0
 10
-22.66412201877286
 20
-23.89526824200849
 30
0.0
 10
-22.66490709231669
 20
-23.89478726847707
 30
0.0
 10
-22.66550607505547
 20
-23.89442210702308
 30
0.0
 10
-22.66553319135825
 20
-23.89440485292315
 30
0.0
 10
-22.66717493678225
 20
-23.89340826928282
 30
0.0
 10
-22.66880419547676
 20
-23.89242815684051
 30
0.0
 10
-22.67192462966892
 20
-23.89056782580833
 30
0.0
 10
-22.67626561379762
 20
-23.88803582819444
 30
0.0
 10
-22.68156508550339
 20
-23.88502904829287
 30
0.0
 10
-22.68865178794622
 20
-23.88112248595766
 30
0.0
 10
-22.69759269112413
 20
-23.87640395845649
 30
0.0
 10
-22.70843384302434
 20
-23.87101465375036
 30
0.0
 10
-22.71938524434584
 20
-23.86589666119761
 30
0.0
 10
-22.73412533573426
 20
-23.85943616426873
 30
0.0
 10
-22.75279645920979
 20
-23.85204339067935
 30
0.0
 10
-22.77555194150509
 20
-23.84426998876808
 30
0.0
 10
-22.80630305736207
 20
-23.83537642404236
 30
0.0
 10
-22.84540721536291
 20
-23.82703118891055
 30
0.0
 10
-22.89306907677476
 20
-23.82150085601322
 30
0.0
 10
-22.94114195698752
 20
-23.82051249464712
 30
0.0
 10
-22.98929441547663
 20
-23.82413291837544
 30
0.0
 10
-23.05314189656531
 20
-23.83520009408344
 30
0.0
 10
-23.13138799044911
 20
-23.86092033434569
 30
0.0
 10
-23.1901950001608
 20
-23.89446794840522
 30
0.0
 10
-23.21807427341828
 20
-23.9144771353131
 30
0.0
  0
SPLINE
  5
10000056
102
{ACAD_XDICTIONARY
360
10000057
102
}
330
1F
100
AcDbEntity
  8
VISIBLE
100
AcDbSpline
210
0.0
220
0.0
230
1.0
 70
     8
 71
     3
 72
   129
 73
   125
 74
     0
 42
0.000000001
 43
0.00000001
 40
4.0
 40
4.0
 40
4.0
 40
4.0
 40
4.0078125
 40
4.015625
 40
4.0234375
 40
4.03125
 40
4.046875
 40
4.0625
 40
4.09375
 40
4.125
 40
4.15625
 40
4.1875
 40
4.25
 40
4.3125
 40
4.375
 40
4.4375
 40
4.5
 40
4.5625
 40
4.625
 40
4.6875
 40
4.75
 40
4.78125
 40
4.8125
 40
4.84375
 40
4.875
 40
4.90625
 40
4.921875
 40
4.9375
 40
4.953125
 40
4.96875
 40
4.9765625
 40
4.984375
 40
4.9921875
 40
5.0
 40
5.0078125
 40
5.015625
 40
5.03125
 40
5.046875
 40
5.0625
 40
5.09375
 40
5.125
 40
5.1875
 40
5.25
 40
5.3125
 40
5.375
 40
5.4375
 40
5.5
 40
5.5625
 40
5.625
 40
5.6875
 40
5.71875
 40
5.75
 40
5.78125
 40
5.796875
 40
5.8125
 40
5.828125
 40
5.84375
 40
5.8515625
 40
5.859375
 40
5.86328125
 40
5.8671875
 40
5.87109375
 40
5.873046875
 40
5.875
 40
5.876953125
 40
5.87890625
 40
5.8828125
 40
5.88671875
 40
5.890625
 40
5.8984375
 40
5.90625
 40
5.921875
 40
5.9375
 40
5.953125
 40
5.96875
 40
6.0
 40
6.03125
 40
6.0625
 40
6.125
 40
6.1875
 40
6.25
 40
6.3125
 40
6.375
 40
6.5
 40
6.625
 40
6.75
 40
6.8125
 40
6.875
 40
6.9375
 40
7.0
 40
7.0625
 40
7.09375
 40
7.125
 40
7.15625
 40
7.171875
 40
7.1875
 40
7.203125
 40
7.21875
 40
7.2265625
 40
7.234375
 40
7.2421875
 40
7.24609375
 40
7.248046875
 40
7.25
 40
7.251953125
 40
7.25390625
 40
7.2578125
 40
7.265625
 40
7.2734375
 40
7.28125
 40
7.296875
 40
7.3125
 40
7.328125
 40
7.34375
 40
7.375
 40
7.40625
 40
7.4375
 40
7.5
 40
7.5625
 40
7.625
 40
7.6875
 40
7.75
 40
7.875
 40
8.0
 40
8.0
 40
8.0
 40
8.0
 10
-23.2180742734162
 20
-23.91447713531161
 30
0.0
 10
-23.21858518434981
 20
-23.91484382051348
 30
0.0
 10
-23.21876837468125
 20
-23.91497529780099
 30
0.0
 10
-23.22084209321913
 20
-23.91646362355533
 30
0.0
 10
-23.22470168643287
 20
-23.91923368703133
 30
0.0
 10
-23.23171647455682
 20
-23.92426826122043
 30
0.0
 10
-23.24414924956134
 20
-23.93319137151698
 30
0.0
 10
-23.27150880197744
 20
-23.95282755923737
 30
0.0
 10
-23.31926737343807
 20
-23.98710429959484
 30
0.0
 10
-23.39671012168713
 20
-24.04268563071769
 30
0.0
 10
-23.49274002250597
 20
-24.11160712221676
 30
0.0
 10
-23.64349634140695
 20
-24.21980623793986
 30
0.0
 10
-23.87066350055136
 20
-24.38284607547337
 30
0.0
 10
-24.19282779122695
 20
-24.61406617704406
 30
0.0
 10
-24.55216489595053
 20
-24.87196552919787
 30
0.0
 10
-24.93628386704459
 20
-25.14765104147298
 30
0.0
 10
-25.33279377345172
 20
-25.43222963533595
 30
0.0
 10
-25.72930367965747
 20
-25.71680822905428
 30
0.0
 10
-26.11342265135521
 20
-25.99249374176328
 30
0.0
 10
-26.47275975386436
 20
-26.25039309232605
 30
0.0
 10
-26.74123000297073
 20
-26.44307651524331
 30
0.0
 10
-26.93122433288039
 20
-26.57943709128213
 30
0.0
 10
-27.05978027956083
 20
-26.67170280763059
 30
0.0
 10
-27.1728475555867
 20
-26.75285217072997
 30
0.0
 10
-27.26887730570538
 20
-26.82177355459623
 30
0.0
 10
-27.33341340086962
 20
-26.86809166738504
 30
0.0
 10
-27.37497470623148
 20
-26.89792057952593
 30
0.0
 10
-27.4009180860576
 20
-26.91654035773013
 30
0.0
 10
-27.42144109491841
 20
-26.93126993716559
 30
0.0
 10
-27.43386266881032
 20
-26.94018488936833
 30
0.0
 10
-27.44090042710598
 20
-26.94523619204047
 30
0.0
 10
-27.44468984770412
 20
-26.94795515118269
 30
0.0
 10
-27.44702702907109
 20
-26.94963534790703
 30
0.0
 10
-27.44765927708945
 20
-26.95007873296235
 30
0.0
 10
-27.45268492436992
 20
-26.95372534748449
 30
0.0
 10
-27.45959006963017
 20
-26.95888662571501
 30
0.0
 10
-27.46797147356667
 20
-26.96540303785949
 30
0.0
 10
-27.47782478197237
 20
-26.97347516785813
 30
0.0
 10
-27.49061629756383
 20
-26.98451112336913
 30
0.0
 10
-27.50598299035249
 20
-26.99882762235859
 30
0.0
 10
-27.5292054196436
 20
-27.0227682102926
 30
0.0
 10
-27.55564433658711
 20
-27.0545102813915
 30
0.0
 10
-27.58313471994768
 20
-27.09510405808878
 30
0.0
 10
-27.60632471121147
 20
-27.13781533475492
 30
0.0
 10
-27.62516524237704
 20
-27.18227628665064
 30
0.0
 10
-27.63961419609269
 20
-27.22813709756869
 30
0.0
 10
-27.64962845060293
 20
-27.27506207875119
 30
0.0
 10
-27.65515872406679
 20
-27.32272397189153
 30
0.0
 10
-27.65614697918399
 20
-27.37079690289069
 30
0.0
 10
-27.65312999229803
 20
-27.41092382605206
 30
0.0
 10
-27.64837614384023
 20
-27.4428922887502
 30
0.0
 10
-27.64363160459183
 20
-27.46675699978119
 30
0.0
 10
-27.63868793916687
 20
-27.48651278307059
 30
0.0
 10
-27.63413501111321
 20
-27.50221472093385
 30
0.0
 10
-27.63042042590176
 20
-27.51393365125671
 30
0.0
 10
-27.62640494445379
 20
-27.52558918954719
 30
0.0
 10
-27.62280772694065
 20
-27.53524314229002
 30
0.0
 10
-27.61977806253617
 20
-27.54292985471547
 30
0.0
 10
-27.61782318705429
 20
-27.54771368272704
 30
0.0
 10
-27.61621752096146
 20
-27.55153914271851
 30
0.0
 10
-27.61500502507183
 20
-27.55437905744215
 30
0.0
 10
-27.61394480915029
 20
-27.55681724283685
 30
0.0
 10
-27.61316344633484
 20
-27.55859445394226
 30
0.0
 10
-27.61236423203995
 20
-27.56039214531658
 30
0.0
 10
-27.61235594489148
 20
-27.56040908799049
 30
0.0
 10
-27.61206801918914
 20
-27.56105342187028
 30
0.0
 10
-27.61180206209561
 20
-27.56164500315693
 30
0.0
 10
-27.61144091195148
 20
-27.56244553833422
 30
0.0
 10
-27.61097167979569
 20
-27.56348007602288
 30
0.0
 10
-27.61037677370787
 20
-27.56478240822939
 30
0.0
 10
-27.60942017533955
 20
-27.56685625962939
 30
0.0
 10
-27.60820955976676
 20
-27.56944356829187
 30
0.0
 10
-27.60673509324328
 20
-27.57253600644373
 30
0.0
 10
-27.60523856188734
 20
-27.57561717756899
 30
0.0
 10
-27.60321416806263
 20
-27.57970988129583
 30
0.0
 10
-27.60062959323387
 20
-27.58479665595056
 30
0.0
 10
-27.59744287701952
 20
-27.59085357259745
 30
0.0
 10
-27.59308192529978
 20
-27.59886574401498
 30
0.0
 10
-27.5874237642064
 20
-27.6087599937124
 30
0.0
 10
-27.58031198187699
 20
-27.62043470780584
 30
0.0
 10
-27.57288679381544
 20
-27.63190603625336
 30
0.0
 10
-27.56515627094583
 20
-27.64316880093328
 30
0.0
 10
-27.55445185476923
 20
-27.6579005161074
 30
0.0
 10
-27.54034485156443
 20
-27.67576626409809
 30
0.0
 10
-27.52230591123093
 20
-27.69627865803123
 30
0.0
 10
-27.50638581980289
 20
-27.71255582195888
 30
0.0
 10
-27.49313698773033
 20
-27.72505806439085
 30
0.0
 10
-27.48294840937908
 20
-27.73416693881123
 30
0.0
 10
-27.47251209809711
 20
-27.74299961096195
 30
0.0
 10
-27.46183198332809
 20
-27.7515471844704
 30
0.0
 10
-27.4527317950288
 20
-27.75842475598601
 30
0.0
 10
-27.44533333359276
 20
-27.76377458566457
 30
0.0
 10
-27.43972573613204
 20
-27.76770954612434
 30
0.0
 10
-27.43500416457453
 20
-27.77092303177832
 30
0.0
 10
-27.43119786610255
 20
-27.77345380195661
 30
0.0
 10
-27.42832892143716
 20
-27.7753315422353
 30
0.0
 10
-27.42544478688474
 20
-27.77718938481807
 30
0.0
 10
-27.4230319107924
 20
-27.77871892080016
 30
0.0
 10
-27.42108883738731
 20
-27.77993558981241
 30
0.0
 10
-27.41964334947808
 20
-27.78083354577275
 30
0.0
 10
-27.41838688237546
 20
-27.78160717090625
 30
0.0
 10
-27.41760182025291
 20
-27.78208814080612
 30
0.0
 10
-27.41700284365048
 20
-27.78245330115356
 30
0.0
 10
-27.41697573322657
 20
-27.7824705517895
 30
0.0
 10
-27.41533398893112
 20
-27.78346714210366
 30
0.0
 10
-27.41370473338749
 20
-27.78444725988798
 30
0.0
 10
-27.41058430391573
 20
-27.78630760187557
 30
0.0
 10
-27.40624332686783
 20
-27.78883961415286
 30
0.0
 10
-27.40094386337903
 20
-27.79184641181087
 30
0.0
 10
-27.39385717180656
 20
-27.79575299740237
 30
0.0
 10
-27.38491628191838
 20
-27.80047155345266
 30
0.0
 10
-27.37407514552311
 20
-27.80586089142863
 30
0.0
 10
-27.36312375925099
 20
-27.81097891622528
 30
0.0
 10
-27.34838368733023
 20
-27.8174394546953
 30
0.0
 10
-27.32971258708494
 20
-27.82483227736562
 30
0.0
 10
-27.30695713101472
 20
-27.83260573327473
 30
0.0
 10
-27.27620604815052
 20
-27.84149936313816
 30
0.0
 10
-27.23710192819686
 20
-27.8498446663831
 30
0.0
 10
-27.18944010925057
 20
-27.85537505951514
 30
0.0
 10
-27.14136727029522
 20
-27.85636346091363
 30
0.0
 10
-27.09321485360477
 20
-27.85274305968721
 30
0.0
 10
-27.02936743033359
 20
-27.84167589600862
 30
0.0
 10
-26.95112141391376
 20
-27.81595564962305
 30
0.0
 10
-26.89231446055948
 20
-27.78240804184109
 30
0.0
 10
-26.86443520592322
 20
-27.76239886829782
 30
0.0
  0
SPLINE
  5
10000059
102
{ACAD_XDICTIONARY
360
1000005A
102
}
330
1F
100
AcDbEntity
  8
VISIBLE
100
AcDbSpline
210
0.0
220
0.0
230
1.0
 70
     8
 71
     3
 72
   131
 73
   127
 74
     0
 42
0.000000001
 43
0.00000001
 40
0.0
 40
0.0
 40
0.0
 40
0.0
 40
0.0078125
 40
0.015625
 40
0.0234375
 40
0.03125
 40
0.046875
 40
0.0625
 40
0.09375
 40
0.125
 40
0.15625
 40
0.1875
 40
0.25
 40
0.3125
 40
0.375
 40
0.4375
 40
0.5
 40
0.5625
 40
0.625
 40
0.6875
 40
0.75
 40
0.78125
 40
0.8125
 40
0.84375
 40
0.875
 40
0.90625
 40
0.921875
 40
0.9375
 40
0.953125
 40
0.96875
 40
0.9765625
 40
0.984375
 40
0.9921875
 40
1.0
 40
1.0078125
 40
1.015625
 40
1.0234375
 40
1.03125
 40
1.046875
 40
1.0625
 40
1.09375
 40
1.125
 40
1.15625
 40
1.1875
 40
1.25
 40
1.3125
 40
1.375
 40
1.4375
 40
1.5
 40
1.5625
 40
1.625
 40
1.6875
 40
1.71875
 40
1.75
 40
1.78125
 40
1.796875
 40
1.8125
 40
1.828125
 40
1.84375
 40
1.8515625
 40
1.859375
 40
1.86328125
 40
1.8671875
 40
1.87109375
 40
1.873046875
 40
1.875
 40
1.876953125
 40
1.87890625
 40
1.8828125
 40
1.88671875
 40
1.890625
 40
1.8984375
 40
1.90625
 40
1.921875
 40
1.9375
 40
1.953125
 40
1.96875
 40
2.0
 40
2.03125
 40
2.0625
 40
2.125
 40
2.1875
 40
2.25
 40
2.3125
 40
2.375
 40
2.5
 40
2.625
 40
2.75
 40
2.8125
 40
2.875
 40
2.9375
 40
3.0
 40
3.0625
 40
3.09375
 40
3.125
 40
3.15625
 40
3.171875
 40
3.1875
 40
3.203125
 40
3.21875
 40
3.2265625
 40
3.234375
 40
3.2421875
 40
3.24609375
 40
3.248046875
 40
3.25
 40
3.251953125
 40
3.25390625
 40
3.2578125
 40
3.265625
 40
3.2734375
 40
3.28125
 40
3.296875
 40
3.3125
 40
3.328125
 40
3.34375
 40
3.375
 40
3.40625
 40
3.4375
 40
3.5
 40
3.5625
 40
3.625
 40
3.6875
 40
3.75
 40
3.875
 40
4.0
 40
4.0
 40
4.0
 40
4.0
 10
-31.70627744541484
 20
-35.73809292421454
 30
0.0
 10
-31.70608914070375
 20
-35.73762102789492
 30
0.0
 10
-31.70602162286745
 20
-35.737451826507
 30
0.0
 10
-31.70525731945071
 20
-35.73553646301296
 30
0.0
 10
-31.70383480225937
 20
-35.73197159932381
 30
0.0
 10
-31.70124938557115
 20
-35.72549248038624
 30
0.0
 10
-31.69666707981853
 20
-35.71400910746799
 30
0.0
 10
-31.68658326229728
 20
-35.68873880834614
 30
0.0
 10
-31.66898104745269
 20
-35.64462721733448
 30
0.0
 10
-31.6404382361594
 20
-35.57309821776196
 30
0.0
 10
-31.60504482102949
 20
-35.48440143349318
 30
0.0
 10
-31.54948107543751
 20
-35.34515729619102
 30
0.0
 10
-31.46575484538918
 20
-35.13533726788935
 30
0.0
 10
-31.34701584448758
 20
-34.83777435940377
 30
0.0
 10
-31.21457618547927
 20
-34.50587725875322
 30
0.0
 10
-31.07300275796065
 20
-34.15109070558302
 30
0.0
 10
-30.92686244540275
 20
-33.78485942418767
 30
0.0
 10
-30.78072213291891
 20
-33.41862814297822
 30
0.0
 10
-30.63914870517834
 20
-33.06384158925027
 30
0.0
 10
-30.50670904698464
 20
-32.73194449064488
 30
0.0
 10
-30.40775987703732
 20
-32.48397539388784
 30
0.0
 10
-30.33773431068289
 20
-32.30848957177861
 30
0.0
 10
-30.29035288108189
 20
-32.18975052308348
 30
0.0
 10
-30.24868005818783
 20
-32.08531738608151
 30
0.0
 10
-30.21328669904335
 20
-31.99662074096314
 30
0.0
 10
-30.18950084776561
 20
-31.93701280583923
 30
0.0
 10
-30.17418274109153
 20
-31.89862523978469
 30
0.0
 10
-30.16462086893699
 20
-31.87466297108646
 30
0.0
 10
-30.15705680526724
 20
-31.85570715457841
 30
0.0
 10
-30.15247852780866
 20
-31.84423413681044
 30
0.0
 10
-30.14988484913874
 20
-31.83773378262629
 30
0.0
 10
-30.14848757207142
 20
-31.83423379142986
 30
0.0
 10
-30.14762850464663
 20
-31.83207486440279
 30
0.0
 10
-30.14738674392863
 20
-31.83149171610794
 30
0.0
 10
-30.14510268409709
 20
-31.82568102583078
 30
0.0
 10
-30.14282486421244
 20
-31.81963449589706
 30
0.0
 10
-30.1406490083175
 20
-31.81363205146398
 30
0.0
 10
-30.1378495932699
 20
-31.8055895803678
 30
0.0
 10
-30.13455636454052
 20
-31.79551068328338
 30
0.0
 10
-30.12971849191067
 20
-31.77931930128024
 30
0.0
 10
-30.12447926392847
 20
-31.75898321121615
 30
0.0
 10
-30.11947101905757
 20
-31.73447423935463
 30
0.0
 10
-30.11572666041117
 20
-31.70991106529236
 30
0.0
 10
-30.1123968894013
 20
-31.67715308391667
 30
0.0
 10
-30.11130771777768
 20
-31.63631217820132
 30
0.0
 10
-30.11476481467622
 20
-31.58783465186581
 30
0.0
 10
-30.12282905053464
 20
-31.54022466245258
 30
0.0
 10
-30.13534763106383
 20
-31.4937997663747
 30
0.0
 10
-30.15217612721241
 20
-31.44886602481105
 30
0.0
 10
-30.17317986354777
 20
-31.40572574884625
 30
0.0
 10
-30.19823228087915
 20
-31.36468478920502
 30
0.0
 10
-30.22238116177098
 20
-31.33249621365634
 30
0.0
 10
-30.24360064650492
 20
-31.30811762225618
 30
0.0
 10
-30.26044877066884
 20
-31.2905626747003
 30
0.0
 10
-30.27525221210481
 20
-31.27657735221437
 30
0.0
 10
-30.2875435773956
 20
-31.26579762214071
 30
0.0
 10
-30.29698383155269
 20
-31.2579227750572
 30
0.0
 10
-30.30664350432818
 20
-31.25026336628812
 30
0.0
 10
-30.31487295762681
 20
-31.24406538322414
 30
0.0
 10
-30.32156488521757
 20
-31.23921949837998
 30
0.0
 10
-30.32578805766172
 20
-31.23624100954463
 30
0.0
 10
-30.32920092697019
 20
-31.23388205796891
 30
0.0
 10
-30.3317518154511
 20
-31.23214187350643
 30
0.0
 10
-30.33395807048412
 20
-31.23065821110822
 30
0.0
 10
-30.33557344197825
 20
-31.22958137009082
 30
0.0
 10
-30.33721488431687
 20
-31.22849688333039
 30
0.0
 10
-30.3372309891996
 20
-31.22848706962991
 30
0.0
 10
-30.33782055643384
 20
-31.2280991564169
 30
0.0
 10
-30.33836320623043
 20
-31.22774386643992
 30
0.0
 10
-30.33909858345188
 20
-31.22726375843348
 30
0.0
 10
-30.3400510362684
 20
-31.22664466550141
 30
0.0
 10
-30.34125358418833
 20
-31.22586758515668
 30
0.0
 10
-30.34317634229836
 20
-31.22463513890991
 30
0.0
 10
-30.34558962294525
 20
-31.2231068043682
 30
0.0
 10
-30.34849722846775
 20
-31.221294893793
 30
0.0
 10
-30.35141736029084
 20
-31.21950435795281
 30
0.0
 10
-30.35532696298487
 20
-31.21714568331273
 30
0.0
 10
-30.36024386769813
 20
-31.21425098555401
 30
0.0
 10
-30.36619054807971
 20
-31.21086302160998
 30
0.0
 10
-30.37417952138731
 20
-31.20645973158075
 30
0.0
 10
-30.3842750105832
 20
-31.2011689920717
 30
0.0
 10
-30.39655410360715
 20
-31.19516064744708
 30
0.0
 10
-30.40898777789221
 20
-31.18949243800076
 30
0.0
 10
-30.42156644456538
 20
-31.18416438203972
 30
0.0
 10
-30.43851895866065
 20
-31.17751451264929
 30
0.0
 10
-30.4600262280997
 20
-31.17005588104143
 30
0.0
 10
-30.48627188469761
 20
-31.16248422148427
 30
0.0
 10
-30.50845160652426
 20
-31.15734049288148
 30
0.0
 10
-30.52634775001776
 20
-31.15393936519854
 30
0.0
 10
-30.53983797023677
 20
-31.15174985958904
 30
0.0
 10
-30.55338822567608
 20
-31.14992649604815
 30
0.0
 10
-30.5669904148652
 20
-31.14847465629999
 30
0.0
 10
-30.57836204484178
 20
-31.14757933016577
 30
0.0
 10
-30.58747707840261
 20
-31.1470550539993
 30
0.0
 10
-30.59432117896543
 20
-31.14675871562477
 30
0.0
 10
-30.60003017924874
 20
-31.14659324243892
 30
0.0
 10
-30.60460030361275
 20
-31.14651022424127
 30
0.0
 10
-30.60802892961005
 20
-31.14647275589815
 30
0.0
 10
-30.61145964165777
 20
-31.14646023420768
 30
0.0
 10
-30.61431646443637
 20
-31.14647060714037
 30
0.0
 10
-30.61660893806884
 20
-31.1464916480116
 30
0.0
 10
-30.61831050335223
 20
-31.1465133228101
 30
0.0
 10
-30.61978584121042
 20
-31.14653798500722
 30
0.0
 10
-30.62070636371844
 20
-31.14655542044221
 30
0.0
 10
-30.62140771944602
 20
-31.14657024315746
 30
0.0
 10
-30.62143985593815
 20
-31.14657030485261
 30
0.0
 10
-30.62335989806922
 20
-31.14661454193738
 30
0.0
 10
-30.62526054779647
 20
-31.14666593497017
 30
0.0
 10
-30.62889170309296
 20
-31.14677854497437
 30
0.0
 10
-30.63391302281891
 20
-31.14698238861874
 30
0.0
 10
-30.63999766555937
 20
-31.14730226164924
 30
0.0
 10
-30.6480728189033
 20
-31.14782628039926
 30
0.0
 10
-30.65814762892644
 20
-31.14866450562645
 30
0.0
 10
-30.67018487349562
 20
-31.14996070562696
 30
0.0
 10
-30.68216892829747
 20
-31.15154489416616
 30
0.0
 10
-30.69806841408031
 20
-31.15403787376821
 30
0.0
 10
-30.71778238286803
 20
-31.15786197171017
 30
0.0
 10
-30.74114299290418
 20
-31.16356459876902
 30
0.0
 10
-30.77184429362621
 20
-31.1726286490442
 30
0.0
 10
-30.80928903278281
 20
-31.18665253766306
 30
0.0
 10
-30.85242920149558
 20
-31.20765640074304
 30
0.0
 10
-30.89347003105616
 20
-31.23270888627984
 30
0.0
 10
-30.93209626028631
 20
-31.26168781920206
 30
0.0
 10
-30.97993812005389
 20
-31.30539289945696
 30
0.0
 10
-31.03202288932698
 20
-31.3691984399422
 30
0.0
 10
-31.06351263730705
 20
-31.42913250275274
 30
0.0
 10
-31.07623102107659
 20
-31.46100507894632
 30
0.0
  0
SPLINE
  5
1000005C
102
{ACAD_XDICTIONARY
360
1000005D
102
}
330
1F
100
AcDbEntity
  8
VISIBLE
100
AcDbSpline
210
0.0
220
0.0
230
1.0
 70
     8
 71
     3
 72
   131
 73
   127
 74
     0
 42
0.000000001
 43
0.00000001
 40
4.0
 40
4.0
 40
4.0
 40
4.0
 40
4.0078125
 40
4.015625
 40
4.0234375
 40
4.03125
 40
4.046875
 40
4.0625
 40
4.09375
 40
4.125
 40
4.15625
 40
4.1875
 40
4.25
 40
4.3125
 40
4.375
 40
4.4375
 40
4.5
 40
4.5625
 40
4.625
 40
4.6875
 40
4.75
 40
4.78125
 40
4.8125
 40
4.84375
 40
4.875
 40
4.90625
 40
4.921875
 40
4.9375
 40
4.953125
 40
4.96875
 40
4.9765625
 40
4.984375
 40
4.9921875
 40
5.0
 40
5.0078125
 40
5.015625
 40
5.0234375
 40
5.03125
 40
5.046875
 40
5.0625
 40
5.09375
 40
5.125
 40
5.15625
 40
5.1875
 40
5.25
 40
5.3125
 40
5.375
 40
5.4375
 40
5.5
 40
5.5625
 40
5.625
 40
5.6875
 40
5.71875
 40
5.75
 40
5.78125
 40
5.796875
 40
5.8125
 40
5.828125
 40
5.84375
 40
5.8515625
 40
5.859375
 40
5.86328125
 40
5.8671875
 40
5.87109375
 40
5.873046875
 40
5.875
 40
5.876953125
 40
5.87890625
 40
5.8828125
 40
5.88671875
 40
5.890625
 40
5.8984375
 40
5.90625
 40
5.921875
 40
5.9375
 40
5.953125
 40
5.96875
 40
6.0
 40
6.03125
 40
6.0625
 40
6.125
 40
6.1875
 40
6.25
 40
6.3125
 40
6.375
 40
6.5
 40
6.625
 40
6.75
 40
6.8125
 40
6.875
 40
6.9375
 40
7.0
 40
7.0625
 40
7.09375
 40
7.125
 40
7.15625
 40
7.171875
 40
7.1875
 40
7.203125
 40
7.21875
 40
7.2265625
 40
7.234375
 40
7.2421875
 40
7.24609375
 40
7.248046875
 40
7.25
 40
7.251953125
 40
7.25390625
 40
7.2578125
 40
7.265625
 40
7.2734375
 40
7.28125
 40
7.296875
 40
7.3125
 40
7.328125
 40
7.34375
 40
7.375
 40
7.40625
 40
7.4375
 40
7.5
 40
7.5625
 40
7.625
 40
7.6875
 40
7.75
 40
7.875
 40
8.0
 40
8.0
 40
8.0
 40
8.0
 10
-31.07623101600612
 20
-31.46100506623958
 30
0.0
 10
-31.07641932083748
 20
-31.46147696267851
 30
0.0
 10
-31.0764868387239
 20
-31.4616461641267
 30
0.0
 10
-31.07725114263018
 20
-31.46356152810925
 30
0.0
 10
-31.07867366073368
 20
-31.46712639271025
 30
0.0
 10
-31.08125907908013
 20
-31.47360551330578
 30
0.0
 10
-31.08584138777213
 20
-31.48508888916339
 30
0.0
 10
-31.09592521176191
 20
-31.51035919475387
 30
0.0
 10
-31.11352743789822
 20
-31.55447079705738
 30
0.0
 10
-31.14207026750167
 20
-31.6259998149403
 30
0.0
 10
-31.17746370533654
 20
-31.71469662191421
 30
0.0
 10
-31.23302748657282
 20
-31.85394079486087
 30
0.0
 10
-31.31675377033197
 20
-32.06376087687357
 30
0.0
 10
-31.43549284740536
 20
-32.36132386153104
 30
0.0
 10
-31.56793259137466
 20
-32.69322104714252
 30
0.0
 10
-31.70950610971366
 20
-33.04800769113302
 30
0.0
 10
-31.85564651602171
 20
-33.41423906627836
 30
0.0
 10
-32.00178692225569
 20
-33.78047044123773
 30
0.0
 10
-32.1433604408168
 20
-34.13525708578597
 30
0.0
 10
-32.2758001839716
 20
-34.46715426935216
 30
0.0
 10
-32.37474941739568
 20
-34.71512342958584
 30
0.0
 10
-32.444775028672
 20
-34.89060929661662
 30
0.0
 10
-32.49215648866891
 20
-35.00934837570808
 30
0.0
 10
-32.53382933829508
 20
-35.11378153944003
 30
0.0
 10
-32.56922272014972
 20
-35.20247820727607
 30
0.0
 10
-32.59300858667061
 20
-35.26208615761943
 30
0.0
 10
-32.60832670320332
 20
-35.30047373358074
 30
0.0
 10
-32.61788858139437
 20
-35.32443600816834
 30
0.0
 10
-32.62545265028257
 20
-35.34339183044715
 30
0.0
 10
-32.63003092953915
 20
-35.35486484829472
 30
0.0
 10
-32.63262461219574
 20
-35.36136520996983
 30
0.0
 10
-32.63402188306596
 20
-35.36486518426768
 30
0.0
 10
-32.63488097767376
 20
-35.36702417865574
 30
0.0
 10
-32.63512263911407
 20
-35.3676070776646
 30
0.0
 10
-32.63740672989896
 20
-35.37341781704257
 30
0.0
 10
-32.63968454980871
 20
-35.37946432103249
 30
0.0
 10
-32.64186041306547
 20
-35.3854667600969
 30
0.0
 10
-32.64465983412975
 20
-35.39350921747611
 30
0.0
 10
-32.64795306952386
 20
-35.40358810069859
 30
0.0
 10
-32.65279094846155
 20
-35.41977946081408
 30
0.0
 10
-32.65803017751444
 20
-35.44011552665958
 30
0.0
 10
-32.6630384130353
 20
-35.46462447234774
 30
0.0
 10
-32.6667827525998
 20
-35.48918762229512
 30
0.0
 10
-32.6701124863916
 20
-35.52194557292658
 30
0.0
 10
-32.67120159194888
 20
-35.56278644082672
 30
0.0
 10
-32.66774439325504
 20
-35.61126391816649
 30
0.0
 10
-32.65968004200334
 20
-35.65887385274947
 30
0.0
 10
-32.64716134086618
 20
-35.70529868782288
 30
0.0
 10
-32.6303327263721
 20
-35.75023236333492
 30
0.0
 10
-32.60932888029595
 20
-35.79337257037712
 30
0.0
 10
-32.58427636689657
 20
-35.83441346110396
 30
0.0
 10
-32.5601274204303
 20
-35.86660198196264
 30
0.0
 10
-32.53890789302023
 20
-35.89098053291993
 30
0.0
 10
-32.52205974185786
 20
-35.90853545218771
 30
0.0
 10
-32.50725628213799
 20
-35.92252075310314
 30
0.0
 10
-32.49496490472393
 20
-35.93330046727551
 30
0.0
 10
-32.48552464271167
 20
-35.94117530314234
 30
0.0
 10
-32.47586496329962
 20
-35.94883470143238
 30
0.0
 10
-32.46763550546842
 20
-35.95503267639702
 30
0.0
 10
-32.46094357483268
 20
-35.95987855515114
 30
0.0
 10
-32.4567204007332
 20
-35.96285704034158
 30
0.0
 10
-32.45330753022545
 20
-35.96521598910407
 30
0.0
 10
-32.45075664096308
 20
-35.9669561714945
 30
0.0
 10
-32.44855038518639
 20
-35.9684398322437
 30
0.0
 10
-32.44693501347044
 20
-35.96951667188475
 30
0.0
 10
-32.44529357005826
 20
-35.9706011578492
 30
0.0
 10
-32.44527746764813
 20
-35.97061096991113
 30
0.0
 10
-32.44468790247366
 20
-35.97099888124647
 30
0.0
 10
-32.44414525567893
 20
-35.97135416879335
 30
0.0
 10
-32.44340988188168
 20
-35.97183427395746
 30
0.0
 10
-32.44245743369891
 20
-35.97245336312461
 30
0.0
 10
-32.44125489155808
 20
-35.97323043884315
 30
0.0
 10
-32.43933214272386
 20
-35.97446287784373
 30
0.0
 10
-32.43691887369718
 20
-35.97599120362359
 30
0.0
 10
-32.43401128216068
 20
-35.97780310414912
 30
0.0
 10
-32.43109116435563
 20
-35.97959363039749
 30
0.0
 10
-32.42718158038645
 20
-35.98195229284934
 30
0.0
 10
-32.42226469912492
 20
-35.98484697648082
 30
0.0
 10
-32.41631804690436
 20
-35.98823492518606
 30
0.0
 10
-32.40832911110049
 20
-35.99263819710119
 30
0.0
 10
-32.39823366857533
 20
-35.99792891794784
 30
0.0
 10
-32.38595463084662
 20
-36.00393724604672
 30
0.0
 10
-32.37352101080278
 20
-36.00960544432806
 30
0.0
 10
-32.36094239699885
 20
-36.01493349397104
 30
0.0
 10
-32.34398995117598
 20
-36.02158336070851
 30
0.0
 10
-32.32248276222463
 20
-36.02904199851982
 30
0.0
 10
-32.2962371924885
 20
-36.03661367655736
 30
0.0
 10
-32.27405753354245
 20
-36.04175742623066
 30
0.0
 10
-32.25616143394437
 20
-36.04515857202961
 30
0.0
 10
-32.24267124329532
 20
-36.04734809131324
 30
0.0
 10
-32.22912101394256
 20
-36.04917146806947
 30
0.0
 10
-32.21551884724859
 20
-36.05062332002277
 30
0.0
 10
-32.20414723295568
 20
-36.05151865502328
 30
0.0
 10
-32.19503221007803
 20
-36.05204293722033
 30
0.0
 10
-32.18818811659244
 20
-36.05233927951639
 30
0.0
 10
-32.18247912142636
 20
-36.05250475541052
 30
0.0
 10
-32.17790900068823
 20
-36.05258777540395
 30
0.0
 10
-32.17448037717725
 20
-36.05262524489969
 30
0.0
 10
-32.17104966738133
 20
-36.05263776753982
 30
0.0
 10
-32.1681928462904
 20
-36.0526273952221
 30
0.0
 10
-32.16590037388171
 20
-36.0526063547327
 30
0.0
 10
-32.16419880948769
 20
-36.05258468016425
 30
0.0
 10
-32.1627234722294
 20
-36.05256001811146
 30
0.0
 10
-32.16180295029918
 20
-36.05254258275128
 30
0.0
 10
-32.16110159460888
 20
-36.05252776007251
 30
0.0
 10
-32.16106945894615
 20
-36.05252769839797
 30
0.0
 10
-32.15914941456331
 20
-36.05248346134175
 30
0.0
 10
-32.15724876289865
 20
-36.05243206835059
 30
0.0
 10
-32.15361760369165
 20
-36.05231945843349
 30
0.0
 10
-32.14859627858243
 20
-36.05211561495273
 30
0.0
 10
-32.14251162917648
 20
-36.05179574218457
 30
0.0
 10
-32.13443646685846
 20
-36.05127172387544
 30
0.0
 10
-32.12436164536638
 20
-36.05043349937556
 30
0.0
 10
-32.11232438665299
 20
-36.04913730054358
 30
0.0
 10
-32.10034031731127
 20
-36.04755311347812
 30
0.0
 10
-32.08444081160776
 20
-36.04506013625419
 30
0.0
 10
-32.06472681689986
 20
-36.04123604206361
 30
0.0
 10
-32.04136617408496
 20
-36.03553342071177
 30
0.0
 10
-32.0106648273967
 20
-36.02646937950933
 30
0.0
 10
-31.97322002653301
 20
-36.01244550459781
 30
0.0
 10
-31.93007977740716
 20
-35.9914416598706
 30
0.0
 10
-31.88903886224088
 20
-35.96638919201737
 30
0.0
 10
-31.85041254423364
 20
-35.93741027305431
 30
0.0
 10
-31.80257056607195
 20
-35.89370520214689
 30
0.0
 10
-31.75048565866614
 20
-35.82989964760777
 30
0.0
 10
-31.71899584271594
 20
-35.7699655343185
 30
0.0
 10
-31.70627744541484
 20
-35.73809292421454
 30
0.0
  0
SPLINE
  5
1000005F
102
{ACAD_XDICTIONARY
360
10000060
102
}
330
1F
100
AcDbEntity
  8
VISIBLE
100
AcDbSpline
210
0.0
220
0.0
230
1.0
 70
     8
 71
     3
 72
   128
 73
   124
 74
     0
 42
0.000000001
 43
0.00000001
 40
0.0
 40
0.0
 40
0.0
 40
0.0
 40
0.015625
 40
0.03125
 40
0.046875
 40
0.0625
 40
0.09375
 40
0.125
 40
0.15625
 40
0.1875
 40
0.25
 40
0.3125
 40
0.375
 40
0.4375
 40
0.5
 40
0.5625
 40
0.625
 40
0.6875
 40
0.75
 40
0.8125
 40
0.84375
 40
0.875
 40
0.90625
 40
0.921875
 40
0.9375
 40
0.953125
 40
0.96875
 40
0.9765625
 40
0.984375
 40
0.9921875
 40
1.0
 40
1.0078125
 40
1.015625
 40
1.0234375
 40
1.03125
 40
1.046875
 40
1.0625
 40
1.09375
 40
1.125
 40
1.15625
 40
1.1875
 40
1.25
 40
1.3125
 40
1.375
 40
1.4375
 40
1.5
 40
1.5625
 40
1.625
 40
1.6875
 40
1.71875
 40
1.75
 40
1.78125
 40
1.796875
 40
1.8125
 40
1.828125
 40
1.84375
 40
1.8515625
 40
1.859375
 40
1.86328125
 40
1.8671875
 40
1.87109375
 40
1.873046875
 40
1.875
 40
1.876953125
 40
1.87890625
 40
1.8828125
 40
1.88671875
 40
1.890625
 40
1.8984375
 40
1.90625
 40
1.921875
 40
1.9375
 40
1.953125
 40
1.96875
 40
2.0
 40
2.03125
 40
2.0625
 40
2.125
 40
2.1875
 40
2.25
 40
2.3125
 40
2.375
 40
2.5
 40
2.625
 40
2.75
 40
2.8125
 40
2.875
 40
2.9375
 40
3.0
 40
3.0625
 40
3.09375
 40
3.125
 40
3.15625
 40
3.171875
 40
3.1875
 40
3.203125
 40
3.21875
 40
3.2265625
 40
3.234375
 40
3.2421875
 40
3.24609375
 40
3.248046875
 40
3.25
 40
3.251953125
 40
3.25390625
 40
3.2578125
 40
3.265625
 40
3.2734375
 40
3.28125
 40
3.296875
 40
3.3125
 40
3.328125
 40
3.34375
 40
3.375
 40
3.40625
 40
3.4375
 40
3.5
 40
3.5625
 40
3.625
 40
3.6875
 40
3.75
 40
3.875
 40
4.0
 40
4.0
 40
4.0
 40
4.0
 10
-40.66549940842511
 20
-20.18789097438221
 30
0.0
 10
-40.66445433638405
 20
-20.188033218421
 30
0.0
 10
-40.66406838419199
 20
-20.18808575010921
 30
0.0
 10
-40.65982657873576
 20
-20.18866309934079
 30
0.0
 10
-40.65199915790912
 20
-20.18972848422142
 30
0.0
 10
-40.63789754148642
 20
-20.19164784556177
 30
0.0
 10
-40.61319633552371
 20
-20.19500990976515
 30
0.0
 10
-40.57317863705616
 20
-20.20045669125929
 30
0.0
 10
-40.52354714492724
 20
-20.2072119996155
 30
0.0
 10
-40.44563424159492
 20
-20.21781667145515
 30
0.0
 10
-40.3282301326598
 20
-20.23379646420619
 30
0.0
 10
-40.16173023153011
 20
-20.25645865156281
 30
0.0
 10
-39.97601868278759
 20
-20.28173572310063
 30
0.0
 10
-39.7774994722479
 20
-20.3087560367021
 30
0.0
 10
-39.57257640807226
 20
-20.33664797443031
 30
0.0
 10
-39.36765334601895
 20
-20.36453991186914
 30
0.0
 10
-39.16913412911212
 20
-20.39156022633884
 30
0.0
 10
-38.9834226037155
 20
-20.41683729469317
 30
0.0
 10
-38.81692261556874
 20
-20.43949949391565
 30
0.0
 10
-38.69951877723487
 20
-20.45547924976683
 30
0.0
 10
-38.62160532208781
 20
-20.46608399685338
 30
0.0
 10
-38.57197551511559
 20
-20.47283907541724
 30
0.0
 10
-38.53862216075387
 20
-20.47737877894095
 30
0.0
 10
-38.51714257725808
 20
-20.48030234759536
 30
0.0
 10
-38.50373457937101
 20
-20.48212730931278
 30
0.0
 10
-38.49312800698394
 20
-20.48357093136856
 30
0.0
 10
-38.48670811602455
 20
-20.48444483551663
 30
0.0
 10
-38.48307131178787
 20
-20.48493964024279
 30
0.0
 10
-38.48111156488123
 20
-20.48520698533742
 30
0.0
 10
-38.47990858770197
 20
-20.48536844924088
 30
0.0
 10
-38.47956346948352
 20
-20.4854239077393
 30
0.0
 10
-38.47330252197973
 20
-20.48624360397874
 30
0.0
 10
-38.46690333068661
 20
-20.48698804292639
 30
0.0
 10
-38.46054775760761
 20
-20.48764746277399
 30
0.0
 10
-38.45206855213205
 20
-20.48841736461097
 30
0.0
 10
-38.44149151072974
 20
-20.4891739695445
 30
0.0
 10
-38.42461098889696
 20
-20.48995008313371
 30
0.0
 10
-38.40361134899842
 20
-20.49011276904747
 30
0.0
 10
-38.37861893557939
 20
-20.48904157571329
 30
0.0
 10
-38.35387969566322
 20
-20.48673095697769
 30
0.0
 10
-38.32128952343087
 20
-20.48203513012632
 30
0.0
 10
-38.28139879841837
 20
-20.47320943495844
 30
0.0
 10
-38.23519847732014
 20
-20.4581247252161
 30
0.0
 10
-38.19095470969473
 20
-20.43877973316211
 30
0.0
 10
-38.14893864256303
 20
-20.41539954834931
 30
0.0
 10
-38.10941229291276
 20
-20.38819836245244
 30
0.0
 10
-38.07263640020566
 20
-20.35737999620201
 30
0.0
 10
-38.03887710263225
 20
-20.32314125219363
 30
0.0
 10
-38.01348847935986
 20
-20.29192123964107
 30
0.0
 10
-37.99496890780475
 20
-20.26543337804511
 30
0.0
 10
-37.98201244456878
 20
-20.24483811089199
 30
0.0
 10
-37.97202476666075
 20
-20.22709051754728
 30
0.0
 10
-37.96453956346564
 20
-20.21255601525235
 30
0.0
 10
-37.95918302487839
 20
-20.20149080001903
 30
0.0
 10
-37.9540886155315
 20
-20.19026481704213
 30
0.0
 10
-37.95006612718604
 20
-20.18078017681807
 30
0.0
 10
-37.94698351616801
 20
-20.1731145423807
 30
0.0
 10
-37.94511543453123
 20
-20.16829615762
 30
0.0
 10
-37.9436524075054
 20
-20.16441390720739
 30
0.0
 10
-37.9425811832449
 20
-20.16151774677496
 30
0.0
 10
-37.94167546582099
 20
-20.15901804955403
 30
0.0
 10
-37.94102150221224
 20
-20.15719011627946
 30
0.0
 10
-37.94036642839571
 20
-20.15533503652602
 30
0.0
 10
-37.94036080360626
 20
-20.15531703651642
 30
0.0
 10
-37.94012707786209
 20
-20.15465112597047
 30
0.0
 10
-37.93991365322552
 20
-20.15403863288539
 30
0.0
 10
-37.93962575471696
 20
-20.15320893730185
 30
0.0
 10
-37.93925552813214
 20
-20.15213498689782
 30
0.0
 10
-37.93879252548368
 20
-20.15078014529685
 30
0.0
 10
-37.9380619609974
 20
-20.14861631130779
 30
0.0
 10
-37.9371629945417
 20
-20.1459049356589
 30
0.0
 10
-37.93610849240588
 20
-20.14264530818902
 30
0.0
 10
-37.93507776053492
 20
-20.13937869866687
 30
0.0
 10
-37.93373519860399
 20
-20.13501455001017
 30
0.0
 10
-37.93211628214254
 20
-20.12954333191593
 30
0.0
 10
-37.93026793497268
 20
-20.12295358435959
 30
0.0
 10
-37.92792861270974
 20
-20.11413655624539
 30
0.0
 10
-37.92523793066318
 20
-20.10306087501302
 30
0.0
 10
-37.92237933765399
 20
-20.08969284010711
 30
0.0
 10
-37.91988817356415
 20
-20.07625711881083
 30
0.0
 10
-37.91776213639373
 20
-20.06276301936835
 30
0.0
 10
-37.91541191221081
 20
-20.04470520780424
 30
0.0
 10
-37.91337907896121
 20
-20.0220322927877
 30
0.0
 10
-37.91238313062406
 20
-19.99473444280972
 30
0.0
 10
-37.91275912350829
 20
-19.9719691845678
 30
0.0
 10
-37.91378943072156
 20
-19.95378186807147
 30
0.0
 10
-37.91492924668145
 20
-19.94016272409565
 30
0.0
 10
-37.91643885339736
 20
-19.926573922848
 30
0.0
 10
-37.91832151282591
 20
-19.91302462735598
 30
0.0
 10
-37.92020441698248
 20
-19.90177426754261
 30
0.0
 10
-37.9219013118799
 20
-19.89280323095081
 30
0.0
 10
-37.92326986773148
 20
-19.88609079972548
 30
0.0
 10
-37.92449073708632
 20
-19.88051140421732
 30
0.0
 10
-37.9255160342252
 20
-19.8760569941847
 30
0.0
 10
-37.92630931573301
 20
-19.87272118429378
 30
0.0
 10
-37.92712730762867
 20
-19.86938938663824
 30
0.0
 10
-37.92782864804275
 20
-19.86661996479093
 30
0.0
 10
-37.92840378193079
 20
-19.86440070367532
 30
0.0
 10
-37.92883654672996
 20
-19.8627549452958
 30
0.0
 10
-37.92921746908734
 20
-19.86132941497502
 30
0.0
 10
-37.9294571287958
 20
-19.86044046456513
 30
0.0
 10
-37.9296412206632
 20
-19.85976353674316
 30
0.0
 10
-37.9296490570147
 20
-19.85973236901573
 30
0.0
 10
-37.93015657836768
 20
-19.85788008942584
 30
0.0
 10
-37.93066635068379
 20
-19.85604835709059
 30
0.0
 10
-37.93165425690134
 20
-19.85255235778685
 30
0.0
 10
-37.93306706828685
 20
-19.84772958167915
 30
0.0
 10
-37.93484975679463
 20
-19.84190315746334
 30
0.0
 10
-37.93731217487262
 20
-19.83419477258921
 30
0.0
 10
-37.94056332570463
 20
-19.82462218455494
 30
0.0
 10
-37.94473369845507
 20
-19.81325629743192
 30
0.0
 10
-37.94917063106769
 20
-19.80201170494918
 30
0.0
 10
-37.95543677795548
 20
-19.78718793976027
 30
0.0
 10
-37.96391748931187
 20
-19.76898514184277
 30
0.0
 10
-37.97510329513111
 20
-19.74769862389005
 30
0.0
 10
-37.9913268834538
 20
-19.72010293339817
 30
0.0
 10
-38.01399464963127
 20
-19.68716434744132
 30
0.0
 10
-38.04481310625042
 20
-19.65038854939107
 30
0.0
 10
-38.07905188661194
 20
-19.61662936135244
 30
0.0
 10
-38.11651616158737
 20
-19.5861631125759
 30
0.0
 10
-38.17049889908298
 20
-19.55031842504184
 30
0.0
 10
-38.24501143625852
 20
-19.51522068297521
 30
0.0
 10
-38.31078410113351
 20
-19.4991691458621
 30
0.0
 10
-38.34478702105265
 20
-19.49454102085561
 30
0.0
  0
SPLINE
  5
10000062
102
{ACAD_XDICTIONARY
360
10000063
102
}
330
1F
100
AcDbEntity
  8
VISIBLE
100
AcDbSpline
210
0.0
220
0.0
230
1.0
 70
     8
 71
     3
 72
   128
 73
   124
 74
     0
 42
0.000000001
 43
0.00000001
 40
4.0
 40
4.0
 40
4.0
 40
4.0
 40
4.015625
 40
4.03125
 40
4.046875
 40
4.0625
 40
4.09375
 40
4.125
 40
4.15625
 40
4.1875
 40
4.25
 40
4.3125
 40
4.375
 40
4.4375
 40
4.5
 40
4.5625
 40
4.625
 40
4.6875
 40
4.75
 40
4.8125
 40
4.84375
 40
4.875
 40
4.90625
 40
4.921875
 40
4.9375
 40
4.953125
 40
4.96875
 40
4.9765625
 40
4.984375
 40
4.9921875
 40
5.0
 40
5.0078125
 40
5.015625
 40
5.0234375
 40
5.03125
 40
5.046875
 40
5.0625
 40
5.09375
 40
5.125
 40
5.15625
 40
5.1875
 40
5.25
 40
5.3125
 40
5.375
 40
5.4375
 40
5.5
 40
5.5625
 40
5.625
 40
5.6875
 40
5.71875
 40
5.75
 40
5.78125
 40
5.796875
 40
5.8125
 40
5.828125
 40
5.84375
 40
5.8515625
 40
5.859375
 40
5.86328125
 40
5.8671875
 40
5.87109375
 40
5.873046875
 40
5.875
 40
5.876953125
 40
5.87890625
 40
5.8828125
 40
5.88671875
 40
5.890625
 40
5.8984375
 40
5.90625
 40
5.921875
 40
5.9375
 40
5.953125
 40
5.96875
 40
6.0
 40
6.03125
 40
6.0625
 40
6.125
 40
6.1875
 40
6.25
 40
6.3125
 40
6.375
 40
6.5
 40
6.625
 40
6.75
 40
6.8125
 40
6.875
 40
6.9375
 40
7.0
 40
7.0625
 40
7.09375
 40
7.125
 40
7.15625
 40
7.171875
 40
7.1875
 40
7.203125
 40
7.21875
 40
7.2265625
 40
7.234375
 40
7.2421875
 40
7.24609375
 40
7.248046875
 40
7.25
 40
7.251953125
 40
7.25390625
 40
7.2578125
 40
7.265625
 40
7.2734375
 40
7.28125
 40
7.296875
 40
7.3125
 40
7.328125
 40
7.34375
 40
7.375
 40
7.40625
 40
7.4375
 40
7.5
 40
7.5625
 40
7.625
 40
7.6875
 40
7.75
 40
7.875
 40
8.0
 40
8.0
 40
8.0
 40
8.0
 10
-38.34478702105265
 20
-19.49454102085561
 30
0.0
 10
-38.34583209357172
 20
-19.49439877681684
 30
0.0
 10
-38.34621804594016
 20
-19.49434624512867
 30
0.0
 10
-38.35045985333661
 20
-19.49376889589713
 30
0.0
 10
-38.35828727774435
 20
-19.49270351101648
 30
0.0
 10
-38.37238890061844
 20
-19.49078414967615
 30
0.0
 10
-38.39709011788173
 20
-19.48742208547274
 30
0.0
 10
-38.43710783465708
 20
-19.48197530397861
 30
0.0
 10
-38.48673934949196
 20
-19.47521999562237
 30
0.0
 10
-38.5646522884688
 20
-19.46461532378273
 30
0.0
 10
-38.68205645111521
 20
-19.44863553103166
 30
0.0
 10
-38.8485564284171
 20
-19.425973343675
 30
0.0
 10
-39.03426806212092
 20
-19.40069627213717
 30
0.0
 10
-39.2327873634812
 20
-19.37367595853567
 30
0.0
 10
-39.43771052140711
 20
-19.34578402080743
 30
0.0
 10
-39.64263367721064
 20
-19.31789208336859
 30
0.0
 10
-39.8411529849377
 20
-19.29087176889889
 30
0.0
 10
-40.0268645952958
 20
-19.2655947005445
 30
0.0
 10
-40.19336465961221
 20
-19.24293250132229
 30
0.0
 10
-40.31076855166314
 20
-19.22695274547026
 30
0.0
 10
-40.3886820424414
 20
-19.21634799838554
 30
0.0
 10
-40.43831187215834
 20
-19.20959291981625
 30
0.0
 10
-40.47166524165357
 20
-19.20505321630953
 30
0.0
 10
-40.49314483523077
 20
-19.20212964762054
 30
0.0
 10
-40.50655283847298
 20
-19.2003046860089
 30
0.0
 10
-40.51715941863551
 20
-19.19886106355598
 30
0.0
 10
-40.52357930343622
 20
-19.19798716064361
 30
0.0
 10
-40.52721612788476
 20
-19.19749235339757
 30
0.0
 10
-40.52917581904381
 20
-19.19722501599836
 30
0.0
 10
-40.53037900943742
 20
-19.19706352320336
 30
0.0
 10
-40.5307233337895
 20
-19.19700817257732
 30
0.0
 10
-40.53698449069772
 20
-19.19618841884469
 30
0.0
 10
-40.54338363930015
 20
-19.1954439577183
 30
0.0
 10
-40.54973923711496
 20
-19.19478450749677
 30
0.0
 10
-40.5582184519806
 20
-19.19401456969168
 30
0.0
 10
-40.56879551308542
 20
-19.1932579211865
 30
0.0
 10
-40.58567606156974
 20
-19.19248174381353
 30
0.0
 10
-40.60667573535207
 20
-19.19231898792344
 30
0.0
 10
-40.6316681862333
 20
-19.19339011310806
 30
0.0
 10
-40.65640746028171
 20
-19.19570067895697
 30
0.0
 10
-40.68899767207233
 20
-19.20039645479417
 30
0.0
 10
-40.72888843337073
 20
-19.20922212069024
 30
0.0
 10
-40.77508877173981
 20
-19.22430684187588
 30
0.0
 10
-40.81933252770528
 20
-19.24365188156093
 30
0.0
 10
-40.86134855410099
 20
-19.26703213910508
 30
0.0
 10
-40.90087483616753
 20
-19.29423341172869
 30
0.0
 10
-40.93765063875014
 20
-19.32505186813528
 30
0.0
 10
-40.97140982974155
 20
-19.35929069613617
 30
0.0
 10
-40.99679835676964
 20
-19.39051076666135
 30
0.0
 10
-41.01531785121018
 20
-19.41699866419795
 30
0.0
 10
-41.02827425770949
 20
-19.43759395249561
 30
0.0
 10
-41.03826189022591
 20
-19.45534155821371
 30
0.0
 10
-41.04574705882614
 20
-19.46987606709812
 30
0.0
 10
-41.05110357247035
 20
-19.48094128559415
 30
0.0
 10
-41.0561979580189
 20
-19.49216727013672
 30
0.0
 10
-41.06022042760317
 20
-19.50165191024513
 30
0.0
 10
-41.06330302431849
 20
-19.50931754373836
 30
0.0
 10
-41.06517109733099
 20
-19.51413592755599
 30
0.0
 10
-41.06663411763711
 20
-19.51801817700095
 30
0.0
 10
-41.06770533699396
 20
-19.520914336607
 30
0.0
 10
-41.06861105029581
 20
-19.5234140330363
 30
0.0
 10
-41.06926501092625
 20
-19.52524196565955
 30
0.0
 10
-41.06992008180229
 20
-19.52709704480424
 30
0.0
 10
-41.06992570647401
 20
-19.5271150445387
 30
0.0
 10
-41.07015943108073
 20
-19.52778095460121
 30
0.0
 10
-41.0703728546415
 20
-19.52839344712187
 30
0.0
 10
-41.07066075172753
 20
-19.52922314201096
 30
0.0
 10
-41.07103097648351
 20
-19.53029709149504
 30
0.0
 10
-41.07149397686078
 20
-19.53165193194398
 30
0.0
 10
-41.07222453779122
 20
-19.53381576409161
 30
0.0
 10
-41.07312349992554
 20
-19.53652713744008
 30
0.0
 10
-41.0741779970764
 20
-19.53978676215512
 30
0.0
 10
-41.07520872415746
 20
-19.54305336893032
 30
0.0
 10
-41.0765512799579
 20
-19.54741751393825
 30
0.0
 10
-41.07817018922638
 20
-19.55288872750305
 30
0.0
 10
-41.08001852848764
 20
-19.55947846969215
 30
0.0
 10
-41.08235784112989
 20
-19.56829549076225
 30
0.0
 10
-41.08504851280936
 20
-19.57937116343845
 30
0.0
 10
-41.08790709579703
 20
-19.59273918858468
 30
0.0
 10
-41.09039825205186
 20
-19.60617490072347
 30
0.0
 10
-41.09252428334526
 20
-19.61966899169296
 30
0.0
 10
-41.09487450200324
 20
-19.6377267929667
 30
0.0
 10
-41.09690733212726
 20
-19.66039969716709
 30
0.0
 10
-41.09790328104788
 20
-19.68769753783964
 30
0.0
 10
-41.09752729088813
 20
-19.71046279162585
 30
0.0
 10
-41.09649698640345
 20
-19.72865010662719
 30
0.0
 10
-41.09535717257187
 20
-19.74226925052825
 30
0.0
 10
-41.09384756787635
 20
-19.75585805275417
 30
0.0
 10
-41.09196491017455
 20
-19.76940735027595
 30
0.0
 10
-41.0900820070612
 20
-19.78065771264918
 30
0.0
 10
-41.08838511267283
 20
-19.78962875180047
 30
0.0
 10
-41.08701655701888
 20
-19.79634118519794
 30
0.0
 10
-41.08579568765769
 20
-19.80192058272335
 30
0.0
 10
-41.08477039040086
 20
-19.80637499449188
 30
0.0
 10
-41.08397710874559
 20
-19.80971080574512
 30
0.0
 10
-41.08315911664107
 20
-19.81304260482252
 30
0.0
 10
-41.08245777599943
 20
-19.81581202790441
 30
0.0
 10
-41.08188264189658
 20
-19.8180312900356
 30
0.0
 10
-41.08144987691846
 20
-19.81967704919459
 30
0.0
 10
-41.08106895440052
 20
-19.82110258016625
 30
0.0
 10
-41.08082929456634
 20
-19.82199153105887
 30
0.0
 10
-41.08064520263385
 20
-19.8226684591259
 30
0.0
 10
-41.08063736620721
 20
-19.82269962712977
 30
0.0
 10
-41.08012984487426
 20
-19.82455190664606
 30
0.0
 10
-41.07962007255161
 20
-19.82638363900526
 30
0.0
 10
-41.07863216633811
 20
-19.82987963829406
 30
0.0
 10
-41.07721935495036
 20
-19.83470241441014
 30
0.0
 10
-41.07543666644331
 20
-19.84052883862325
 30
0.0
 10
-41.07297424836509
 20
-19.84823722349828
 30
0.0
 10
-41.06972309753318
 20
-19.85780981153211
 30
0.0
 10
-41.06555272478268
 20
-19.86917569865527
 30
0.0
 10
-41.06111579217011
 20
-19.88042029113797
 30
0.0
 10
-41.05484964528229
 20
-19.89524405632689
 30
0.0
 10
-41.0463689339259
 20
-19.91344685424439
 30
0.0
 10
-41.03518312810672
 20
-19.93473337219711
 30
0.0
 10
-41.01895953978394
 20
-19.96232906268898
 30
0.0
 10
-40.99629177360651
 20
-19.99526764864583
 30
0.0
 10
-40.96547331698731
 20
-20.0320434466961
 30
0.0
 10
-40.93123453662584
 20
-20.06580263473471
 30
0.0
 10
-40.8937702616504
 20
-20.09626888351126
 30
0.0
 10
-40.83978752415477
 20
-20.13211357104533
 30
0.0
 10
-40.76527498697922
 20
-20.16721131311194
 30
0.0
 10
-40.69950232210419
 20
-20.18326285022505
 30
0.0
 10
-40.66549940218506
 20
-20.18789097523154
 30
0.0
  0
SPLINE
  5
10000065
102
{ACAD_XDICTIONARY
360
10000066
102
}
330
1F
100
AcDbEntity
  8
VISIBLE
100
AcDbSpline
210
0.0
220
0.0
230
1.0
 70
     8
 71
     3
 72
   130
 73
   126
 74
     0
 42
0.000000001
 43
0.00000001
 40
0.0
 40
0.0
 40
0.0
 40
0.0
 40
0.0078125
 40
0.015625
 40
0.0234375
 40
0.03125
 40
0.046875
 40
0.0625
 40
0.09375
 40
0.125
 40
0.15625
 40
0.1875
 40
0.25
 40
0.3125
 40
0.375
 40
0.4375
 40
0.5
 40
0.5625
 40
0.625
 40
0.6875
 40
0.75
 40
0.78125
 40
0.8125
 40
0.84375
 40
0.875
 40
0.90625
 40
0.921875
 40
0.9375
 40
0.953125
 40
0.96875
 40
0.9765625
 40
0.984375
 40
0.9921875
 40
1.0
 40
1.0078125
 40
1.015625
 40
1.0234375
 40
1.03125
 40
1.046875
 40
1.0625
 40
1.09375
 40
1.125
 40
1.1875
 40
1.25
 40
1.3125
 40
1.375
 40
1.4375
 40
1.5
 40
1.5625
 40
1.625
 40
1.6875
 40
1.71875
 40
1.75
 40
1.78125
 40
1.796875
 40
1.8125
 40
1.828125
 40
1.84375
 40
1.8515625
 40
1.859375
 40
1.86328125
 40
1.8671875
 40
1.87109375
 40
1.873046875
 40
1.875
 40
1.876953125
 40
1.87890625
 40
1.8828125
 40
1.88671875
 40
1.890625
 40
1.8984375
 40
1.90625
 40
1.921875
 40
1.9375
 40
1.953125
 40
1.96875
 40
2.0
 40
2.03125
 40
2.0625
 40
2.125
 40
2.1875
 40
2.25
 40
2.3125
 40
2.375
 40
2.5
 40
2.625
 40
2.75
 40
2.8125
 40
2.875
 40
2.9375
 40
3.0
 40
3.0625
 40
3.09375
 40
3.125
 40
3.15625
 40
3.171875
 40
3.1875
 40
3.203125
 40
3.21875
 40
3.2265625
 40
3.234375
 40
3.2421875
 40
3.24609375
 40
3.248046875
 40
3.25
 40
3.251953125
 40
3.25390625
 40
3.2578125
 40
3.265625
 40
3.2734375
 40
3.28125
 40
3.296875
 40
3.3125
 40
3.328125
 40
3.34375
 40
3.375
 40
3.40625
 40
3.4375
 40
3.5
 40
3.5625
 40
3.625
 40
3.6875
 40
3.75
 40
3.875
 40
4.0
 40
4.0
 40
4.0
 40
4.0
 10
-33.875002103657
 20
-22.8072520203036
 30
0.0
 10
-33.87467063576555
 20
-22.80771386156968
 30
0.0
 10
-33.87455178586669
 20
-22.80787945766282
 30
0.0
 10
-33.87320640238369
 20
-22.80975400909639
 30
0.0
 10
-33.8707023822884
 20
-22.8132429135749
 30
0.0
 10
-33.86615134037891
 20
-22.81958397710328
 30
0.0
 10
-33.85808522646659
 20
-22.83082266524611
 30
0.0
 10
-33.84033494414203
 20
-22.85555451129532
 30
0.0
 10
-33.80935022209898
 20
-22.89872618380404
 30
0.0
 10
-33.75910705201713
 20
-22.96873106174261
 30
0.0
 10
-33.69680494176316
 20
-23.05553791761074
 30
0.0
 10
-33.59899752218283
 20
-23.19181507643816
 30
0.0
 10
-33.45161641198278
 20
-23.39716431322516
 30
0.0
 10
-33.24260322977194
 20
-23.68838682733985
 30
0.0
 10
-33.00947313460478
 20
-24.01321194943173
 30
0.0
 10
-32.76026510373483
 20
-24.36043880144155
 30
0.0
 10
-32.50301810363308
 20
-24.71886652033377
 30
0.0
 10
-32.24577110366208
 20
-25.07729423904413
 30
0.0
 10
-31.99656307240026
 20
-25.42452109159961
 30
0.0
 10
-31.76343297867128
 20
-25.74934621169082
 30
0.0
 10
-31.58925532236329
 20
-25.99203164633412
 30
0.0
 10
-31.46599113498167
 20
-26.163778261421
 30
0.0
 10
-31.38258683384001
 20
-26.27998724880973
 30
0.0
 10
-31.30923124535007
 20
-26.38219515129425
 30
0.0
 10
-31.2469292324836
 20
-26.46900187073997
 30
0.0
 10
-31.20505961929634
 20
-26.52733969596078
 30
0.0
 10
-31.17809554622614
 20
-26.56490930806914
 30
0.0
 10
-31.16126405329574
 20
-26.58836099946551
 30
0.0
 10
-31.14794914378484
 20
-26.6069128930392
 30
0.0
 10
-31.13989038370777
 20
-26.61814150032732
 30
0.0
 10
-31.13532426224398
 20
-26.62450323721961
 30
0.0
 10
-31.1328663091642
 20
-26.62792898561121
 30
0.0
 10
-31.13134796728038
 20
-26.63004065637714
 30
0.0
 10
-31.1309453558258
 20
-26.63061606256872
 30
0.0
 10
-31.12728925978007
 20
-26.6356549938628
 30
0.0
 10
-31.12341785506828
 20
-26.64083407857608
 30
0.0
 10
-31.11953223174479
 20
-26.64589857680788
 30
0.0
 10
-31.11426234828762
 20
-26.65258835675216
 30
0.0
 10
-31.10754272554105
 20
-26.66079026861083
 30
0.0
 10
-31.09650396280913
 20
-26.67358530827963
 30
0.0
 10
-31.08218883754203
 20
-26.68895017765417
 30
0.0
 10
-31.05824772576428
 20
-26.71217318598277
 30
0.0
 10
-31.02650594571312
 20
-26.73861165499789
 30
0.0
 10
-30.98591212907714
 20
-26.7661020532316
 30
0.0
 10
-30.94320092688138
 20
-26.78929196149113
 30
0.0
 10
-30.8987400220046
 20
-26.80813248356169
 30
0.0
 10
-30.85287926189261
 20
-26.82258145120318
 30
0.0
 10
-30.80595432094326
 20
-26.83259574938592
 30
0.0
 10
-30.75829245652459
 20
-26.83812608594233
 30
0.0
 10
-30.71021953968893
 20
-26.83911441664775
 30
0.0
 10
-30.67009261553113
 20
-26.83609749602717
 30
0.0
 10
-30.63812414460401
 20
-26.83134369837568
 30
0.0
 10
-30.61425942391941
 20
-26.82659919510073
 30
0.0
 10
-30.59450362993189
 20
-26.82165555705459
 30
0.0
 10
-30.57880168211886
 20
-26.81710264887875
 30
0.0
 10
-30.56708274369686
 20
-26.81338807745374
 30
0.0
 10
-30.55542719673292
 20
-26.80937260856522
 30
0.0
 10
-30.54577323634043
 20
-26.80577540041208
 30
0.0
 10
-30.53808651757678
 20
-26.80274574278681
 30
0.0
 10
-30.5333026855234
 20
-26.80079087123397
 30
0.0
 10
-30.52947722224822
 20
-26.79918520810274
 30
0.0
 10
-30.52663730505522
 20
-26.79797271432028
 30
0.0
 10
-30.5241991175393
 20
-26.79691250013321
 30
0.0
 10
-30.52242190483237
 20
-26.79613113852379
 30
0.0
 10
-30.52062421196589
 20
-26.79533192547099
 30
0.0
 10
-30.52060726888879
 20
-26.79532363815723
 30
0.0
 10
-30.5199629340935
 20
-26.79503571272168
 30
0.0
 10
-30.5193713517963
 20
-26.79476975578679
 30
0.0
 10
-30.51857081535643
 20
-26.79440860589465
 30
0.0
 10
-30.51753627601148
 20
-26.79393937403588
 30
0.0
 10
-30.51623394174234
 20
-26.79334446830219
 30
0.0
 10
-30.51416008707672
 20
-26.79238787044115
 30
0.0
 10
-30.51157277438877
 20
-26.79117725540281
 30
0.0
 10
-30.50848033149965
 20
-26.78970278936081
 30
0.0
 10
-30.5053991557299
 20
-26.78820625833012
 30
0.0
 10
-30.50130644593462
 20
-26.78618186473414
 30
0.0
 10
-30.49621966392728
 20
-26.78359728981385
 30
0.0
 10
-30.49016273883131
 20
-26.78041057290629
 30
0.0
 10
-30.48215055664814
 20
-26.77604961951053
 30
0.0
 10
-30.47225629443321
 20
-26.77039145495975
 30
0.0
 10
-30.46058156682991
 20
-26.76327966644079
 30
0.0
 10
-30.44911022639329
 20
-26.7558544702744
 30
0.0
 10
-30.4378474512576
 20
-26.74812393749828
 30
0.0
 10
-30.42311572420909
 20
-26.73741950584643
 30
0.0
 10
-30.40524996530009
 20
-26.72331247928266
 30
0.0
 10
-30.38473756477455
 20
-26.70527350512231
 30
0.0
 10
-30.3684604010544
 20
-26.68935338108484
 30
0.0
 10
-30.35595816243619
 20
-26.67610452046003
 30
0.0
 10
-30.34684929277078
 20
-26.66591591949845
 30
0.0
 10
-30.33801662734763
 20
-26.65547958444231
 30
0.0
 10
-30.32946906262831
 20
-26.64479944476193
 30
0.0
 10
-30.32259150023812
 20
-26.63569923477428
 30
0.0
 10
-30.31724167899694
 20
-26.62830075543959
 30
0.0
 10
-30.31330672544924
 20
-26.62269314428303
 30
0.0
 10
-30.31009324605535
 20
-26.61797156108756
 30
0.0
 10
-30.30756248119395
 20
-26.61416525317116
 30
0.0
 10
-30.30568474505909
 20
-26.61129630135618
 30
0.0
 10
-30.30382690678051
 20
-26.60841215958589
 30
0.0
 10
-30.30229737451497
 20
-26.60599927742929
 30
0.0
 10
-30.30108070856799
 20
-26.60405619912682
 30
0.0
 10
-30.30018275492005
 20
-26.60261070756366
 30
0.0
 10
-30.29940913183643
 20
-26.60135423728928
 30
0.0
 10
-30.29892816321654
 20
-26.60056917316137
 30
0.0
 10
-30.29856300387629
 20
-26.59997019506423
 30
0.0
 10
-30.29854575323639
 20
-26.59994308449521
 30
0.0
 10
-30.29754916583345
 20
-26.59830133631911
 30
0.0
 10
-30.29656905095589
 20
-26.59667207691343
 30
0.0
 10
-30.29470871461156
 20
-26.5935516400951
 30
0.0
 10
-30.29217671039393
 20
-26.58921065293132
 30
0.0
 10
-30.28916992288889
 20
-26.58391117727894
 30
0.0
 10
-30.2852633512818
 20
-26.57682446970183
 30
0.0
 10
-30.28054481359793
 20
-26.56788356013414
 30
0.0
 10
-30.27515549894401
 20
-26.55704240077353
 30
0.0
 10
-30.27003749864774
 20
-26.54609099226524
 30
0.0
 10
-30.26357699426484
 20
-26.53135089177936
 30
0.0
 10
-30.2561842165883
 20
-26.51267975804662
 30
0.0
 10
-30.24841081760118
 20
-26.48992426586578
 30
0.0
 10
-30.23951726639527
 20
-26.45917314084412
 30
0.0
 10
-30.2311720645594
 20
-26.42006898030302
 30
0.0
 10
-30.22564179204451
 20
-26.37240713380013
 30
0.0
 10
-30.22465350529163
 20
-26.32433428918259
 30
0.0
 10
-30.22827401160238
 20
-26.27618188880517
 30
0.0
 10
-30.23934130006717
 20
-26.21233451652378
 30
0.0
 10
-30.26506167188334
 20
-26.13408861834195
 30
0.0
 10
-30.29860935696871
 20
-26.0752818275745
 30
0.0
 10
-30.31861856666137
 20
-26.04740267973346
 30
0.0
  0
SPLINE
  5
10000068
102
{ACAD_XDICTIONARY
360
10000069
102
}
330
1F
100
AcDbEntity
  8
VISIBLE
100
AcDbSpline
210
0.0
220
0.0
230
1.0
 70
     8
 71
     3
 72
   130
 73
   126
 74
     0
 42
0.000000001
 43
0.00000001
 40
4.0
 40
4.0
 40
4.0
 40
4.0
 40
4.0078125
 40
4.015625
 40
4.0234375
 40
4.03125
 40
4.046875
 40
4.0625
 40
4.09375
 40
4.125
 40
4.15625
 40
4.1875
 40
4.25
 40
4.3125
 40
4.375
 40
4.4375
 40
4.5
 40
4.5625
 40
4.625
 40
4.6875
 40
4.75
 40
4.78125
 40
4.8125
 40
4.84375
 40
4.875
 40
4.90625
 40
4.921875
 40
4.9375
 40
4.953125
 40
4.96875
 40
4.9765625
 40
4.984375
 40
4.9921875
 40
5.0
 40
5.0078125
 40
5.015625
 40
5.0234375
 40
5.03125
 40
5.046875
 40
5.0625
 40
5.09375
 40
5.125
 40
5.1875
 40
5.25
 40
5.3125
 40
5.375
 40
5.4375
 40
5.5
 40
5.5625
 40
5.625
 40
5.6875
 40
5.71875
 40
5.75
 40
5.78125
 40
5.796875
 40
5.8125
 40
5.828125
 40
5.84375
 40
5.8515625
 40
5.859375
 40
5.86328125
 40
5.8671875
 40
5.87109375
 40
5.873046875
 40
5.875
 40
5.876953125
 40
5.87890625
 40
5.8828125
 40
5.88671875
 40
5.890625
 40
5.8984375
 40
5.90625
 40
5.921875
 40
5.9375
 40
5.953125
 40
5.96875
 40
6.0
 40
6.03125
 40
6.0625
 40
6.125
 40
6.1875
 40
6.25
 40
6.3125
 40
6.375
 40
6.5
 40
6.625
 40
6.75
 40
6.8125
 40
6.875
 40
6.9375
 40
7.0
 40
7.0625
 40
7.09375
 40
7.125
 40
7.15625
 40
7.171875
 40
7.1875
 40
7.203125
 40
7.21875
 40
7.2265625
 40
7.234375
 40
7.2421875
 40
7.24609375
 40
7.248046875
 40
7.25
 40
7.251953125
 40
7.25390625
 40
7.2578125
 40
7.265625
 40
7.2734375
 40
7.28125
 40
7.296875
 40
7.3125
 40
7.328125
 40
7.34375
 40
7.375
 40
7.40625
 40
7.4375
 40
7.5
 40
7.5625
 40
7.625
 40
7.6875
 40
7.75
 40
7.875
 40
8.0
 40
8.0
 40
8.0
 40
8.0
 10
-30.31861839884382
 20
-26.04740291355645
 30
0.0
 10
-30.31894986673791
 20
-26.04694107216591
 30
0.0
 10
-30.31906871663668
 20
-26.04677547602971
 30
0.0
 10
-30.32041410011425
 20
-26.04490092411334
 30
0.0
 10
-30.32291812021166
 20
-26.04141201871912
 30
0.0
 10
-30.32746916212079
 20
-26.03507095353246
 30
0.0
 10
-30.33553527603341
 20
-26.02383226244938
 30
0.0
 10
-30.35328555835778
 20
-25.9991004099312
 30
0.0
 10
-30.38427028040067
 20
-25.95592872613032
 30
0.0
 10
-30.43451345048227
 20
-25.88592382988126
 30
0.0
 10
-30.49681556073596
 20
-25.79911695130794
 30
0.0
 10
-30.59462298031601
 20
-25.66283975683591
 30
0.0
 10
-30.74200409051575
 20
-25.45749046633794
 30
0.0
 10
-30.9510172727263
 20
-25.16626787605135
 30
0.0
 10
-31.18414736789337
 20
-24.84144266899852
 30
0.0
 10
-31.43335539876323
 20
-24.49421572616841
 30
0.0
 10
-31.69060239886506
 20
-24.1357879135262
 30
0.0
 10
-31.9478493988362
 20
-23.77736010106588
 30
0.0
 10
-32.19705743009829
 20
-23.43013315769008
 30
0.0
 10
-32.4301875238275
 20
-23.105307952638
 30
0.0
 10
-32.60436518013598
 20
-22.86262245451798
 30
0.0
 10
-32.72762936751759
 20
-22.69087579450962
 30
0.0
 10
-32.81103366866036
 20
-22.57466677672412
 30
0.0
 10
-32.88438925714716
 20
-22.47245884751092
 30
0.0
 10
-32.94669127002663
 20
-22.38565210534239
 30
0.0
 10
-32.98856088317458
 20
-22.32731426491785
 30
0.0
 10
-33.01552495632567
 20
-22.28974464287045
 30
0.0
 10
-33.03235644900992
 20
-22.26629294568302
 30
0.0
 10
-33.04567135944573
 20
-22.24774104596891
 30
0.0
 10
-33.05373011664604
 20
-22.23651243975086
 30
0.0
 10
-33.05829624397713
 20
-22.23015069302249
 30
0.0
 10
-33.06075417914032
 20
-22.22672496869005
 30
0.0
 10
-33.06227258829236
 20
-22.22461320367733
 30
0.0
 10
-33.06267494859577
 20
-22.2240381471513
 30
0.0
 10
-33.06633110078902
 20
-22.21899910856951
 30
0.0
 10
-33.07020248937373
 20
-22.21382001816206
 30
0.0
 10
-33.07408811619897
 20
-22.20875548775184
 30
0.0
 10
-33.07935799785857
 20
-22.20206567508167
 30
0.0
 10
-33.08607762125359
 20
-22.19386372047453
 30
0.0
 10
-33.09711638493273
 20
-22.18106861722878
 30
0.0
 10
-33.11143151403054
 20
-22.16570367350084
 30
0.0
 10
-33.13537263597667
 20
-22.14248055911015
 30
0.0
 10
-33.16711443582902
 20
-22.11604198146894
 30
0.0
 10
-33.20770828283672
 20
-22.08855149205247
 30
0.0
 10
-33.25041951656848
 20
-22.06536153068336
 30
0.0
 10
-33.29488044850461
 20
-22.04652099094262
 30
0.0
 10
-33.3407412259437
 20
-22.03207203700737
 30
0.0
 10
-33.38766616993798
 20
-22.02205777878374
 30
0.0
 10
-33.43532801944897
 20
-22.01652750260914
 30
0.0
 10
-33.48340090068922
 20
-22.01553924651582
 30
0.0
 10
-33.52352777642128
 20
-22.01855623595945
 30
0.0
 10
-33.55549619685981
 20
-22.02331008964955
 30
0.0
 10
-33.57936087375435
 20
-22.02805463473693
 30
0.0
 10
-33.59911662629187
 20
-22.0329983068813
 30
0.0
 10
-33.61481853797248
 20
-22.03755124157198
 30
0.0
 10
-33.62653744781158
 20
-22.04126583242649
 30
0.0
 10
-33.63819296471162
 20
-22.04528132021625
 30
0.0
 10
-33.64784689882156
 20
-22.04887854362072
 30
0.0
 10
-33.65553359581915
 20
-22.05190821311827
 30
0.0
 10
-33.66031741396983
 20
-22.05386309193896
 30
0.0
 10
-33.6641428659216
 20
-22.05546876081053
 30
0.0
 10
-33.66698277457831
 20
-22.05668125880546
 30
0.0
 10
-33.66942095475105
 20
-22.05774147661094
 30
0.0
 10
-33.67119816188112
 20
-22.05852284076036
 30
0.0
 10
-33.67299584960323
 20
-22.05932205660917
 30
0.0
 10
-33.67301279109648
 20
-22.05933034325922
 30
0.0
 10
-33.67365712255845
 20
-22.05961826900259
 30
0.0
 10
-33.67424870114698
 20
-22.05988422588551
 30
0.0
 10
-33.67504923300715
 20
-22.06024537585555
 30
0.0
 10
-33.67608376637937
 20
-22.06071460770775
 30
0.0
 10
-33.67738609329195
 20
-22.06130951336429
 30
0.0
 10
-33.67945993647804
 20
-22.06226611090181
 30
0.0
 10
-33.68204723533339
 20
-22.06347672519417
 30
0.0
 10
-33.68513966245304
 20
-22.06495118980972
 30
0.0
 10
-33.68822082327442
 20
-22.06644771890815
 30
0.0
 10
-33.69231351422538
 20
-22.06847210928343
 30
0.0
 10
-33.69740027469732
 20
-22.07105667902704
 30
0.0
 10
-33.7034571771232
 20
-22.07424338806158
 30
0.0
 10
-33.71146933322183
 20
-22.07860432898045
 30
0.0
 10
-33.7213635704251
 20
-22.08426247465812
 30
0.0
 10
-33.73303827955686
 20
-22.09137423663213
 30
0.0
 10
-33.74450961239742
 20
-22.09879940364788
 30
0.0
 10
-33.75577239010063
 20
-22.10652990591189
 30
0.0
 10
-33.77050413311966
 20
-22.11723429666017
 30
0.0
 10
-33.78836993357145
 20
-22.1313412745917
 30
0.0
 10
-33.8088824118705
 20
-22.14938020320755
 30
0.0
 10
-33.82515965781717
 20
-22.16530030686848
 30
0.0
 10
-33.83766196893606
 20
-22.17854916562797
 30
0.0
 10
-33.84677089535427
 20
-22.18873777332763
 30
0.0
 10
-33.85560361889942
 20
-22.19917412415089
 30
0.0
 10
-33.86415124206277
 20
-22.20985428947656
 30
0.0
 10
-33.87102885251947
 20
-22.21895452973684
 30
0.0
 10
-33.87637871126633
 20
-22.22635303900347
 30
0.0
 10
-33.88031369232352
 20
-22.2319606755525
 30
0.0
 10
-33.88352719400213
 20
-22.23668228243073
 30
0.0
 10
-33.88605797623168
 20
-22.24048861084556
 30
0.0
 10
-33.88793572514391
 20
-22.24335757882011
 30
0.0
 10
-33.88979357593045
 20
-22.24624173754264
 30
0.0
 10
-33.89132311838303
 20
-22.24865463450033
 30
0.0
 10
-33.89253979231765
 20
-22.25059772503758
 30
0.0
 10
-33.89343775189953
 20
-22.25204322601236
 30
0.0
 10
-33.89421137978794
 20
-22.25329970419914
 30
0.0
 10
-33.89469235187551
 20
-22.25408477415428
 30
0.0
 10
-33.89505751296605
 20
-22.25468375529697
 30
0.0
 10
-33.89507476553465
 20
-22.2547108690366
 30
0.0
 10
-33.89607135248551
 20
-22.25635261705698
 30
0.0
 10
-33.89705146758843
 20
-22.25798187742467
 30
0.0
 10
-33.89891180393585
 20
-22.26110231540465
 30
0.0
 10
-33.90144380834624
 20
-22.26544330456714
 30
0.0
 10
-33.90445059597326
 20
-22.27074278258682
 30
0.0
 10
-33.90835716774188
 20
-22.27782949348316
 30
0.0
 10
-33.91307570555681
 20
-22.28677040741162
 30
0.0
 10
-33.91846502027215
 20
-22.29761157237471
 30
0.0
 10
-33.92358302052638
 20
-22.30856298684765
 30
0.0
 10
-33.9300435247172
 20
-22.32330309577218
 30
0.0
 10
-33.93743630190122
 20
-22.34197424096228
 30
0.0
 10
-33.9452096999283
 20
-22.3647297483423
 30
0.0
 10
-33.95410324945301
 20
-22.39548089555833
 30
0.0
 10
-33.96244844866133
 20
-22.43458508745423
 30
0.0
 10
-33.96797871831547
 20
-22.48224697746879
 30
0.0
 10
-33.96896700413161
 20
-22.53031987187877
 30
0.0
 10
-33.96534650088214
 20
-22.57847232915501
 30
0.0
 10
-33.95427922499511
 20
-22.64231978887585
 30
0.0
 10
-33.92855889135626
 20
-22.72056582335185
 30
0.0
 10
-33.89501127194367
 20
-22.77937277299151
 30
0.0
 10
-33.875002103657
 20
-22.8072520203036
 30
0.0
  0
ARC
  5
1000006B
102
{ACAD_XDICTIONARY
360
1000006C
102
}
330
1F
100
AcDbEntity
  8
VISIBLE
100
AcDbCircle
 10
-37.55
 20
0.0000000000000041
 30
0.0
 40
0.5000000000000004
100
AcDbArc
 50
90.0
 51
0.0
  0
LINE
  5
1000006E
102
{ACAD_XDICTIONARY
360
1000006F
102
}
330
1F
100
AcDbEntity
  8
VISIBLE
100
AcDbLine
 10
-37.55
 20
1.599999999999995
 30
0.0
 11
-37.55
 21
0.5000000000000046
 31
0.0
  0
LINE
  5
10000071
102
{ACAD_XDICTIONARY
360
10000072
102
}
330
1F
100
AcDbEntity
  8
VISIBLE
100
AcDbLine
 10
-42.45
 20
1.599999999999995
 30
0.0
 11
-37.55
 21
1.599999999999995
 31
0.0
  0
LINE
  5
10000074
102
{ACAD_XDICTIONARY
360
10000075
102
}
330
1F
100
AcDbEntity
  8
VISIBLE
100
AcDbLine
 10
-42.45
 20
1.599999999999995
 30
0.0
 11
-42.45
 21
0.5000000000000004
 31
0.0
  0
ARC
  5
10000077
102
{ACAD_XDICTIONARY
360
10000078
102
}
330
1F
100
AcDbEntity
  8
VISIBLE
100
AcDbCircle
 10
-42.45
 20
0.0
 30
0.0
 40
0.5000000000000004
100
AcDbArc
 50
179.9999999999998
 51
90.0
  0
LINE
  5
1000007A
102
{ACAD_XDICTIONARY
360
1000007B
102
}
330
1F
100
AcDbEntity
  8
VISIBLE
100
AcDbLine
 10
-50.0
 20
0.0
 30
0.0
 11
-42.95
 21
0.0000000000000014
 31
0.0
  0
LINE
  5
1000007D
102
{ACAD_XDICTIONARY
360
1000007E
102
}
330
1F
100
AcDbEntity
  8
VISIBLE
100
AcDbLine
 10
-50.0
 20
0.0
 30
0.0
 11
-50.0
 21
-7.05
 31
0.0
  0
ARC
  5
10000080
102
{ACAD_XDICTIONARY
360
10000081
102
}
330
1F
100
AcDbEntity
  8
VISIBLE
100
AcDbCircle
 10
-50.0
 20
-7.550000000000001
 30
0.0
 40
0.5000000000000004
100
AcDbArc
 50
180.0
 51
90.0
  0
LINE
  5
10000083
102
{ACAD_XDICTIONARY
360
10000084
102
}
330
1F
100
AcDbEntity
  8
VISIBLE
100
AcDbLine
 10
-51.6
 20
-7.550000000000001
 30
0.0
 11
-50.5
 21
-7.550000000000001
 31
0.0
  0
LINE
  5
10000086
102
{ACAD_XDICTIONARY
360
10000087
102
}
330
1F
100
AcDbEntity
  8
VISIBLE
100
AcDbLine
 10
-51.6
 20
-7.550000000000001
 30
0.0
 11
-51.6
 21
-12.45
 31
0.0
  0
LINE
  5
10000089
102
{ACAD_XDICTIONARY
360
1000008A
102
}
330
1F
100
AcDbEntity
  8
VISIBLE
100
AcDbLine
 10
-51.6
 20
-12.45
 30
0.0
 11
-50.5
 21
-12.45
 31
0.0
  0
ARC
  5
1000008C
102
{ACAD_XDICTIONARY
360
1000008D
102
}
330
1F
100
AcDbEntity
  8
VISIBLE
100
AcDbCircle
 10
-50.0
 20
-12.45
 30
0.0
 40
0.5000000000000004
100
AcDbArc
 50
270.0
 51
180.0
  0
LINE
  5
1000008F
102
{ACAD_XDICTIONARY
360
10000090
102
}
330
1F
100
AcDbEntity
  8
VISIBLE
100
AcDbLine
 10
-50.0
 20
-12.95
 30
0.0
 11
-50.0
 21
-17.05
 31
0.0
  0
ARC
  5
10000092
102
{ACAD_XDICTIONARY
360
10000093
102
}
330
1F
100
AcDbEntity
  8
VISIBLE
100
AcDbCircle
 10
-50.0
 20
-17.55
 30
0.0
 40
0.5000000000000004
100
AcDbArc
 50
180.0
 51
90.0
  0
LINE
  5
10000095
102
{ACAD_XDICTIONARY
360
10000096
102
}
330
1F
100
AcDbEntity
  8
VISIBLE
100
AcDbLine
 10
-51.6
 20
-17.55
 30
0.0
 11
-50.5
 21
-17.55
 31
0.0
  0
LINE
  5
10000098
102
{ACAD_XDICTIONARY
360
10000099
102
}
330
1F
100
AcDbEntity
  8
VISIBLE
100
AcDbLine
 10
-51.6
 20
-17.55
 30
0.0
 11
-51.6
 21
-22.45
 31
0.0
  0
LINE
  5
1000009B
102
{ACAD_XDICTIONARY
360
1000009C
102
}
330
1F
100
AcDbEntity
  8
VISIBLE
100
AcDbLine
 10
-51.6
 20
-22.45
 30
0.0
 11
-50.5
 21
-22.45
 31
0.0
  0
ARC
  5
1000009E
102
{ACAD_XDICTIONARY
360
1000009F
102
}
330
1F
100
AcDbEntity
  8
VISIBLE
100
AcDbCircle
 10
-50.0
 20
-22.45
 30
0.0
 40
0.5000000000000004
100
AcDbArc
 50
270.0
 51
180.0
  0
LINE
  5
100000A1
102
{ACAD_XDICTIONARY
360
100000A2
102
}
330
1F
100
AcDbEntity
  8
VISIBLE
100
AcDbLine
 10
-50.0
 20
-22.95
 30
0.0
 11
-50.0
 21
-27.05
 31
0.0
  0
ARC
  5
100000A4
102
{ACAD_XDICTIONARY
360
100000A5
102
}
330
1F
100
AcDbEntity
  8
VISIBLE
100
AcDbCircle
 10
-50.0
 20
-27.55
 30
0.0
 40
0.5000000000000004
100
AcDbArc
 50
180.0
 51
90.0
  0
LINE
  5
100000A7
102
{ACAD_XDICTIONARY
360
100000A8
102
}
330
1F
100
AcDbEntity
  8
VISIBLE
100
AcDbLine
 10
-51.6
 20
-27.55
 30
0.0
 11
-50.5
 21
-27.55
 31
0.0
  0
LINE
  5
100000AA
102
{ACAD_XDICTIONARY
360
100000AB
102
}
330
1F
100
AcDbEntity
  8
VISIBLE
100
AcDbLine
 10
-51.6
 20
-27.55
 30
0.0
 11
-51.6
 21
-32.45
 31
0.0
  0
LINE
  5
100000AD
102
{ACAD_XDICTIONARY
360
100000AE
102
}
330
1F
100
AcDbEntity
  8
VISIBLE
100
AcDbLine
 10
-51.6
 20
-32.45
 30
0.0
 11
-50.5
 21
-32.45
 31
0.0
  0
ARC
  5
100000B0
102
{ACAD_XDICTIONARY
360
100000B1
102
}
330
1F
100
AcDbEntity
  8
VISIBLE
100
AcDbCircle
 10
-50.0
 20
-32.45
 30
0.0
 40
0.5000000000000004
100
AcDbArc
 50
270.0
 51
180.0
  0
LINE
  5
100000B3
102
{ACAD_XDICTIONARY
360
100000B4
102
}
330
1F
100
AcDbEntity
  8
VISIBLE
100
AcDbLine
 10
-50.0
 20
-32.95
 30
0.0
 11
-50.0
 21
-37.05
 31
0.0
  0
ARC
  5
100000B6
102
{ACAD_XDICTIONARY
360
100000B7
102
}
330
1F
100
AcDbEntity
  8
VISIBLE
100
AcDbCircle
 10
-50.0
 20
-37.55
 30
0.0
 40
0.5000000000000004
100
AcDbArc
 50
180.0
 51
90.0
  0
LINE
  5
100000B9
102
{ACAD_XDICTIONARY
360
100000BA
102
}
330
1F
100
AcDbEntity
  8
VISIBLE
100
AcDbLine
 10
-51.6
 20
-37.55
 30
0.0
 11
-50.5
 21
-37.55
 31
0.0
  0
LINE
  5
100000BC
102
{ACAD_XDICTIONARY
360
100000BD
102
}
330
1F
100
AcDbEntity
  8
VISIBLE
100
AcDbLine
 10
-51.6
 20
-37.55
 30
0.0
 11
-51.6
 21
-42.45
 31
0.0
  0
LINE
  5
100000BF
102
{ACAD_XDICTIONARY
360
100000C0
102
}
330
1F
100
AcDbEntity
  8
VISIBLE
100
AcDbLine
 10
-51.6
 20
-42.45
 30
0.0
 11
-50.5
 21
-42.45
 31
0.0
  0
ARC
  5
100000C2
102
{ACAD_XDICTIONARY
360
100000C3
102
}
330
1F
100
AcDbEntity
  8
VISIBLE
100
AcDbCircle
 10
-50.0
 20
-42.45
 30
0.0
 40
0.5000000000000004
100
AcDbArc
 50
270.0
 51
180.0
  0
LINE
  5
100000C5
102
{ACAD_XDICTIONARY
360
100000C6
102
}
330
1F
100
AcDbEntity
  8
VISIBLE
100
AcDbLine
 10
-50.0
 20
-42.95
 30
0.0
 11
-50.0
 21
-50.0
 31
0.0
  0
LINE
  5
100000C8
102
{ACAD_XDICTIONARY
360
100000C9
102
}
330
1F
100
AcDbEntity
  8
VISIBLE
100
AcDbLine
 10
-50.0
 20
-50.0
 30
0.0
 11
-43.10000000000001
 21
-49.99999999999999
 31
0.0
  0
ARC
  5
100000CB
102
{ACAD_XDICTIONARY
360
100000CC
102
}
330
1F
100
AcDbEntity
  8
VISIBLE
100
AcDbCircle
 10
-42.60000000000001
 20
-49.99999999999999
 30
0.0
 40
0.5000000000000004
100
AcDbArc
 50
270.0
 51
179.9999999999992
  0
LINE
  5
100000CE
102
{ACAD_XDICTIONARY
360
100000CF
102
}
330
1F
100
AcDbEntity
  8
VISIBLE
100
AcDbLine
 10
-42.60000000000001
 20
-50.49999999999999
 30
0.0
 11
-42.60000000000001
 21
-51.59999999999999
 31
0.0
  0
LINE
  5
100000D1
102
{ACAD_XDICTIONARY
360
100000D2
102
}
330
1F
100
AcDbEntity
  8
VISIBLE
100
AcDbLine
 10
-42.60000000000001
 20
-51.59999999999999
 30
0.0
 11
-37.7
 21
-51.59999999999999
 31
0.0
  0
LINE
  5
100000D4
102
{ACAD_XDICTIONARY
360
100000D5
102
}
330
1F
100
AcDbEntity
  8
VISIBLE
100
AcDbLine
 10
-37.7
 20
-50.49999999999999
 30
0.0
 11
-37.7
 21
-51.59999999999999
 31
0.0
  0
ARC
  5
100000D7
102
{ACAD_XDICTIONARY
360
100000D8
102
}
330
1F
100
AcDbEntity
  8
VISIBLE
100
AcDbCircle
 10
-37.7
 20
-49.99999999999999
 30
0.0
 40
0.5000000000000004
100
AcDbArc
 50
0.0
 51
270.0
  0
LINE
  5
100000DA
102
{ACAD_XDICTIONARY
360
100000DB
102
}
330
1F
100
AcDbEntity
  8
VISIBLE
100
AcDbLine
 10
-37.2
 20
-50.0
 30
0.0
 11
-33.1
 21
-50.0
 31
0.0
  0
ARC
  5
100000DD
102
{ACAD_XDICTIONARY
360
100000DE
102
}
330
1F
100
AcDbEntity
  8
VISIBLE
100
AcDbCircle
 10
-32.6
 20
-49.99999999999999
 30
0.0
 40
0.5000000000000004
100
AcDbArc
 50
270.0
 51
180.0000000000008
  0
LINE
  5
100000E0
102
{ACAD_XDICTIONARY
360
100000E1
102
}
330
1F
100
AcDbEntity
  8
VISIBLE
100
AcDbLine
 10
-32.6
 20
-50.49999999999999
 30
0.0
 11
-32.6
 21
-51.59999999999999
 31
0.0
  0
LINE
  5
100000E3
102
{ACAD_XDICTIONARY
360
100000E4
102
}
330
1F
100
AcDbEntity
  8
VISIBLE
100
AcDbLine
 10
-32.6
 20
-51.59999999999999
 30
0.0
 11
-27.7
 21
-51.59999999999999
 31
0.0
  0
LINE
  5
100000E6
102
{ACAD_XDICTIONARY
360
100000E7
102
}
330
1F
100
AcDbEntity
  8
VISIBLE
100
AcDbLine
 10
-27.7
 20
-50.49999999999999
 30
0.0
 11
-27.7
 21
-51.59999999999999
 31
0.0
  0
ARC
  5
100000E9
102
{ACAD_XDICTIONARY
360
100000EA
102
}
330
1F
100
AcDbEntity
  8
VISIBLE
100
AcDbCircle
 10
-27.7
 20
-49.99999999999999
 30
0.0
 40
0.5000000000000004
100
AcDbArc
 50
0.0
 51
270.0
  0
LINE
  5
100000EC
102
{ACAD_XDICTIONARY
360
100000ED
102
}
330
1F
100
AcDbEntity
  8
VISIBLE
100
AcDbLine
 10
-27.2
 20
-50.00000000000001
 30
0.0
 11
-23.1
 21
-50.00000000000001
 31
0.0
  0
ARC
  5
100000EF
102
{ACAD_XDICTIONARY
360
100000F0
102
}
330
1F
100
AcDbEntity
  8
VISIBLE
100
AcDbCircle
 10
-22.6
 20
-49.99999999999999
 30
0.0
 40
0.5000000000000004
100
AcDbArc
 50
270.0
 51
180.0000000000016
  0
LINE
  5
100000F2
102
{ACAD_XDICTIONARY
360
100000F3
102
}
330
1F
100
AcDbEntity
  8
VISIBLE
100
AcDbLine
 10
-22.6
 20
-50.49999999999999
 30
0.0
 11
-22.6
 21
-51.59999999999999
 31
0.0
  0
LINE
  5
100000F5
102
{ACAD_XDICTIONARY
360
100000F6
102
}
330
1F
100
AcDbEntity
  8
VISIBLE
100
AcDbLine
 10
-22.6
 20
-51.59999999999999
 30
0.0
 11
-17.7
 21
-51.59999999999999
 31
0.0
  0
LINE
  5
100000F8
102
{ACAD_XDICTIONARY
360
100000F9
102
}
330
1F
100
AcDbEntity
  8
VISIBLE
100
AcDbLine
 10
-17.7
 20
-50.49999999999999
 30
0.0
 11
-17.7
 21
-51.59999999999999
 31
0.0
  0
ARC
  5
100000FB
102
{ACAD_XDICTIONARY
360
100000FC
102
}
330
1F
100
AcDbEntity
  8
VISIBLE
100
AcDbCircle
 10
-17.7
 20
-49.99999999999999
 30
0.0
 40
0.5000000000000004
100
AcDbArc
 50
0.0
 51
270.0
  0
LINE
  5
100000FE
102
{ACAD_XDICTIONARY
360
100000FF
102
}
330
1F
100
AcDbEntity
  8
VISIBLE
100
AcDbLine
 10
-17.2
 20
-50.00000000000001
 30
0.0
 11
-13.1
 21
-50.00000000000001
 31
0.0
  0
ARC
  5
10000101
102
{ACAD_XDICTIONARY
360
10000102
102
}
330
1F
100
AcDbEntity
  8
VISIBLE
100
AcDbCircle
 10
-12.6
 20
-50.0
 30
0.0
 40
0.5000000000000004
100
AcDbArc
 50
270.0
 51
180.0000000000008
  0
LINE
  5
10000104
102
{ACAD_XDICTIONARY
360
10000105
102
}
330
1F
100
AcDbEntity
  8
VISIBLE
100
AcDbLine
 10
-12.6
 20
-50.5
 30
0.0
 11
-12.6
 21
-51.6
 31
0.0
  0
LINE
  5
10000107
102
{ACAD_XDICTIONARY
360
10000108
102
}
330
1F
100
AcDbEntity
  8
VISIBLE
100
AcDbLine
 10
-12.6
 20
-51.6
 30
0.0
 11
-7.699999999999999
 21
-51.59999999999999
 31
0.0
  0
LINE
  5
1000010A
102
{ACAD_XDICTIONARY
360
1000010B
102
}
330
1F
100
AcDbEntity
  8
VISIBLE
100
AcDbLine
 10
-7.699999999999998
 20
-50.5
 30
0.0
 11
-7.699999999999999
 21
-51.59999999999999
 31
0.0
  0
ARC
  5
1000010D
102
{ACAD_XDICTIONARY
360
1000010E
102
}
330
1F
100
AcDbEntity
  8
VISIBLE
100
AcDbCircle
 10
-7.699999999999998
 20
-50.0
 30
0.0
 40
0.5000000000000004
100
AcDbArc
 50
0.0
 51
270.0
  0
LINE
  5
10000110
102
{ACAD_XDICTIONARY
360
10000111
102
}
330
1F
100
AcDbEntity
  8
VISIBLE
100
AcDbLine
 10
-7.199999999999998
 20
-50.00000000000001
 30
0.0
 11
-0.0000000000000234
 21
-50.00000000000001
 31
0.0
  0
LINE
  5
10000113
102
{ACAD_XDICTIONARY
360
10000114
102
}
330
1F
100
AcDbEntity
  8
VISIBLE
100
AcDbLine
 10
-0.0000000000000095
 20
-43.05
 30
0.0
 11
-0.0000000000000234
 21
-50.00000000000001
 31
0.0
  0
ARC
  5
10000116
102
{ACAD_XDICTIONARY
360
10000117
102
}
330
1F
100
AcDbEntity
  8
VISIBLE
100
AcDbCircle
 10
-0.0000000000000095
 20
-42.55
 30
0.0
 40
0.5
100
AcDbArc
 50
0.0
 51
270.0
  0
LINE
  5
10000119
102
{ACAD_XDICTIONARY
360
1000011A
102
}
330
1F
100
AcDbEntity
  8
VISIBLE
100
AcDbLine
 10
0.4999999999999905
 20
-42.55
 30
0.0
 11
1.59999999999999
 21
-42.55
 31
0.0
  0
LINE
  5
1000011C
102
{ACAD_XDICTIONARY
360
1000011D
102
}
330
1F
100
AcDbEntity
  8
VISIBLE
100
AcDbLine
 10
1.59999999999999
 20
-42.55
 30
0.0
 11
1.599999999999994
 21
-37.65
 31
0.0
  0
LINE
  5
1000011F
102
{ACAD_XDICTIONARY
360
10000120
102
}
330
1F
100
AcDbEntity
  8
VISIBLE
100
AcDbLine
 10
0.4999999999999909
 20
-37.65
 30
0.0
 11
1.599999999999994
 21
-37.65
 31
0.0
  0
ARC
  5
10000122
102
{ACAD_XDICTIONARY
360
10000123
102
}
330
1F
100
AcDbEntity
  8
VISIBLE
100
AcDbCircle
 10
-0.0000000000000091
 20
-37.65
 30
0.0
 40
0.5
100
AcDbArc
 50
90.0
 51
0.0
  0
LINE
  5
10000125
102
{ACAD_XDICTIONARY
360
10000126
102
}
330
1F
100
AcDbEntity
  8
VISIBLE
100
AcDbLine
 10
-0.0000000000000083
 20
-33.05
 30
0.0
 11
-0.0000000000000091
 21
-37.15
 31
0.0
  0
ARC
  5
10000128
102
{ACAD_XDICTIONARY
360
10000129
102
}
330
1F
100
AcDbEntity
  8
VISIBLE
100
AcDbCircle
 10
-0.0000000000000083
 20
-32.55
 30
0.0
 40
0.5
100
AcDbArc
 50
0.0
 51
270.0
  0
LINE
  5
1000012B
102
{ACAD_XDICTIONARY
360
1000012C
102
}
330
1F
100
AcDbEntity
  8
VISIBLE
100
AcDbLine
 10
0.4999999999999917
 20
-32.55
 30
0.0
 11
1.599999999999992
 21
-32.55
 31
0.0
  0
LINE
  5
1000012E
102
{ACAD_XDICTIONARY
360
1000012F
102
}
330
1F
100
AcDbEntity
  8
VISIBLE
100
AcDbLine
 10
1.599999999999992
 20
-32.55
 30
0.0
 11
1.599999999999994
 21
-27.65
 31
0.0
  0
LINE
  5
10000131
102
{ACAD_XDICTIONARY
360
10000132
102
}
330
1F
100
AcDbEntity
  8
VISIBLE
100
AcDbLine
 10
0.4999999999999918
 20
-27.65
 30
0.0
 11
1.599999999999994
 21
-27.65
 31
0.0
  0
ARC
  5
10000134
102
{ACAD_XDICTIONARY
360
10000135
102
}
330
1F
100
AcDbEntity
  8
VISIBLE
100
AcDbCircle
 10
-0.0000000000000082
 20
-27.65
 30
0.0
 40
0.5
100
AcDbArc
 50
90.0
 51
0.0
  0
LINE
  5
10000137
102
{ACAD_XDICTIONARY
360
10000138
102
}
330
1F
100
AcDbEntity
  8
VISIBLE
100
AcDbLine
 10
-0.000000000000007
 20
-23.05
 30
0.0
 11
-0.0000000000000082
 21
-27.15
 31
0.0
  0
ARC
  5
1000013A
102
{ACAD_XDICTIONARY
360
1000013B
102
}
330
1F
100
AcDbEntity
  8
VISIBLE
100
AcDbCircle
 10
-0.000000000000007
 20
-22.55
 30
0.0
 40
0.5
100
AcDbArc
 50
0.0
 51
270.0
  0
LINE
  5
1000013D
102
{ACAD_XDICTIONARY
360
1000013E
102
}
330
1F
100
AcDbEntity
  8
VISIBLE
100
AcDbLine
 10
0.499999999999993
 20
-22.55
 30
0.0
 11
1.599999999999993
 21
-22.55
 31
0.0
  0
LINE
  5
10000140
102
{ACAD_XDICTIONARY
360
10000141
102
}
330
1F
100
AcDbEntity
  8
VISIBLE
100
AcDbLine
 10
1.599999999999993
 20
-22.55
 30
0.0
 11
1.599999999999994
 21
-17.65
 31
0.0
  0
LINE
  5
10000143
102
{ACAD_XDICTIONARY
360
10000144
102
}
330
1F
100
AcDbEntity
  8
VISIBLE
100
AcDbLine
 10
0.4999999999999931
 20
-17.65
 30
0.0
 11
1.599999999999994
 21
-17.65
 31
0.0
  0
ARC
  5
10000146
102
{ACAD_XDICTIONARY
360
10000147
102
}
330
1F
100
AcDbEntity
  8
VISIBLE
100
AcDbCircle
 10
-0.0000000000000069
 20
-17.65
 30
0.0
 40
0.5
100
AcDbArc
 50
90.0
 51
0.0
  0
LINE
  5
10000149
102
{ACAD_XDICTIONARY
360
1000014A
102
}
330
1F
100
AcDbEntity
  8
VISIBLE
100
AcDbLine
 10
-0.0000000000000059
 20
-13.05
 30
0.0
 11
-0.0000000000000069
 21
-17.15
 31
0.0
  0
ARC
  5
1000014C
102
{ACAD_XDICTIONARY
360
1000014D
102
}
330
1F
100
AcDbEntity
  8
VISIBLE
100
AcDbCircle
 10
-0.0000000000000059
 20
-12.55
 30
0.0
 40
0.5
100
AcDbArc
 50
0.0
 51
270.0
  0
LINE
  5
1000014F
102
{ACAD_XDICTIONARY
360
10000150
102
}
330
1F
100
AcDbEntity
  8
VISIBLE
100
AcDbLine
 10
0.4999999999999942
 20
-12.55
 30
0.0
 11
1.599999999999994
 21
-12.55
 31
0.0
  0
LINE
  5
10000152
102
{ACAD_XDICTIONARY
360
10000153
102
}
330
1F
100
AcDbEntity
  8
VISIBLE
100
AcDbLine
 10
1.599999999999994
 20
-12.55
 30
0.0
 11
1.599999999999994
 21
-7.649999999999998
 31
0.0
  0
LINE
  5
10000155
102
{ACAD_XDICTIONARY
360
10000156
102
}
330
1F
100
AcDbEntity
  8
VISIBLE
100
AcDbLine
 10
0.4999999999999944
 20
-7.649999999999998
 30
0.0
 11
1.599999999999994
 21
-7.649999999999998
 31
0.0
  0
ARC
  5
10000158
102
{ACAD_XDICTIONARY
360
10000159
102
}
330
1F
100
AcDbEntity
  8
VISIBLE
100
AcDbCircle
 10
-0.0000000000000056
 20
-7.649999999999998
 30
0.0
 40
0.5
100
AcDbArc
 50
90.0
 51
0.0
  0
LINE
  5
1000015B
102
{ACAD_XDICTIONARY
360
1000015C
102
}
330
1F
100
AcDbEntity
  8
VISIBLE
100
AcDbLine
 10
0.0
 20
0.0
 30
0.0
 11
-0.0000000000000056
 21
-7.149999999999999
 31
0.0
  0
LINE
  5
1000015E
102
{ACAD_XDICTIONARY
360
1000015F
102
}
330
1F
100
AcDbEntity
  8
VISIBLE
100
AcDbLine
 10
-7.049999999999994
 20
0.0000000000000014
 30
0.0
 11
0.0
 21
0.0
 31
0.0
  0
ARC
  5
10000161
102
{ACAD_XDICTIONARY
360
10000162
102
}
330
1F
100
AcDbEntity
  8
VISIBLE
100
AcDbCircle
 10
-7.549999999999994
 20
0.0000000000000004
 30
0.0
 40
0.5000000000000004
100
AcDbArc
 50
90.0
 51
0.0
  0
LINE
  5
10000164
102
{ACAD_XDICTIONARY
360
10000165
102
}
330
1F
100
AcDbEntity
  8
VISIBLE
100
AcDbLine
 10
-7.549999999999994
 20
1.599999999999992
 30
0.0
 11
-7.549999999999994
 21
0.5000000000000009
 31
0.0
  0
LINE
  5
10000167
102
{ACAD_XDICTIONARY
360
10000168
102
}
330
1F
100
AcDbEntity
  8
VISIBLE
100
AcDbLine
 10
-12.45
 20
1.600000000000003
 30
0.0
 11
-7.549999999999994
 21
1.599999999999992
 31
0.0
  0
LINE
  5
1000016A
102
{ACAD_XDICTIONARY
360
1000016B
102
}
330
1F
100
AcDbEntity
  8
VISIBLE
100
AcDbLine
 10
-12.45
 20
1.600000000000003
 30
0.0
 11
-12.45
 21
0.4999999999999968
 31
0.0
  0
ARC
  5
1000016D
102
{ACAD_XDICTIONARY
360
1000016E
102
}
330
1F
100
AcDbEntity
  8
VISIBLE
100
AcDbCircle
 10
-12.45
 20
-0.0000000000000037
 30
0.0
 40
0.5000000000000004
100
AcDbArc
 50
179.9999999999993
 51
90.0
  0
LINE
  5
10000170
102
{ACAD_XDICTIONARY
360
10000171
102
}
330
1F
100
AcDbEntity
  8
VISIBLE
100
AcDbLine
 10
-17.05
 20
0.0000000000000016
 30
0.0
 11
-12.95
 21
0.0000000000000021
 31
0.0
  0
ARC
  5
10000173
102
{ACAD_XDICTIONARY
360
10000174
102
}
330
1F
100
AcDbEntity
  8
VISIBLE
100
AcDbCircle
 10
-17.55
 20
0.0000000000000016
 30
0.0
 40
0.5000000000000004
100
AcDbArc
 50
90.0
 51
0.0
  0
LINE
  5
10000176
102
{ACAD_XDICTIONARY
360
10000177
102
}
330
1F
100
AcDbEntity
  8
VISIBLE
100
AcDbLine
 10
-17.55
 20
1.599999999999993
 30
0.0
 11
-17.55
 21
0.5000000000000021
 31
0.0
  0
LINE
  5
10000179
102
{ACAD_XDICTIONARY
360
1000017A
102
}
330
1F
100
AcDbEntity
  8
VISIBLE
100
AcDbLine
 10
-22.45
 20
1.600000000000003
 30
0.0
 11
-17.55
 21
1.599999999999993
 31
0.0
  0
LINE
  5
1000017C
102
{ACAD_XDICTIONARY
360
1000017D
102
}
330
1F
100
AcDbEntity
  8
VISIBLE
100
AcDbLine
 10
-22.45
 20
1.600000000000003
 30
0.0
 11
-22.45
 21
0.4999999999999979
 31
0.0
  0
ARC
  5
1000017F
102
{ACAD_XDICTIONARY
360
10000180
102
}
330
1F
100
AcDbEntity
  8
VISIBLE
100
AcDbCircle
 10
-22.45
 20
-0.0000000000000025
 30
0.0
 40
0.5000000000000004
100
AcDbArc
 50
179.9999999999995
 51
90.0
  0
LINE
  5
10000182
102
{ACAD_XDICTIONARY
360
10000183
102
}
330
1F
100
AcDbEntity
  8
VISIBLE
100
AcDbLine
 10
-27.05
 20
0.0000000000000016
 30
0.0
 11
-22.95
 21
0.0000000000000021
 31
0.0
  0
ARC
  5
10000185
102
{ACAD_XDICTIONARY
360
10000186
102
}
330
1F
100
AcDbEntity
  8
VISIBLE
100
AcDbCircle
 10
-27.55
 20
0.0000000000000029
 30
0.0
 40
0.5000000000000004
100
AcDbArc
 50
90.0
 51
0.0
  0
LINE
  5
10000188
102
{ACAD_XDICTIONARY
360
10000189
102
}
330
1F
100
AcDbEntity
  8
VISIBLE
100
AcDbLine
 10
-27.55
 20
1.599999999999994
 30
0.0
 11
-27.55
 21
0.5000000000000033
 31
0.0
  0
LINE
  5
1000018B
102
{ACAD_XDICTIONARY
360
1000018C
102
}
330
1F
100
AcDbEntity
  8
VISIBLE
100
AcDbLine
 10
-32.45
 20
1.600000000000003
 30
0.0
 11
-27.55
 21
1.599999999999994
 31
0.0
  0
LINE
  5
1000018E
102
{ACAD_XDICTIONARY
360
1000018F
102
}
330
1F
100
AcDbEntity
  8
VISIBLE
100
AcDbLine
 10
-32.45
 20
1.600000000000003
 30
0.0
 11
-32.45
 21
0.4999999999999993
 31
0.0
  0
ARC
  5
10000191
102
{ACAD_XDICTIONARY
360
10000192
102
}
330
1F
100
AcDbEntity
  8
VISIBLE
100
AcDbCircle
 10
-32.45
 20
-0.0000000000000012
 30
0.0
 40
0.5000000000000004
100
AcDbArc
 50
179.9999999999996
 51
90.0
  0
LINE
  5
10000194
102
{ACAD_XDICTIONARY
360
10000195
102
}
330
1F
100
AcDbEntity
  8
VISIBLE
100
AcDbLine
 10
-37.05
 20
0.0000000000000016
 30
0.0
 11
-32.95
 21
0.0000000000000021
 31
0.0
  0
SPLINE
  5
10000197
102
{ACAD_XDICTIONARY
360
10000198
102
}
330
1F
100
AcDbEntity
  8
VISIBLE
100
AcDbSpline
210
0.0
220
0.0
230
1.0
 70
    11
 71
     3
 72
    17
 73
    13
 74
     0
 42
0.000000001
 43
0.00000001
 40
0.0
 40
0.0
 40
0.0
 40
0.0
 40
1.0
 40
1.0
 40
1.0
 40
2.0
 40
2.0
 40
2.0
 40
3.0
 40
3.0
 40
3.0
 40
4.0
 40
4.0
 40
4.0
 40
4.0
 10
-9.616254230792986
 20
-22.14977099543382
 30
0.0
 10
-9.616254230792986
 20
-23.04723399543381
 30
0.0
 10
-8.888717230792958
 20
-23.77477099543382
 30
0.0
 10
-7.991254230792971
 20
-23.77477099543382
 30
0.0
 10
-7.093792230792956
 20
-23.77477099543382
 30
0.0
 10
-6.366254230792983
 20
-23.04723399543381
 30
0.0
 10
-6.366254230792983
 20
-22.14977099543382
 30
0.0
 10
-6.366254230792983
 20
-21.25230899543381
 30
0.0
 10
-7.093792230792956
 20
-20.52477099543381
 30
0.0
 10
-7.991254230792971
 20
-20.52477099543381
 30
0.0
 10
-8.888717230792958
 20
-20.52477099543381
 30
0.0
 10
-9.616254230792986
 20
-21.25230899543381
 30
0.0
 10
-9.616254230792986
 20
-22.14977099543382
 30
0.0
  0
SPLINE
  5
1000019A
102
{ACAD_XDICTIONARY
360
1000019B
102
}
330
1F
100
AcDbEntity
  8
VISIBLE
100
AcDbSpline
210
0.0
220
0.0
230
1.0
 70
    11
 71
     3
 72
    17
 73
    13
 74
     0
 42
0.000000001
 43
0.00000001
 40
0.0
 40
0.0
 40
0.0
 40
0.0
 40
1.0
 40
1.0
 40
1.0
 40
2.0
 40
2.0
 40
2.0
 40
3.0
 40
3.0
 40
3.0
 40
4.0
 40
4.0
 40
4.0
 40
4.0
 10
-26.84486523079299
 20
-18.3819939954338
 30
0.0
 10
-26.84486523079299
 20
-18.7962069954338
 30
0.0
 10
-26.50907923079304
 20
-19.13199399543381
 30
0.0
 10
-26.09486523079302
 20
-19.13199399543381
 30
0.0
 10
-25.68065223079297
 20
-19.13199399543381
 30
0.0
 10
-25.34486523079299
 20
-18.7962069954338
 30
0.0
 10
-25.34486523079299
 20
-18.3819939954338
 30
0.0
 10
-25.34486523079299
 20
-17.96777999543381
 30
0.0
 10
-25.68065223079297
 20
-17.6319939954338
 30
0.0
 10
-26.09486523079302
 20
-17.6319939954338
 30
0.0
 10
-26.50907923079304
 20
-17.6319939954338
 30
0.0
 10
-26.84486523079299
 20
-17.96777999543381
 30
0.0
 10
-26.84486523079299
 20
-18.3819939954338
 30
0.0
  0
SPLINE
  5
1000019D
102
{ACAD_XDICTIONARY
360
1000019E
102
}
330
1F
100
AcDbEntity
  8
VISIBLE
100
AcDbSpline
210
0.0
220
0.0
230
1.0
 70
    11
 71
     3
 72
    17
 73
    13
 74
     0
 42
0.000000001
 43
0.00000001
 40
0.0
 40
0.0
 40
0.0
 40
0.0
 40
1.0
 40
1.0
 40
1.0
 40
2.0
 40
2.0
 40
2.0
 40
3.0
 40
3.0
 40
3.0
 40
4.0
 40
4.0
 40
4.0
 40
4.0
 10
-22.61153223079299
 20
-34.2569939954338
 30
0.0
 10
-22.61153223079299
 20
-34.67120699543381
 30
0.0
 10
-22.27574623079304
 20
-35.0069939954338
 30
0.0
 10
-21.86153223079301
 20
-35.0069939954338
 30
0.0
 10
-21.44731823079299
 20
-35.0069939954338
 30
0.0
 10
-21.11153223079299
 20
-34.67120699543381
 30
0.0
 10
-21.11153223079299
 20
-34.2569939954338
 30
0.0
 10
-21.11153223079299
 20
-33.84277999543381
 30
0.0
 10
-21.44731823079299
 20
-33.5069939954338
 30
0.0
 10
-21.86153223079301
 20
-33.5069939954338
 30
0.0
 10
-22.27574623079304
 20
-33.5069939954338
 30
0.0
 10
-22.61153223079299
 20
-33.84277999543381
 30
0.0
 10
-22.61153223079299
 20
-34.2569939954338
 30
0.0
  0
SPLINE
  5
100001A0
102
{ACAD_XDICTIONARY
360
100001A1
102
}
330
1F
100
AcDbEntity
  8
VISIBLE
100
AcDbSpline
210
0.0
220
0.0
230
1.0
 70
    11
 71
     3
 72
    17
 73
    13
 74
     0
 42
0.000000001
 43
0.00000001
 40
0.0
 40
0.0
 40
0.0
 40
0.0
 40
1.0
 40
1.0
 40
1.0
 40
2.0
 40
2.0
 40
2.0
 40
3.0
 40
3.0
 40
3.0
 40
4.0
 40
4.0
 40
4.0
 40
4.0
 10
-26.49208823079299
 20
-4.976437995433809
 30
0.0
 10
-26.49208823079299
 20
-5.390651995433808
 30
0.0
 10
-26.15630123079302
 20
-5.726437995433805
 30
0.0
 10
-25.74208823079297
 20
-5.726437995433805
 30
0.0
 10
-25.32787423079294
 20
-5.726437995433805
 30
0.0
 10
-24.99208823079299
 20
-5.390651995433808
 30
0.0
 10
-24.99208823079299
 20
-4.976437995433809
 30
0.0
 10
-24.99208823079299
 20
-4.562223995433809
 30
0.0
 10
-25.32787423079294
 20
-4.226437995433808
 30
0.0
 10
-25.74208823079297
 20
-4.226437995433808
 30
0.0
 10
-26.15630123079302
 20
-4.226437995433808
 30
0.0
 10
-26.49208823079299
 20
-4.562223995433809
 30
0.0
 10
-26.49208823079299
 20
-4.976437995433809
 30
0.0
  0
SPLINE
  5
100001A3
102
{ACAD_XDICTIONARY
360
100001A4
102
}
330
1F
100
AcDbEntity
  8
VISIBLE
100
AcDbSpline
210
0.0
220
0.0
230
1.0
 70
    11
 71
     3
 72
    17
 73
    13
 74
     0
 42
0.000000001
 43
0.00000001
 40
0.0
 40
0.0
 40
0.0
 40
0.0
 40
1.0
 40
1.0
 40
1.0
 40
2.0
 40
2.0
 40
2.0
 40
3.0
 40
3.0
 40
3.0
 40
4.0
 40
4.0
 40
4.0
 40
4.0
 10
-41.30875423079294
 20
-46.25143799543381
 30
0.0
 10
-41.30875423079294
 20
-46.66565199543382
 30
0.0
 10
-40.97296823079294
 20
-47.00143799543381
 30
0.0
 10
-40.55875423079297
 20
-47.00143799543381
 30
0.0
 10
-40.14454123079292
 20
-47.00143799543381
 30
0.0
 10
-39.80875423079294
 20
-46.66565199543382
 30
0.0
 10
-39.80875423079294
 20
-46.25143799543381
 30
0.0
 10
-39.80875423079294
 20
-45.83722399543382
 30
0.0
 10
-40.14454123079292
 20
-45.50143799543381
 30
0.0
 10
-40.55875423079297
 20
-45.50143799543381
 30
0.0
 10
-40.97296823079294
 20
-45.50143799543381
 30
0.0
 10
-41.30875423079294
 20
-45.83722399543382
 30
0.0
 10
-41.30875423079294
 20
-46.25143799543381
 30
0.0
  0
SPLINE
  5
100001A6
102
{ACAD_XDICTIONARY
360
100001A7
102
}
330
1F
100
AcDbEntity
  8
VISIBLE
100
AcDbSpline
210
0.0
220
0.0
230
1.0
 70
    11
 71
     3
 72
    17
 73
    13
 74
     0
 42
0.000000001
 43
0.00000001
 40
0.0
 40
0.0
 40
0.0
 40
0.0
 40
1.0
 40
1.0
 40
1.0
 40
2.0
 40
2.0
 40
2.0
 40
3.0
 40
3.0
 40
3.0
 40
4.0
 40
4.0
 40
4.0
 40
4.0
 10
-4.619865230793025
 20
-30.37643799543383
 30
0.0
 10
-4.619865230793025
 20
-30.79065199543382
 30
0.0
 10
-4.284079230792992
 20
-31.12643799543383
 30
0.0
 10
-3.869865230793024
 20
-31.12643799543383
 30
0.0
 10
-3.455652230793
 20
-31.12643799543383
 30
0.0
 10
-3.119865230793023
 20
-30.79065199543382
 30
0.0
 10
-3.119865230793023
 20
-30.37643799543383
 30
0.0
 10
-3.119865230793023
 20
-29.96222399543383
 30
0.0
 10
-3.455652230793
 20
-29.62643799543383
 30
0.0
 10
-3.869865230793024
 20
-29.62643799543383
 30
0.0
 10
-4.284079230792992
 20
-29.62643799543383
 30
0.0
 10
-4.619865230793025
 20
-29.96222399543383
 30
0.0
 10
-4.619865230793025
 20
-30.37643799543383
 30
0.0
  0
SPLINE
  5
100001A9
102
{ACAD_XDICTIONARY
360
100001AA
102
}
330
1F
100
AcDbEntity
  8
VISIBLE
100
AcDbSpline
210
0.0
220
0.0
230
1.0
 70
    11
 71
     3
 72
    17
 73
    13
 74
     0
 42
0.000000001
 43
0.00000001
 40
0.0
 40
0.0
 40
0.0
 40
0.0
 40
1.0
 40
1.0
 40
1.0
 40
2.0
 40
2.0
 40
2.0
 40
3.0
 40
3.0
 40
3.0
 40
4.0
 40
4.0
 40
4.0
 40
4.0
 10
-8.853199230793003
 20
-13.4431049954338
 30
0.0
 10
-8.853199230793003
 20
-13.8573179954338
 30
0.0
 10
-8.517412230793026
 20
-14.1931049954338
 30
0.0
 10
-8.103199230793
 20
-14.1931049954338
 30
0.0
 10
-7.688985230793005
 20
-14.1931049954338
 30
0.0
 10
-7.353199230793001
 20
-13.8573179954338
 30
0.0
 10
-7.353199230793001
 20
-13.4431049954338
 30
0.0
 10
-7.353199230793001
 20
-13.0288909954338
 30
0.0
 10
-7.688985230793005
 20
-12.6931049954338
 30
0.0
 10
-8.103199230793
 20
-12.6931049954338
 30
0.0
 10
-8.517412230793026
 20
-12.6931049954338
 30
0.0
 10
-8.853199230793003
 20
-13.0288909954338
 30
0.0
 10
-8.853199230793003
 20
-13.4431049954338
 30
0.0
  0
SPLINE
  5
100001AC
102
{ACAD_XDICTIONARY
360
100001AD
102
}
330
1F
100
AcDbEntity
  8
VISIBLE
100
AcDbSpline
210
0.0
220
0.0
230
1.0
 70
    11
 71
     3
 72
    17
 73
    13
 74
     0
 42
0.000000001
 43
0.00000001
 40
0.0
 40
0.0
 40
0.0
 40
0.0
 40
1.0
 40
1.0
 40
1.0
 40
2.0
 40
2.0
 40
2.0
 40
3.0
 40
3.0
 40
3.0
 40
4.0
 40
4.0
 40
4.0
 40
4.0
 10
-12.38097623079301
 20
-39.19588199543381
 30
0.0
 10
-12.38097623079301
 20
-39.61009599543381
 30
0.0
 10
-12.04519023079301
 20
-39.94588199543381
 30
0.0
 10
-11.63097623079301
 20
-39.94588199543381
 30
0.0
 10
-11.21676323079299
 20
-39.94588199543381
 30
0.0
 10
-10.88097623079301
 20
-39.61009599543381
 30
0.0
 10
-10.88097623079301
 20
-39.19588199543381
 30
0.0
 10
-10.88097623079301
 20
-38.7816689954338
 30
0.0
 10
-11.21676323079299
 20
-38.44588199543381
 30
0.0
 10
-11.63097623079301
 20
-38.44588199543381
 30
0.0
 10
-12.04519023079301
 20
-38.44588199543381
 30
0.0
 10
-12.38097623079301
 20
-38.7816689954338
 30
0.0
 10
-12.38097623079301
 20
-39.19588199543381
 30
0.0
  0
SPLINE
  5
100001AF
102
{ACAD_XDICTIONARY
360
100001B0
102
}
330
1F
100
AcDbEntity
  8
VISIBLE
100
AcDbSpline
210
0.0
220
0.0
230
1.0
 70
    11
 71
     3
 72
    17
 73
    13
 74
     0
 42
0.000000001
 43
0.00000001
 40
0.0
 40
0.0
 40
0.0
 40
0.0
 40
1.0
 40
1.0
 40
1.0
 40
2.0
 40
2.0
 40
2.0
 40
3.0
 40
3.0
 40
3.0
 40
4.0
 40
4.0
 40
4.0
 40
4.0
 10
-8.853199230793003
 20
-46.25143799543381
 30
0.0
 10
-8.853199230793003
 20
-46.66565199543382
 30
0.0
 10
-8.517412230793026
 20
-47.00143799543381
 30
0.0
 10
-8.103199230793
 20
-47.00143799543381
 30
0.0
 10
-7.688985230793005
 20
-47.00143799543381
 30
0.0
 10
-7.353199230793001
 20
-46.66565199543382
 30
0.0
 10
-7.353199230793001
 20
-46.25143799543381
 30
0.0
 10
-7.353199230793001
 20
-45.83722399543382
 30
0.0
 10
-7.688985230793005
 20
-45.50143799543381
 30
0.0
 10
-8.103199230793
 20
-45.50143799543381
 30
0.0
 10
-8.517412230793026
 20
-45.50143799543381
 30
0.0
 10
-8.853199230793003
 20
-45.83722399543382
 30
0.0
 10
-8.853199230793003
 20
-46.25143799543381
 30
0.0
  0
SPLINE
  5
100001B2
102
{ACAD_XDICTIONARY
360
100001B3
102
}
330
1F
100
AcDbEntity
  8
VISIBLE
100
AcDbSpline
210
0.0
220
0.0
230
1.0
 70
    11
 71
     3
 72
    17
 73
    13
 74
     0
 42
0.000000001
 43
0.00000001
 40
0.0
 40
0.0
 40
0.0
 40
0.0
 40
1.0
 40
1.0
 40
1.0
 40
2.0
 40
2.0
 40
2.0
 40
3.0
 40
3.0
 40
3.0
 40
4.0
 40
4.0
 40
4.0
 40
4.0
 10
-16.61431023079299
 20
-8.151437995433806
 30
0.0
 10
-16.61431023079299
 20
-8.565651995433807
 30
0.0
 10
-16.27852323079301
 20
-8.901437995433803
 30
0.0
 10
-15.86431023079299
 20
-8.901437995433803
 30
0.0
 10
-15.45009623079302
 20
-8.901437995433803
 30
0.0
 10
-15.11431023079299
 20
-8.565651995433807
 30
0.0
 10
-15.11431023079299
 20
-8.151437995433806
 30
0.0
 10
-15.11431023079299
 20
-7.737223995433811
 30
0.0
 10
-15.45009623079302
 20
-7.401437995433814
 30
0.0
 10
-15.86431023079299
 20
-7.401437995433814
 30
0.0
 10
-16.27852323079301
 20
-7.401437995433814
 30
0.0
 10
-16.61431023079299
 20
-7.737223995433811
 30
0.0
 10
-16.61431023079299
 20
-8.151437995433806
 30
0.0
  0
SPLINE
  5
100001B5
102
{ACAD_XDICTIONARY
360
100001B6
102
}
330
1F
100
AcDbEntity
  8
VISIBLE
100
AcDbSpline
210
0.0
220
0.0
230
1.0
 70
    11
 71
     3
 72
    17
 73
    13
 74
     0
 42
0.000000001
 43
0.00000001
 40
0.0
 40
0.0
 40
0.0
 40
0.0
 40
1.0
 40
1.0
 40
1.0
 40
2.0
 40
2.0
 40
2.0
 40
3.0
 40
3.0
 40
3.0
 40
4.0
 40
4.0
 40
4.0
 40
4.0
 10
-44.89403223079302
 20
-19.3275489954338
 30
0.0
 10
-44.89403223079302
 20
-20.22501199543379
 30
0.0
 10
-44.16649523079297
 20
-20.9525489954338
 30
0.0
 10
-43.26903223079304
 20
-20.9525489954338
 30
0.0
 10
-42.37156923079299
 20
-20.9525489954338
 30
0.0
 10
-41.64403223079305
 20
-20.22501199543379
 30
0.0
 10
-41.64403223079305
 20
-19.3275489954338
 30
0.0
 10
-41.64403223079305
 20
-18.43008599543379
 30
0.0
 10
-42.37156923079299
 20
-17.70254899543379
 30
0.0
 10
-43.26903223079304
 20
-17.70254899543379
 30
0.0
 10
-44.16649523079297
 20
-17.70254899543379
 30
0.0
 10
-44.89403223079302
 20
-18.43008599543379
 30
0.0
 10
-44.89403223079302
 20
-19.3275489954338
 30
0.0
  0
SPLINE
  5
100001B8
102
{ACAD_XDICTIONARY
360
100001B9
102
}
330
1F
100
AcDbEntity
  8
VISIBLE
100
AcDbSpline
210
0.0
220
0.0
230
1.0
 70
    11
 71
     3
 72
    17
 73
    13
 74
     0
 42
0.000000001
 43
0.00000001
 40
0.0
 40
0.0
 40
0.0
 40
0.0
 40
1.0
 40
1.0
 40
1.0
 40
2.0
 40
2.0
 40
2.0
 40
3.0
 40
3.0
 40
3.0
 40
4.0
 40
4.0
 40
4.0
 40
4.0
 10
-37.13292123079301
 20
-20.0331049954338
 30
0.0
 10
-37.13292123079301
 20
-20.93056699543379
 30
0.0
 10
-36.40538423079306
 20
-21.65810499543379
 30
0.0
 10
-35.50792123079302
 20
-21.65810499543379
 30
0.0
 10
-34.61045823079298
 20
-21.65810499543379
 30
0.0
 10
-33.88292123079303
 20
-20.93056699543379
 30
0.0
 10
-33.88292123079303
 20
-20.0331049954338
 30
0.0
 10
-33.88292123079303
 20
-19.1356419954338
 30
0.0
 10
-34.61045823079298
 20
-18.4081049954338
 30
0.0
 10
-35.50792123079302
 20
-18.4081049954338
 30
0.0
 10
-36.40538423079306
 20
-18.4081049954338
 30
0.0
 10
-37.13292123079301
 20
-19.1356419954338
 30
0.0
 10
-37.13292123079301
 20
-20.0331049954338
 30
0.0
  0
SPLINE
  5
100001BB
102
{ACAD_XDICTIONARY
360
100001BC
102
}
330
1F
100
AcDbEntity
  8
VISIBLE
100
AcDbSpline
210
0.0
220
0.0
230
1.0
 70
    11
 71
     3
 72
    17
 73
    13
 74
     0
 42
0.000000001
 43
0.00000001
 40
0.0
 40
0.0
 40
0.0
 40
0.0
 40
1.0
 40
1.0
 40
1.0
 40
2.0
 40
2.0
 40
2.0
 40
3.0
 40
3.0
 40
3.0
 40
4.0
 40
4.0
 40
4.0
 40
4.0
 10
-35.01625423079294
 20
-38.02477099543382
 30
0.0
 10
-35.01625423079294
 20
-38.92223399543382
 30
0.0
 10
-34.28871723079299
 20
-39.64977099543382
 30
0.0
 10
-33.39125423079295
 20
-39.64977099543382
 30
0.0
 10
-32.49379223079299
 20
-39.64977099543382
 30
0.0
 10
-31.76625423079296
 20
-38.92223399543382
 30
0.0
 10
-31.76625423079296
 20
-38.02477099543382
 30
0.0
 10
-31.76625423079296
 20
-37.12730899543382
 30
0.0
 10
-32.49379223079299
 20
-36.39977099543382
 30
0.0
 10
-33.39125423079295
 20
-36.39977099543382
 30
0.0
 10
-34.28871723079299
 20
-36.39977099543382
 30
0.0
 10
-35.01625423079294
 20
-37.12730899543382
 30
0.0
 10
-35.01625423079294
 20
-38.02477099543382
 30
0.0
  0
SPLINE
  5
100001BE
102
{ACAD_XDICTIONARY
360
100001BF
102
}
330
1F
100
AcDbEntity
  8
VISIBLE
100
AcDbSpline
210
0.0
220
0.0
230
1.0
 70
    11
 71
     3
 72
    17
 73
    13
 74
     0
 42
0.000000001
 43
0.00000001
 40
0.0
 40
0.0
 40
0.0
 40
0.0
 40
1.0
 40
1.0
 40
1.0
 40
2.0
 40
2.0
 40
2.0
 40
3.0
 40
3.0
 40
3.0
 40
4.0
 40
4.0
 40
4.0
 40
4.0
 10
-31.13569923079304
 20
-29.20532699543381
 30
0.0
 10
-31.13569923079304
 20
-30.10278999543382
 30
0.0
 10
-30.40816123079301
 20
-30.83032699543383
 30
0.0
 10
-29.51069923079305
 20
-30.83032699543383
 30
0.0
 10
-28.61323623079307
 20
-30.83032699543383
 30
0.0
 10
-27.88569923079307
 20
-30.10278999543382
 30
0.0
 10
-27.88569923079307
 20
-29.20532699543381
 30
0.0
 10
-27.88569923079307
 20
-28.30786399543383
 30
0.0
 10
-28.61323623079307
 20
-27.58032699543383
 30
0.0
 10
-29.51069923079305
 20
-27.58032699543383
 30
0.0
 10
-30.40816123079301
 20
-27.58032699543383
 30
0.0
 10
-31.13569923079304
 20
-28.30786399543383
 30
0.0
 10
-31.13569923079304
 20
-29.20532699543381
 30
0.0
  0
SPLINE
  5
100001C1
102
{ACAD_XDICTIONARY
360
100001C2
102
}
330
1F
100
AcDbEntity
  8
VISIBLE
100
AcDbSpline
210
0.0
220
0.0
230
1.0
 70
    11
 71
     3
 72
    17
 73
    13
 74
     0
 42
0.000000001
 43
0.00000001
 40
0.0
 40
0.0
 40
0.0
 40
0.0
 40
1.0
 40
1.0
 40
1.0
 40
2.0
 40
2.0
 40
2.0
 40
3.0
 40
3.0
 40
3.0
 40
4.0
 40
4.0
 40
4.0
 40
4.0
 10
-21.96347623079295
 20
-22.50254899543382
 30
0.0
 10
-21.96347623079295
 20
-23.40001199543382
 30
0.0
 10
-21.235939230793
 20
-24.12754899543382
 30
0.0
 10
-20.33847623079296
 20
-24.12754899543382
 30
0.0
 10
-19.441014230793
 20
-24.12754899543382
 30
0.0
 10
-18.71347623079297
 20
-23.40001199543382
 30
0.0
 10
-18.71347623079297
 20
-22.50254899543382
 30
0.0
 10
-18.71347623079297
 20
-21.60508599543381
 30
0.0
 10
-19.441014230793
 20
-20.87754899543381
 30
0.0
 10
-20.33847623079296
 20
-20.87754899543381
 30
0.0
 10
-21.235939230793
 20
-20.87754899543381
 30
0.0
 10
-21.96347623079295
 20
-21.60508599543381
 30
0.0
 10
-21.96347623079295
 20
-22.50254899543382
 30
0.0
  0
SPLINE
  5
100001C4
102
{ACAD_XDICTIONARY
360
100001C5
102
}
330
1F
100
AcDbEntity
  8
VISIBLE
100
AcDbSpline
210
0.0
220
0.0
230
1.0
 70
    11
 71
     3
 72
    17
 73
    13
 74
     0
 42
0.000000001
 43
0.00000001
 40
0.0
 40
0.0
 40
0.0
 40
0.0
 40
1.0
 40
1.0
 40
1.0
 40
2.0
 40
2.0
 40
2.0
 40
3.0
 40
3.0
 40
3.0
 40
4.0
 40
4.0
 40
4.0
 40
4.0
 10
-33.54764323079296
 20
-6.387548995433809
 30
0.0
 10
-33.54764323079296
 20
-6.801762995433808
 30
0.0
 10
-33.21185723079301
 20
-7.137548995433806
 30
0.0
 10
-32.79764323079299
 20
-7.137548995433806
 30
0.0
 10
-32.38343023079304
 20
-7.137548995433806
 30
0.0
 10
-32.04764323079296
 20
-6.801762995433808
 30
0.0
 10
-32.04764323079296
 20
-6.387548995433809
 30
0.0
 10
-32.04764323079296
 20
-5.973335995433809
 30
0.0
 10
-32.38343023079304
 20
-5.637548995433808
 30
0.0
 10
-32.79764323079299
 20
-5.637548995433808
 30
0.0
 10
-33.21185723079301
 20
-5.637548995433808
 30
0.0
 10
-33.54764323079296
 20
-5.973335995433809
 30
0.0
 10
-33.54764323079296
 20
-6.387548995433809
 30
0.0
  0
SPLINE
  5
100001C7
102
{ACAD_XDICTIONARY
360
100001C8
102
}
330
1F
100
AcDbEntity
  8
VISIBLE
100
AcDbSpline
210
0.0
220
0.0
230
1.0
 70
    11
 71
     3
 72
    17
 73
    13
 74
     0
 42
0.000000001
 43
0.00000001
 40
0.0
 40
0.0
 40
0.0
 40
0.0
 40
1.0
 40
1.0
 40
1.0
 40
2.0
 40
2.0
 40
2.0
 40
3.0
 40
3.0
 40
3.0
 40
4.0
 40
4.0
 40
4.0
 40
4.0
 10
-27.90319923079301
 20
-10.2681049954338
 30
0.0
 10
-27.90319923079301
 20
-10.6823179954338
 30
0.0
 10
-27.56741223079304
 20
-11.0181049954338
 30
0.0
 10
-27.15319923079304
 20
-11.0181049954338
 30
0.0
 10
-26.73898523079302
 20
-11.0181049954338
 30
0.0
 10
-26.40319923079307
 20
-10.6823179954338
 30
0.0
 10
-26.40319923079307
 20
-10.2681049954338
 30
0.0
 10
-26.40319923079307
 20
-9.853890995433796
 30
0.0
 10
-26.73898523079302
 20
-9.518104995433797
 30
0.0
 10
-27.15319923079304
 20
-9.518104995433797
 30
0.0
 10
-27.56741223079304
 20
-9.518104995433797
 30
0.0
 10
-27.90319923079301
 20
-9.853890995433796
 30
0.0
 10
-27.90319923079301
 20
-10.2681049954338
 30
0.0
  0
SPLINE
  5
100001CA
102
{ACAD_XDICTIONARY
360
100001CB
102
}
330
1F
100
AcDbEntity
  8
VISIBLE
100
AcDbSpline
210
0.0
220
0.0
230
1.0
 70
    11
 71
     3
 72
    17
 73
    13
 74
     0
 42
0.000000001
 43
0.00000001
 40
0.0
 40
0.0
 40
0.0
 40
0.0
 40
1.0
 40
1.0
 40
1.0
 40
2.0
 40
2.0
 40
2.0
 40
3.0
 40
3.0
 40
3.0
 40
4.0
 40
4.0
 40
4.0
 40
4.0
 10
-47.65875423079299
 20
-7.445881995433807
 30
0.0
 10
-47.65875423079299
 20
-7.860095995433809
 30
0.0
 10
-47.32296823079293
 20
-8.195881995433806
 30
0.0
 10
-46.90875423079302
 20
-8.195881995433806
 30
0.0
 10
-46.49454123079297
 20
-8.195881995433806
 30
0.0
 10
-46.15875423079299
 20
-7.860095995433809
 30
0.0
 10
-46.15875423079299
 20
-7.445881995433807
 30
0.0
 10
-46.15875423079299
 20
-7.031668995433807
 30
0.0
 10
-46.49454123079297
 20
-6.69588199543381
 30
0.0
 10
-46.90875423079302
 20
-6.69588199543381
 30
0.0
 10
-47.32296823079293
 20
-6.69588199543381
 30
0.0
 10
-47.65875423079299
 20
-7.031668995433807
 30
0.0
 10
-47.65875423079299
 20
-7.445881995433807
 30
0.0
  0
SPLINE
  5
100001CD
102
{ACAD_XDICTIONARY
360
100001CE
102
}
330
1F
100
AcDbEntity
  8
VISIBLE
100
AcDbSpline
210
0.0
220
0.0
230
1.0
 70
    11
 71
     3
 72
    17
 73
    13
 74
     0
 42
0.000000001
 43
0.00000001
 40
0.0
 40
0.0
 40
0.0
 40
0.0
 40
1.0
 40
1.0
 40
1.0
 40
2.0
 40
2.0
 40
2.0
 40
3.0
 40
3.0
 40
3.0
 40
4.0
 40
4.0
 40
4.0
 40
4.0
 10
-8.147643230793006
 20
-3.918104995433805
 30
0.0
 10
-8.147643230793006
 20
-4.332317995433804
 30
0.0
 10
-7.811857230793001
 20
-4.668104995433808
 30
0.0
 10
-7.397643230793005
 20
-4.668104995433808
 30
0.0
 10
-6.983430230793008
 20
-4.668104995433808
 30
0.0
 10
-6.647643230793005
 20
-4.332317995433804
 30
0.0
 10
-6.647643230793005
 20
-3.918104995433805
 30
0.0
 10
-6.647643230793005
 20
-3.503890995433806
 30
0.0
 10
-6.983430230793008
 20
-3.168104995433805
 30
0.0
 10
-7.397643230793005
 20
-3.168104995433805
 30
0.0
 10
-7.811857230793001
 20
-3.168104995433805
 30
0.0
 10
-8.147643230793006
 20
-3.503890995433806
 30
0.0
 10
-8.147643230793006
 20
-3.918104995433805
 30
0.0
  0
SPLINE
  5
100001D0
102
{ACAD_XDICTIONARY
360
100001D1
102
}
330
1F
100
AcDbEntity
  8
VISIBLE
100
AcDbSpline
210
0.0
220
0.0
230
1.0
 70
    11
 71
     3
 72
    17
 73
    13
 74
     0
 42
0.000000001
 43
0.00000001
 40
0.0
 40
0.0
 40
0.0
 40
0.0
 40
1.0
 40
1.0
 40
1.0
 40
2.0
 40
2.0
 40
2.0
 40
3.0
 40
3.0
 40
3.0
 40
4.0
 40
4.0
 40
4.0
 40
4.0
 10
-4.619865230793025
 20
-10.9736599954338
 30
0.0
 10
-4.619865230793025
 20
-11.38787399543379
 30
0.0
 10
-4.284079230792992
 20
-11.7236599954338
 30
0.0
 10
-3.869865230793024
 20
-11.7236599954338
 30
0.0
 10
-3.455652230793
 20
-11.7236599954338
 30
0.0
 10
-3.119865230793023
 20
-11.38787399543379
 30
0.0
 10
-3.119865230793023
 20
-10.9736599954338
 30
0.0
 10
-3.119865230793023
 20
-10.5594469954338
 30
0.0
 10
-3.455652230793
 20
-10.2236599954338
 30
0.0
 10
-3.869865230793024
 20
-10.2236599954338
 30
0.0
 10
-4.284079230792992
 20
-10.2236599954338
 30
0.0
 10
-4.619865230793025
 20
-10.5594469954338
 30
0.0
 10
-4.619865230793025
 20
-10.9736599954338
 30
0.0
  0
SPLINE
  5
100001D3
102
{ACAD_XDICTIONARY
360
100001D4
102
}
330
1F
100
AcDbEntity
  8
VISIBLE
100
AcDbSpline
210
0.0
220
0.0
230
1.0
 70
    11
 71
     3
 72
    17
 73
    13
 74
     0
 42
0.000000001
 43
0.00000001
 40
0.0
 40
0.0
 40
0.0
 40
0.0
 40
1.0
 40
1.0
 40
1.0
 40
2.0
 40
2.0
 40
2.0
 40
3.0
 40
3.0
 40
3.0
 40
4.0
 40
4.0
 40
4.0
 40
4.0
 10
-25.43375423079305
 20
-42.37088199543381
 30
0.0
 10
-25.43375423079305
 20
-42.78509599543381
 30
0.0
 10
-25.09796823079305
 20
-43.12088199543381
 30
0.0
 10
-24.68375423079302
 20
-43.12088199543381
 30
0.0
 10
-24.26954123079303
 20
-43.12088199543381
 30
0.0
 10
-23.93375423079305
 20
-42.78509599543381
 30
0.0
 10
-23.93375423079305
 20
-42.37088199543381
 30
0.0
 10
-23.93375423079305
 20
-41.95666899543381
 30
0.0
 10
-24.26954123079303
 20
-41.62088199543381
 30
0.0
 10
-24.68375423079302
 20
-41.62088199543381
 30
0.0
 10
-25.09796823079305
 20
-41.62088199543381
 30
0.0
 10
-25.43375423079305
 20
-41.95666899543381
 30
0.0
 10
-25.43375423079305
 20
-42.37088199543381
 30
0.0
  0
SPLINE
  5
100001D6
102
{ACAD_XDICTIONARY
360
100001D7
102
}
330
1F
100
AcDbEntity
  8
VISIBLE
100
AcDbSpline
210
0.0
220
0.0
230
1.0
 70
    11
 71
     3
 72
    17
 73
    13
 74
     0
 42
0.000000001
 43
0.00000001
 40
0.0
 40
0.0
 40
0.0
 40
0.0
 40
1.0
 40
1.0
 40
1.0
 40
2.0
 40
2.0
 40
2.0
 40
3.0
 40
3.0
 40
3.0
 40
4.0
 40
4.0
 40
4.0
 40
4.0
 10
-44.83653223079301
 20
-28.96532699543381
 30
0.0
 10
-44.83653223079301
 20
-29.37953999543381
 30
0.0
 10
-44.50074623079301
 20
-29.71532699543381
 30
0.0
 10
-44.08653223079298
 20
-29.71532699543381
 30
0.0
 10
-43.67231823079295
 20
-29.71532699543381
 30
0.0
 10
-43.336532230793
 20
-29.37953999543381
 30
0.0
 10
-43.336532230793
 20
-28.96532699543381
 30
0.0
 10
-43.336532230793
 20
-28.55111299543382
 30
0.0
 10
-43.67231823079295
 20
-28.21532699543381
 30
0.0
 10
-44.08653223079298
 20
-28.21532699543381
 30
0.0
 10
-44.50074623079301
 20
-28.21532699543381
 30
0.0
 10
-44.83653223079301
 20
-28.55111299543382
 30
0.0
 10
-44.83653223079301
 20
-28.96532699543381
 30
0.0
  0
SPLINE
  5
100001D9
102
{ACAD_XDICTIONARY
360
100001DA
102
}
330
1F
100
AcDbEntity
  8
VISIBLE
100
AcDbSpline
210
0.0
220
0.0
230
1.0
 70
    11
 71
     3
 72
    17
 73
    13
 74
     0
 42
0.000000001
 43
0.00000001
 40
0.0
 40
0.0
 40
0.0
 40
0.0
 40
1.0
 40
1.0
 40
1.0
 40
2.0
 40
2.0
 40
2.0
 40
3.0
 40
3.0
 40
3.0
 40
4.0
 40
4.0
 40
4.0
 40
4.0
 10
-46.953199230793
 20
-35.31532699543381
 30
0.0
 10
-46.953199230793
 20
-35.72953999543382
 30
0.0
 10
-46.61741223079297
 20
-36.06532699543381
 30
0.0
 10
-46.20319923079303
 20
-36.06532699543381
 30
0.0
 10
-45.788985230793
 20
-36.06532699543381
 30
0.0
 10
-45.45319923079305
 20
-35.72953999543382
 30
0.0
 10
-45.45319923079305
 20
-35.31532699543381
 30
0.0
 10
-45.45319923079305
 20
-34.90111299543382
 30
0.0
 10
-45.788985230793
 20
-34.56532699543381
 30
0.0
 10
-46.20319923079303
 20
-34.56532699543381
 30
0.0
 10
-46.61741223079297
 20
-34.56532699543381
 30
0.0
 10
-46.953199230793
 20
-34.90111299543382
 30
0.0
 10
-46.953199230793
 20
-35.31532699543381
 30
0.0
  0
ENDSEC
  0
SECTION
  2
OBJECTS
  0
DICTIONARY
  5
C
330
0
100
AcDbDictionary
  3
ACAD_GROUP
350
D
  3
ACAD_LAYOUT
350
1A
  3
ACAD_MATERIAL
350
43
  3
ACAD_MLEADERSTYLE
350
6B
  3
ACAD_MLINESTYLE
350
17
  3
ACAD_PLOTSETTINGS
350
19
  3
ACAD_SCALELIST
350
47
  3
ACAD_VISUALSTYLE
350
2A
  3
ACDBHEADERROUNDTRIPXREC
350
100001DE
  3
ACDBVARIABLEDICTIONARY
350
100001FF
  3
DWGPROPS
350
10000206
  3
ONSHAPE_DATA
350
10000001
  0
DICTIONARY
  5
10000207
330
8
100
AcDbDictionary
280
     1
  3
ACAD_XREC_ROUNDTRIP
360
10000208
  0
DICTIONARY
  5
100001DC
330
1F
100
AcDbDictionary
280
     1
  3
ACAD_SORTENTS
360
100001DD
  0
DICTIONARY
  5
1000004E
330
1000004D
100
AcDbDictionary
280
     1
  3
BTDETID
360
1000004F
  0
DICTIONARY
  5
10000051
330
10000050
100
AcDbDictionary
280
     1
  3
BTDETID
360
10000052
  0
DICTIONARY
  5
10000054
330
10000053
100
AcDbDictionary
280
     1
  3
BTDETID
360
10000055
  0
DICTIONARY
  5
10000057
330
10000056
100
AcDbDictionary
280
     1
  3
BTDETID
360
10000058
  0
DICTIONARY
  5
1000005A
330
10000059
100
AcDbDictionary
280
     1
  3
BTDETID
360
1000005B
  0
DICTIONARY
  5
1000005D
330
1000005C
100
AcDbDictionary
280
     1
  3
BTDETID
360
1000005E
  0
DICTIONARY
  5
10000060
330
1000005F
100
AcDbDictionary
280
     1
  3
BTDETID
360
10000061
  0
DICTIONARY
  5
10000063
330
10000062
100
AcDbDictionary
280
     1
  3
BTDETID
360
10000064
  0
DICTIONARY
  5
10000066
330
10000065
100
AcDbDictionary
280
     1
  3
BTDETID
360
10000067
  0
DICTIONARY
  5
10000069
330
10000068
100
AcDbDictionary
280
     1
  3
BTDETID
360
1000006A
  0
DICTIONARY
  5
1000006C
330
1000006B
100
AcDbDictionary
280
     1
  3
BTDETID
360
1000006D
  0
DICTIONARY
  5
1000006F
330
1000006E
100
AcDbDictionary
280
     1
  3
BTDETID
360
10000070
  0
DICTIONARY
  5
10000072
330
10000071
100
AcDbDictionary
280
     1
  3
BTDETID
360
10000073
  0
DICTIONARY
  5
10000075
330
10000074
100
AcDbDictionary
280
     1
  3
BTDETID
360
10000076
  0
DICTIONARY
  5
10000078
330
10000077
100
AcDbDictionary
280
     1
  3
BTDETID
360
10000079
  0
DICTIONARY
  5
1000007B
330
1000007A
100
AcDbDictionary
280
     1
  3
BTDETID
360
1000007C
  0
DICTIONARY
  5
1000007E
330
1000007D
100
AcDbDictionary
280
     1
  3
BTDETID
360
1000007F
  0
DICTIONARY
  5
10000081
330
10000080
100
AcDbDictionary
280
     1
  3
BTDETID
360
10000082
  0
DICTIONARY
  5
10000084
330
10000083
100
AcDbDictionary
280
     1
  3
BTDETID
360
10000085
  0
DICTIONARY
  5
10000087
330
10000086
100
AcDbDictionary
280
     1
  3
BTDETID
360
10000088
  0
DICTIONARY
  5
1000008A
330
10000089
100
AcDbDictionary
280
     1
  3
BTDETID
360
1000008B
  0
DICTIONARY
  5
1000008D
330
1000008C
100
AcDbDictionary
280
     1
  3
BTDETID
360
1000008E
  0
DICTIONARY
  5
10000090
330
1000008F
100
AcDbDictionary
280
     1
  3
BTDETID
360
10000091
  0
DICTIONARY
  5
10000093
330
10000092
100
AcDbDictionary
280
     1
  3
BTDETID
360
10000094
  0
DICTIONARY
  5
10000096
330
10000095
100
AcDbDictionary
280
     1
  3
BTDETID
360
10000097
  0
DICTIONARY
  5
10000099
330
10000098
100
AcDbDictionary
280
     1
  3
BTDETID
360
1000009A
  0
DICTIONARY
  5
1000009C
330
1000009B
100
AcDbDictionary
280
     1
  3
BTDETID
360
1000009D
  0
DICTIONARY
  5
1000009F
330
1000009E
100
AcDbDictionary
280
     1
  3
BTDETID
360
100000A0
  0
DICTIONARY
  5
100000A2
330
100000A1
100
AcDbDictionary
280
     1
  3
BTDETID
360
100000A3
  0
DICTIONARY
  5
100000A5
330
100000A4
100
AcDbDictionary
280
     1
  3
BTDETID
360
100000A6
  0
DICTIONARY
  5
100000A8
330
100000A7
100
AcDbDictionary
280
     1
  3
BTDETID
360
100000A9
  0
DICTIONARY
  5
100000AB
330
100000AA
100
AcDbDictionary
280
     1
  3
BTDETID
360
100000AC
  0
DICTIONARY
  5
100000AE
330
100000AD
100
AcDbDictionary
280
     1
  3
BTDETID
360
100000AF
  0
DICTIONARY
  5
100000B1
330
100000B0
100
AcDbDictionary
280
     1
  3
BTDETID
360
100000B2
  0
DICTIONARY
  5
100000B4
330
100000B3
100
AcDbDictionary
280
     1
  3
BTDETID
360
100000B5
  0
DICTIONARY
  5
100000B7
330
100000B6
100
AcDbDictionary
280
     1
  3
BTDETID
360
100000B8
  0
DICTIONARY
  5
100000BA
330
100000B9
100
AcDbDictionary
280
     1
  3
BTDETID
360
100000BB
  0
DICTIONARY
  5
100000BD
330
100000BC
100
AcDbDictionary
280
     1
  3
BTDETID
360
100000BE
  0
DICTIONARY
  5
100000C0
330
100000BF
100
AcDbDictionary
280
     1
  3
BTDETID
360
100000C1
  0
DICTIONARY
  5
100000C3
330
100000C2
100
AcDbDictionary
280
     1
  3
BTDETID
360
100000C4
  0
DICTIONARY
  5
100000C6
330
100000C5
100
AcDbDictionary
280
     1
  3
BTDETID
360
100000C7
  0
DICTIONARY
  5
100000C9
330
100000C8
100
AcDbDictionary
280
     1
  3
BTDETID
360
100000CA
  0
DICTIONARY
  5
100000CC
330
100000CB
100
AcDbDictionary
280
     1
  3
BTDETID
360
100000CD
  0
DICTIONARY
  5
100000CF
330
100000CE
100
AcDbDictionary
280
     1
  3
BTDETID
360
100000D0
  0
DICTIONARY
  5
100000D2
330
100000D1
100
AcDbDictionary
280
     1
  3
BTDETID
360
100000D3
  0
DICTIONARY
  5
100000D5
330
100000D4
100
AcDbDictionary
280
     1
  3
BTDETID
360
100000D6
  0
DICTIONARY
  5
100000D8
330
100000D7
100
AcDbDictionary
280
     1
  3
BTDETID
360
100000D9
  0
DICTIONARY
  5
100000DB
330
100000DA
100
AcDbDictionary
280
     1
  3
BTDETID
360
100000DC
  0
DICTIONARY
  5
100000DE
330
100000DD
100
AcDbDictionary
280
     1
  3
BTDETID
360
100000DF
  0
DICTIONARY
  5
100000E1
330
100000E0
100
AcDbDictionary
280
     1
  3
BTDETID
360
100000E2
  0
DICTIONARY
  5
100000E4
330
100000E3
100
AcDbDictionary
280
     1
  3
BTDETID
360
100000E5
  0
DICTIONARY
  5
100000E7
330
100000E6
100
AcDbDictionary
280
     1
  3
BTDETID
360
100000E8
  0
DICTIONARY
  5
100000EA
330
100000E9
100
AcDbDictionary
280
     1
  3
BTDETID
360
100000EB
  0
DICTIONARY
  5
100000ED
330
100000EC
100
AcDbDictionary
280
     1
  3
BTDETID
360
100000EE
  0
DICTIONARY
  5
100000F0
330
100000EF
100
AcDbDictionary
280
     1
  3
BTDETID
360
100000F1
  0
DICTIONARY
  5
100000F3
330
100000F2
100
AcDbDictionary
280
     1
  3
BTDETID
360
100000F4
  0
DICTIONARY
  5
100000F6
330
100000F5
100
AcDbDictionary
280
     1
  3
BTDETID
360
100000F7
  0
DICTIONARY
  5
100000F9
330
100000F8
100
AcDbDictionary
280
     1
  3
BTDETID
360
100000FA
  0
DICTIONARY
  5
100000FC
330
100000FB
100
AcDbDictionary
280
     1
  3
BTDETID
360
100000FD
  0
DICTIONARY
  5
100000FF
330
100000FE
100
AcDbDictionary
280
     1
  3
BTDETID
360
10000100
  0
DICTIONARY
  5
10000102
330
10000101
100
AcDbDictionary
280
     1
  3
BTDETID
360
10000103
  0
DICTIONARY
  5
10000105
330
10000104
100
AcDbDictionary
280
     1
  3
BTDETID
360
10000106
  0
DICTIONARY
  5
10000108
330
10000107
100
AcDbDictionary
280
     1
  3
BTDETID
360
10000109
  0
DICTIONARY
  5
1000010B
330
1000010A
100
AcDbDictionary
280
     1
  3
BTDETID
360
1000010C
  0
DICTIONARY
  5
1000010E
330
1000010D
100
AcDbDictionary
280
     1
  3
BTDETID
360
1000010F
  0
DICTIONARY
  5
10000111
330
10000110
100
AcDbDictionary
280
     1
  3
BTDETID
360
10000112
  0
DICTIONARY
  5
10000114
330
10000113
100
AcDbDictionary
280
     1
  3
BTDETID
360
10000115
  0
DICTIONARY
  5
10000117
330
10000116
100
AcDbDictionary
280
     1
  3
BTDETID
360
10000118
  0
DICTIONARY
  5
1000011A
330
10000119
100
AcDbDictionary
280
     1
  3
BTDETID
360
1000011B
  0
DICTIONARY
  5
1000011D
330
1000011C
100
AcDbDictionary
280
     1
  3
BTDETID
360
1000011E
  0
DICTIONARY
  5
10000120
330
1000011F
100
AcDbDictionary
280
     1
  3
BTDETID
360
10000121
  0
DICTIONARY
  5
10000123
330
10000122
100
AcDbDictionary
280
     1
  3
BTDETID
360
10000124
  0
DICTIONARY
  5
10000126
330
10000125
100
AcDbDictionary
280
     1
  3
BTDETID
360
10000127
  0
DICTIONARY
  5
10000129
330
10000128
100
AcDbDictionary
280
     1
  3
BTDETID
360
1000012A
  0
DICTIONARY
  5
1000012C
330
1000012B
100
AcDbDictionary
280
     1
  3
BTDETID
360
1000012D
  0
DICTIONARY
  5
1000012F
330
1000012E
100
AcDbDictionary
280
     1
  3
BTDETID
360
10000130
  0
DICTIONARY
  5
10000132
330
10000131
100
AcDbDictionary
280
     1
  3
BTDETID
360
10000133
  0
DICTIONARY
  5
10000135
330
10000134
100
AcDbDictionary
280
     1
  3
BTDETID
360
10000136
  0
DICTIONARY
  5
10000138
330
10000137
100
AcDbDictionary
280
     1
  3
BTDETID
360
10000139
  0
DICTIONARY
  5
1000013B
330
1000013A
100
AcDbDictionary
280
     1
  3
BTDETID
360
1000013C
  0
DICTIONARY
  5
1000013E
330
1000013D
100
AcDbDictionary
280
     1
  3
BTDETID
360
1000013F
  0
DICTIONARY
  5
10000141
330
10000140
100
AcDbDictionary
280
     1
  3
BTDETID
360
10000142
  0
DICTIONARY
  5
10000144
330
10000143
100
AcDbDictionary
280
     1
  3
BTDETID
360
10000145
  0
DICTIONARY
  5
10000147
330
10000146
100
AcDbDictionary
280
     1
  3
BTDETID
360
10000148
  0
DICTIONARY
  5
1000014A
330
10000149
100
AcDbDictionary
280
     1
  3
BTDETID
360
1000014B
  0
DICTIONARY
  5
1000014D
330
1000014C
100
AcDbDictionary
280
     1
  3
BTDETID
360
1000014E
  0
DICTIONARY
  5
10000150
330
1000014F
100
AcDbDictionary
280
     1
  3
BTDETID
360
10000151
  0
DICTIONARY
  5
10000153
330
10000152
100
AcDbDictionary
280
     1
  3
BTDETID
360
10000154
  0
DICTIONARY
  5
10000156
330
10000155
100
AcDbDictionary
280
     1
  3
BTDETID
360
10000157
  0
DICTIONARY
  5
10000159
330
10000158
100
AcDbDictionary
280
     1
  3
BTDETID
360
1000015A
  0
DICTIONARY
  5
1000015C
330
1000015B
100
AcDbDictionary
280
     1
  3
BTDETID
360
1000015D
  0
DICTIONARY
  5
1000015F
330
1000015E
100
AcDbDictionary
280
     1
  3
BTDETID
360
10000160
  0
DICTIONARY
  5
10000162
330
10000161
100
AcDbDictionary
280
     1
  3
BTDETID
360
10000163
  0
DICTIONARY
  5
10000165
330
10000164
100
AcDbDictionary
280
     1
  3
BTDETID
360
10000166
  0
DICTIONARY
  5
10000168
330
10000167
100
AcDbDictionary
280
     1
  3
BTDETID
360
10000169
  0
DICTIONARY
  5
1000016B
330
1000016A
100
AcDbDictionary
280
     1
  3
BTDETID
360
1000016C
  0
DICTIONARY
  5
1000016E
330
1000016D
100
AcDbDictionary
280
     1
  3
BTDETID
360
1000016F
  0
DICTIONARY
  5
10000171
330
10000170
100
AcDbDictionary
280
     1
  3
BTDETID
360
10000172
  0
DICTIONARY
  5
10000174
330
10000173
100
AcDbDictionary
280
     1
  3
BTDETID
360
10000175
  0
DICTIONARY
  5
10000177
330
10000176
100
AcDbDictionary
280
     1
  3
BTDETID
360
10000178
  0
DICTIONARY
  5
1000017A
330
10000179
100
AcDbDictionary
280
     1
  3
BTDETID
360
1000017B
  0
DICTIONARY
  5
1000017D
330
1000017C
100
AcDbDictionary
280
     1
  3
BTDETID
360
1000017E
  0
DICTIONARY
  5
10000180
330
1000017F
100
AcDbDictionary
280
     1
  3
BTDETID
360
10000181
  0
DICTIONARY
  5
10000183
330
10000182
100
AcDbDictionary
280
     1
  3
BTDETID
360
10000184
  0
DICTIONARY
  5
10000186
330
10000185
100
AcDbDictionary
280
     1
  3
BTDETID
360
10000187
  0
DICTIONARY
  5
10000189
330
10000188
100
AcDbDictionary
280
     1
  3
BTDETID
360
1000018A
  0
DICTIONARY
  5
1000018C
330
1000018B
100
AcDbDictionary
280
     1
  3
BTDETID
360
1000018D
  0
DICTIONARY
  5
1000018F
330
1000018E
100
AcDbDictionary
280
     1
  3
BTDETID
360
10000190
  0
DICTIONARY
  5
10000192
330
10000191
100
AcDbDictionary
280
     1
  3
BTDETID
360
10000193
  0
DICTIONARY
  5
10000195
330
10000194
100
AcDbDictionary
280
     1
  3
BTDETID
360
10000196
  0
DICTIONARY
  5
10000198
330
10000197
100
AcDbDictionary
280
     1
  3
BTDETID
360
10000199
  0
DICTIONARY
  5
1000019B
330
1000019A
100
AcDbDictionary
280
     1
  3
BTDETID
360
1000019C
  0
DICTIONARY
  5
1000019E
330
1000019D
100
AcDbDictionary
280
     1
  3
BTDETID
360
1000019F
  0
DICTIONARY
  5
100001A1
330
100001A0
100
AcDbDictionary
280
     1
  3
BTDETID
360
100001A2
  0
DICTIONARY
  5
100001A4
330
100001A3
100
AcDbDictionary
280
     1
  3
BTDETID
360
100001A5
  0
DICTIONARY
  5
100001A7
330
100001A6
100
AcDbDictionary
280
     1
  3
BTDETID
360
100001A8
  0
DICTIONARY
  5
100001AA
330
100001A9
100
AcDbDictionary
280
     1
  3
BTDETID
360
100001AB
  0
DICTIONARY
  5
100001AD
330
100001AC
100
AcDbDictionary
280
     1
  3
BTDETID
360
100001AE
  0
DICTIONARY
  5
100001B0
330
100001AF
100
AcDbDictionary
280
     1
  3
BTDETID
360
100001B1
  0
DICTIONARY
  5
100001B3
330
100001B2
100
AcDbDictionary
280
     1
  3
BTDETID
360
100001B4
  0
DICTIONARY
  5
100001B6
330
100001B5
100
AcDbDictionary
280
     1
  3
BTDETID
360
100001B7
  0
DICTIONARY
  5
100001B9
330
100001B8
100
AcDbDictionary
280
     1
  3
BTDETID
360
100001BA
  0
DICTIONARY
  5
100001BC
330
100001BB
100
AcDbDictionary
280
     1
  3
BTDETID
360
100001BD
  0
DICTIONARY
  5
100001BF
330
100001BE
100
AcDbDictionary
280
     1
  3
BTDETID
360
100001C0
  0
DICTIONARY
  5
100001C2
330
100001C1
100
AcDbDictionary
280
     1
  3
BTDETID
360
100001C3
  0
DICTIONARY
  5
100001C5
330
100001C4
100
AcDbDictionary
280
     1
  3
BTDETID
360
100001C6
  0
DICTIONARY
  5
100001C8
330
100001C7
100
AcDbDictionary
280
     1
  3
BTDETID
360
100001C9
  0
DICTIONARY
  5
100001CB
330
100001CA
100
AcDbDictionary
280
     1
  3
BTDETID
360
100001CC
  0
DICTIONARY
  5
100001CE
330
100001CD
100
AcDbDictionary
280
     1
  3
BTDETID
360
100001CF
  0
DICTIONARY
  5
100001D1
330
100001D0
100
AcDbDictionary
280
     1
  3
BTDETID
360
100001D2
  0
DICTIONARY
  5
100001D4
330
100001D3
100
AcDbDictionary
280
     1
  3
BTDETID
360
100001D5
  0
DICTIONARY
  5
100001D7
330
100001D6
100
AcDbDictionary
280
     1
  3
BTDETID
360
100001D8
  0
DICTIONARY
  5
100001DA
330
100001D9
100
AcDbDictionary
280
     1
  3
BTDETID
360
100001DB
  0
DICTIONARY
  5
D
102
{ACAD_REACTORS
330
C
102
}
330
C
100
AcDbDictionary
  0
DICTIONARY
  5
1A
102
{ACAD_REACTORS
330
C
102
}
330
C
100
AcDbDictionary
  0
DICTIONARY
  5
43
102
{ACAD_REACTORS
330
C
102
}
330
C
100
AcDbDictionary
  3
BYBLOCK
350
45
  3
BYLAYER
350
44
  3
GLOBAL
350
46
  0
DICTIONARY
  5
6B
102
{ACAD_REACTORS
330
C
102
}
330
C
100
AcDbDictionary
  3
STANDARD
350
6C
  0
DICTIONARY
  5
17
102
{ACAD_REACTORS
330
C
102
}
330
C
100
AcDbDictionary
  3
STANDARD
350
18
  0
DICTIONARY
  5
19
102
{ACAD_REACTORS
330
C
102
}
330
C
100
AcDbDictionary
  0
DICTIONARY
  5
47
102
{ACAD_REACTORS
330
C
102
}
330
C
100
AcDbDictionary
  3
SCALE100_1
350
10000023
  3
SCALE10_1
350
1000001D
  3
SCALE12_1
350
1000001E
  3
SCALE16_1
350
1000001F
  3
SCALE1_1
350
10000006
  3
SCALE1_10
350
1000000D
  3
SCALE1_100
350
10000016
  3
SCALE1_12
350
1000000E
  3
SCALE1_16
350
1000000F
  3
SCALE1_2
350
10000007
  3
SCALE1_20
350
10000010
  3
SCALE1_25
350
10000011
  3
SCALE1_3
350
10000008
  3
SCALE1_32
350
10000012
  3
SCALE1_4
350
10000009
  3
SCALE1_40
350
10000013
  3
SCALE1_5
350
1000000A
  3
SCALE1_50
350
10000014
  3
SCALE1_6
350
1000000B
  3
SCALE1_8
350
1000000C
  3
SCALE1_80
350
10000015
  3
SCALE20_1
350
10000020
  3
SCALE2_1
350
10000017
  3
SCALE32_1
350
10000021
  3
SCALE3_1
350
10000018
  3
SCALE4_1
350
10000019
  3
SCALE50_1
350
10000022
  3
SCALE5_1
350
1000001A
  3
SCALE6_1
350
1000001B
  3
SCALE8_1
350
1000001C
  0
DICTIONARY
  5
2A
102
{ACAD_REACTORS
330
C
102
}
330
C
100
AcDbDictionary
  3
2DWIREFRAME
350
2F
  3
BASIC
350
32
  3
BRIGHTEN
350
36
  3
COLORCHANGE
350
3A
  3
CONCEPTUAL
350
34
  3
DIM
350
35
  3
EDGECOLOROFF
350
3D
  3
FACEPATTERN
350
39
  3
FLAT
350
2B
  3
FLATWITHEDGES
350
2C
  3
GOURAUD
350
2D
  3
GOURAUDWITHEDGES
350
2E
  3
HIDDEN
350
31
  3
JITTEROFF
350
3B
  3
LINEPATTERN
350
38
  3
OVERHANGOFF
350
3C
  3
REALISTIC
350
33
  3
SHADED
350
42
  3
SHADED_WITH_EDGES
350
41
  3
SHADES_OF_GRAY
350
3E
  3
SKETCHY
350
3F
  3
THICKEN
350
37
  3
WIREFRAME
350
30
  3
X-RAY
350
40
  0
DICTIONARY
  5
100001DE
102
{ACAD_REACTORS
330
C
102
}
330
C
100
AcDbDictionary
  3
CEPSNID
350
100001E8
  3
CEPSNTYPE
350
100001E7
  3
DIMSTYLEDATA
350
100001FE
  3
FINGERPRINTGUID
350
100001E9
  3
HYPERLINKBASE
350
100001E1
  3
INSUNITS
350
100001E6
  3
LAYOUTDICT
350
100001E3
  3
LWETCUNION
350
100001E5
  3
PLOTSETDICT
350
100001E4
  3
PSVPSCALE
350
100001EB
  3
PUCSBASE
350
100001EE
  3
PUCSORGBACK
350
100001F4
  3
PUCSORGBOTTOM
350
100001F0
  3
PUCSORGFRONT
350
100001F3
  3
PUCSORGLEFT
350
100001F1
  3
PUCSORGRIGHT
350
100001F2
  3
PUCSORGTOP
350
100001EF
  3
PUCSORTHOREF
350
100001EC
  3
PUCSORTHOVIEW
350
100001ED
  3
STYLESHEET
350
100001E2
  3
TSTACKALIGN
350
100001DF
  3
TSTACKSIZE
350
100001E0
  3
UCSBASE
350
100001F7
  3
UCSORGBACK
350
100001FD
  3
UCSORGBOTTOM
350
100001F9
  3
UCSORGFRONT
350
100001FC
  3
UCSORGLEFT
350
100001FA
  3
UCSORGRIGHT
350
100001FB
  3
UCSORGTOP
350
100001F8
  3
UCSORTHOREF
350
100001F5
  3
UCSORTHOVIEW
350
100001F6
  3
VERSIONGUID
350
100001EA
  0
DICTIONARY
  5
100001FF
102
{ACAD_REACTORS
330
C
102
}
330
C
100
AcDbDictionary
  3
CANNOSCALE
350
10000209
  3
CMLEADERSTYLE
350
10000201
  3
CTABLESTYLE
350
10000200
  3
DIMASSOC
350
10000204
  3
HIDETEXT
350
10000205
  3
MSLTSCALE
350
1000020A
  0
XRECORD
  5
10000206
102
{ACAD_REACTORS
330
C
102
}
330
C
100
AcDbXrecord
  1
DWGPROPS COOKIE
  2

  3

  4

  6
File was created by BTDwgCreate
  7

  8

  9

300
=
301
=
302
=
303
=
304
=
305
=
306
=
307
=
308
=
309
=
 40
0.0
 41
2458616.007337187
 42
2458616.007337257
  1

 90
        0
  0
DICTIONARY
  5
10000001
102
{ACAD_REACTORS
330
C
102
}
330
C
100
AcDbDictionary
280
     1
  3
DIM_UNITS
360
10000003
  3
DWGGEN_VERSION
360
10000002
  3
FIRST_ANGLE
360
10000005
  0
XRECORD
  5
10000208
102
{ACAD_REACTORS
330
10000207
102
}
330
10000207
100
AcDbXrecord
102
VTR_0.000_0.000_1.000_1.000_VISUALSTYLE
340
2F
102
VTR_0.000_0.000_1.000_1.000_GRIDDISPLAY
 70
     3
102
VTR_0.000_0.000_1.000_1.000_GRIDMAJOR
 70
     5
102
VTR_0.000_0.000_1.000_1.000_DEFAULTLIGHTING
280
     1
102
VTR_0.000_0.000_1.000_1.000_DEFAULTLIGHTINGTYPE
 70
     1
102
VTR_0.000_0.000_1.000_1.000_BRIGHTNESS
141
0.0
102
VTR_0.000_0.000_1.000_1.000_CONTRAST
142
0.0
  0
SORTENTSTABLE
  5
100001DD
102
{ACAD_REACTORS
330
100001DC
102
}
330
100001DC
100
AcDbSortentsTable
330
1F
  0
XRECORD
  5
1000004F
102
{ACAD_REACTORS
330
1000004E
102
}
330
1000004E
100
AcDbXrecord
1000
SfFpE
  0
XRECORD
  5
10000052
102
{ACAD_REACTORS
330
10000051
102
}
330
10000051
100
AcDbXrecord
1000
SfFhE
  0
XRECORD
  5
10000055
102
{ACAD_REACTORS
330
10000054
102
}
330
10000054
100
AcDbXrecord
1000
SfFZE
  0
XRECORD
  5
10000058
102
{ACAD_REACTORS
330
10000057
102
}
330
10000057
100
AcDbXrecord
1000
SfFRE
  0
XRECORD
  5
1000005B
102
{ACAD_REACTORS
330
1000005A
102
}
330
1000005A
100
AcDbXrecord
1000
SfFJE
  0
XRECORD
  5
1000005E
102
{ACAD_REACTORS
330
1000005D
102
}
330
1000005D
100
AcDbXrecord
1000
SfFBE
  0
XRECORD
  5
10000061
102
{ACAD_REACTORS
330
10000060
102
}
330
10000060
100
AcDbXrecord
1000
SfFpD
  0
XRECORD
  5
10000064
102
{ACAD_REACTORS
330
10000063
102
}
330
10000063
100
AcDbXrecord
1000
SfFhD
  0
XRECORD
  5
10000067
102
{ACAD_REACTORS
330
10000066
102
}
330
10000066
100
AcDbXrecord
1000
SfF5D
  0
XRECORD
  5
1000006A
102
{ACAD_REACTORS
330
10000069
102
}
330
10000069
100
AcDbXrecord
1000
SfFxD
  0
XRECORD
  5
1000006D
102
{ACAD_REACTORS
330
1000006C
102
}
330
1000006C
100
AcDbXrecord
1000
RKFF
  0
XRECORD
  5
10000070
102
{ACAD_REACTORS
330
1000006F
102
}
330
1000006F
100
AcDbXrecord
1000
SKFxC
  0
XRECORD
  5
10000073
102
{ACAD_REACTORS
330
10000072
102
}
330
10000072
100
AcDbXrecord
1000
SJD5E
  0
XRECORD
  5
10000076
102
{ACAD_REACTORS
330
10000075
102
}
330
10000075
100
AcDbXrecord
1000
SKFpC
  0
XRECORD
  5
10000079
102
{ACAD_REACTORS
330
10000078
102
}
330
10000078
100
AcDbXrecord
1000
RKFB
  0
XRECORD
  5
1000007C
102
{ACAD_REACTORS
330
1000007B
102
}
330
1000007B
100
AcDbXrecord
1000
SKFpD
  0
XRECORD
  5
1000007F
102
{ACAD_REACTORS
330
1000007E
102
}
330
1000007E
100
AcDbXrecord
1000
SKF5G
  0
XRECORD
  5
10000082
102
{ACAD_REACTORS
330
10000081
102
}
330
10000081
100
AcDbXrecord
1000
SKF9B
  0
XRECORD
  5
10000085
102
{ACAD_REACTORS
330
10000084
102
}
330
10000084
100
AcDbXrecord
1000
SKF5F
  0
XRECORD
  5
10000088
102
{ACAD_REACTORS
330
10000087
102
}
330
10000087
100
AcDbXrecord
1000
SJDZJ
  0
XRECORD
  5
1000008B
102
{ACAD_REACTORS
330
1000008A
102
}
330
1000008A
100
AcDbXrecord
1000
SKFBG
  0
XRECORD
  5
1000008E
102
{ACAD_REACTORS
330
1000008D
102
}
330
1000008D
100
AcDbXrecord
1000
SKF5B
  0
XRECORD
  5
10000091
102
{ACAD_REACTORS
330
10000090
102
}
330
10000090
100
AcDbXrecord
1000
SKFBH
  0
XRECORD
  5
10000094
102
{ACAD_REACTORS
330
10000093
102
}
330
10000093
100
AcDbXrecord
1000
SKF1B
  0
XRECORD
  5
10000097
102
{ACAD_REACTORS
330
10000096
102
}
330
10000096
100
AcDbXrecord
1000
SKFRG
  0
XRECORD
  5
1000009A
102
{ACAD_REACTORS
330
10000099
102
}
330
10000099
100
AcDbXrecord
1000
SJDpJ
  0
XRECORD
  5
1000009D
102
{ACAD_REACTORS
330
1000009C
102
}
330
1000009C
100
AcDbXrecord
1000
SKFJG
  0
XRECORD
  5
100000A0
102
{ACAD_REACTORS
330
1000009F
102
}
330
1000009F
100
AcDbXrecord
1000
SKFxB
  0
XRECORD
  5
100000A3
102
{ACAD_REACTORS
330
100000A2
102
}
330
100000A2
100
AcDbXrecord
1000
SKFJH
  0
XRECORD
  5
100000A6
102
{ACAD_REACTORS
330
100000A5
102
}
330
100000A5
100
AcDbXrecord
1000
SKFtB
  0
XRECORD
  5
100000A9
102
{ACAD_REACTORS
330
100000A8
102
}
330
100000A8
100
AcDbXrecord
1000
SKFhG
  0
XRECORD
  5
100000AC
102
{ACAD_REACTORS
330
100000AB
102
}
330
100000AB
100
AcDbXrecord
1000
SJDBK
  0
XRECORD
  5
100000AF
102
{ACAD_REACTORS
330
100000AE
102
}
330
100000AE
100
AcDbXrecord
1000
SKFZG
  0
XRECORD
  5
100000B2
102
{ACAD_REACTORS
330
100000B1
102
}
330
100000B1
100
AcDbXrecord
1000
SKFpB
  0
XRECORD
  5
100000B5
102
{ACAD_REACTORS
330
100000B4
102
}
330
100000B4
100
AcDbXrecord
1000
SKFRH
  0
XRECORD
  5
100000B8
102
{ACAD_REACTORS
330
100000B7
102
}
330
100000B7
100
AcDbXrecord
1000
SKFlB
  0
XRECORD
  5
100000BB
102
{ACAD_REACTORS
330
100000BA
102
}
330
100000BA
100
AcDbXrecord
1000
SKFxG
  0
XRECORD
  5
100000BE
102
{ACAD_REACTORS
330
100000BD
102
}
330
100000BD
100
AcDbXrecord
1000
SJDZK
  0
XRECORD
  5
100000C1
102
{ACAD_REACTORS
330
100000C0
102
}
330
100000C0
100
AcDbXrecord
1000
SKFpG
  0
XRECORD
  5
100000C4
102
{ACAD_REACTORS
330
100000C3
102
}
330
100000C3
100
AcDbXrecord
1000
SKFhB
  0
XRECORD
  5
100000C7
102
{ACAD_REACTORS
330
100000C6
102
}
330
100000C6
100
AcDbXrecord
1000
SKFZH
  0
XRECORD
  5
100000CA
102
{ACAD_REACTORS
330
100000C9
102
}
330
100000C9
100
AcDbXrecord
1000
SKFRF
  0
XRECORD
  5
100000CD
102
{ACAD_REACTORS
330
100000CC
102
}
330
100000CC
100
AcDbXrecord
1000
SKFdB
  0
XRECORD
  5
100000D0
102
{ACAD_REACTORS
330
100000CF
102
}
330
100000CF
100
AcDbXrecord
1000
SKFRE
  0
XRECORD
  5
100000D3
102
{ACAD_REACTORS
330
100000D2
102
}
330
100000D2
100
AcDbXrecord
1000
SJDBH
  0
XRECORD
  5
100000D6
102
{ACAD_REACTORS
330
100000D5
102
}
330
100000D5
100
AcDbXrecord
1000
SKFZE
  0
XRECORD
  5
100000D9
102
{ACAD_REACTORS
330
100000D8
102
}
330
100000D8
100
AcDbXrecord
1000
SKFZB
  0
XRECORD
  5
100000DC
102
{ACAD_REACTORS
330
100000DB
102
}
330
100000DB
100
AcDbXrecord
1000
SKFZF
  0
XRECORD
  5
100000DF
102
{ACAD_REACTORS
330
100000DE
102
}
330
100000DE
100
AcDbXrecord
1000
SKFVB
  0
XRECORD
  5
100000E2
102
{ACAD_REACTORS
330
100000E1
102
}
330
100000E1
100
AcDbXrecord
1000
SKFhE
  0
XRECORD
  5
100000E5
102
{ACAD_REACTORS
330
100000E4
102
}
330
100000E4
100
AcDbXrecord
1000
SJDhH
  0
XRECORD
  5
100000E8
102
{ACAD_REACTORS
330
100000E7
102
}
330
100000E7
100
AcDbXrecord
1000
SKFpE
  0
XRECORD
  5
100000EB
102
{ACAD_REACTORS
330
100000EA
102
}
330
100000EA
100
AcDbXrecord
1000
SKFRB
  0
XRECORD
  5
100000EE
102
{ACAD_REACTORS
330
100000ED
102
}
330
100000ED
100
AcDbXrecord
1000
SKFhF
  0
XRECORD
  5
100000F1
102
{ACAD_REACTORS
330
100000F0
102
}
330
100000F0
100
AcDbXrecord
1000
SKFNB
  0
XRECORD
  5
100000F4
102
{ACAD_REACTORS
330
100000F3
102
}
330
100000F3
100
AcDbXrecord
1000
SKFxE
  0
XRECORD
  5
100000F7
102
{ACAD_REACTORS
330
100000F6
102
}
330
100000F6
100
AcDbXrecord
1000
SJD5H
  0
XRECORD
  5
100000FA
102
{ACAD_REACTORS
330
100000F9
102
}
330
100000F9
100
AcDbXrecord
1000
SKF5E
  0
XRECORD
  5
100000FD
102
{ACAD_REACTORS
330
100000FC
102
}
330
100000FC
100
AcDbXrecord
1000
SKFJB
  0
XRECORD
  5
10000100
102
{ACAD_REACTORS
330
100000FF
102
}
330
100000FF
100
AcDbXrecord
1000
SKFpF
  0
XRECORD
  5
10000103
102
{ACAD_REACTORS
330
10000102
102
}
330
10000102
100
AcDbXrecord
1000
SKFFB
  0
XRECORD
  5
10000106
102
{ACAD_REACTORS
330
10000105
102
}
330
10000105
100
AcDbXrecord
1000
SKFBF
  0
XRECORD
  5
10000109
102
{ACAD_REACTORS
330
10000108
102
}
330
10000108
100
AcDbXrecord
1000
SJDRI
  0
XRECORD
  5
1000010C
102
{ACAD_REACTORS
330
1000010B
102
}
330
1000010B
100
AcDbXrecord
1000
SKFJF
  0
XRECORD
  5
1000010F
102
{ACAD_REACTORS
330
1000010E
102
}
330
1000010E
100
AcDbXrecord
1000
SKFBB
  0
XRECORD
  5
10000112
102
{ACAD_REACTORS
330
10000111
102
}
330
10000111
100
AcDbXrecord
1000
SKFxF
  0
XRECORD
  5
10000115
102
{ACAD_REACTORS
330
10000114
102
}
330
10000114
100
AcDbXrecord
1000
SKFJC
  0
XRECORD
  5
10000118
102
{ACAD_REACTORS
330
10000117
102
}
330
10000117
100
AcDbXrecord
1000
RKF9
  0
XRECORD
  5
1000011B
102
{ACAD_REACTORS
330
1000011A
102
}
330
1000011A
100
AcDbXrecord
1000
SKFZI
  0
XRECORD
  5
1000011E
102
{ACAD_REACTORS
330
1000011D
102
}
330
1000011D
100
AcDbXrecord
1000
SJDhM
  0
XRECORD
  5
10000121
102
{ACAD_REACTORS
330
10000120
102
}
330
10000120
100
AcDbXrecord
1000
SKFRI
  0
XRECORD
  5
10000124
102
{ACAD_REACTORS
330
10000123
102
}
330
10000123
100
AcDbXrecord
1000
RKF5
  0
XRECORD
  5
10000127
102
{ACAD_REACTORS
330
10000126
102
}
330
10000126
100
AcDbXrecord
1000
SKFhC
  0
XRECORD
  5
1000012A
102
{ACAD_REACTORS
330
10000129
102
}
330
10000129
100
AcDbXrecord
1000
RKF1
  0
XRECORD
  5
1000012D
102
{ACAD_REACTORS
330
1000012C
102
}
330
1000012C
100
AcDbXrecord
1000
SKFJI
  0
XRECORD
  5
10000130
102
{ACAD_REACTORS
330
1000012F
102
}
330
1000012F
100
AcDbXrecord
1000
SJDJM
  0
XRECORD
  5
10000133
102
{ACAD_REACTORS
330
10000132
102
}
330
10000132
100
AcDbXrecord
1000
SKFBI
  0
XRECORD
  5
10000136
102
{ACAD_REACTORS
330
10000135
102
}
330
10000135
100
AcDbXrecord
1000
RKFx
  0
XRECORD
  5
10000139
102
{ACAD_REACTORS
330
10000138
102
}
330
10000138
100
AcDbXrecord
1000
SKFZC
  0
XRECORD
  5
1000013C
102
{ACAD_REACTORS
330
1000013B
102
}
330
1000013B
100
AcDbXrecord
1000
RKFt
  0
XRECORD
  5
1000013F
102
{ACAD_REACTORS
330
1000013E
102
}
330
1000013E
100
AcDbXrecord
1000
SKF5H
  0
XRECORD
  5
10000142
102
{ACAD_REACTORS
330
10000141
102
}
330
10000141
100
AcDbXrecord
1000
SJDxL
  0
XRECORD
  5
10000145
102
{ACAD_REACTORS
330
10000144
102
}
330
10000144
100
AcDbXrecord
1000
SKFxH
  0
XRECORD
  5
10000148
102
{ACAD_REACTORS
330
10000147
102
}
330
10000147
100
AcDbXrecord
1000
RKFp
  0
XRECORD
  5
1000014B
102
{ACAD_REACTORS
330
1000014A
102
}
330
1000014A
100
AcDbXrecord
1000
SKFRC
  0
XRECORD
  5
1000014E
102
{ACAD_REACTORS
330
1000014D
102
}
330
1000014D
100
AcDbXrecord
1000
RKFl
  0
XRECORD
  5
10000151
102
{ACAD_REACTORS
330
10000150
102
}
330
10000150
100
AcDbXrecord
1000
SKFhH
  0
XRECORD
  5
10000154
102
{ACAD_REACTORS
330
10000153
102
}
330
10000153
100
AcDbXrecord
1000
SJDhL
  0
XRECORD
  5
10000157
102
{ACAD_REACTORS
330
10000156
102
}
330
10000156
100
AcDbXrecord
1000
SKFpH
  0
XRECORD
  5
1000015A
102
{ACAD_REACTORS
330
10000159
102
}
330
10000159
100
AcDbXrecord
1000
RKFh
  0
XRECORD
  5
1000015D
102
{ACAD_REACTORS
330
1000015C
102
}
330
1000015C
100
AcDbXrecord
1000
SKFBC
  0
XRECORD
  5
10000160
102
{ACAD_REACTORS
330
1000015F
102
}
330
1000015F
100
AcDbXrecord
1000
SKFJE
  0
XRECORD
  5
10000163
102
{ACAD_REACTORS
330
10000162
102
}
330
10000162
100
AcDbXrecord
1000
RKFd
  0
XRECORD
  5
10000166
102
{ACAD_REACTORS
330
10000165
102
}
330
10000165
100
AcDbXrecord
1000
SKFZD
  0
XRECORD
  5
10000169
102
{ACAD_REACTORS
330
10000168
102
}
330
10000168
100
AcDbXrecord
1000
SJDBG
  0
XRECORD
  5
1000016C
102
{ACAD_REACTORS
330
1000016B
102
}
330
1000016B
100
AcDbXrecord
1000
SKFhD
  0
XRECORD
  5
1000016F
102
{ACAD_REACTORS
330
1000016E
102
}
330
1000016E
100
AcDbXrecord
1000
RKFZ
  0
XRECORD
  5
10000172
102
{ACAD_REACTORS
330
10000171
102
}
330
10000171
100
AcDbXrecord
1000
SKFBE
  0
XRECORD
  5
10000175
102
{ACAD_REACTORS
330
10000174
102
}
330
10000174
100
AcDbXrecord
1000
RKFV
  0
XRECORD
  5
10000178
102
{ACAD_REACTORS
330
10000177
102
}
330
10000177
100
AcDbXrecord
1000
SKFJD
  0
XRECORD
  5
1000017B
102
{ACAD_REACTORS
330
1000017A
102
}
330
1000017A
100
AcDbXrecord
1000
SJDpF
  0
XRECORD
  5
1000017E
102
{ACAD_REACTORS
330
1000017D
102
}
330
1000017D
100
AcDbXrecord
1000
SKFRD
  0
XRECORD
  5
10000181
102
{ACAD_REACTORS
330
10000180
102
}
330
10000180
100
AcDbXrecord
1000
RKFR
  0
XRECORD
  5
10000184
102
{ACAD_REACTORS
330
10000183
102
}
330
10000183
100
AcDbXrecord
1000
SKF5D
  0
XRECORD
  5
10000187
102
{ACAD_REACTORS
330
10000186
102
}
330
10000186
100
AcDbXrecord
1000
RKFN
  0
XRECORD
  5
1000018A
102
{ACAD_REACTORS
330
10000189
102
}
330
10000189
100
AcDbXrecord
1000
SKF5C
  0
XRECORD
  5
1000018D
102
{ACAD_REACTORS
330
1000018C
102
}
330
1000018C
100
AcDbXrecord
1000
SJDRF
  0
XRECORD
  5
10000190
102
{ACAD_REACTORS
330
1000018F
102
}
330
1000018F
100
AcDbXrecord
1000
SKFBD
  0
XRECORD
  5
10000193
102
{ACAD_REACTORS
330
10000192
102
}
330
10000192
100
AcDbXrecord
1000
RKFJ
  0
XRECORD
  5
10000196
102
{ACAD_REACTORS
330
10000195
102
}
330
10000195
100
AcDbXrecord
1000
SKFxD
  0
XRECORD
  5
10000199
102
{ACAD_REACTORS
330
10000198
102
}
330
10000198
100
AcDbXrecord
1000
RfFp
  0
XRECORD
  5
1000019C
102
{ACAD_REACTORS
330
1000019B
102
}
330
1000019B
100
AcDbXrecord
1000
SfFZD
  0
XRECORD
  5
1000019F
102
{ACAD_REACTORS
330
1000019E
102
}
330
1000019E
100
AcDbXrecord
1000
SfFRD
  0
XRECORD
  5
100001A2
102
{ACAD_REACTORS
330
100001A1
102
}
330
100001A1
100
AcDbXrecord
1000
SfFJD
  0
XRECORD
  5
100001A5
102
{ACAD_REACTORS
330
100001A4
102
}
330
100001A4
100
AcDbXrecord
1000
SfFBD
  0
XRECORD
  5
100001A8
102
{ACAD_REACTORS
330
100001A7
102
}
330
100001A7
100
AcDbXrecord
1000
SfF5C
  0
XRECORD
  5
100001AB
102
{ACAD_REACTORS
330
100001AA
102
}
330
100001AA
100
AcDbXrecord
1000
SfFxC
  0
XRECORD
  5
100001AE
102
{ACAD_REACTORS
330
100001AD
102
}
330
100001AD
100
AcDbXrecord
1000
SfFpB
  0
XRECORD
  5
100001B1
102
{ACAD_REACTORS
330
100001B0
102
}
330
100001B0
100
AcDbXrecord
1000
SfFhB
  0
XRECORD
  5
100001B4
102
{ACAD_REACTORS
330
100001B3
102
}
330
100001B3
100
AcDbXrecord
1000
SfFZB
  0
XRECORD
  5
100001B7
102
{ACAD_REACTORS
330
100001B6
102
}
330
100001B6
100
AcDbXrecord
1000
SfFRB
  0
XRECORD
  5
100001BA
102
{ACAD_REACTORS
330
100001B9
102
}
330
100001B9
100
AcDbXrecord
1000
SfFJB
  0
XRECORD
  5
100001BD
102
{ACAD_REACTORS
330
100001BC
102
}
330
100001BC
100
AcDbXrecord
1000
SfFBB
  0
XRECORD
  5
100001C0
102
{ACAD_REACTORS
330
100001BF
102
}
330
100001BF
100
AcDbXrecord
1000
RfF5
  0
XRECORD
  5
100001C3
102
{ACAD_REACTORS
330
100001C2
102
}
330
100001C2
100
AcDbXrecord
1000
RfFx
  0
XRECORD
  5
100001C6
102
{ACAD_REACTORS
330
100001C5
102
}
330
100001C5
100
AcDbXrecord
1000
SfFRC
  0
XRECORD
  5
100001C9
102
{ACAD_REACTORS
330
100001C8
102
}
330
100001C8
100
AcDbXrecord
1000
SfFZC
  0
XRECORD
  5
100001CC
102
{ACAD_REACTORS
330
100001CB
102
}
330
100001CB
100
AcDbXrecord
1000
SfFhC
  0
XRECORD
  5
100001CF
102
{ACAD_REACTORS
330
100001CE
102
}
330
100001CE
100
AcDbXrecord
1000
SfFpC
  0
XRECORD
  5
100001D2
102
{ACAD_REACTORS
330
100001D1
102
}
330
100001D1
100
AcDbXrecord
1000
SfFJC
  0
XRECORD
  5
100001D5
102
{ACAD_REACTORS
330
100001D4
102
}
330
100001D4
100
AcDbXrecord
1000
SfFBC
  0
XRECORD
  5
100001D8
102
{ACAD_REACTORS
330
100001D7
102
}
330
100001D7
100
AcDbXrecord
1000
SfF5B
  0
XRECORD
  5
100001DB
102
{ACAD_REACTORS
330
100001DA
102
}
330
100001DA
100
AcDbXrecord
1000
SfFxB
  0
MATERIAL
  5
45
102
{ACAD_REACTORS
330
43
102
}
102
{ACAD_XDICTIONARY
360
1000020D
102
}
330
43
100
AcDbMaterial
  1
BYBLOCK
  0
MATERIAL
  5
44
102
{ACAD_REACTORS
330
43
102
}
102
{ACAD_XDICTIONARY
360
1000020B
102
}
330
43
100
AcDbMaterial
  1
BYLAYER
  0
MATERIAL
  5
46
102
{ACAD_REACTORS
330
43
102
}
102
{ACAD_XDICTIONARY
360
1000020F
102
}
330
43
100
AcDbMaterial
  1
GLOBAL
  0
ACAD_PROXY_OBJECT
  5
6C
102
{ACAD_REACTORS
330
6B
102
}
330
6B
100
AcDbProxyObject
 90
      499
 91
      505
 93
      610
310
40901902A4063FBFFFFFE056BD1B81E855B9FC0AD7A3703D0AD73F4214DD185B99185C9900AD7A3703D0AC73F90141901A02B5E8DC0F42B1CFC02B5E8DC0F42B1CFE5764000000000000300FC0
340
14
340
0
340
11
340
0
 94
        0
1001
ACAD_MLEADERVER
1070
     2
  0
MLINESTYLE
  5
18
102
{ACAD_REACTORS
330
17
102
}
330
17
100
AcDbMlineStyle
  2
Standard
 70
     0
  3

 62
   256
 51
90.0
 52
90.0
 71
     2
 49
0.5
 62
   256
  6
BYLAYER
 49
-0.5
 62
   256
  6
BYLAYER
  0
ACAD_PROXY_OBJECT
  5
10000023
102
{ACAD_REACTORS
330
47
102
}
330
47
100
AcDbProxyObject
 90
      499
 91
      503
 93
      121
310
9053130303A310000000000001650100
  0
ACAD_PROXY_OBJECT
  5
1000001D
102
{ACAD_REACTORS
330
47
102
}
330
47
100
AcDbProxyObject
 90
      499
 91
      503
 93
      113
310
90431303A310000000000000910100
  0
ACAD_PROXY_OBJECT
  5
1000001E
102
{ACAD_REACTORS
330
47
102
}
330
47
100
AcDbProxyObject
 90
      499
 91
      503
 93
      113
310
90431323A310000000000000A10100
  0
ACAD_PROXY_OBJECT
  5
1000001F
102
{ACAD_REACTORS
330
47
102
}
330
47
100
AcDbProxyObject
 90
      499
 91
      503
 93
      113
310
90431363A310000000000000C10100
  0
ACAD_PROXY_OBJECT
  5
10000006
102
{ACAD_REACTORS
330
47
102
}
330
47
100
AcDbProxyObject
 90
      499
 91
      503
 93
       41
310
903313A31500
  0
ACAD_PROXY_OBJECT
  5
1000000D
102
{ACAD_REACTORS
330
47
102
}
330
47
100
AcDbProxyObject
 90
      499
 91
      503
 93
      113
310
904313A31304000000000000244000
  0
ACAD_PROXY_OBJECT
  5
10000016
102
{ACAD_REACTORS
330
47
102
}
330
47
100
AcDbProxyObject
 90
      499
 91
      503
 93
      121
310
905313A3130304000000000000594000
  0
ACAD_PROXY_OBJECT
  5
1000000E
102
{ACAD_REACTORS
330
47
102
}
330
47
100
AcDbProxyObject
 90
      499
 91
      503
 93
      113
310
904313A31324000000000000284000
  0
ACAD_PROXY_OBJECT
  5
1000000F
102
{ACAD_REACTORS
330
47
102
}
330
47
100
AcDbProxyObject
 90
      499
 91
      503
 93
      113
310
904313A31364000000000000304000
  0
ACAD_PROXY_OBJECT
  5
10000007
102
{ACAD_REACTORS
330
47
102
}
330
47
100
AcDbProxyObject
 90
      499
 91
      503
 93
      105
310
903313A324000000000000004000
  0
ACAD_PROXY_OBJECT
  5
10000010
102
{ACAD_REACTORS
330
47
102
}
330
47
100
AcDbProxyObject
 90
      499
 91
      503
 93
      113
310
904313A32304000000000000344000
  0
ACAD_PROXY_OBJECT
  5
10000011
102
{ACAD_REACTORS
330
47
102
}
330
47
100
AcDbProxyObject
 90
      499
 91
      503
 93
      113
310
904313A32354000000000000394000
  0
ACAD_PROXY_OBJECT
  5
10000008
102
{ACAD_REACTORS
330
47
102
}
330
47
100
AcDbProxyObject
 90
      499
 91
      503
 93
      105
310
903313A334000000000000084000
  0
ACAD_PROXY_OBJECT
  5
10000012
102
{ACAD_REACTORS
330
47
102
}
330
47
100
AcDbProxyObject
 90
      499
 91
      503
 93
      113
310
904313A33324000000000000404000
  0
ACAD_PROXY_OBJECT
  5
10000009
102
{ACAD_REACTORS
330
47
102
}
330
47
100
AcDbProxyObject
 90
      499
 91
      503
 93
      105
310
903313A344000000000000104000
  0
ACAD_PROXY_OBJECT
  5
10000013
102
{ACAD_REACTORS
330
47
102
}
330
47
100
AcDbProxyObject
 90
      499
 91
      503
 93
      113
310
904313A34304000000000000444000
  0
ACAD_PROXY_OBJECT
  5
1000000A
102
{ACAD_REACTORS
330
47
102
}
330
47
100
AcDbProxyObject
 90
      499
 91
      503
 93
      105
310
903313A354000000000000144000
  0
ACAD_PROXY_OBJECT
  5
10000014
102
{ACAD_REACTORS
330
47
102
}
330
47
100
AcDbProxyObject
 90
      499
 91
      503
 93
      113
310
904313A35304000000000000494000
  0
ACAD_PROXY_OBJECT
  5
1000000B
102
{ACAD_REACTORS
330
47
102
}
330
47
100
AcDbProxyObject
 90
      499
 91
      503
 93
      105
310
903313A364000000000000184000
  0
ACAD_PROXY_OBJECT
  5
1000000C
102
{ACAD_REACTORS
330
47
102
}
330
47
100
AcDbProxyObject
 90
      499
 91
      503
 93
      105
310
903313A384000000000000204000
  0
ACAD_PROXY_OBJECT
  5
10000015
102
{ACAD_REACTORS
330
47
102
}
330
47
100
AcDbProxyObject
 90
      499
 91
      503
 93
      113
310
904313A38304000000000000544000
  0
ACAD_PROXY_OBJECT
  5
10000020
102
{ACAD_REACTORS
330
47
102
}
330
47
100
AcDbProxyObject
 90
      499
 91
      503
 93
      113
310
90432303A310000000000000D10100
  0
ACAD_PROXY_OBJECT
  5
10000017
102
{ACAD_REACTORS
330
47
102
}
330
47
100
AcDbProxyObject
 90
      499
 91
      503
 93
      105
310
903323A310000000000000010100
  0
ACAD_PROXY_OBJECT
  5
10000021
102
{ACAD_REACTORS
330
47
102
}
330
47
100
AcDbProxyObject
 90
      499
 91
      503
 93
      113
310
90433323A310000000000001010100
  0
ACAD_PROXY_OBJECT
  5
10000018
102
{ACAD_REACTORS
330
47
102
}
330
47
100
AcDbProxyObject
 90
      499
 91
      503
 93
      105
310
903333A310000000000000210100
  0
ACAD_PROXY_OBJECT
  5
10000019
102
{ACAD_REACTORS
330
47
102
}
330
47
100
AcDbProxyObject
 90
      499
 91
      503
 93
      105
310
903343A310000000000000410100
  0
ACAD_PROXY_OBJECT
  5
10000022
102
{ACAD_REACTORS
330
47
102
}
330
47
100
AcDbProxyObject
 90
      499
 91
      503
 93
      113
310
90435303A310000000000001250100
  0
ACAD_PROXY_OBJECT
  5
1000001A
102
{ACAD_REACTORS
330
47
102
}
330
47
100
AcDbProxyObject
 90
      499
 91
      503
 93
      105
310
903353A310000000000000510100
  0
ACAD_PROXY_OBJECT
  5
1000001B
102
{ACAD_REACTORS
330
47
102
}
330
47
100
AcDbProxyObject
 90
      499
 91
      503
 93
      105
310
903363A310000000000000610100
  0
ACAD_PROXY_OBJECT
  5
1000001C
102
{ACAD_REACTORS
330
47
102
}
330
47
100
AcDbProxyObject
 90
      499
 91
      503
 93
      105
310
903383A310000000000000810100
  0
ACAD_PROXY_OBJECT
  5
2F
102
{ACAD_REACTORS
330
2A
102
}
330
2A
100
AcDbProxyObject
 90
      499
 91
      501
 93
      436
310
42CC9915DA5C99599C985B595049028333333333333E33F0000000000000F90107901411070040501600405405064090741402480A0340
1001
ACAD
1000
AcDbSavedByObjectVersion
1070
     0
  0
ACAD_PROXY_OBJECT
  5
32
102
{ACAD_REACTORS
330
2A
102
}
330
2A
100
AcDbProxyObject
 90
      499
 91
      501
 93
      388
310
4150985CDA58D07406404333333333333E33F0000000000000F90107A41107004050150841D405064090741402480A0350
1001
ACAD
1000
AcDbSavedByObjectVersion
1070
     0
  0
ACAD_PROXY_OBJECT
  5
36
102
{ACAD_REACTORS
330
2A
102
}
330
2A
100
AcDbProxyObject
 90
      499
 91
      501
 93
      428
310
42109C9A59DA1D195B90C409028333333333333E33F0000000000000F9010790141107004050150841D405064090741402480A029950
1001
ACAD
1000
AcDbSavedByObjectVersion
1070
     0
  0
ACAD_PROXY_OBJECT
  5
3A
102
{ACAD_REACTORS
330
2A
102
}
330
2A
100
AcDbProxyObject
 90
      499
 91
      501
 93
      452
310
42D0DBDB1BDC90DA185B99D95104090240C333333333333E33F0000000000000F90108901411070040501508421405064090741402480A0350
1001
ACAD
1000
AcDbSavedByObjectVersion
1070
     0
  0
ACAD_PROXY_OBJECT
  5
34
102
{ACAD_REACTORS
330
2A
102
}
330
2A
100
AcDbProxyObject
 90
      499
 91
      501
 93
      500
310
4290DBDB98D95C1D1D585B10940D028333333333333E33F0000000000000F90107902409070040501000000000018199010841D405064090740C02480A0340
1001
ACAD
1000
AcDbSavedByObjectVersion
1070
     0
  0
ACAD_PROXY_OBJECT
  5
35
102
{ACAD_REACTORS
330
2A
102
}
330
2A
100
AcDbProxyObject
 90
      499
 91
      501
 93
      412
310
40D11A5B50B409028333333333333E33F0000000000000F9010790141107004050150841D405064090741402480A02677FFFFFD0
1001
ACAD
1000
AcDbSavedByObjectVersion
1070
     0
  0
ACAD_PROXY_OBJECT
  5
3D
102
{ACAD_REACTORS
330
2A
102
}
330
2A
100
AcDbProxyObject
 90
      499
 91
      501
 93
      452
310
43115919D950DBDB1BDC93D999916409028333333333333E33F0000000000000F9010790141107004050150841D405064090741402480A0350
1001
ACAD
1000
AcDbSavedByObjectVersion
1070
     0
  0
ACAD_PROXY_OBJECT
  5
39
102
{ACAD_REACTORS
330
2A
102
}
330
2A
100
AcDbProxyObject
 90
      499
 91
      501
 93
      444
310
42D19858D95C185D1D195C9B90F409028333333333333E33F0000000000000F9010790141107004050150841D405064090741402480A0350
1001
ACAD
1000
AcDbSavedByObjectVersion
1070
     0
  0
ACAD_PROXY_OBJECT
  5
2B
102
{ACAD_REACTORS
330
2A
102
}
330
2A
100
AcDbProxyObject
 90
      499
 91
      501
 93
      380
310
41119B185D240901404333333333333E33F0000000000000F9010740A907004050150841D405064090741402480A1B50
1001
ACAD
1000
AcDbSavedByObjectVersion
1070
     0
  0
ACAD_PROXY_OBJECT
  5
2C
102
{ACAD_REACTORS
330
2A
102
}
330
2A
100
AcDbProxyObject
 90
      499
 91
      501
 93
      468
310
43519B185D15DA5D1A115919D95CD0140901404333333333333E33F0000000000000F90107409019070040501600405405064090741402480A1B50
1001
ACAD
1000
AcDbSavedByObjectVersion
1070
     0
  0
ACAD_PROXY_OBJECT
  5
2D
102
{ACAD_REACTORS
330
2A
102
}
330
2A
100
AcDbProxyObject
 90
      499
 91
      501
 93
      404
310
41D1DBDD5C985D5910240902404333333333333E33F0000000000000F9010740A9070040501641D405064090741402480A1B50
1001
ACAD
1000
AcDbSavedByObjectVersion
1070
     0
  0
ACAD_PROXY_OBJECT
  5
2E
102
{ACAD_REACTORS
330
2A
102
}
330
2A
100
AcDbProxyObject
 90
      499
 91
      501
 93
      492
310
4411DBDD5C985D5915DA5D1A115919D95CD0340902404333333333333E33F0000000000000F90107409019070040501600405405064090741402480A1B50
1001
ACAD
1000
AcDbSavedByObjectVersion
1070
     0
  0
ACAD_PROXY_OBJECT
  5
31
102
{ACAD_REACTORS
330
2A
102
}
330
2A
100
AcDbProxyObject
 90
      499
 91
      501
 93
      476
310
41921A5919195B90640502408333333333333E33F0000000000000F901079024090700405020000000000001110200405405064090740C02480A0340
1001
ACAD
1000
AcDbSavedByObjectVersion
1070
     0
  0
ACAD_PROXY_OBJECT
  5
3B
102
{ACAD_REACTORS
330
2A
102
}
330
2A
100
AcDbProxyObject
 90
      499
 91
      501
 93
      428
310
42529A5D1D195C93D999914409028333333333333E33F0000000000000F9010790141107004050150A41D405064090741402480A0350
1001
ACAD
1000
AcDbSavedByObjectVersion
1070
     0
  0
ACAD_PROXY_OBJECT
  5
38
102
{ACAD_REACTORS
330
2A
102
}
330
2A
100
AcDbProxyObject
 90
      499
 91
      501
 93
      444
310
42D31A5B995C185D1D195C9B90E409028333333333333E33F0000000000000F9010790141107004050750841D405064090741402483A0350
1001
ACAD
1000
AcDbSavedByObjectVersion
1070
     0
  0
ACAD_PROXY_OBJECT
  5
3C
102
{ACAD_REACTORS
330
2A
102
}
330
2A
100
AcDbProxyObject
 90
      499
 91
      501
 93
      444
310
42D3DD995C9A185B99D3D999915409028333333333333E33F0000000000000F9010790141107004050150941D405064090741402480A0350
1001
ACAD
1000
AcDbSavedByObjectVersion
1070
     0
  0
ACAD_PROXY_OBJECT
  5
33
102
{ACAD_REACTORS
330
2A
102
}
330
2A
100
AcDbProxyObject
 90
      499
 91
      501
 93
      428
310
425499585B1A5CDD1A58D08409038333333333333E33F0000000000000F9010740A907004050150800405405064090740C02480A1B40
1001
ACAD
1000
AcDbSavedByObjectVersion
1070
     0
  0
ACAD_PROXY_OBJECT
  5
42
102
{ACAD_REACTORS
330
2A
102
}
330
2A
100
AcDbProxyObject
 90
      499
 91
      501
 93
      420
310
4194DA1859195911B40902404333333333333E33F0000000000000F9010740A41107004050150800405405064090840C02480A0B40
1001
ACAD
1000
AcDbSavedByObjectVersion
1070
     0
  0
ACAD_PROXY_OBJECT
  5
41
102
{ACAD_REACTORS
330
2A
102
}
330
2A
100
AcDbProxyObject
 90
      499
 91
      501
 93
      516
310
4454DA18591959081DDA5D1A08195919D95CD1A40902404333333333333E33F0000000000000F901074090142907004050250800405405064090740C02480A0B40
1001
ACAD
1000
AcDbSavedByObjectVersion
1070
     0
  0
ACAD_PROXY_OBJECT
  5
3E
102
{ACAD_REACTORS
330
2A
102
}
330
2A
100
AcDbProxyObject
 90
      499
 91
      501
 93
      532
310
4394DA1859195CC81BD98811DC985E5174090240C333333333333E33F0000000000000F901079024090741D01000000000000111010841D405064090740C02480A0340
1001
ACAD
1000
AcDbSavedByObjectVersion
1070
     0
  0
ACAD_PROXY_OBJECT
  5
3F
102
{ACAD_REACTORS
330
2A
102
}
330
2A
100
AcDbProxyObject
 90
      499
 91
      501
 93
      476
310
41D4DAD95D18DA1E51840502408333333333333E33F0000000000000F901079024090741D01000000000000111010B41D405064090741802480A0340
1001
ACAD
1000
AcDbSavedByObjectVersion
1070
     0
  0
ACAD_PROXY_OBJECT
  5
37
102
{ACAD_REACTORS
330
2A
102
}
330
2A
100
AcDbProxyObject
 90
      499
 91
      501
 93
      412
310
41D51A1A58DAD95B90D409028333333333333E33F0000000000000F9010790141107004050150C41D405064090741402480A0350
1001
ACAD
1000
AcDbSavedByObjectVersion
1070
     0
  0
ACAD_PROXY_OBJECT
  5
30
102
{ACAD_REACTORS
330
2A
102
}
330
2A
100
AcDbProxyObject
 90
      499
 91
      501
 93
      420
310
4255DA5C99599C985B595059028333333333333E33F0000000000000F90107901411070040501600405405064090740C02480A0340
1001
ACAD
1000
AcDbSavedByObjectVersion
1070
     0
  0
ACAD_PROXY_OBJECT
  5
40
102
{ACAD_REACTORS
330
2A
102
}
330
2A
100
AcDbProxyObject
 90
      499
 91
      501
 93
      404
310
41560B54985E51940902404000000000000E03F0000000000000F9010740501907004050150841D405064090740C02480A1B40
1001
ACAD
1000
AcDbSavedByObjectVersion
1070
     0
  0
XRECORD
  5
100001E8
102
{ACAD_REACTORS
330
100001DE
102
}
330
100001DE
100
AcDbXrecord
340
0
  0
XRECORD
  5
100001E7
102
{ACAD_REACTORS
330
100001DE
102
}
330
100001DE
100
AcDbXrecord
 90
        0
  0
XRECORD
  5
100001FE
102
{ACAD_REACTORS
330
100001DE
102
}
330
100001DE
100
AcDbXrecord
1000
DSTYLE
1002
{
1070
   143
 40
0.0393700787401575
1070
   340
340
11
1002
}
  0
XRECORD
  5
100001E9
102
{ACAD_REACTORS
330
100001DE
102
}
330
100001DE
100
AcDbXrecord
  1
{70347574-6630-3175-f1f6-6273e63274e6}
  0
XRECORD
  5
100001E1
102
{ACAD_REACTORS
330
100001DE
102
}
330
100001DE
100
AcDbXrecord
  1

  0
XRECORD
  5
100001E6
102
{ACAD_REACTORS
330
100001DE
102
}
330
100001DE
100
AcDbXrecord
 90
        1
  0
XRECORD
  5
100001E3
102
{ACAD_REACTORS
330
100001DE
102
}
330
100001DE
100
AcDbXrecord
340
1A
  0
XRECORD
  5
100001E5
102
{ACAD_REACTORS
330
100001DE
102
}
330
100001DE
100
AcDbXrecord
 90
    10781
  0
XRECORD
  5
100001E4
102
{ACAD_REACTORS
330
100001DE
102
}
330
100001DE
100
AcDbXrecord
340
19
  0
XRECORD
  5
100001EB
102
{ACAD_REACTORS
330
100001DE
102
}
330
100001DE
100
AcDbXrecord
 40
0.0
  0
XRECORD
  5
100001EE
102
{ACAD_REACTORS
330
100001DE
102
}
330
100001DE
100
AcDbXrecord
340
0
  0
XRECORD
  5
100001F4
102
{ACAD_REACTORS
330
100001DE
102
}
330
100001DE
100
AcDbXrecord
 10
0.0
 20
0.0
 30
0.0
  0
XRECORD
  5
100001F0
102
{ACAD_REACTORS
330
100001DE
102
}
330
100001DE
100
AcDbXrecord
 10
0.0
 20
0.0
 30
0.0
  0
XRECORD
  5
100001F3
102
{ACAD_REACTORS
330
100001DE
102
}
330
100001DE
100
AcDbXrecord
 10
0.0
 20
0.0
 30
0.0
  0
XRECORD
  5
100001F1
102
{ACAD_REACTORS
330
100001DE
102
}
330
100001DE
100
AcDbXrecord
 10
0.0
 20
0.0
 30
0.0
  0
XRECORD
  5
100001F2
102
{ACAD_REACTORS
330
100001DE
102
}
330
100001DE
100
AcDbXrecord
 10
0.0
 20
0.0
 30
0.0
  0
XRECORD
  5
100001EF
102
{ACAD_REACTORS
330
100001DE
102
}
330
100001DE
100
AcDbXrecord
 10
0.0
 20
0.0
 30
0.0
  0
XRECORD
  5
100001EC
102
{ACAD_REACTORS
330
100001DE
102
}
330
100001DE
100
AcDbXrecord
340
0
  0
XRECORD
  5
100001ED
102
{ACAD_REACTORS
330
100001DE
102
}
330
100001DE
100
AcDbXrecord
 70
     0
  0
XRECORD
  5
100001E2
102
{ACAD_REACTORS
330
100001DE
102
}
330
100001DE
100
AcDbXrecord
  1

  0
XRECORD
  5
100001DF
102
{ACAD_REACTORS
330
100001DE
102
}
330
100001DE
100
AcDbXrecord
 90
        1
  0
XRECORD
  5
100001E0
102
{ACAD_REACTORS
330
100001DE
102
}
330
100001DE
100
AcDbXrecord
 90
       70
  0
XRECORD
  5
100001F7
102
{ACAD_REACTORS
330
100001DE
102
}
330
100001DE
100
AcDbXrecord
340
0
  0
XRECORD
  5
100001FD
102
{ACAD_REACTORS
330
100001DE
102
}
330
100001DE
100
AcDbXrecord
 10
0.0
 20
0.0
 30
0.0
  0
XRECORD
  5
100001F9
102
{ACAD_REACTORS
330
100001DE
102
}
330
100001DE
100
AcDbXrecord
 10
0.0
 20
0.0
 30
0.0
  0
XRECORD
  5
100001FC
102
{ACAD_REACTORS
330
100001DE
102
}
330
100001DE
100
AcDbXrecord
 10
0.0
 20
0.0
 30
0.0
  0
XRECORD
  5
100001FA
102
{ACAD_REACTORS
330
100001DE
102
}
330
100001DE
100
AcDbXrecord
 10
0.0
 20
0.0
 30
0.0
  0
XRECORD
  5
100001FB
102
{ACAD_REACTORS
330
100001DE
102
}
330
100001DE
100
AcDbXrecord
 10
0.0
 20
0.0
 30
0.0
  0
XRECORD
  5
100001F8
102
{ACAD_REACTORS
330
100001DE
102
}
330
100001DE
100
AcDbXrecord
 10
0.0
 20
0.0
 30
0.0
  0
XRECORD
  5
100001F5
102
{ACAD_REACTORS
330
100001DE
102
}
330
100001DE
100
AcDbXrecord
340
0
  0
XRECORD
  5
100001F6
102
{ACAD_REACTORS
330
100001DE
102
}
330
100001DE
100
AcDbXrecord
 70
     0
  0
XRECORD
  5
100001EA
102
{ACAD_REACTORS
330
100001DE
102
}
330
100001DE
100
AcDbXrecord
  1
{FAEB1C32-E019-11D5-929B-00C0DF256EC4}
  0
DICTIONARYVAR
  5
10000209
102
{ACAD_REACTORS
330
100001FF
102
}
330
100001FF
100
DictionaryVariables
280
     0
  1
1:1
  0
DICTIONARYVAR
  5
10000201
102
{ACAD_REACTORS
330
100001FF
102
}
330
100001FF
100
DictionaryVariables
280
     0
  1
Standard
  0
DICTIONARYVAR
  5
10000200
102
{ACAD_REACTORS
330
100001FF
102
}
330
100001FF
100
DictionaryVariables
280
     0
  1
Standard
  0
DICTIONARYVAR
  5
10000204
102
{ACAD_REACTORS
330
100001FF
102
}
330
100001FF
100
DictionaryVariables
280
     0
  1
2
  0
DICTIONARYVAR
  5
10000205
102
{ACAD_REACTORS
330
100001FF
102
}
330
100001FF
100
DictionaryVariables
280
     0
  1
1
  0
DICTIONARYVAR
  5
1000020A
102
{ACAD_REACTORS
330
100001FF
102
}
330
100001FF
100
DictionaryVariables
280
     0
  1
1
  0
XRECORD
  5
10000003
102
{ACAD_REACTORS
330
10000001
102
}
330
10000001
100
AcDbXrecord
 70
     4
  0
XRECORD
  5
10000002
102
{ACAD_REACTORS
330
10000001
102
}
330
10000001
100
AcDbXrecord
1040
86.0
  0
ACAD_PROXY_OBJECT
  5
10000005
102
{ACAD_REACTORS
330
10000001
102
}
330
10000001
100
AcDbProxyObject
 90
      499
 91
      509
 93
       34
310
40C8804000
  0
DICTIONARY
  5
1000020D
330
45
100
AcDbDictionary
280
     1
  3
ACAD_XREC_ROUNDTRIP
360
1000020E
  0
DICTIONARY
  5
1000020B
330
44
100
AcDbDictionary
280
     1
  3
ACAD_XREC_ROUNDTRIP
360
1000020C
  0
DICTIONARY
  5
1000020F
330
46
100
AcDbDictionary
280
     1
  3
ACAD_XREC_ROUNDTRIP
360
10000210
  0
XRECORD
  5
1000020E
102
{ACAD_REACTORS
330
1000020D
102
}
330
1000020D
100
AcDbXrecord
102
MATERIAL
148
0.0
149
0.0
149
0.0
 93
        0
 94
      127
282
     0
 72
     1
 77
     1
171
     1
175
     1
179
     1
273
     0
  0
XRECORD
  5
1000020C
102
{ACAD_REACTORS
330
1000020B
102
}
330
1000020B
100
AcDbXrecord
102
MATERIAL
148
0.0
149
0.0
149
0.0
 93
        0
 94
      127
282
     0
 72
     1
 77
     1
171
     1
175
     1
179
     1
273
     0
  0
XRECORD
  5
10000210
102
{ACAD_REACTORS
330
1000020F
102
}
330
1000020F
100
AcDbXrecord
102
MATERIAL
148
0.0
149
0.0
149
0.0
 93
        0
 94
      127
282
     0
 72
     1
 77
     1
171
     1
175
     1
179
     1
273
     0
  0
ENDSEC
  0
EOF
