G04 #@! TF.GenerationSoftware,KiCad,Pcbnew,(5.1.2)-1*
G04 #@! TF.CreationDate,2019-05-11T13:20:20-07:00*
G04 #@! TF.ProjectId,PartsExport,50617274-7345-4787-906f-72742e6b6963,rev?*
G04 #@! TF.SameCoordinates,Original*
G04 #@! TF.FileFunction,Profile,NP*
%FSLAX46Y46*%
G04 Gerber Fmt 4.6, Leading zero omitted, Abs format (unit mm)*
G04 Created by KiCad (PCBNEW (5.1.2)-1) date 2019-05-11 13:20:20*
%MOMM*%
%LPD*%
G04 APERTURE LIST*
%ADD10C,0.200000*%
G04 APERTURE END LIST*
D10*
X95880866Y-113150584D02*
G75*
G02X95380866Y-112650584I0J500000D01*
G01*
X132773000Y-84020000D02*
X132773000Y-83814000D01*
X134476000Y-83417000D02*
G75*
G02X134873000Y-83814000I0J-397000D01*
G01*
X134476000Y-83417000D02*
X134270000Y-83417000D01*
X132376000Y-83417000D02*
G75*
G02X132773000Y-83814000I0J-397000D01*
G01*
X134270000Y-84417000D02*
G75*
G02X133873000Y-84020000I0J397000D01*
G01*
X132376000Y-83417000D02*
X132170000Y-83417000D01*
X133873000Y-83814000D02*
G75*
G02X134270000Y-83417000I397000J0D01*
G01*
X136323000Y-84867000D02*
X136423000Y-84867000D01*
X134873000Y-84020000D02*
G75*
G02X134476000Y-84417000I-397000J0D01*
G01*
X131773000Y-83814000D02*
G75*
G02X132170000Y-83417000I397000J0D01*
G01*
X131773000Y-83814000D02*
X131773000Y-84020000D01*
X132170000Y-84417000D02*
G75*
G02X131773000Y-84020000I0J397000D01*
G01*
X136323000Y-84867000D02*
G75*
G02X135823000Y-84367000I0J500000D01*
G01*
X132170000Y-84417000D02*
X132376000Y-84417000D01*
X133873000Y-83814000D02*
X133873000Y-84020000D01*
X135823000Y-83467000D02*
X135823000Y-84367000D01*
X134270000Y-84417000D02*
X134476000Y-84417000D01*
X134873000Y-84020000D02*
X134873000Y-83814000D01*
X136423000Y-82967000D02*
G75*
G02X136923000Y-83467000I0J-500000D01*
G01*
X135823000Y-83467000D02*
G75*
G02X136323000Y-82967000I500000J0D01*
G01*
X136423000Y-82967000D02*
X136323000Y-82967000D01*
X136923000Y-84367000D02*
G75*
G02X136423000Y-84867000I-500000J0D01*
G01*
X136923000Y-84367000D02*
X136923000Y-83467000D01*
X134411480Y-77701605D02*
X129511480Y-77701605D01*
X141961480Y-79301604D02*
X134911480Y-79301604D01*
X141961480Y-79301604D02*
X141961480Y-86351604D01*
X134411480Y-77701605D02*
X134411480Y-78801604D01*
X134911480Y-79301604D02*
G75*
G02X134411480Y-78801604I-500000J0D01*
G01*
X141961480Y-102251604D02*
G75*
G02X142461480Y-101751604I0J500000D01*
G01*
X142461480Y-106851604D02*
G75*
G02X141961480Y-106351604I-500000J0D01*
G01*
X124411480Y-130901603D02*
X119511480Y-130901603D01*
X99011480Y-129301604D02*
G75*
G02X99511480Y-129801604I500000J0D01*
G01*
X143561480Y-116851604D02*
X142461480Y-116851604D01*
X141961480Y-122251604D02*
G75*
G02X142461480Y-121751604I0J500000D01*
G01*
X104411480Y-130901604D02*
X99511480Y-130901603D01*
X143561480Y-91751604D02*
X142461480Y-91751604D01*
X119011480Y-129301604D02*
G75*
G02X119511480Y-129801604I500000J0D01*
G01*
X141961480Y-102251604D02*
X141961480Y-106351604D01*
X142461480Y-96851604D02*
G75*
G02X141961480Y-96351604I-500000J0D01*
G01*
X143561480Y-106851604D02*
X143561480Y-111751604D01*
X114411480Y-129801603D02*
G75*
G02X114911480Y-129301603I0J500000D01*
G01*
X141961480Y-112251604D02*
X141961480Y-116351604D01*
X143561480Y-121751604D02*
X142461480Y-121751604D01*
X114411480Y-129801603D02*
X114411480Y-130901603D01*
X109011480Y-129301604D02*
X104911480Y-129301604D01*
X90361481Y-111851603D02*
X90361481Y-106951604D01*
X134411480Y-129801603D02*
X134411480Y-130901603D01*
X91961480Y-112351603D02*
X91961480Y-116451604D01*
X124411480Y-129801603D02*
X124411480Y-130901603D01*
X90361481Y-121851604D02*
X90361481Y-116951604D01*
X91461481Y-106951604D02*
X90361481Y-106951604D01*
X91961480Y-122351604D02*
X91961480Y-129301604D01*
X91961480Y-116451605D02*
G75*
G02X91461481Y-116951604I0J-499999D01*
G01*
X143561480Y-86851604D02*
X143561480Y-91751604D01*
X143561480Y-96851604D02*
X142461480Y-96851604D01*
X134411480Y-130901603D02*
X129511480Y-130901603D01*
X141961480Y-129301604D02*
X134911480Y-129301603D01*
X109511480Y-129801604D02*
X109511480Y-130901603D01*
X114411480Y-130901603D02*
X109511480Y-130901603D01*
X143561480Y-101751604D02*
X142461480Y-101751604D01*
X143561480Y-96851604D02*
X143561480Y-101751604D01*
X143561480Y-106851604D02*
X142461480Y-106851604D01*
X143561480Y-111751604D02*
X142461480Y-111751604D01*
X141961480Y-122251604D02*
X141961480Y-129301604D01*
X104411480Y-129801604D02*
X104411480Y-130901604D01*
X119011480Y-129301604D02*
X114911480Y-129301604D01*
X141961480Y-112251604D02*
G75*
G02X142461480Y-111751604I0J500000D01*
G01*
X134411480Y-129801603D02*
G75*
G02X134911480Y-129301603I0J500000D01*
G01*
X91461481Y-111851603D02*
X90361481Y-111851603D01*
X91461480Y-121851604D02*
G75*
G02X91961480Y-122351604I500000J0D01*
G01*
X99511480Y-129801604D02*
X99511480Y-130901603D01*
X91461480Y-111851603D02*
G75*
G02X91961480Y-112351603I500000J0D01*
G01*
X104411480Y-129801604D02*
G75*
G02X104911480Y-129301604I0J500000D01*
G01*
X91461481Y-116951604D02*
X90361481Y-116951604D01*
X142461480Y-116851604D02*
G75*
G02X141961480Y-116351604I-500000J0D01*
G01*
X129511480Y-129801604D02*
X129511480Y-130901603D01*
X143561480Y-116851604D02*
X143561480Y-121751604D01*
X129011480Y-129301604D02*
G75*
G02X129511480Y-129801604I500000J0D01*
G01*
X129011480Y-129301604D02*
X124911480Y-129301604D01*
X91961480Y-102351604D02*
X91961480Y-106451604D01*
X91461481Y-101851604D02*
X90361481Y-101851604D01*
X124411480Y-129801603D02*
G75*
G02X124911480Y-129301603I0J500000D01*
G01*
X99011480Y-129301604D02*
X91961480Y-129301604D01*
X119511480Y-129801604D02*
X119511480Y-130901603D01*
X91961480Y-106451605D02*
G75*
G02X91461481Y-106951604I0J-499999D01*
G01*
X91461480Y-101851604D02*
G75*
G02X91961480Y-102351604I500000J0D01*
G01*
X91461481Y-121851604D02*
X90361481Y-121851604D01*
X142461480Y-86851604D02*
G75*
G02X141961480Y-86351604I-500000J0D01*
G01*
X143561480Y-86851604D02*
X142461480Y-86851604D01*
X109011480Y-129301604D02*
G75*
G02X109511480Y-129801604I500000J0D01*
G01*
X141961480Y-92251604D02*
G75*
G02X142461480Y-91751604I0J500000D01*
G01*
X141961480Y-92251604D02*
X141961480Y-96351604D01*
X130673000Y-84020000D02*
X130673000Y-83814000D01*
X130276000Y-83417000D02*
X130070000Y-83417000D01*
X91961480Y-96451605D02*
G75*
G02X91461481Y-96951604I0J-499999D01*
G01*
X128223000Y-82967000D02*
G75*
G02X128723000Y-83467000I0J-500000D01*
G01*
X109011480Y-79301604D02*
X104911480Y-79301604D01*
X114411480Y-77701604D02*
X109511480Y-77701605D01*
X129511480Y-77701605D02*
X129511480Y-78801604D01*
X123120866Y-109450584D02*
X123070866Y-109450584D01*
X95380866Y-109060584D02*
G75*
G02X95880866Y-108560584I500000J0D01*
G01*
X91461480Y-91851604D02*
G75*
G02X91961480Y-92351604I500000J0D01*
G01*
X119511480Y-77701605D02*
X119511480Y-78801604D01*
X91461481Y-91851604D02*
X90361481Y-91851604D01*
X90361481Y-91851604D02*
X90361481Y-86951603D01*
X128723000Y-84367000D02*
G75*
G02X128223000Y-84867000I-500000J0D01*
G01*
X91461481Y-86951603D02*
X90361481Y-86951603D01*
X91961480Y-79301604D02*
X91961480Y-86451603D01*
X99011479Y-79301604D02*
X91961480Y-79301604D01*
X109511480Y-77701605D02*
X109511480Y-78801604D01*
X114911479Y-79301604D02*
G75*
G02X114411480Y-78801605I-499999J0D01*
G01*
X128123000Y-84867000D02*
G75*
G02X127623000Y-84367000I0J500000D01*
G01*
X119011480Y-79301604D02*
X114911480Y-79301604D01*
X129511480Y-78801604D02*
G75*
G02X129011480Y-79301604I0J-500000D01*
G01*
X123070866Y-112140584D02*
G75*
G02X122570866Y-111640584I0J500000D01*
G01*
X99511479Y-77701605D02*
X99511479Y-78801604D01*
X129673000Y-83814000D02*
X129673000Y-84020000D01*
X104411480Y-77701604D02*
X99511479Y-77701605D01*
X109511480Y-78801604D02*
G75*
G02X109011480Y-79301604I0J-500000D01*
G01*
X114411480Y-77701604D02*
X114411480Y-78801605D01*
X119511480Y-78801604D02*
G75*
G02X119011480Y-79301604I0J-500000D01*
G01*
X124411480Y-77701604D02*
X119511480Y-77701605D01*
X127623000Y-83467000D02*
X127623000Y-84367000D01*
X124411480Y-77701604D02*
X124411480Y-78801605D01*
X123620866Y-111640584D02*
X123620866Y-109950584D01*
X123070866Y-112140584D02*
X123120866Y-112140584D01*
X122570866Y-109950584D02*
X122570866Y-111640584D01*
X127623000Y-83467000D02*
G75*
G02X128123000Y-82967000I500000J0D01*
G01*
X95380866Y-109060584D02*
X95380866Y-112650584D01*
X129011480Y-79301604D02*
X124911480Y-79301604D01*
X122570866Y-109950584D02*
G75*
G02X123070866Y-109450584I500000J0D01*
G01*
X96430866Y-112650584D02*
G75*
G02X95930866Y-113150584I-500000J0D01*
G01*
X96430866Y-112650584D02*
X96430866Y-109060584D01*
X95930866Y-108560584D02*
X95880866Y-108560584D01*
X130070000Y-84417000D02*
X130276000Y-84417000D01*
X128223000Y-82967000D02*
X128123000Y-82967000D01*
X95930866Y-108560584D02*
G75*
G02X96430866Y-109060584I0J-500000D01*
G01*
X99511479Y-78801604D02*
G75*
G02X99011479Y-79301604I0J-500000D01*
G01*
X104411480Y-77701604D02*
X104411480Y-78801605D01*
X132773000Y-84020000D02*
G75*
G02X132376000Y-84417000I-397000J0D01*
G01*
X128723000Y-84367000D02*
X128723000Y-83467000D01*
X130276000Y-83417000D02*
G75*
G02X130673000Y-83814000I0J-397000D01*
G01*
X91961480Y-92351604D02*
X91961480Y-96451604D01*
X90361481Y-101851604D02*
X90361481Y-96951604D01*
X91961480Y-86451604D02*
G75*
G02X91461481Y-86951603I0J-499999D01*
G01*
X123120866Y-109450584D02*
G75*
G02X123620866Y-109950584I0J-500000D01*
G01*
X129673000Y-83814000D02*
G75*
G02X130070000Y-83417000I397000J0D01*
G01*
X95880866Y-113150584D02*
X95930866Y-113150584D01*
X124911479Y-79301604D02*
G75*
G02X124411480Y-78801605I-499999J0D01*
G01*
X123620866Y-111640584D02*
G75*
G02X123120866Y-112140584I-500000J0D01*
G01*
X91461481Y-96951604D02*
X90361481Y-96951604D01*
X130673000Y-84020000D02*
G75*
G02X130276000Y-84417000I-397000J0D01*
G01*
X104911479Y-79301604D02*
G75*
G02X104411480Y-78801605I-499999J0D01*
G01*
X128123000Y-84867000D02*
X128223000Y-84867000D01*
X130070000Y-84417000D02*
G75*
G02X129673000Y-84020000I0J397000D01*
G01*
M02*
