G04 #@! TF.GenerationSoftware,KiCad,Pcbnew,(5.1.2)-1*
G04 #@! TF.CreationDate,2019-05-11T12:27:27-07:00*
G04 #@! TF.ProjectId,PartsExport,50617274-7345-4787-906f-72742e6b6963,rev?*
G04 #@! TF.SameCoordinates,Original*
G04 #@! TF.FileFunction,Profile,NP*
%FSLAX46Y46*%
G04 Gerber Fmt 4.6, Leading zero omitted, Abs format (unit mm)*
G04 Created by KiCad (PCBNEW (5.1.2)-1) date 2019-05-11 12:27:27*
%MOMM*%
%LPD*%
G04 APERTURE LIST*
%ADD10C,0.200000*%
G04 APERTURE END LIST*
D10*
X121289341Y-143467857D02*
X121289341Y-142367857D01*
X106389341Y-143467857D02*
X106389341Y-142367857D01*
X98839341Y-141867857D02*
X105889341Y-141867857D01*
X121204122Y-125812882D02*
X121227178Y-125819552D01*
X121227178Y-125819552D02*
X121274048Y-125829558D01*
X148839340Y-114817857D02*
G75*
G02X149339340Y-114317857I0J500000D01*
G01*
X149339341Y-119417857D02*
G75*
G02X148839341Y-118917857I-500000J0D01*
G01*
X148839340Y-124817857D02*
G75*
G02X149339340Y-124317857I0J500000D01*
G01*
X131289341Y-143467857D02*
X131289341Y-142367857D01*
X149339341Y-129417857D02*
G75*
G02X148839341Y-128917857I-500000J0D01*
G01*
X150439340Y-134317857D02*
X150439340Y-129417857D01*
X98839341Y-128917857D02*
G75*
G02X98339341Y-129417857I0J-500000D01*
G01*
X136389341Y-143467857D02*
X136389341Y-142367857D01*
X148839341Y-141867857D02*
X148839340Y-134817857D01*
X121181373Y-125805110D02*
X121204122Y-125812882D01*
X121158975Y-125796239D02*
X121181373Y-125805110D01*
X121147921Y-125791394D02*
X121158975Y-125796239D01*
X150439340Y-124317857D02*
X150439340Y-119417857D01*
X149339341Y-129417857D02*
X150439340Y-129417857D01*
X97239342Y-134317857D02*
X98339341Y-134317857D01*
X148839340Y-134817857D02*
G75*
G02X149339340Y-134317857I0J500000D01*
G01*
X111789341Y-141867857D02*
X115889341Y-141867857D01*
X121274048Y-125829558D02*
X121321656Y-125835078D01*
X136389341Y-143467857D02*
X141289341Y-143467857D01*
X141789341Y-141867857D02*
X148839341Y-141867857D01*
X111289341Y-143467857D02*
X111289341Y-142367857D01*
X105889341Y-141867857D02*
G75*
G02X106389341Y-142367857I500000J0D01*
G01*
X98339341Y-134317857D02*
G75*
G02X98839341Y-134817857I500000J0D01*
G01*
X116389341Y-143467857D02*
X116389341Y-142367857D01*
X106389341Y-143467857D02*
X111289341Y-143467857D01*
X131789341Y-141867857D02*
X135889341Y-141867857D01*
X97239342Y-129417857D02*
X98339341Y-129417857D01*
X126389341Y-143467857D02*
X126389341Y-142367857D01*
X116389341Y-143467857D02*
X121289341Y-143467857D01*
X141289341Y-143467857D02*
X141289341Y-142367857D01*
X115889341Y-141867857D02*
G75*
G02X116389341Y-142367857I500000J0D01*
G01*
X121558959Y-125793173D02*
X121646593Y-125742859D01*
X121369674Y-125836055D02*
X121417768Y-125832423D01*
X149339340Y-124317857D02*
X150439340Y-124317857D01*
X148839341Y-128917857D02*
X148839341Y-124817857D01*
X149339340Y-134317857D02*
X150439340Y-134317857D01*
X97239342Y-134317857D02*
X97239342Y-129417857D01*
X141289341Y-142367857D02*
G75*
G02X141789341Y-141867857I0J500000D01*
G01*
X135889341Y-141867857D02*
G75*
G02X136389341Y-142367857I500000J0D01*
G01*
X121321656Y-125835078D02*
X121369674Y-125836055D01*
X111289341Y-142367857D02*
G75*
G02X111789341Y-141867857I0J500000D01*
G01*
X126389341Y-143467857D02*
X131289341Y-143467857D01*
X121289341Y-142367857D02*
G75*
G02X121789341Y-141867857I0J500000D01*
G01*
X121465594Y-125824110D02*
X121558959Y-125793173D01*
X121789341Y-141867857D02*
X125889341Y-141867857D01*
X149339341Y-119417857D02*
X150439340Y-119417857D01*
X149339340Y-114317857D02*
X150439340Y-114317857D01*
X148839341Y-118917857D02*
X148839341Y-114817857D01*
X121417768Y-125832423D02*
X121465594Y-125824110D01*
X98839341Y-141867857D02*
X98839341Y-134817857D01*
X131289341Y-142367857D02*
G75*
G02X131789341Y-141867857I0J500000D01*
G01*
X125889341Y-141867857D02*
G75*
G02X126389341Y-142367857I500000J0D01*
G01*
X120938191Y-125612331D02*
X120945920Y-125623593D01*
X120913598Y-125571306D02*
X120916868Y-125577315D01*
X120873527Y-125470890D02*
X120876942Y-125482665D01*
X120902821Y-125549902D02*
X120904295Y-125552994D01*
X120859280Y-125399365D02*
X120862847Y-125423334D01*
X120899584Y-125542902D02*
X120899938Y-125543682D01*
X121136970Y-125786276D02*
X121147921Y-125791394D01*
X121126130Y-125780887D02*
X121136970Y-125786276D01*
X121110086Y-125772294D02*
X121115404Y-125775226D01*
X121049235Y-125731959D02*
X121060155Y-125740210D01*
X121115404Y-125775226D02*
X121126130Y-125780887D01*
X121104799Y-125769295D02*
X121110086Y-125772294D01*
X121099543Y-125766228D02*
X121104799Y-125769295D01*
X120923657Y-125589187D02*
X120930767Y-125600861D01*
X121096928Y-125764670D02*
X121099543Y-125766228D01*
X121095623Y-125763884D02*
X121096928Y-125764670D01*
X120904295Y-125552994D02*
X120905792Y-125556075D01*
X121094320Y-125763094D02*
X121095623Y-125763884D01*
X121089936Y-125760394D02*
X121091394Y-125761299D01*
X121079831Y-125753911D02*
X121082701Y-125755789D01*
X120899938Y-125543682D02*
X120900651Y-125545241D01*
X120898531Y-125540556D02*
X120898705Y-125540947D01*
X121093588Y-125762648D02*
X121093954Y-125762871D01*
X121091394Y-125761299D02*
X121092856Y-125762200D01*
X120905792Y-125556075D02*
X120907310Y-125559145D01*
X121017932Y-125705474D02*
X121028120Y-125714581D01*
X120898881Y-125541338D02*
X120899232Y-125542120D01*
X120876942Y-125482665D02*
X120880656Y-125494383D01*
X120900651Y-125545241D02*
X120901368Y-125546798D01*
X121082701Y-125755789D02*
X121085584Y-125757646D01*
X120899232Y-125542120D02*
X120899584Y-125542902D01*
X120867593Y-125447191D02*
X120873527Y-125470890D01*
X120855648Y-125351271D02*
X120859280Y-125399365D01*
X120862847Y-125423334D02*
X120867593Y-125447191D01*
X121093954Y-125762871D02*
X121094320Y-125763094D01*
X120970867Y-125656072D02*
X120988898Y-125676576D01*
X120953947Y-125634641D02*
X120970867Y-125656072D01*
X120898705Y-125540947D02*
X120898881Y-125541338D01*
X120897272Y-125537707D02*
X120897899Y-125539132D01*
X121092856Y-125762200D02*
X121093588Y-125762648D01*
X120897899Y-125539132D02*
X120898531Y-125540556D01*
X120896032Y-125534854D02*
X120897272Y-125537707D01*
X121088482Y-125759483D02*
X121089936Y-125760394D01*
X120880656Y-125494383D02*
X120884672Y-125506038D01*
X121085584Y-125757646D02*
X121088482Y-125759483D01*
X121007996Y-125696098D02*
X121017932Y-125705474D01*
X120988898Y-125676576D02*
X121007996Y-125696098D01*
X120884672Y-125506038D02*
X120888989Y-125517622D01*
X120910411Y-125565249D02*
X120913598Y-125571306D01*
X120888989Y-125517622D02*
X120891261Y-125523386D01*
X121076977Y-125752013D02*
X121079831Y-125753911D01*
X121071311Y-125748157D02*
X121076977Y-125752013D01*
X121038555Y-125723413D02*
X121049235Y-125731959D01*
X121028120Y-125714581D02*
X121038555Y-125723413D01*
X120894811Y-125531995D02*
X120896032Y-125534854D01*
X120916868Y-125577315D02*
X120923657Y-125589187D01*
X120891261Y-125523386D02*
X120893608Y-125529130D01*
X120893608Y-125529130D02*
X120894811Y-125531995D01*
X121065703Y-125744222D02*
X121071311Y-125748157D01*
X121060155Y-125740210D02*
X121065703Y-125744222D01*
X120901368Y-125546798D02*
X120902821Y-125549902D01*
X120930767Y-125600861D02*
X120938191Y-125612331D01*
X120907310Y-125559145D02*
X120910411Y-125565249D01*
X120945920Y-125623593D02*
X120953947Y-125634641D01*
X121043089Y-124945906D02*
X121033245Y-124953970D01*
X124289364Y-122615220D02*
X124151220Y-122714367D01*
X124151220Y-122714367D02*
X124000008Y-122822893D01*
X125306157Y-122109782D02*
X125259287Y-122099776D01*
X121062635Y-124931074D02*
X121058316Y-124934223D01*
X125374360Y-122133094D02*
X125351962Y-122124224D01*
X124722464Y-122304380D02*
X124635891Y-122366514D01*
X125417931Y-122154107D02*
X125407205Y-122148447D01*
X120862146Y-125255645D02*
X120856625Y-125303253D01*
X124533916Y-122439702D02*
X124289364Y-122615220D01*
X120956088Y-125035388D02*
X120928609Y-125075918D01*
X120987800Y-124997365D02*
X120956088Y-125035388D01*
X121066284Y-124928454D02*
X121064210Y-124929943D01*
X121314366Y-124750403D02*
X121227793Y-124812538D01*
X121532316Y-124593979D02*
X121416341Y-124677215D01*
X124000008Y-122822893D02*
X123843195Y-122935439D01*
X123843195Y-122935439D02*
X123677050Y-123054684D01*
X124635891Y-122366514D02*
X124533916Y-122439702D01*
X125067741Y-122105223D02*
X124974377Y-122136161D01*
X125259287Y-122099776D02*
X125211679Y-122094255D01*
X124843807Y-122217291D02*
X124792236Y-122254304D01*
X125396365Y-122143057D02*
X125385414Y-122137939D01*
X125423249Y-122157039D02*
X125417931Y-122154107D01*
X124875776Y-122194346D02*
X124862329Y-122203997D01*
X121053180Y-124938061D02*
X121048104Y-124941956D01*
X125428536Y-122160038D02*
X125423249Y-122157039D01*
X122618567Y-123814366D02*
X122443087Y-123940310D01*
X122443087Y-123940310D02*
X122273207Y-124062234D01*
X120872152Y-125208775D02*
X120862146Y-125255645D01*
X121048104Y-124941956D02*
X121043089Y-124945906D01*
X123331689Y-123302552D02*
X123154342Y-123429835D01*
X123154342Y-123429835D02*
X122975128Y-123558459D01*
X121023650Y-124962248D02*
X121005214Y-124979418D01*
X121058316Y-124934223D02*
X121053180Y-124938061D01*
X121069715Y-124925992D02*
X121066284Y-124928454D01*
X121158021Y-124862614D02*
X121129873Y-124882816D01*
X125329213Y-122116451D02*
X125306157Y-122109782D01*
X125351962Y-122124224D02*
X125329213Y-122116451D01*
X125163662Y-122093278D02*
X125115567Y-122096911D01*
X121416341Y-124677215D02*
X121314366Y-124750403D01*
X124862329Y-122203997D02*
X124843807Y-122217291D01*
X124883972Y-122188464D02*
X124880541Y-122190926D01*
X125211679Y-122094255D02*
X125163662Y-122093278D01*
X125115567Y-122096911D02*
X125067741Y-122105223D01*
X125385414Y-122137939D02*
X125374360Y-122133094D01*
X125407205Y-122148447D02*
X125396365Y-122143057D01*
X124880541Y-122190926D02*
X124875776Y-122194346D01*
X120905427Y-125118568D02*
X120886593Y-125162970D01*
X120886593Y-125162970D02*
X120872152Y-125208775D01*
X120928609Y-125075918D02*
X120905427Y-125118568D01*
X121005214Y-124979418D02*
X120987800Y-124997365D01*
X121106450Y-124899627D02*
X121087928Y-124912920D01*
X124885845Y-122187120D02*
X124883972Y-122188464D01*
X121087928Y-124912920D02*
X121074481Y-124922571D01*
X123677050Y-123054684D02*
X123507170Y-123176608D01*
X123507170Y-123176608D02*
X123331689Y-123302552D01*
X124974377Y-122136161D02*
X124886743Y-122186475D01*
X121033245Y-124953970D02*
X121023650Y-124962248D01*
X124792236Y-122254304D02*
X124722464Y-122304380D01*
X124886743Y-122186475D02*
X124885845Y-122187120D01*
X121660893Y-124501698D02*
X121532316Y-124593979D01*
X122975128Y-123558459D02*
X122795914Y-123687082D01*
X122795914Y-123687082D02*
X122618567Y-123814366D01*
X121074481Y-124922571D02*
X121069715Y-124925992D01*
X122273207Y-124062234D02*
X122107061Y-124181479D01*
X122107061Y-124181479D02*
X121950249Y-124294025D01*
X121064210Y-124929943D02*
X121062635Y-124931074D01*
X121129873Y-124882816D02*
X121106450Y-124899627D01*
X120856625Y-125303253D02*
X120855648Y-125351271D01*
X121950249Y-124294025D02*
X121799037Y-124402550D01*
X121799037Y-124402550D02*
X121660893Y-124501698D01*
X121227793Y-124812538D02*
X121158021Y-124862614D01*
X122748520Y-114510649D02*
X122744664Y-114516315D01*
X122958969Y-114336611D02*
X122957545Y-114337238D01*
X122820101Y-114428237D02*
X122800578Y-114447334D01*
X122967547Y-114332948D02*
X122964682Y-114334150D01*
X122840605Y-114410205D02*
X122820101Y-114428237D01*
X122949879Y-114340708D02*
X122946775Y-114342160D01*
X122895816Y-114370106D02*
X122884346Y-114377530D01*
X122946775Y-114342160D02*
X122943682Y-114343635D01*
X122964682Y-114334150D02*
X122961823Y-114335371D01*
X122954556Y-114338571D02*
X122953775Y-114338924D01*
X122764718Y-114488573D02*
X122756467Y-114499493D01*
X122733582Y-114533659D02*
X122732792Y-114534961D01*
X122734029Y-114532926D02*
X122733805Y-114533292D01*
X122752454Y-114505042D02*
X122748520Y-114510649D01*
X122907490Y-114362996D02*
X122895816Y-114370106D01*
X122961823Y-114335371D02*
X122958969Y-114336611D01*
X122733805Y-114533292D02*
X122733582Y-114533659D01*
X122734477Y-114532194D02*
X122734029Y-114532926D01*
X122931428Y-114349750D02*
X122925371Y-114352937D01*
X122735377Y-114530732D02*
X122734477Y-114532194D01*
X122736283Y-114529275D02*
X122735377Y-114530732D01*
X122737193Y-114527820D02*
X122736283Y-114529275D01*
X122739030Y-114524922D02*
X122737193Y-114527820D01*
X122740888Y-114522039D02*
X122739030Y-114524922D01*
X122782095Y-114467458D02*
X122773264Y-114477893D01*
X122956121Y-114337870D02*
X122955730Y-114338045D01*
X122957545Y-114337238D02*
X122956121Y-114337870D01*
X122955338Y-114338220D02*
X122954556Y-114338571D01*
X122742766Y-114519170D02*
X122740888Y-114522039D01*
X122744664Y-114516315D02*
X122742766Y-114519170D01*
X122756467Y-114499493D02*
X122752454Y-114505042D01*
X122773264Y-114477893D02*
X122764718Y-114488573D01*
X122800578Y-114447334D02*
X122791203Y-114457270D01*
X122873084Y-114385259D02*
X122862036Y-114393286D01*
X122884346Y-114377530D02*
X122873084Y-114385259D01*
X122951435Y-114339990D02*
X122949879Y-114340708D01*
X122919362Y-114356207D02*
X122907490Y-114362996D01*
X122953775Y-114338924D02*
X122952994Y-114339278D01*
X122791203Y-114457270D02*
X122782095Y-114467458D01*
X122862036Y-114393286D02*
X122840605Y-114410205D01*
X122940601Y-114345131D02*
X122937532Y-114346649D01*
X122952994Y-114339278D02*
X122951435Y-114339990D01*
X122943682Y-114343635D02*
X122940601Y-114345131D01*
X122937532Y-114346649D02*
X122931428Y-114349750D01*
X122925371Y-114352937D02*
X122919362Y-114356207D01*
X122955730Y-114338045D02*
X122955338Y-114338220D01*
X97239341Y-104317857D02*
X97239342Y-99417856D01*
X136489341Y-91367857D02*
G75*
G02X135989341Y-91867857I0J-500000D01*
G01*
X98839341Y-91867857D02*
X105989340Y-91867857D01*
X131389340Y-91367858D02*
X131389340Y-90267858D01*
X149339341Y-109417857D02*
G75*
G02X148839341Y-108917857I-500000J0D01*
G01*
X98839341Y-108917857D02*
X98839341Y-104817857D01*
X131889339Y-91867857D02*
G75*
G02X131389340Y-91367858I-499999J0D01*
G01*
X149339341Y-104317857D02*
X150439341Y-104317857D01*
X150439341Y-104317857D02*
X150439340Y-99417857D01*
X98839341Y-98917856D02*
X98839341Y-91867857D01*
X111889340Y-91867857D02*
G75*
G02X111389341Y-91367858I-499999J0D01*
G01*
X116489341Y-91367857D02*
G75*
G02X115989341Y-91867857I0J-500000D01*
G01*
X149339341Y-109417857D02*
X150439340Y-109417857D01*
X141389341Y-91367858D02*
X141389341Y-90267858D01*
X98339341Y-104317857D02*
G75*
G02X98839341Y-104817857I500000J0D01*
G01*
X98839341Y-118917857D02*
G75*
G02X98339341Y-119417857I0J-500000D01*
G01*
X97239342Y-99417856D02*
X98339341Y-99417856D01*
X98839341Y-98917856D02*
G75*
G02X98339341Y-99417856I0J-500000D01*
G01*
X111889341Y-91867857D02*
X115989341Y-91867857D01*
X116489341Y-91367858D02*
X116489341Y-90267858D01*
X121389341Y-91367858D02*
X121389341Y-90267858D01*
X136489341Y-91367858D02*
X136489341Y-90267858D01*
X148839341Y-104817857D02*
G75*
G02X149339341Y-104317857I0J500000D01*
G01*
X141889340Y-91867857D02*
G75*
G02X141389341Y-91367858I-499999J0D01*
G01*
X131389340Y-90267858D02*
X126489341Y-90267858D01*
X106489340Y-91367858D02*
X106489340Y-90267858D01*
X121389341Y-90267858D02*
X116489341Y-90267858D01*
X141389341Y-90267858D02*
X136489341Y-90267858D01*
X97239341Y-124317857D02*
X98339342Y-124317857D01*
X111389341Y-90267858D02*
X106489340Y-90267858D01*
X111389341Y-91367858D02*
X111389341Y-90267858D01*
X149339341Y-99417857D02*
G75*
G02X148839341Y-98917857I-500000J0D01*
G01*
X120989111Y-98234111D02*
X120798688Y-98245145D01*
X120798688Y-98245145D02*
X120626424Y-98274730D01*
X120626424Y-98274730D02*
X120468513Y-98319288D01*
X120468513Y-98319288D02*
X120323737Y-98376133D01*
X120323737Y-98376133D02*
X120190377Y-98443626D01*
X120190377Y-98443626D02*
X120066927Y-98520937D01*
X120066927Y-98520937D02*
X119951231Y-98608677D01*
X119951231Y-98608677D02*
X119846106Y-98704045D01*
X119846106Y-98704045D02*
X119748865Y-98809089D01*
X119748865Y-98809089D02*
X119660731Y-98922900D01*
X119660731Y-98922900D02*
X119582159Y-99045473D01*
X119582159Y-99045473D02*
X119512523Y-99179694D01*
X119512523Y-99179694D02*
X119454752Y-99322618D01*
X119454752Y-99322618D02*
X119409040Y-99478018D01*
X119409040Y-99478018D02*
X119377407Y-99650236D01*
X119377407Y-99650236D02*
X119364190Y-99842694D01*
X119364190Y-99842694D02*
X119364111Y-99859111D01*
X122614111Y-99859111D02*
X122603144Y-99669325D01*
X122603144Y-99669325D02*
X122573902Y-99498269D01*
X122573902Y-99498269D02*
X122529720Y-99340873D01*
X122529720Y-99340873D02*
X122473092Y-99195990D01*
X122473092Y-99195990D02*
X122405792Y-99062513D01*
X122405792Y-99062513D02*
X122328835Y-98939191D01*
X122328835Y-98939191D02*
X122242261Y-98824518D01*
X122242261Y-98824518D02*
X122147380Y-98719356D01*
X122147380Y-98719356D02*
X122042377Y-98621629D01*
X122042377Y-98621629D02*
X121928803Y-98533204D01*
X121928803Y-98533204D02*
X121806716Y-98454471D01*
X121806716Y-98454471D02*
X121674394Y-98385245D01*
X121674394Y-98385245D02*
X121529996Y-98326298D01*
X121529996Y-98326298D02*
X121374479Y-98280076D01*
X121374479Y-98280076D02*
X121204959Y-98248317D01*
X121204959Y-98248317D02*
X121017642Y-98234353D01*
X121017642Y-98234353D02*
X120989111Y-98234111D01*
X131889340Y-91867857D02*
X135989341Y-91867857D01*
X98839341Y-108917857D02*
G75*
G02X98339341Y-109417857I0J-500000D01*
G01*
X126489341Y-91367857D02*
G75*
G02X125989341Y-91867857I0J-500000D01*
G01*
X121889340Y-91867857D02*
G75*
G02X121389341Y-91367858I-499999J0D01*
G01*
X141889341Y-91867857D02*
X148839341Y-91867857D01*
X148839341Y-108917857D02*
X148839341Y-104817857D01*
X120989111Y-101484111D02*
X121178888Y-101473144D01*
X121178888Y-101473144D02*
X121350252Y-101443831D01*
X121350252Y-101443831D02*
X121509702Y-101398926D01*
X121509702Y-101398926D02*
X121657292Y-101340814D01*
X121657292Y-101340814D02*
X121790504Y-101273074D01*
X121790504Y-101273074D02*
X121913548Y-101195711D01*
X121913548Y-101195711D02*
X122027921Y-101108756D01*
X122027921Y-101108756D02*
X122135138Y-101011168D01*
X122135138Y-101011168D02*
X122231316Y-100906799D01*
X122231316Y-100906799D02*
X122319241Y-100792816D01*
X122319241Y-100792816D02*
X122398201Y-100669024D01*
X122398201Y-100669024D02*
X122466979Y-100535716D01*
X122466979Y-100535716D02*
X122525097Y-100390893D01*
X122525097Y-100390893D02*
X122570343Y-100235296D01*
X122570343Y-100235296D02*
X122601214Y-100064801D01*
X122601214Y-100064801D02*
X122614014Y-99876833D01*
X122614014Y-99876833D02*
X122614111Y-99859111D01*
X98839341Y-128917857D02*
X98839341Y-124817857D01*
X148839341Y-98917857D02*
X148839341Y-91867857D01*
X98339341Y-124317857D02*
G75*
G02X98839341Y-124817857I500000J0D01*
G01*
X121889341Y-91867857D02*
X125989341Y-91867857D01*
X150439340Y-114317857D02*
X150439340Y-109417857D01*
X97239341Y-104317857D02*
X98339342Y-104317857D01*
X97239341Y-124317857D02*
X97239342Y-119417857D01*
X97239342Y-119417857D02*
X98339341Y-119417857D01*
X98839341Y-118917857D02*
X98839341Y-114817857D01*
X126489341Y-91367858D02*
X126489341Y-90267858D01*
X149339341Y-99417857D02*
X150439340Y-99417857D01*
X98339341Y-114317857D02*
G75*
G02X98839341Y-114817857I500000J0D01*
G01*
X97239341Y-114317857D02*
X98339342Y-114317857D01*
X97239341Y-114317857D02*
X97239342Y-109417857D01*
X97239342Y-109417857D02*
X98339341Y-109417857D01*
X106489340Y-91367857D02*
G75*
G02X105989340Y-91867857I0J-500000D01*
G01*
X110563000Y-95737722D02*
X110541226Y-95557597D01*
X110541226Y-95557597D02*
X110487299Y-95408981D01*
X110487299Y-95408981D02*
X110410265Y-95284033D01*
X110410265Y-95284033D02*
X110313732Y-95179349D01*
X110313732Y-95179349D02*
X110196569Y-95093089D01*
X110196569Y-95093089D02*
X110058437Y-95028800D01*
X110058437Y-95028800D02*
X109894992Y-94992149D01*
X109894992Y-94992149D02*
X109813000Y-94987722D01*
X107035222Y-138776611D02*
X107013448Y-138596486D01*
X107013448Y-138596486D02*
X106959521Y-138447870D01*
X106959521Y-138447870D02*
X106882487Y-138322922D01*
X106882487Y-138322922D02*
X106785954Y-138218238D01*
X106785954Y-138218238D02*
X106668791Y-138131978D01*
X106668791Y-138131978D02*
X106530659Y-138067689D01*
X106530659Y-138067689D02*
X106367214Y-138031038D01*
X106367214Y-138031038D02*
X106285222Y-138026611D01*
X102757445Y-100015500D02*
X102937561Y-99993726D01*
X102937561Y-99993726D02*
X103085155Y-99940297D01*
X103085155Y-99940297D02*
X103210227Y-99863447D01*
X103210227Y-99863447D02*
X103314491Y-99767695D01*
X103314491Y-99767695D02*
X103400396Y-99651857D01*
X103400396Y-99651857D02*
X103464843Y-99515274D01*
X103464843Y-99515274D02*
X103502483Y-99352206D01*
X103502483Y-99352206D02*
X103507445Y-99265500D01*
X134904667Y-138071056D02*
X134882893Y-137890931D01*
X134882893Y-137890931D02*
X134828966Y-137742315D01*
X134828966Y-137742315D02*
X134751932Y-137617367D01*
X134751932Y-137617367D02*
X134655398Y-137512683D01*
X134655398Y-137512683D02*
X134538235Y-137426423D01*
X134538235Y-137426423D02*
X134400103Y-137362134D01*
X134400103Y-137362134D02*
X134236659Y-137325483D01*
X134236659Y-137325483D02*
X134154667Y-137321056D01*
X141210222Y-117301611D02*
X141390339Y-117279837D01*
X141390339Y-117279837D02*
X141537933Y-117226408D01*
X141537933Y-117226408D02*
X141663005Y-117149558D01*
X141663005Y-117149558D02*
X141767269Y-117053806D01*
X141767269Y-117053806D02*
X141853173Y-116937968D01*
X141853173Y-116937968D02*
X141917620Y-116801385D01*
X141917620Y-116801385D02*
X141955260Y-116638317D01*
X141955260Y-116638317D02*
X141960222Y-116551611D01*
X109813000Y-94987722D02*
X109632875Y-95009486D01*
X109632875Y-95009486D02*
X109485281Y-95062917D01*
X109485281Y-95062917D02*
X109361106Y-95139086D01*
X109361106Y-95139086D02*
X109256699Y-95234685D01*
X109256699Y-95234685D02*
X109170697Y-95350267D01*
X109170697Y-95350267D02*
X109106265Y-95486047D01*
X109106265Y-95486047D02*
X109067955Y-95651010D01*
X109067955Y-95651010D02*
X109063000Y-95737722D01*
X109813000Y-96487722D02*
X109993117Y-96465948D01*
X109993117Y-96465948D02*
X110140711Y-96412519D01*
X110140711Y-96412519D02*
X110265783Y-96335669D01*
X110265783Y-96335669D02*
X110370047Y-96239917D01*
X110370047Y-96239917D02*
X110455951Y-96124079D01*
X110455951Y-96124079D02*
X110520398Y-95987496D01*
X110520398Y-95987496D02*
X110558038Y-95824428D01*
X110558038Y-95824428D02*
X110563000Y-95737722D01*
X127804667Y-135204389D02*
X127624542Y-135226153D01*
X127624542Y-135226153D02*
X127476948Y-135279584D01*
X127476948Y-135279584D02*
X127352773Y-135355753D01*
X127352773Y-135355753D02*
X127248366Y-135451352D01*
X127248366Y-135451352D02*
X127162364Y-135566934D01*
X127162364Y-135566934D02*
X127097932Y-135702714D01*
X127097932Y-135702714D02*
X127059622Y-135867677D01*
X127059622Y-135867677D02*
X127054667Y-135954389D01*
X134154667Y-138821056D02*
X134334783Y-138799282D01*
X134334783Y-138799282D02*
X134482377Y-138745853D01*
X134482377Y-138745853D02*
X134607449Y-138669003D01*
X134607449Y-138669003D02*
X134711713Y-138573250D01*
X134711713Y-138573250D02*
X134797618Y-138457412D01*
X134797618Y-138457412D02*
X134862065Y-138320829D01*
X134862065Y-138320829D02*
X134899705Y-138157762D01*
X134899705Y-138157762D02*
X134904667Y-138071056D01*
X133404667Y-138071056D02*
X133426431Y-138251172D01*
X133426431Y-138251172D02*
X133479737Y-138398510D01*
X133479737Y-138398510D02*
X133556711Y-138523838D01*
X133556711Y-138523838D02*
X133652464Y-138628102D01*
X133652464Y-138628102D02*
X133768180Y-138713935D01*
X133768180Y-138713935D02*
X133905969Y-138778836D01*
X133905969Y-138778836D02*
X134069133Y-138816229D01*
X134069133Y-138816229D02*
X134154667Y-138821056D01*
X127054667Y-135954389D02*
X127076431Y-136134506D01*
X127076431Y-136134506D02*
X127129737Y-136281844D01*
X127129737Y-136281844D02*
X127206711Y-136407172D01*
X127206711Y-136407172D02*
X127302464Y-136511436D01*
X127302464Y-136511436D02*
X127418180Y-136597268D01*
X127418180Y-136597268D02*
X127555969Y-136662169D01*
X127555969Y-136662169D02*
X127719133Y-136699562D01*
X127719133Y-136699562D02*
X127804667Y-136704389D01*
X127804667Y-136704389D02*
X127984783Y-136682615D01*
X127984783Y-136682615D02*
X128132377Y-136629186D01*
X128132377Y-136629186D02*
X128257449Y-136552336D01*
X128257449Y-136552336D02*
X128361713Y-136456584D01*
X128361713Y-136456584D02*
X128447618Y-136340746D01*
X128447618Y-136340746D02*
X128512065Y-136204163D01*
X128512065Y-136204163D02*
X128549705Y-136041095D01*
X128549705Y-136041095D02*
X128554667Y-135954389D01*
X140460222Y-116551611D02*
X140481986Y-116731728D01*
X140481986Y-116731728D02*
X140535292Y-116879066D01*
X140535292Y-116879066D02*
X140612266Y-117004394D01*
X140612266Y-117004394D02*
X140708019Y-117108658D01*
X140708019Y-117108658D02*
X140823735Y-117194490D01*
X140823735Y-117194490D02*
X140961524Y-117259391D01*
X140961524Y-117259391D02*
X141124688Y-117296784D01*
X141124688Y-117296784D02*
X141210222Y-117301611D01*
X103507445Y-99265500D02*
X103485671Y-99085375D01*
X103485671Y-99085375D02*
X103431744Y-98936759D01*
X103431744Y-98936759D02*
X103354710Y-98811811D01*
X103354710Y-98811811D02*
X103258176Y-98707127D01*
X103258176Y-98707127D02*
X103141013Y-98620867D01*
X103141013Y-98620867D02*
X103002881Y-98556578D01*
X103002881Y-98556578D02*
X102839437Y-98519927D01*
X102839437Y-98519927D02*
X102757445Y-98515500D01*
X109063000Y-95737722D02*
X109084764Y-95917839D01*
X109084764Y-95917839D02*
X109138070Y-96065177D01*
X109138070Y-96065177D02*
X109215044Y-96190505D01*
X109215044Y-96190505D02*
X109310797Y-96294769D01*
X109310797Y-96294769D02*
X109426513Y-96380601D01*
X109426513Y-96380601D02*
X109564302Y-96445502D01*
X109564302Y-96445502D02*
X109727466Y-96482895D01*
X109727466Y-96482895D02*
X109813000Y-96487722D01*
X141210222Y-115801611D02*
X141030097Y-115823375D01*
X141030097Y-115823375D02*
X140882503Y-115876806D01*
X140882503Y-115876806D02*
X140758328Y-115952975D01*
X140758328Y-115952975D02*
X140653921Y-116048574D01*
X140653921Y-116048574D02*
X140567919Y-116164156D01*
X140567919Y-116164156D02*
X140503487Y-116299936D01*
X140503487Y-116299936D02*
X140465177Y-116464899D01*
X140465177Y-116464899D02*
X140460222Y-116551611D01*
X141960222Y-116551611D02*
X141938448Y-116371486D01*
X141938448Y-116371486D02*
X141884521Y-116222870D01*
X141884521Y-116222870D02*
X141807487Y-116097922D01*
X141807487Y-116097922D02*
X141710954Y-115993238D01*
X141710954Y-115993238D02*
X141593791Y-115906978D01*
X141593791Y-115906978D02*
X141455659Y-115842689D01*
X141455659Y-115842689D02*
X141292214Y-115806038D01*
X141292214Y-115806038D02*
X141210222Y-115801611D01*
X105535222Y-138776611D02*
X105556986Y-138956728D01*
X105556986Y-138956728D02*
X105610292Y-139104066D01*
X105610292Y-139104066D02*
X105687266Y-139229394D01*
X105687266Y-139229394D02*
X105783019Y-139333658D01*
X105783019Y-139333658D02*
X105898735Y-139419490D01*
X105898735Y-139419490D02*
X106036524Y-139484391D01*
X106036524Y-139484391D02*
X106199688Y-139521784D01*
X106199688Y-139521784D02*
X106285222Y-139526611D01*
X134154667Y-137321056D02*
X133974542Y-137342820D01*
X133974542Y-137342820D02*
X133826948Y-137396251D01*
X133826948Y-137396251D02*
X133702773Y-137472420D01*
X133702773Y-137472420D02*
X133598366Y-137568019D01*
X133598366Y-137568019D02*
X133512364Y-137683601D01*
X133512364Y-137683601D02*
X133447932Y-137819381D01*
X133447932Y-137819381D02*
X133409622Y-137984344D01*
X133409622Y-137984344D02*
X133404667Y-138071056D01*
X106285222Y-138026611D02*
X106105097Y-138048375D01*
X106105097Y-138048375D02*
X105957503Y-138101806D01*
X105957503Y-138101806D02*
X105833328Y-138177975D01*
X105833328Y-138177975D02*
X105728921Y-138273574D01*
X105728921Y-138273574D02*
X105642919Y-138389156D01*
X105642919Y-138389156D02*
X105578487Y-138524936D01*
X105578487Y-138524936D02*
X105540177Y-138689899D01*
X105540177Y-138689899D02*
X105535222Y-138776611D01*
X106285222Y-139526611D02*
X106465339Y-139504837D01*
X106465339Y-139504837D02*
X106612933Y-139451408D01*
X106612933Y-139451408D02*
X106738005Y-139374558D01*
X106738005Y-139374558D02*
X106842269Y-139278806D01*
X106842269Y-139278806D02*
X106928173Y-139162968D01*
X106928173Y-139162968D02*
X106992620Y-139026385D01*
X106992620Y-139026385D02*
X107030260Y-138863317D01*
X107030260Y-138863317D02*
X107035222Y-138776611D01*
X102007445Y-99265500D02*
X102029209Y-99445617D01*
X102029209Y-99445617D02*
X102082515Y-99592955D01*
X102082515Y-99592955D02*
X102159489Y-99718283D01*
X102159489Y-99718283D02*
X102255242Y-99822547D01*
X102255242Y-99822547D02*
X102370958Y-99908379D01*
X102370958Y-99908379D02*
X102508747Y-99973280D01*
X102508747Y-99973280D02*
X102671911Y-100010673D01*
X102671911Y-100010673D02*
X102757445Y-100015500D01*
X128554667Y-135954389D02*
X128532893Y-135774264D01*
X128532893Y-135774264D02*
X128478966Y-135625648D01*
X128478966Y-135625648D02*
X128401932Y-135500700D01*
X128401932Y-135500700D02*
X128305398Y-135396016D01*
X128305398Y-135396016D02*
X128188235Y-135309756D01*
X128188235Y-135309756D02*
X128050103Y-135245467D01*
X128050103Y-135245467D02*
X127886659Y-135208816D01*
X127886659Y-135208816D02*
X127804667Y-135204389D01*
X102757445Y-98515500D02*
X102577320Y-98537264D01*
X102577320Y-98537264D02*
X102429726Y-98590695D01*
X102429726Y-98590695D02*
X102305551Y-98666864D01*
X102305551Y-98666864D02*
X102201144Y-98762463D01*
X102201144Y-98762463D02*
X102115142Y-98878045D01*
X102115142Y-98878045D02*
X102050710Y-99013825D01*
X102050710Y-99013825D02*
X102012400Y-99178788D01*
X102012400Y-99178788D02*
X102007445Y-99265500D01*
X108357445Y-119021056D02*
X108379209Y-119201172D01*
X108379209Y-119201172D02*
X108432515Y-119348510D01*
X108432515Y-119348510D02*
X108509489Y-119473838D01*
X108509489Y-119473838D02*
X108605242Y-119578102D01*
X108605242Y-119578102D02*
X108720958Y-119663935D01*
X108720958Y-119663935D02*
X108858747Y-119728836D01*
X108858747Y-119728836D02*
X109021911Y-119766229D01*
X109021911Y-119766229D02*
X109107445Y-119771056D01*
X121341889Y-113831333D02*
X121531666Y-113820366D01*
X121531666Y-113820366D02*
X121703030Y-113791053D01*
X121703030Y-113791053D02*
X121862480Y-113746148D01*
X121862480Y-113746148D02*
X122010070Y-113688036D01*
X122010070Y-113688036D02*
X122143282Y-113620296D01*
X122143282Y-113620296D02*
X122266326Y-113542933D01*
X122266326Y-113542933D02*
X122380699Y-113455978D01*
X122380699Y-113455978D02*
X122487916Y-113358390D01*
X122487916Y-113358390D02*
X122584094Y-113254021D01*
X122584094Y-113254021D02*
X122672019Y-113140038D01*
X122672019Y-113140038D02*
X122750979Y-113016246D01*
X122750979Y-113016246D02*
X122819757Y-112882938D01*
X122819757Y-112882938D02*
X122877875Y-112738115D01*
X122877875Y-112738115D02*
X122923121Y-112582518D01*
X122923121Y-112582518D02*
X122953992Y-112412023D01*
X122953992Y-112412023D02*
X122966792Y-112224055D01*
X122966792Y-112224055D02*
X122966889Y-112206333D01*
X128044667Y-119753556D02*
X127854244Y-119764590D01*
X127854244Y-119764590D02*
X127681980Y-119794175D01*
X127681980Y-119794175D02*
X127524069Y-119838733D01*
X127524069Y-119838733D02*
X127379292Y-119895578D01*
X127379292Y-119895578D02*
X127245932Y-119963071D01*
X127245932Y-119963071D02*
X127122482Y-120040382D01*
X127122482Y-120040382D02*
X127006786Y-120128122D01*
X127006786Y-120128122D02*
X126901662Y-120223490D01*
X126901662Y-120223490D02*
X126804421Y-120328533D01*
X126804421Y-120328533D02*
X126716287Y-120442344D01*
X126716287Y-120442344D02*
X126637715Y-120564917D01*
X126637715Y-120564917D02*
X126568079Y-120699138D01*
X126568079Y-120699138D02*
X126510308Y-120842063D01*
X126510308Y-120842063D02*
X126464596Y-120997463D01*
X126464596Y-120997463D02*
X126432963Y-121169681D01*
X126432963Y-121169681D02*
X126419746Y-121362139D01*
X126419746Y-121362139D02*
X126419667Y-121378556D01*
X104565778Y-117609945D02*
X104544004Y-117429820D01*
X104544004Y-117429820D02*
X104490077Y-117281204D01*
X104490077Y-117281204D02*
X104413043Y-117156256D01*
X104413043Y-117156256D02*
X104316510Y-117051572D01*
X104316510Y-117051572D02*
X104199347Y-116965312D01*
X104199347Y-116965312D02*
X104061215Y-116901023D01*
X104061215Y-116901023D02*
X103897770Y-116864372D01*
X103897770Y-116864372D02*
X103815778Y-116859945D01*
X133096334Y-112979389D02*
X132916209Y-113001153D01*
X132916209Y-113001153D02*
X132768615Y-113054584D01*
X132768615Y-113054584D02*
X132644440Y-113130753D01*
X132644440Y-113130753D02*
X132540033Y-113226352D01*
X132540033Y-113226352D02*
X132454031Y-113341934D01*
X132454031Y-113341934D02*
X132389599Y-113477714D01*
X132389599Y-113477714D02*
X132351289Y-113642677D01*
X132351289Y-113642677D02*
X132346334Y-113729389D01*
X126419667Y-121378556D02*
X126430701Y-121568971D01*
X126430701Y-121568971D02*
X126460076Y-121740314D01*
X126460076Y-121740314D02*
X126504048Y-121896785D01*
X126504048Y-121896785D02*
X126560426Y-122041105D01*
X126560426Y-122041105D02*
X126627976Y-122175143D01*
X126627976Y-122175143D02*
X126707711Y-122302490D01*
X126707711Y-122302490D02*
X126794233Y-122416429D01*
X126794233Y-122416429D02*
X126892389Y-122524367D01*
X126892389Y-122524367D02*
X126996971Y-122620761D01*
X126996971Y-122620761D02*
X127111201Y-122708860D01*
X127111201Y-122708860D02*
X127234745Y-122787646D01*
X127234745Y-122787646D02*
X127367492Y-122856166D01*
X127367492Y-122856166D02*
X127511112Y-122913930D01*
X127511112Y-122913930D02*
X127666023Y-122959204D01*
X127666023Y-122959204D02*
X127835792Y-122990254D01*
X127835792Y-122990254D02*
X128024317Y-123003429D01*
X128024317Y-123003429D02*
X128044667Y-123003556D01*
X103065778Y-117609945D02*
X103087542Y-117790061D01*
X103087542Y-117790061D02*
X103140848Y-117937399D01*
X103140848Y-117937399D02*
X103217822Y-118062727D01*
X103217822Y-118062727D02*
X103313575Y-118166991D01*
X103313575Y-118166991D02*
X103429291Y-118252824D01*
X103429291Y-118252824D02*
X103567080Y-118317725D01*
X103567080Y-118317725D02*
X103730244Y-118355118D01*
X103730244Y-118355118D02*
X103815778Y-118359945D01*
X133846334Y-113729389D02*
X133824560Y-113549264D01*
X133824560Y-113549264D02*
X133770633Y-113400648D01*
X133770633Y-113400648D02*
X133693599Y-113275700D01*
X133693599Y-113275700D02*
X133597065Y-113171016D01*
X133597065Y-113171016D02*
X133479902Y-113084756D01*
X133479902Y-113084756D02*
X133341770Y-113020467D01*
X133341770Y-113020467D02*
X133178326Y-112983816D01*
X133178326Y-112983816D02*
X133096334Y-112979389D01*
X116541889Y-135136889D02*
X116552923Y-135327304D01*
X116552923Y-135327304D02*
X116582298Y-135498647D01*
X116582298Y-135498647D02*
X116626270Y-135655118D01*
X116626270Y-135655118D02*
X116682648Y-135799438D01*
X116682648Y-135799438D02*
X116750198Y-135933476D01*
X116750198Y-135933476D02*
X116829933Y-136060823D01*
X116829933Y-136060823D02*
X116916455Y-136174762D01*
X116916455Y-136174762D02*
X117014611Y-136282700D01*
X117014611Y-136282700D02*
X117119193Y-136379094D01*
X117119193Y-136379094D02*
X117233423Y-136467193D01*
X117233423Y-136467193D02*
X117356967Y-136545979D01*
X117356967Y-136545979D02*
X117489714Y-136614499D01*
X117489714Y-136614499D02*
X117633334Y-136672263D01*
X117633334Y-136672263D02*
X117788245Y-136717537D01*
X117788245Y-136717537D02*
X117958014Y-136748587D01*
X117958014Y-136748587D02*
X118146539Y-136761762D01*
X118146539Y-136761762D02*
X118166889Y-136761889D01*
X144340778Y-99971056D02*
X144362542Y-100151172D01*
X144362542Y-100151172D02*
X144415848Y-100298510D01*
X144415848Y-100298510D02*
X144492822Y-100423838D01*
X144492822Y-100423838D02*
X144588575Y-100528102D01*
X144588575Y-100528102D02*
X144704291Y-100613935D01*
X144704291Y-100613935D02*
X144842080Y-100678836D01*
X144842080Y-100678836D02*
X145005244Y-100716229D01*
X145005244Y-100716229D02*
X145090778Y-100721056D01*
X113032445Y-99971056D02*
X113010671Y-99790931D01*
X113010671Y-99790931D02*
X112956744Y-99642315D01*
X112956744Y-99642315D02*
X112879710Y-99517367D01*
X112879710Y-99517367D02*
X112783176Y-99412683D01*
X112783176Y-99412683D02*
X112666013Y-99326423D01*
X112666013Y-99326423D02*
X112527881Y-99262134D01*
X112527881Y-99262134D02*
X112364437Y-99225483D01*
X112364437Y-99225483D02*
X112282445Y-99221056D01*
X129215778Y-94987722D02*
X129035653Y-95009486D01*
X129035653Y-95009486D02*
X128888059Y-95062917D01*
X128888059Y-95062917D02*
X128763884Y-95139086D01*
X128763884Y-95139086D02*
X128659477Y-95234685D01*
X128659477Y-95234685D02*
X128573475Y-95350267D01*
X128573475Y-95350267D02*
X128509043Y-95486047D01*
X128509043Y-95486047D02*
X128470733Y-95651010D01*
X128470733Y-95651010D02*
X128465778Y-95737722D01*
X145090778Y-131676611D02*
X144910653Y-131698375D01*
X144910653Y-131698375D02*
X144763059Y-131751806D01*
X144763059Y-131751806D02*
X144638884Y-131827975D01*
X144638884Y-131827975D02*
X144534477Y-131923574D01*
X144534477Y-131923574D02*
X144448475Y-132039156D01*
X144448475Y-132039156D02*
X144384043Y-132174936D01*
X144384043Y-132174936D02*
X144345733Y-132339899D01*
X144345733Y-132339899D02*
X144340778Y-132426611D01*
X145840778Y-132426611D02*
X145819004Y-132246486D01*
X145819004Y-132246486D02*
X145765077Y-132097870D01*
X145765077Y-132097870D02*
X145688043Y-131972922D01*
X145688043Y-131972922D02*
X145591510Y-131868238D01*
X145591510Y-131868238D02*
X145474347Y-131781978D01*
X145474347Y-131781978D02*
X145336215Y-131717689D01*
X145336215Y-131717689D02*
X145172770Y-131681038D01*
X145172770Y-131681038D02*
X145090778Y-131676611D01*
X132346334Y-113729389D02*
X132368098Y-113909506D01*
X132368098Y-113909506D02*
X132421404Y-114056844D01*
X132421404Y-114056844D02*
X132498378Y-114182172D01*
X132498378Y-114182172D02*
X132594131Y-114286436D01*
X132594131Y-114286436D02*
X132709847Y-114372268D01*
X132709847Y-114372268D02*
X132847636Y-114437169D01*
X132847636Y-114437169D02*
X133010800Y-114474562D01*
X133010800Y-114474562D02*
X133096334Y-114479389D01*
X112282445Y-100721056D02*
X112462561Y-100699282D01*
X112462561Y-100699282D02*
X112610155Y-100645853D01*
X112610155Y-100645853D02*
X112735227Y-100569003D01*
X112735227Y-100569003D02*
X112839491Y-100473250D01*
X112839491Y-100473250D02*
X112925396Y-100357412D01*
X112925396Y-100357412D02*
X112989843Y-100220829D01*
X112989843Y-100220829D02*
X113027483Y-100057762D01*
X113027483Y-100057762D02*
X113032445Y-99971056D01*
X119716889Y-112206333D02*
X119727923Y-112396748D01*
X119727923Y-112396748D02*
X119757298Y-112568091D01*
X119757298Y-112568091D02*
X119801270Y-112724562D01*
X119801270Y-112724562D02*
X119857648Y-112868882D01*
X119857648Y-112868882D02*
X119925198Y-113002920D01*
X119925198Y-113002920D02*
X120004933Y-113130267D01*
X120004933Y-113130267D02*
X120091455Y-113244206D01*
X120091455Y-113244206D02*
X120189611Y-113352144D01*
X120189611Y-113352144D02*
X120294193Y-113448538D01*
X120294193Y-113448538D02*
X120408423Y-113536637D01*
X120408423Y-113536637D02*
X120531967Y-113615423D01*
X120531967Y-113615423D02*
X120664714Y-113683943D01*
X120664714Y-113683943D02*
X120808334Y-113741707D01*
X120808334Y-113741707D02*
X120963245Y-113786981D01*
X120963245Y-113786981D02*
X121133014Y-113818031D01*
X121133014Y-113818031D02*
X121321539Y-113831206D01*
X121321539Y-113831206D02*
X121341889Y-113831333D01*
X121341889Y-110581333D02*
X121151466Y-110592367D01*
X121151466Y-110592367D02*
X120979202Y-110621952D01*
X120979202Y-110621952D02*
X120821291Y-110666510D01*
X120821291Y-110666510D02*
X120676514Y-110723355D01*
X120676514Y-110723355D02*
X120543154Y-110790848D01*
X120543154Y-110790848D02*
X120419704Y-110868159D01*
X120419704Y-110868159D02*
X120304008Y-110955899D01*
X120304008Y-110955899D02*
X120198884Y-111051267D01*
X120198884Y-111051267D02*
X120101643Y-111156311D01*
X120101643Y-111156311D02*
X120013509Y-111270122D01*
X120013509Y-111270122D02*
X119934937Y-111392695D01*
X119934937Y-111392695D02*
X119865301Y-111526916D01*
X119865301Y-111526916D02*
X119807530Y-111669840D01*
X119807530Y-111669840D02*
X119761818Y-111825240D01*
X119761818Y-111825240D02*
X119730185Y-111997458D01*
X119730185Y-111997458D02*
X119716968Y-112189916D01*
X119716968Y-112189916D02*
X119716889Y-112206333D01*
X103815778Y-118359945D02*
X103995895Y-118338171D01*
X103995895Y-118338171D02*
X104143489Y-118284742D01*
X104143489Y-118284742D02*
X104268561Y-118207892D01*
X104268561Y-118207892D02*
X104372825Y-118112139D01*
X104372825Y-118112139D02*
X104458729Y-117996301D01*
X104458729Y-117996301D02*
X104523176Y-117859718D01*
X104523176Y-117859718D02*
X104560816Y-117696651D01*
X104560816Y-117696651D02*
X104565778Y-117609945D01*
X129965778Y-95737722D02*
X129944004Y-95557597D01*
X129944004Y-95557597D02*
X129890077Y-95408981D01*
X129890077Y-95408981D02*
X129813043Y-95284033D01*
X129813043Y-95284033D02*
X129716510Y-95179349D01*
X129716510Y-95179349D02*
X129599347Y-95093089D01*
X129599347Y-95093089D02*
X129461215Y-95028800D01*
X129461215Y-95028800D02*
X129297770Y-94992149D01*
X129297770Y-94992149D02*
X129215778Y-94987722D01*
X106240778Y-107732167D02*
X106262542Y-107912283D01*
X106262542Y-107912283D02*
X106315848Y-108059621D01*
X106315848Y-108059621D02*
X106392822Y-108184949D01*
X106392822Y-108184949D02*
X106488575Y-108289213D01*
X106488575Y-108289213D02*
X106604291Y-108375046D01*
X106604291Y-108375046D02*
X106742080Y-108439947D01*
X106742080Y-108439947D02*
X106905244Y-108477340D01*
X106905244Y-108477340D02*
X106990778Y-108482167D01*
X129669667Y-121378556D02*
X129658700Y-121188770D01*
X129658700Y-121188770D02*
X129629458Y-121017714D01*
X129629458Y-121017714D02*
X129585276Y-120860318D01*
X129585276Y-120860318D02*
X129528648Y-120715434D01*
X129528648Y-120715434D02*
X129461348Y-120581957D01*
X129461348Y-120581957D02*
X129384391Y-120458635D01*
X129384391Y-120458635D02*
X129297817Y-120343962D01*
X129297817Y-120343962D02*
X129202936Y-120238801D01*
X129202936Y-120238801D02*
X129097933Y-120141074D01*
X129097933Y-120141074D02*
X128984359Y-120052649D01*
X128984359Y-120052649D02*
X128862272Y-119973916D01*
X128862272Y-119973916D02*
X128729950Y-119904690D01*
X128729950Y-119904690D02*
X128585552Y-119845743D01*
X128585552Y-119845743D02*
X128430035Y-119799521D01*
X128430035Y-119799521D02*
X128260515Y-119767762D01*
X128260515Y-119767762D02*
X128073198Y-119753798D01*
X128073198Y-119753798D02*
X128044667Y-119753556D01*
X128044667Y-123003556D02*
X128234444Y-122992589D01*
X128234444Y-122992589D02*
X128405808Y-122963276D01*
X128405808Y-122963276D02*
X128565258Y-122918371D01*
X128565258Y-122918371D02*
X128712848Y-122860259D01*
X128712848Y-122860259D02*
X128846060Y-122792519D01*
X128846060Y-122792519D02*
X128969104Y-122715156D01*
X128969104Y-122715156D02*
X129083477Y-122628201D01*
X129083477Y-122628201D02*
X129190694Y-122530613D01*
X129190694Y-122530613D02*
X129286872Y-122426244D01*
X129286872Y-122426244D02*
X129374797Y-122312261D01*
X129374797Y-122312261D02*
X129453757Y-122188469D01*
X129453757Y-122188469D02*
X129522535Y-122055161D01*
X129522535Y-122055161D02*
X129580653Y-121910338D01*
X129580653Y-121910338D02*
X129625899Y-121754741D01*
X129625899Y-121754741D02*
X129656770Y-121584246D01*
X129656770Y-121584246D02*
X129669570Y-121396278D01*
X129669570Y-121396278D02*
X129669667Y-121378556D01*
X136864111Y-123634111D02*
X136673688Y-123645145D01*
X136673688Y-123645145D02*
X136501424Y-123674730D01*
X136501424Y-123674730D02*
X136343513Y-123719288D01*
X136343513Y-123719288D02*
X136198737Y-123776133D01*
X136198737Y-123776133D02*
X136065377Y-123843626D01*
X136065377Y-123843626D02*
X135941927Y-123920937D01*
X135941927Y-123920937D02*
X135826231Y-124008677D01*
X135826231Y-124008677D02*
X135721106Y-124104045D01*
X135721106Y-124104045D02*
X135623865Y-124209089D01*
X135623865Y-124209089D02*
X135535731Y-124322900D01*
X135535731Y-124322900D02*
X135457159Y-124445473D01*
X135457159Y-124445473D02*
X135387523Y-124579694D01*
X135387523Y-124579694D02*
X135329752Y-124722618D01*
X135329752Y-124722618D02*
X135284040Y-124878018D01*
X135284040Y-124878018D02*
X135252407Y-125050236D01*
X135252407Y-125050236D02*
X135239190Y-125242694D01*
X135239190Y-125242694D02*
X135239111Y-125259111D01*
X138785222Y-103498833D02*
X138763448Y-103318708D01*
X138763448Y-103318708D02*
X138709521Y-103170092D01*
X138709521Y-103170092D02*
X138632487Y-103045144D01*
X138632487Y-103045144D02*
X138535954Y-102940460D01*
X138535954Y-102940460D02*
X138418791Y-102854200D01*
X138418791Y-102854200D02*
X138280659Y-102789911D01*
X138280659Y-102789911D02*
X138117214Y-102753260D01*
X138117214Y-102753260D02*
X138035222Y-102748833D01*
X119364111Y-99859111D02*
X119375145Y-100049526D01*
X119375145Y-100049526D02*
X119404520Y-100220869D01*
X119404520Y-100220869D02*
X119448492Y-100377340D01*
X119448492Y-100377340D02*
X119504870Y-100521660D01*
X119504870Y-100521660D02*
X119572420Y-100655698D01*
X119572420Y-100655698D02*
X119652155Y-100783045D01*
X119652155Y-100783045D02*
X119738677Y-100896984D01*
X119738677Y-100896984D02*
X119836833Y-101004922D01*
X119836833Y-101004922D02*
X119941416Y-101101316D01*
X119941416Y-101101316D02*
X120055646Y-101189415D01*
X120055646Y-101189415D02*
X120179190Y-101268201D01*
X120179190Y-101268201D02*
X120311937Y-101336721D01*
X120311937Y-101336721D02*
X120455556Y-101394485D01*
X120455556Y-101394485D02*
X120610467Y-101439759D01*
X120610467Y-101439759D02*
X120780236Y-101470809D01*
X120780236Y-101470809D02*
X120968761Y-101483984D01*
X120968761Y-101483984D02*
X120989111Y-101484111D01*
X118872445Y-125750778D02*
X118682022Y-125761812D01*
X118682022Y-125761812D02*
X118509758Y-125791397D01*
X118509758Y-125791397D02*
X118351847Y-125835955D01*
X118351847Y-125835955D02*
X118207070Y-125892800D01*
X118207070Y-125892800D02*
X118073710Y-125960293D01*
X118073710Y-125960293D02*
X117950260Y-126037604D01*
X117950260Y-126037604D02*
X117834564Y-126125344D01*
X117834564Y-126125344D02*
X117729440Y-126220712D01*
X117729440Y-126220712D02*
X117632199Y-126325755D01*
X117632199Y-126325755D02*
X117544065Y-126439566D01*
X117544065Y-126439566D02*
X117465493Y-126562139D01*
X117465493Y-126562139D02*
X117395857Y-126696360D01*
X117395857Y-126696360D02*
X117338086Y-126839285D01*
X117338086Y-126839285D02*
X117292374Y-126994685D01*
X117292374Y-126994685D02*
X117260741Y-127166903D01*
X117260741Y-127166903D02*
X117247524Y-127359361D01*
X117247524Y-127359361D02*
X117247445Y-127375778D01*
X138489111Y-125259111D02*
X138478144Y-125069325D01*
X138478144Y-125069325D02*
X138448902Y-124898269D01*
X138448902Y-124898269D02*
X138404720Y-124740873D01*
X138404720Y-124740873D02*
X138348092Y-124595990D01*
X138348092Y-124595990D02*
X138280792Y-124462513D01*
X138280792Y-124462513D02*
X138203835Y-124339191D01*
X138203835Y-124339191D02*
X138117261Y-124224518D01*
X138117261Y-124224518D02*
X138022380Y-124119356D01*
X138022380Y-124119356D02*
X137917377Y-124021629D01*
X137917377Y-124021629D02*
X137803803Y-123933204D01*
X137803803Y-123933204D02*
X137681716Y-123854471D01*
X137681716Y-123854471D02*
X137549394Y-123785245D01*
X137549394Y-123785245D02*
X137404996Y-123726298D01*
X137404996Y-123726298D02*
X137249479Y-123680076D01*
X137249479Y-123680076D02*
X137079959Y-123648317D01*
X137079959Y-123648317D02*
X136892642Y-123634353D01*
X136892642Y-123634353D02*
X136864111Y-123634111D01*
X117247445Y-127375778D02*
X117258479Y-127566193D01*
X117258479Y-127566193D02*
X117287854Y-127737536D01*
X117287854Y-127737536D02*
X117331826Y-127894007D01*
X117331826Y-127894007D02*
X117388204Y-128038327D01*
X117388204Y-128038327D02*
X117455754Y-128172365D01*
X117455754Y-128172365D02*
X117535489Y-128299712D01*
X117535489Y-128299712D02*
X117622011Y-128413651D01*
X117622011Y-128413651D02*
X117720167Y-128521589D01*
X117720167Y-128521589D02*
X117824749Y-128617983D01*
X117824749Y-128617983D02*
X117938979Y-128706082D01*
X117938979Y-128706082D02*
X118062523Y-128784868D01*
X118062523Y-128784868D02*
X118195270Y-128853388D01*
X118195270Y-128853388D02*
X118338890Y-128911152D01*
X118338890Y-128911152D02*
X118493801Y-128956426D01*
X118493801Y-128956426D02*
X118663570Y-128987476D01*
X118663570Y-128987476D02*
X118852095Y-129000651D01*
X118852095Y-129000651D02*
X118872445Y-129000778D01*
X117221334Y-118712722D02*
X117401450Y-118690948D01*
X117401450Y-118690948D02*
X117549044Y-118637519D01*
X117549044Y-118637519D02*
X117674116Y-118560669D01*
X117674116Y-118560669D02*
X117778380Y-118464917D01*
X117778380Y-118464917D02*
X117864285Y-118349079D01*
X117864285Y-118349079D02*
X117928732Y-118212496D01*
X117928732Y-118212496D02*
X117966372Y-118049428D01*
X117966372Y-118049428D02*
X117971334Y-117962722D01*
X118872445Y-129000778D02*
X119062222Y-128989811D01*
X119062222Y-128989811D02*
X119233586Y-128960498D01*
X119233586Y-128960498D02*
X119393036Y-128915593D01*
X119393036Y-128915593D02*
X119540626Y-128857481D01*
X119540626Y-128857481D02*
X119673838Y-128789741D01*
X119673838Y-128789741D02*
X119796882Y-128712378D01*
X119796882Y-128712378D02*
X119911255Y-128625423D01*
X119911255Y-128625423D02*
X120018472Y-128527835D01*
X120018472Y-128527835D02*
X120114650Y-128423466D01*
X120114650Y-128423466D02*
X120202575Y-128309483D01*
X120202575Y-128309483D02*
X120281535Y-128185691D01*
X120281535Y-128185691D02*
X120350313Y-128052383D01*
X120350313Y-128052383D02*
X120408431Y-127907560D01*
X120408431Y-127907560D02*
X120453677Y-127751963D01*
X120453677Y-127751963D02*
X120484548Y-127581468D01*
X120484548Y-127581468D02*
X120497348Y-127393500D01*
X120497348Y-127393500D02*
X120497445Y-127375778D01*
X107740778Y-107732167D02*
X107719004Y-107552042D01*
X107719004Y-107552042D02*
X107665077Y-107403426D01*
X107665077Y-107403426D02*
X107588043Y-107278478D01*
X107588043Y-107278478D02*
X107491510Y-107173794D01*
X107491510Y-107173794D02*
X107374347Y-107087534D01*
X107374347Y-107087534D02*
X107236215Y-107023245D01*
X107236215Y-107023245D02*
X107072770Y-106986594D01*
X107072770Y-106986594D02*
X106990778Y-106982167D01*
X133096334Y-114479389D02*
X133276450Y-114457615D01*
X133276450Y-114457615D02*
X133424044Y-114404186D01*
X133424044Y-114404186D02*
X133549116Y-114327336D01*
X133549116Y-114327336D02*
X133653380Y-114231584D01*
X133653380Y-114231584D02*
X133739285Y-114115746D01*
X133739285Y-114115746D02*
X133803732Y-113979163D01*
X133803732Y-113979163D02*
X133841372Y-113816095D01*
X133841372Y-113816095D02*
X133846334Y-113729389D01*
X119791889Y-135136889D02*
X119780922Y-134947103D01*
X119780922Y-134947103D02*
X119751680Y-134776047D01*
X119751680Y-134776047D02*
X119707498Y-134618651D01*
X119707498Y-134618651D02*
X119650870Y-134473767D01*
X119650870Y-134473767D02*
X119583570Y-134340290D01*
X119583570Y-134340290D02*
X119506613Y-134216968D01*
X119506613Y-134216968D02*
X119420039Y-134102295D01*
X119420039Y-134102295D02*
X119325158Y-133997134D01*
X119325158Y-133997134D02*
X119220155Y-133899407D01*
X119220155Y-133899407D02*
X119106581Y-133810982D01*
X119106581Y-133810982D02*
X118984494Y-133732249D01*
X118984494Y-133732249D02*
X118852172Y-133663023D01*
X118852172Y-133663023D02*
X118707774Y-133604076D01*
X118707774Y-133604076D02*
X118552257Y-133557854D01*
X118552257Y-133557854D02*
X118382737Y-133526095D01*
X118382737Y-133526095D02*
X118195420Y-133512131D01*
X118195420Y-133512131D02*
X118166889Y-133511889D01*
X145840778Y-99971056D02*
X145819004Y-99790931D01*
X145819004Y-99790931D02*
X145765077Y-99642315D01*
X145765077Y-99642315D02*
X145688043Y-99517367D01*
X145688043Y-99517367D02*
X145591510Y-99412683D01*
X145591510Y-99412683D02*
X145474347Y-99326423D01*
X145474347Y-99326423D02*
X145336215Y-99262134D01*
X145336215Y-99262134D02*
X145172770Y-99225483D01*
X145172770Y-99225483D02*
X145090778Y-99221056D01*
X116471334Y-117962722D02*
X116493098Y-118142839D01*
X116493098Y-118142839D02*
X116546404Y-118290177D01*
X116546404Y-118290177D02*
X116623378Y-118415505D01*
X116623378Y-118415505D02*
X116719131Y-118519769D01*
X116719131Y-118519769D02*
X116834847Y-118605601D01*
X116834847Y-118605601D02*
X116972636Y-118670502D01*
X116972636Y-118670502D02*
X117135800Y-118707895D01*
X117135800Y-118707895D02*
X117221334Y-118712722D01*
X144340778Y-132426611D02*
X144362542Y-132606728D01*
X144362542Y-132606728D02*
X144415848Y-132754066D01*
X144415848Y-132754066D02*
X144492822Y-132879394D01*
X144492822Y-132879394D02*
X144588575Y-132983658D01*
X144588575Y-132983658D02*
X144704291Y-133069490D01*
X144704291Y-133069490D02*
X144842080Y-133134391D01*
X144842080Y-133134391D02*
X145005244Y-133171784D01*
X145005244Y-133171784D02*
X145090778Y-133176611D01*
X117971334Y-117962722D02*
X117949560Y-117782597D01*
X117949560Y-117782597D02*
X117895633Y-117633981D01*
X117895633Y-117633981D02*
X117818599Y-117509033D01*
X117818599Y-117509033D02*
X117722065Y-117404349D01*
X117722065Y-117404349D02*
X117604902Y-117318089D01*
X117604902Y-117318089D02*
X117466770Y-117253800D01*
X117466770Y-117253800D02*
X117303326Y-117217149D01*
X117303326Y-117217149D02*
X117221334Y-117212722D01*
X129215778Y-96487722D02*
X129395895Y-96465948D01*
X129395895Y-96465948D02*
X129543489Y-96412519D01*
X129543489Y-96412519D02*
X129668561Y-96335669D01*
X129668561Y-96335669D02*
X129772825Y-96239917D01*
X129772825Y-96239917D02*
X129858729Y-96124079D01*
X129858729Y-96124079D02*
X129923176Y-95987496D01*
X129923176Y-95987496D02*
X129960816Y-95824428D01*
X129960816Y-95824428D02*
X129965778Y-95737722D01*
X106990778Y-108482167D02*
X107170895Y-108460393D01*
X107170895Y-108460393D02*
X107318489Y-108406964D01*
X107318489Y-108406964D02*
X107443561Y-108330114D01*
X107443561Y-108330114D02*
X107547825Y-108234361D01*
X107547825Y-108234361D02*
X107633729Y-108118523D01*
X107633729Y-108118523D02*
X107698176Y-107981940D01*
X107698176Y-107981940D02*
X107735816Y-107818873D01*
X107735816Y-107818873D02*
X107740778Y-107732167D01*
X137285222Y-103498833D02*
X137306986Y-103678950D01*
X137306986Y-103678950D02*
X137360292Y-103826288D01*
X137360292Y-103826288D02*
X137437266Y-103951616D01*
X137437266Y-103951616D02*
X137533019Y-104055880D01*
X137533019Y-104055880D02*
X137648735Y-104141712D01*
X137648735Y-104141712D02*
X137786524Y-104206613D01*
X137786524Y-104206613D02*
X137949688Y-104244006D01*
X137949688Y-104244006D02*
X138035222Y-104248833D01*
X145090778Y-99221056D02*
X144910653Y-99242820D01*
X144910653Y-99242820D02*
X144763059Y-99296251D01*
X144763059Y-99296251D02*
X144638884Y-99372420D01*
X144638884Y-99372420D02*
X144534477Y-99468019D01*
X144534477Y-99468019D02*
X144448475Y-99583601D01*
X144448475Y-99583601D02*
X144384043Y-99719381D01*
X144384043Y-99719381D02*
X144345733Y-99884344D01*
X144345733Y-99884344D02*
X144340778Y-99971056D01*
X112282445Y-99221056D02*
X112102320Y-99242820D01*
X112102320Y-99242820D02*
X111954726Y-99296251D01*
X111954726Y-99296251D02*
X111830551Y-99372420D01*
X111830551Y-99372420D02*
X111726144Y-99468019D01*
X111726144Y-99468019D02*
X111640142Y-99583601D01*
X111640142Y-99583601D02*
X111575710Y-99719381D01*
X111575710Y-99719381D02*
X111537400Y-99884344D01*
X111537400Y-99884344D02*
X111532445Y-99971056D01*
X145090778Y-100721056D02*
X145270895Y-100699282D01*
X145270895Y-100699282D02*
X145418489Y-100645853D01*
X145418489Y-100645853D02*
X145543561Y-100569003D01*
X145543561Y-100569003D02*
X145647825Y-100473250D01*
X145647825Y-100473250D02*
X145733729Y-100357412D01*
X145733729Y-100357412D02*
X145798176Y-100220829D01*
X145798176Y-100220829D02*
X145835816Y-100057762D01*
X145835816Y-100057762D02*
X145840778Y-99971056D01*
X103815778Y-116859945D02*
X103635653Y-116881709D01*
X103635653Y-116881709D02*
X103488059Y-116935140D01*
X103488059Y-116935140D02*
X103363884Y-117011309D01*
X103363884Y-117011309D02*
X103259477Y-117106908D01*
X103259477Y-117106908D02*
X103173475Y-117222490D01*
X103173475Y-117222490D02*
X103109043Y-117358270D01*
X103109043Y-117358270D02*
X103070733Y-117523233D01*
X103070733Y-117523233D02*
X103065778Y-117609945D01*
X109107445Y-118271056D02*
X108927320Y-118292820D01*
X108927320Y-118292820D02*
X108779726Y-118346251D01*
X108779726Y-118346251D02*
X108655551Y-118422420D01*
X108655551Y-118422420D02*
X108551144Y-118518019D01*
X108551144Y-118518019D02*
X108465142Y-118633601D01*
X108465142Y-118633601D02*
X108400710Y-118769381D01*
X108400710Y-118769381D02*
X108362400Y-118934344D01*
X108362400Y-118934344D02*
X108357445Y-119021056D01*
X135239111Y-125259111D02*
X135250145Y-125449526D01*
X135250145Y-125449526D02*
X135279520Y-125620869D01*
X135279520Y-125620869D02*
X135323492Y-125777340D01*
X135323492Y-125777340D02*
X135379870Y-125921660D01*
X135379870Y-125921660D02*
X135447420Y-126055698D01*
X135447420Y-126055698D02*
X135527155Y-126183045D01*
X135527155Y-126183045D02*
X135613677Y-126296984D01*
X135613677Y-126296984D02*
X135711833Y-126404922D01*
X135711833Y-126404922D02*
X135816416Y-126501316D01*
X135816416Y-126501316D02*
X135930646Y-126589415D01*
X135930646Y-126589415D02*
X136054190Y-126668201D01*
X136054190Y-126668201D02*
X136186937Y-126736721D01*
X136186937Y-126736721D02*
X136330556Y-126794485D01*
X136330556Y-126794485D02*
X136485467Y-126839759D01*
X136485467Y-126839759D02*
X136655236Y-126870809D01*
X136655236Y-126870809D02*
X136843761Y-126883984D01*
X136843761Y-126883984D02*
X136864111Y-126884111D01*
X145090778Y-133176611D02*
X145270895Y-133154837D01*
X145270895Y-133154837D02*
X145418489Y-133101408D01*
X145418489Y-133101408D02*
X145543561Y-133024558D01*
X145543561Y-133024558D02*
X145647825Y-132928806D01*
X145647825Y-132928806D02*
X145733729Y-132812968D01*
X145733729Y-132812968D02*
X145798176Y-132676385D01*
X145798176Y-132676385D02*
X145835816Y-132513317D01*
X145835816Y-132513317D02*
X145840778Y-132426611D01*
X111532445Y-99971056D02*
X111554209Y-100151172D01*
X111554209Y-100151172D02*
X111607515Y-100298510D01*
X111607515Y-100298510D02*
X111684489Y-100423838D01*
X111684489Y-100423838D02*
X111780242Y-100528102D01*
X111780242Y-100528102D02*
X111895958Y-100613935D01*
X111895958Y-100613935D02*
X112033747Y-100678836D01*
X112033747Y-100678836D02*
X112196911Y-100716229D01*
X112196911Y-100716229D02*
X112282445Y-100721056D01*
X136864111Y-126884111D02*
X137053888Y-126873144D01*
X137053888Y-126873144D02*
X137225252Y-126843831D01*
X137225252Y-126843831D02*
X137384702Y-126798926D01*
X137384702Y-126798926D02*
X137532292Y-126740814D01*
X137532292Y-126740814D02*
X137665504Y-126673074D01*
X137665504Y-126673074D02*
X137788548Y-126595711D01*
X137788548Y-126595711D02*
X137902921Y-126508756D01*
X137902921Y-126508756D02*
X138010138Y-126411168D01*
X138010138Y-126411168D02*
X138106316Y-126306799D01*
X138106316Y-126306799D02*
X138194241Y-126192816D01*
X138194241Y-126192816D02*
X138273201Y-126069024D01*
X138273201Y-126069024D02*
X138341979Y-125935716D01*
X138341979Y-125935716D02*
X138400097Y-125790893D01*
X138400097Y-125790893D02*
X138445343Y-125635296D01*
X138445343Y-125635296D02*
X138476214Y-125464801D01*
X138476214Y-125464801D02*
X138489014Y-125276833D01*
X138489014Y-125276833D02*
X138489111Y-125259111D01*
X128465778Y-95737722D02*
X128487542Y-95917839D01*
X128487542Y-95917839D02*
X128540848Y-96065177D01*
X128540848Y-96065177D02*
X128617822Y-96190505D01*
X128617822Y-96190505D02*
X128713575Y-96294769D01*
X128713575Y-96294769D02*
X128829291Y-96380601D01*
X128829291Y-96380601D02*
X128967080Y-96445502D01*
X128967080Y-96445502D02*
X129130244Y-96482895D01*
X129130244Y-96482895D02*
X129215778Y-96487722D01*
X109857445Y-119021056D02*
X109835671Y-118840931D01*
X109835671Y-118840931D02*
X109781744Y-118692315D01*
X109781744Y-118692315D02*
X109704710Y-118567367D01*
X109704710Y-118567367D02*
X109608176Y-118462683D01*
X109608176Y-118462683D02*
X109491013Y-118376423D01*
X109491013Y-118376423D02*
X109352881Y-118312134D01*
X109352881Y-118312134D02*
X109189437Y-118275483D01*
X109189437Y-118275483D02*
X109107445Y-118271056D01*
X109107445Y-119771056D02*
X109287561Y-119749282D01*
X109287561Y-119749282D02*
X109435155Y-119695853D01*
X109435155Y-119695853D02*
X109560227Y-119619003D01*
X109560227Y-119619003D02*
X109664491Y-119523250D01*
X109664491Y-119523250D02*
X109750396Y-119407412D01*
X109750396Y-119407412D02*
X109814843Y-119270829D01*
X109814843Y-119270829D02*
X109852483Y-119107762D01*
X109852483Y-119107762D02*
X109857445Y-119021056D01*
X104476889Y-124665500D02*
X104498653Y-124845617D01*
X104498653Y-124845617D02*
X104551959Y-124992955D01*
X104551959Y-124992955D02*
X104628933Y-125118283D01*
X104628933Y-125118283D02*
X104724686Y-125222547D01*
X104724686Y-125222547D02*
X104840402Y-125308379D01*
X104840402Y-125308379D02*
X104978191Y-125373280D01*
X104978191Y-125373280D02*
X105141355Y-125410673D01*
X105141355Y-125410673D02*
X105226889Y-125415500D01*
X105226889Y-123915500D02*
X105046764Y-123937264D01*
X105046764Y-123937264D02*
X104899170Y-123990695D01*
X104899170Y-123990695D02*
X104774995Y-124066864D01*
X104774995Y-124066864D02*
X104670588Y-124162463D01*
X104670588Y-124162463D02*
X104584586Y-124278045D01*
X104584586Y-124278045D02*
X104520154Y-124413825D01*
X104520154Y-124413825D02*
X104481844Y-124578788D01*
X104481844Y-124578788D02*
X104476889Y-124665500D01*
X105976889Y-124665500D02*
X105955115Y-124485375D01*
X105955115Y-124485375D02*
X105901188Y-124336759D01*
X105901188Y-124336759D02*
X105824154Y-124211811D01*
X105824154Y-124211811D02*
X105727621Y-124107127D01*
X105727621Y-124107127D02*
X105610458Y-124020867D01*
X105610458Y-124020867D02*
X105472326Y-123956578D01*
X105472326Y-123956578D02*
X105308881Y-123919927D01*
X105308881Y-123919927D02*
X105226889Y-123915500D01*
X106990778Y-106982167D02*
X106810653Y-107003931D01*
X106810653Y-107003931D02*
X106663059Y-107057362D01*
X106663059Y-107057362D02*
X106538884Y-107133531D01*
X106538884Y-107133531D02*
X106434477Y-107229130D01*
X106434477Y-107229130D02*
X106348475Y-107344712D01*
X106348475Y-107344712D02*
X106284043Y-107480492D01*
X106284043Y-107480492D02*
X106245733Y-107645455D01*
X106245733Y-107645455D02*
X106240778Y-107732167D01*
X120497445Y-127375778D02*
X120486478Y-127185992D01*
X120486478Y-127185992D02*
X120457236Y-127014936D01*
X120457236Y-127014936D02*
X120413054Y-126857540D01*
X120413054Y-126857540D02*
X120356426Y-126712656D01*
X120356426Y-126712656D02*
X120289126Y-126579179D01*
X120289126Y-126579179D02*
X120212169Y-126455857D01*
X120212169Y-126455857D02*
X120125595Y-126341184D01*
X120125595Y-126341184D02*
X120030714Y-126236023D01*
X120030714Y-126236023D02*
X119925711Y-126138296D01*
X119925711Y-126138296D02*
X119812137Y-126049871D01*
X119812137Y-126049871D02*
X119690050Y-125971138D01*
X119690050Y-125971138D02*
X119557728Y-125901912D01*
X119557728Y-125901912D02*
X119413330Y-125842965D01*
X119413330Y-125842965D02*
X119257813Y-125796743D01*
X119257813Y-125796743D02*
X119088293Y-125764984D01*
X119088293Y-125764984D02*
X118900976Y-125751020D01*
X118900976Y-125751020D02*
X118872445Y-125750778D01*
X122966889Y-112206333D02*
X122955922Y-112016547D01*
X122955922Y-112016547D02*
X122926680Y-111845491D01*
X122926680Y-111845491D02*
X122882498Y-111688095D01*
X122882498Y-111688095D02*
X122825870Y-111543212D01*
X122825870Y-111543212D02*
X122758570Y-111409735D01*
X122758570Y-111409735D02*
X122681613Y-111286413D01*
X122681613Y-111286413D02*
X122595039Y-111171740D01*
X122595039Y-111171740D02*
X122500158Y-111066578D01*
X122500158Y-111066578D02*
X122395155Y-110968851D01*
X122395155Y-110968851D02*
X122281581Y-110880426D01*
X122281581Y-110880426D02*
X122159494Y-110801693D01*
X122159494Y-110801693D02*
X122027172Y-110732467D01*
X122027172Y-110732467D02*
X121882774Y-110673520D01*
X121882774Y-110673520D02*
X121727257Y-110627298D01*
X121727257Y-110627298D02*
X121557737Y-110595539D01*
X121557737Y-110595539D02*
X121370420Y-110581575D01*
X121370420Y-110581575D02*
X121341889Y-110581333D01*
X138035222Y-102748833D02*
X137855097Y-102770597D01*
X137855097Y-102770597D02*
X137707503Y-102824028D01*
X137707503Y-102824028D02*
X137583328Y-102900197D01*
X137583328Y-102900197D02*
X137478921Y-102995796D01*
X137478921Y-102995796D02*
X137392919Y-103111378D01*
X137392919Y-103111378D02*
X137328487Y-103247158D01*
X137328487Y-103247158D02*
X137290177Y-103412121D01*
X137290177Y-103412121D02*
X137285222Y-103498833D01*
X105226889Y-125415500D02*
X105407006Y-125393726D01*
X105407006Y-125393726D02*
X105554600Y-125340297D01*
X105554600Y-125340297D02*
X105679672Y-125263447D01*
X105679672Y-125263447D02*
X105783936Y-125167695D01*
X105783936Y-125167695D02*
X105869840Y-125051857D01*
X105869840Y-125051857D02*
X105934287Y-124915274D01*
X105934287Y-124915274D02*
X105971927Y-124752206D01*
X105971927Y-124752206D02*
X105976889Y-124665500D01*
X118166889Y-133511889D02*
X117976466Y-133522923D01*
X117976466Y-133522923D02*
X117804202Y-133552508D01*
X117804202Y-133552508D02*
X117646291Y-133597066D01*
X117646291Y-133597066D02*
X117501514Y-133653911D01*
X117501514Y-133653911D02*
X117368154Y-133721404D01*
X117368154Y-133721404D02*
X117244704Y-133798715D01*
X117244704Y-133798715D02*
X117129008Y-133886455D01*
X117129008Y-133886455D02*
X117023884Y-133981823D01*
X117023884Y-133981823D02*
X116926643Y-134086866D01*
X116926643Y-134086866D02*
X116838509Y-134200677D01*
X116838509Y-134200677D02*
X116759937Y-134323250D01*
X116759937Y-134323250D02*
X116690301Y-134457471D01*
X116690301Y-134457471D02*
X116632530Y-134600396D01*
X116632530Y-134600396D02*
X116586818Y-134755796D01*
X116586818Y-134755796D02*
X116555185Y-134928014D01*
X116555185Y-134928014D02*
X116541968Y-135120472D01*
X116541968Y-135120472D02*
X116541889Y-135136889D01*
X138035222Y-104248833D02*
X138215339Y-104227059D01*
X138215339Y-104227059D02*
X138362933Y-104173630D01*
X138362933Y-104173630D02*
X138488005Y-104096780D01*
X138488005Y-104096780D02*
X138592269Y-104001028D01*
X138592269Y-104001028D02*
X138678173Y-103885190D01*
X138678173Y-103885190D02*
X138742620Y-103748607D01*
X138742620Y-103748607D02*
X138780260Y-103585539D01*
X138780260Y-103585539D02*
X138785222Y-103498833D01*
X118166889Y-136761889D02*
X118356666Y-136750922D01*
X118356666Y-136750922D02*
X118528030Y-136721609D01*
X118528030Y-136721609D02*
X118687480Y-136676704D01*
X118687480Y-136676704D02*
X118835070Y-136618592D01*
X118835070Y-136618592D02*
X118968282Y-136550852D01*
X118968282Y-136550852D02*
X119091326Y-136473489D01*
X119091326Y-136473489D02*
X119205699Y-136386534D01*
X119205699Y-136386534D02*
X119312916Y-136288946D01*
X119312916Y-136288946D02*
X119409094Y-136184577D01*
X119409094Y-136184577D02*
X119497019Y-136070594D01*
X119497019Y-136070594D02*
X119575979Y-135946802D01*
X119575979Y-135946802D02*
X119644757Y-135813494D01*
X119644757Y-135813494D02*
X119702875Y-135668671D01*
X119702875Y-135668671D02*
X119748121Y-135513074D01*
X119748121Y-135513074D02*
X119778992Y-135342579D01*
X119778992Y-135342579D02*
X119791792Y-135154611D01*
X119791792Y-135154611D02*
X119791889Y-135136889D01*
X117221334Y-117212722D02*
X117041209Y-117234486D01*
X117041209Y-117234486D02*
X116893615Y-117287917D01*
X116893615Y-117287917D02*
X116769440Y-117364086D01*
X116769440Y-117364086D02*
X116665033Y-117459685D01*
X116665033Y-117459685D02*
X116579031Y-117575267D01*
X116579031Y-117575267D02*
X116514599Y-117711047D01*
X116514599Y-117711047D02*
X116476289Y-117876010D01*
X116476289Y-117876010D02*
X116471334Y-117962722D01*
X126621527Y-119285296D02*
X126621751Y-119284930D01*
X126554979Y-119370887D02*
X126564354Y-119360951D01*
X126573461Y-119350764D02*
X126582293Y-119340328D01*
X126459741Y-119448116D02*
X126471212Y-119440692D01*
X126482474Y-119432963D02*
X126493521Y-119424936D01*
X126610893Y-119301907D02*
X126612791Y-119299052D01*
X126430186Y-119465285D02*
X126436195Y-119462015D01*
X126621079Y-119286028D02*
X126621527Y-119285296D01*
X126620179Y-119287489D02*
X126621079Y-119286028D01*
X126599090Y-119318729D02*
X126603102Y-119313180D01*
X126616526Y-119293299D02*
X126618363Y-119290402D01*
X126607037Y-119307573D02*
X126610893Y-119301907D01*
X126618363Y-119290402D02*
X126619274Y-119288947D01*
X126514952Y-119408016D02*
X126535456Y-119389985D01*
X126619274Y-119288947D02*
X126620179Y-119287489D01*
X126590839Y-119329648D02*
X126599090Y-119318729D01*
X126612791Y-119299052D02*
X126614669Y-119296183D01*
X126582293Y-119340328D02*
X126590839Y-119329648D01*
X126493521Y-119424936D02*
X126514952Y-119408016D01*
X126471212Y-119440692D02*
X126482474Y-119432963D01*
X126436195Y-119462015D02*
X126448067Y-119455227D01*
X126448067Y-119455227D02*
X126459741Y-119448116D01*
X126418025Y-119471573D02*
X126424129Y-119468472D01*
X126424129Y-119468472D02*
X126430186Y-119465285D01*
X126535456Y-119389985D02*
X126554979Y-119370887D01*
X126614669Y-119296183D02*
X126616526Y-119293299D01*
X126603102Y-119313180D02*
X126607037Y-119307573D01*
X126564354Y-119360951D02*
X126573461Y-119350764D01*
X132624200Y-122794719D02*
X132441084Y-122721649D01*
X132441084Y-122721649D02*
X132259876Y-122649340D01*
X134321119Y-123471855D02*
X134216925Y-123430277D01*
X134576515Y-123573768D02*
X134574602Y-123573004D01*
X130927281Y-122117583D02*
X130838822Y-122082285D01*
X133967048Y-123330567D02*
X133671392Y-123212589D01*
X134577433Y-123574134D02*
X134576515Y-123573768D01*
X134533562Y-123556628D02*
X134480869Y-123535601D01*
X134566227Y-123569662D02*
X134552487Y-123564180D01*
X126645156Y-119241913D02*
X126650274Y-119230963D01*
X126622764Y-119283260D02*
X126623550Y-119281956D01*
X126678432Y-119151706D02*
X126688438Y-119104836D01*
X126634106Y-119263480D02*
X126639767Y-119252754D01*
X130695912Y-122025258D02*
X130682173Y-122019776D01*
X133341403Y-123080910D02*
X133167824Y-123011646D01*
X133167824Y-123011646D02*
X132988524Y-122940098D01*
X133671392Y-123212589D02*
X133511166Y-123148652D01*
X133511166Y-123148652D02*
X133341403Y-123080910D01*
X134409577Y-123507153D02*
X134321119Y-123471855D01*
X126691304Y-118961116D02*
X126682991Y-118913290D01*
X126625108Y-119279340D02*
X126628175Y-119274085D01*
X134571096Y-123571605D02*
X134566227Y-123569662D01*
X126631174Y-119268798D02*
X126634106Y-119263480D01*
X134480869Y-123535601D02*
X134409577Y-123507153D01*
X130767531Y-122053837D02*
X130738770Y-122042360D01*
X131149976Y-122206447D02*
X131031475Y-122159161D01*
X126693959Y-119057228D02*
X126694936Y-119009211D01*
X126623550Y-119281956D02*
X126625108Y-119279340D01*
X126688438Y-119104836D02*
X126693959Y-119057228D01*
X126655119Y-119219909D02*
X126663990Y-119197511D01*
X126652053Y-118819925D02*
X126601739Y-118732292D01*
X130646939Y-122006420D02*
X130634843Y-122002467D01*
X130682173Y-122019776D02*
X130677303Y-122017833D01*
X132988524Y-122940098D02*
X132807315Y-122867789D01*
X132807315Y-122867789D02*
X132624200Y-122794719D01*
X134574602Y-123573004D02*
X134571096Y-123571605D01*
X126621751Y-119284930D02*
X126621974Y-119284563D01*
X130524690Y-121981291D02*
X130475741Y-121979958D01*
X131281352Y-122258871D02*
X131149976Y-122206447D01*
X130549251Y-121983791D02*
X130524690Y-121981291D01*
X130573806Y-121987538D02*
X130549251Y-121983791D01*
X131577007Y-122376849D02*
X131422503Y-122315196D01*
X131422503Y-122315196D02*
X131281352Y-122258871D01*
X130598306Y-121992549D02*
X130573806Y-121987538D01*
X126621974Y-119284563D02*
X126622764Y-119283260D01*
X130664982Y-122012960D02*
X130658982Y-122010698D01*
X130669961Y-122014903D02*
X130664982Y-122012960D01*
X126650274Y-119230963D02*
X126655119Y-119219909D01*
X134552487Y-123564180D02*
X134533562Y-123556628D01*
X130622701Y-121998838D02*
X130598306Y-121992549D01*
X130634843Y-122002467D02*
X130622701Y-121998838D01*
X130673798Y-122016434D02*
X130671678Y-122015588D01*
X131906997Y-122508528D02*
X131737233Y-122440785D01*
X131737233Y-122440785D02*
X131577007Y-122376849D01*
X126671762Y-119174762D02*
X126678432Y-119151706D01*
X126694936Y-119009211D02*
X126691304Y-118961116D01*
X130652968Y-122008518D02*
X130646939Y-122006420D01*
X130658982Y-122010698D02*
X130652968Y-122008518D01*
X130671678Y-122015588D02*
X130669961Y-122014903D01*
X130677303Y-122017833D02*
X130673798Y-122016434D01*
X126628175Y-119274085D02*
X126631174Y-119268798D01*
X132259876Y-122649340D02*
X131993308Y-122542969D01*
X131993308Y-122542969D02*
X131906997Y-122508528D01*
X130714838Y-122032810D02*
X130695912Y-122025258D01*
X131031475Y-122159161D02*
X130927281Y-122117583D01*
X130838822Y-122082285D02*
X130767531Y-122053837D01*
X126639767Y-119252754D02*
X126645156Y-119241913D01*
X134216925Y-123430277D02*
X133967048Y-123330567D01*
X126682991Y-118913290D02*
X126652053Y-118819925D01*
X126663990Y-119197511D02*
X126671762Y-119174762D01*
X130738770Y-122042360D02*
X130714838Y-122032810D01*
X120764543Y-102552245D02*
X120735751Y-102590685D01*
X120981130Y-102399542D02*
X120974694Y-102401897D01*
X126601739Y-118732292D02*
X126601026Y-118731298D01*
X120796787Y-102516786D02*
X120764543Y-102552245D01*
X120944431Y-102414423D02*
X120938912Y-102416970D01*
X120735751Y-102590685D02*
X120710659Y-102631876D01*
X120961917Y-102406888D02*
X120960329Y-102407539D01*
X120952778Y-102410726D02*
X120949987Y-102411942D01*
X120971487Y-102403109D02*
X120968289Y-102404345D01*
X121020332Y-102387359D02*
X121007162Y-102391052D01*
X120938912Y-102416970D02*
X120933429Y-102419581D01*
X126526704Y-118627743D02*
X126471308Y-118550558D01*
X120994092Y-102395112D02*
X120987597Y-102397281D01*
X126567649Y-118684793D02*
X126526704Y-118627743D01*
X126593032Y-118720159D02*
X126582355Y-118705283D01*
X126601026Y-118731298D02*
X126599539Y-118729226D01*
X120851107Y-102469700D02*
X120832245Y-102484542D01*
X120890952Y-102442726D02*
X120870686Y-102455751D01*
X120922577Y-102424994D02*
X120911877Y-102430659D01*
X120956369Y-102409191D02*
X120955974Y-102409358D01*
X120957160Y-102408858D02*
X120956369Y-102409191D01*
X120689527Y-102675578D02*
X120660222Y-102769468D01*
X120710659Y-102631876D02*
X120689527Y-102675578D01*
X120960329Y-102407539D02*
X120958743Y-102408195D01*
X120987597Y-102397281D02*
X120981130Y-102399542D01*
X120955974Y-102409358D02*
X120955578Y-102409526D01*
X120832245Y-102484542D02*
X120796787Y-102516786D01*
X120954177Y-102410124D02*
X120952778Y-102410726D01*
X120965099Y-102405605D02*
X120961917Y-102406888D01*
X120958743Y-102408195D02*
X120957160Y-102408858D01*
X120974694Y-102401897D02*
X120971487Y-102403109D01*
X120968289Y-102404345D02*
X120965099Y-102405605D01*
X126321607Y-118341977D02*
X126231194Y-118216002D01*
X126231194Y-118216002D02*
X126127442Y-118071442D01*
X126402571Y-118454786D02*
X126321607Y-118341977D01*
X126471308Y-118550558D02*
X126402571Y-118454786D01*
X126582355Y-118705283D02*
X126567649Y-118684793D01*
X120870686Y-102455751D02*
X120851107Y-102469700D01*
X120949987Y-102411942D02*
X120944431Y-102414423D01*
X121007162Y-102391052D02*
X120994092Y-102395112D01*
X126596815Y-118725431D02*
X126593032Y-118720159D01*
X120933429Y-102419581D02*
X120922577Y-102424994D01*
X120660222Y-102769468D02*
X120650000Y-102870000D01*
X120901334Y-102436571D02*
X120890952Y-102442726D01*
X126599539Y-118729226D02*
X126596815Y-118725431D01*
X120911877Y-102430659D02*
X120901334Y-102436571D01*
X120955578Y-102409526D02*
X120954177Y-102410124D01*
X121083236Y-109571467D02*
X121090024Y-109572314D01*
X121076457Y-109570524D02*
X121083236Y-109571467D01*
X121253070Y-109564936D02*
X121266410Y-109561969D01*
X121331713Y-109541654D02*
X121334903Y-109540394D01*
X121212664Y-109571673D02*
X121239660Y-109567541D01*
X121185493Y-109574367D02*
X121212664Y-109571673D01*
X121328514Y-109542890D02*
X121331713Y-109541654D01*
X121325308Y-109544103D02*
X121328514Y-109542890D01*
X121279669Y-109558640D02*
X121292839Y-109554947D01*
X121318871Y-109546457D02*
X121325308Y-109544103D01*
X121158217Y-109575617D02*
X121185493Y-109574367D01*
X121312405Y-109548719D02*
X121318871Y-109546457D01*
X121305910Y-109550887D02*
X121312405Y-109548719D01*
X121090024Y-109572314D02*
X121103628Y-109573722D01*
X121066311Y-109568929D02*
X121069690Y-109569485D01*
X121266410Y-109561969D02*
X121279669Y-109558640D01*
X121103628Y-109573722D02*
X121117258Y-109574752D01*
X121239660Y-109567541D02*
X121253070Y-109564936D01*
X121292839Y-109554947D02*
X121305910Y-109550887D01*
X121144561Y-109575696D02*
X121158217Y-109575617D01*
X121130905Y-109575409D02*
X121144561Y-109575696D01*
X121117258Y-109574752D02*
X121130905Y-109575409D01*
X121069690Y-109569485D02*
X121076457Y-109570524D01*
X121409049Y-109503273D02*
X121429315Y-109490249D01*
X121388124Y-109515341D02*
X121398667Y-109509429D01*
X121355570Y-109531576D02*
X121361090Y-109529030D01*
X121361090Y-109529030D02*
X121366572Y-109526419D01*
X121344423Y-109536474D02*
X121345824Y-109535876D01*
X121343633Y-109536809D02*
X121344028Y-109536641D01*
X121342842Y-109537142D02*
X121343633Y-109536809D01*
X121341258Y-109537804D02*
X121342842Y-109537142D01*
X121338085Y-109539111D02*
X121339673Y-109538461D01*
X121334903Y-109540394D02*
X121338085Y-109539111D01*
X121398667Y-109509429D02*
X121409049Y-109503273D01*
X121377425Y-109521006D02*
X121388124Y-109515341D01*
X121339673Y-109538461D02*
X121341258Y-109537804D01*
X121448894Y-109476300D02*
X121467756Y-109461457D01*
X121535458Y-109393755D02*
X121564250Y-109355314D01*
X121503214Y-109429213D02*
X121535458Y-109393755D01*
X121467756Y-109461457D02*
X121503214Y-109429213D01*
X121350014Y-109534058D02*
X121355570Y-109531576D01*
X121366572Y-109526419D02*
X121377425Y-109521006D01*
X121429315Y-109490249D02*
X121448894Y-109476300D01*
X121347223Y-109535274D02*
X121350014Y-109534058D01*
X121345824Y-109535876D02*
X121347223Y-109535274D01*
X121344028Y-109536641D02*
X121344423Y-109536474D01*
X121647491Y-125742214D02*
X121649364Y-125740870D01*
X118685646Y-132941435D02*
X118697130Y-132937535D01*
X125218969Y-123178930D02*
X125305542Y-123116795D01*
X125490246Y-122983428D02*
X125500090Y-122975363D01*
X121999420Y-125489631D02*
X122243972Y-125314114D01*
X125480155Y-122991272D02*
X125485231Y-122987378D01*
X122856286Y-124874650D02*
X123026166Y-124752725D01*
X123026166Y-124752725D02*
X123201646Y-124626782D01*
X121646593Y-125742859D02*
X121647491Y-125742214D01*
X125604726Y-122853416D02*
X125627908Y-122810766D01*
X125528121Y-122949916D02*
X125545535Y-122931968D01*
X125467050Y-123000879D02*
X125469125Y-122999390D01*
X125470700Y-122998260D02*
X125475019Y-122995110D01*
X118708496Y-132933365D02*
X118719740Y-132928929D01*
X121649364Y-125740870D02*
X121652795Y-125738407D01*
X125469125Y-122999390D02*
X125470700Y-122998260D01*
X123914768Y-124114967D02*
X124090248Y-123989023D01*
X124090248Y-123989023D02*
X124260128Y-123867099D01*
X121741100Y-125675030D02*
X121810872Y-125624954D01*
X122533328Y-125106440D02*
X122690139Y-124993895D01*
X122690139Y-124993895D02*
X122856286Y-124874650D01*
X118935012Y-132761123D02*
X118961846Y-132720671D01*
X125426885Y-123029707D02*
X125445407Y-123016413D01*
X125577246Y-122893945D02*
X125604726Y-122853416D01*
X125509685Y-122967086D02*
X125528121Y-122949916D01*
X121689529Y-125712043D02*
X121741100Y-125675030D01*
X121897445Y-125562819D02*
X121999420Y-125489631D01*
X121657560Y-125734987D02*
X121671007Y-125725336D01*
X125545535Y-122931968D02*
X125577246Y-122893945D01*
X125001019Y-123335355D02*
X125116994Y-123252118D01*
X124260128Y-123867099D02*
X124505380Y-123691079D01*
X124505380Y-123691079D02*
X124583086Y-123635309D01*
X125458854Y-123006762D02*
X125463619Y-123003342D01*
X125445407Y-123016413D02*
X125458854Y-123006762D01*
X125403462Y-123046517D02*
X125426885Y-123029707D01*
X124872442Y-123427636D02*
X125001019Y-123335355D01*
X118794667Y-132890713D02*
X118834150Y-132863545D01*
X121810872Y-125624954D02*
X121897445Y-125562819D01*
X123201646Y-124626782D02*
X123378993Y-124499498D01*
X123378993Y-124499498D02*
X123558207Y-124370875D01*
X125500090Y-122975363D02*
X125509685Y-122967086D01*
X125485231Y-122987378D02*
X125490246Y-122983428D01*
X125475019Y-122995110D02*
X125480155Y-122991272D01*
X118904594Y-132798553D02*
X118935012Y-132761123D01*
X118697130Y-132937535D02*
X118708496Y-132933365D01*
X119003545Y-132631591D02*
X119027231Y-132533356D01*
X125463619Y-123003342D02*
X125467050Y-123000879D01*
X125375314Y-123066719D02*
X125403462Y-123046517D01*
X125116994Y-123252118D02*
X125218969Y-123178930D01*
X124583086Y-123635309D02*
X124734298Y-123526782D01*
X124734298Y-123526782D02*
X124872442Y-123427636D01*
X121652795Y-125738407D02*
X121657560Y-125734987D01*
X123558207Y-124370875D02*
X123737421Y-124242251D01*
X123737421Y-124242251D02*
X123914768Y-124114967D01*
X118834150Y-132863545D02*
X118870881Y-132832760D01*
X118752695Y-132914057D02*
X118773976Y-132902876D01*
X121671007Y-125725336D02*
X121689529Y-125712043D01*
X118961846Y-132720671D02*
X119003545Y-132631591D01*
X118870881Y-132832760D02*
X118904594Y-132798553D01*
X118719740Y-132928929D02*
X118730857Y-132924229D01*
X118730857Y-132924229D02*
X118752695Y-132914057D01*
X125305542Y-123116795D02*
X125375314Y-123066719D01*
X118773976Y-132902876D02*
X118794667Y-132890713D01*
X122243972Y-125314114D02*
X122382116Y-125214966D01*
X122382116Y-125214966D02*
X122533328Y-125106440D01*
X118567987Y-132964292D02*
X118581605Y-132963152D01*
X118368560Y-132938516D02*
X118369370Y-132938795D01*
X118298344Y-132907948D02*
X118309244Y-132913561D01*
X118655708Y-132950169D02*
X118657369Y-132949739D01*
X118649051Y-132951829D02*
X118652382Y-132951012D01*
X118277051Y-132895969D02*
X118298344Y-132907948D01*
X118645715Y-132952623D02*
X118649051Y-132951829D01*
X118635679Y-132954857D02*
X118642374Y-132953392D01*
X118622239Y-132957498D02*
X118628967Y-132956226D01*
X118405435Y-132949614D02*
X118418725Y-132952843D01*
X118385668Y-132944068D02*
X118392233Y-132946011D01*
X118354449Y-132933391D02*
X118357356Y-132934486D01*
X118320309Y-132918916D02*
X118331534Y-132924010D01*
X118472560Y-132962083D02*
X118499755Y-132964523D01*
X118392233Y-132946011D02*
X118398823Y-132947859D01*
X118375869Y-132940976D02*
X118379128Y-132942031D01*
X118366131Y-132937668D02*
X118366536Y-132937810D01*
X118360272Y-132935564D02*
X118363197Y-132936625D01*
X118370992Y-132939349D02*
X118372616Y-132939897D01*
X118348664Y-132931148D02*
X118354449Y-132933391D01*
X118134177Y-132768273D02*
X118164962Y-132805004D01*
X118107009Y-132728790D02*
X118134177Y-132768273D01*
X118357356Y-132934486D02*
X118360272Y-132935564D01*
X118366940Y-132937952D02*
X118367750Y-132938235D01*
X118657369Y-132949739D02*
X118659028Y-132949302D01*
X118554348Y-132965065D02*
X118567987Y-132964292D01*
X118679862Y-132943282D02*
X118685646Y-132941435D01*
X118331534Y-132924010D02*
X118342915Y-132928836D01*
X118674049Y-132945061D02*
X118679862Y-132943282D01*
X118581605Y-132963152D02*
X118595192Y-132961642D01*
X118445525Y-132958194D02*
X118459018Y-132960320D01*
X118668210Y-132946771D02*
X118674049Y-132945061D01*
X118665280Y-132947599D02*
X118668210Y-132946771D01*
X118663813Y-132948007D02*
X118665280Y-132947599D01*
X118628967Y-132956226D02*
X118635679Y-132954857D01*
X118342915Y-132928836D02*
X118348664Y-132931148D01*
X118398823Y-132947859D02*
X118405435Y-132949614D01*
X118372616Y-132939897D02*
X118375869Y-132940976D01*
X118199169Y-132838718D02*
X118236599Y-132869135D01*
X118662344Y-132948411D02*
X118663813Y-132948007D01*
X118661930Y-132948523D02*
X118662344Y-132948411D01*
X118661515Y-132948636D02*
X118661930Y-132948523D01*
X118309244Y-132913561D02*
X118320309Y-132918916D01*
X118642374Y-132953392D02*
X118645715Y-132952623D01*
X118164962Y-132805004D02*
X118199169Y-132838718D01*
X118527041Y-132965519D02*
X118554348Y-132965065D01*
X118367750Y-132938235D02*
X118368560Y-132938516D01*
X118652382Y-132951012D02*
X118655708Y-132950169D01*
X118608740Y-132959759D02*
X118622239Y-132957498D01*
X118379128Y-132942031D02*
X118382395Y-132943061D01*
X118366536Y-132937810D02*
X118366940Y-132937952D01*
X118236599Y-132869135D02*
X118256461Y-132883019D01*
X118363197Y-132936625D02*
X118364663Y-132937149D01*
X118660687Y-132948860D02*
X118661515Y-132948636D01*
X118364663Y-132937149D02*
X118366131Y-132937668D01*
X118418725Y-132952843D02*
X118432091Y-132955702D01*
X118595192Y-132961642D02*
X118608740Y-132959759D01*
X118499755Y-132964523D02*
X118527041Y-132965519D01*
X118432091Y-132955702D02*
X118445525Y-132958194D01*
X118369370Y-132938795D02*
X118370992Y-132939349D01*
X118459018Y-132960320D02*
X118472560Y-132962083D01*
X118382395Y-132943061D02*
X118385668Y-132944068D01*
X118256461Y-132883019D02*
X118277051Y-132895969D01*
X118659028Y-132949302D02*
X118660687Y-132948860D01*
X125436407Y-122164664D02*
X125433791Y-122163105D01*
X125505215Y-122214752D02*
X125494779Y-122205921D01*
X125595144Y-122317001D02*
X125587415Y-122305740D01*
X125439381Y-122166462D02*
X125439014Y-122166239D01*
X125616467Y-122352018D02*
X125609678Y-122340146D01*
X125515403Y-122223859D02*
X125505215Y-122214752D01*
X125462024Y-122181176D02*
X125456358Y-122177320D01*
X125633751Y-122386431D02*
X125633397Y-122385651D01*
X125447751Y-122171687D02*
X125444853Y-122169850D01*
X125677687Y-122578063D02*
X125674055Y-122529968D01*
X125484100Y-122197375D02*
X125473180Y-122189123D01*
X125639726Y-122400203D02*
X125638524Y-122397339D01*
X125648663Y-122423295D02*
X125644346Y-122411711D01*
X125433791Y-122163105D02*
X125428536Y-122160038D01*
X125473180Y-122189123D02*
X125467631Y-122185111D01*
X125437712Y-122165449D02*
X125436407Y-122164664D01*
X125450634Y-122173545D02*
X125447751Y-122171687D01*
X125622924Y-122364084D02*
X125619737Y-122358027D01*
X125634630Y-122388386D02*
X125634454Y-122387995D01*
X125629040Y-122376339D02*
X125627543Y-122373258D01*
X125674055Y-122529968D02*
X125670488Y-122505999D01*
X125636063Y-122391626D02*
X125635436Y-122390201D01*
X125439014Y-122166239D02*
X125437712Y-122165449D01*
X125443399Y-122168940D02*
X125441941Y-122168034D01*
X125439747Y-122166686D02*
X125439381Y-122166462D01*
X125440479Y-122167134D02*
X125439747Y-122166686D01*
X125646741Y-122766363D02*
X125661183Y-122720558D01*
X125467631Y-122185111D02*
X125462024Y-122181176D01*
X125453503Y-122175422D02*
X125450634Y-122173545D01*
X125631967Y-122382535D02*
X125630514Y-122379431D01*
X125638524Y-122397339D02*
X125637303Y-122394479D01*
X125562468Y-122273261D02*
X125544436Y-122252757D01*
X125602568Y-122328472D02*
X125595144Y-122317001D01*
X125609678Y-122340146D02*
X125602568Y-122328472D01*
X125587415Y-122305740D02*
X125579388Y-122294692D01*
X125670488Y-122505999D02*
X125665742Y-122482142D01*
X125619737Y-122358027D02*
X125616467Y-122352018D01*
X125626025Y-122370188D02*
X125622924Y-122364084D01*
X125642074Y-122405947D02*
X125639726Y-122400203D01*
X125630514Y-122379431D02*
X125629040Y-122376339D01*
X125634454Y-122387995D02*
X125634103Y-122387213D01*
X125644346Y-122411711D02*
X125642074Y-122405947D01*
X125676710Y-122626080D02*
X125677687Y-122578063D01*
X125665742Y-122482142D02*
X125659808Y-122458443D01*
X125633397Y-122385651D02*
X125632684Y-122384092D01*
X125444853Y-122169850D02*
X125443399Y-122168940D01*
X125456358Y-122177320D02*
X125453503Y-122175422D01*
X125634804Y-122388778D02*
X125634630Y-122388386D01*
X125494779Y-122205921D02*
X125484100Y-122197375D01*
X125525339Y-122233235D02*
X125515403Y-122223859D01*
X125579388Y-122294692D02*
X125562468Y-122273261D01*
X125632684Y-122384092D02*
X125631967Y-122382535D01*
X125627543Y-122373258D02*
X125626025Y-122370188D01*
X125635436Y-122390201D02*
X125634804Y-122388778D01*
X125652678Y-122434950D02*
X125648663Y-122423295D01*
X125659808Y-122458443D02*
X125656393Y-122446668D01*
X125671189Y-122673688D02*
X125676710Y-122626080D01*
X125627908Y-122810766D02*
X125646741Y-122766363D01*
X125656393Y-122446668D02*
X125652678Y-122434950D01*
X125661183Y-122720558D02*
X125671189Y-122673688D01*
X125544436Y-122252757D02*
X125525339Y-122233235D01*
X125441941Y-122168034D02*
X125440479Y-122167134D01*
X125634103Y-122387213D02*
X125633751Y-122386431D01*
X125637303Y-122394479D02*
X125636063Y-122391626D01*
X120735751Y-109355315D02*
X120764543Y-109393755D01*
X120710659Y-109314124D02*
X120735751Y-109355315D01*
X120660222Y-109176532D02*
X120672623Y-109224466D01*
X120911877Y-109515341D02*
X120933429Y-109526419D01*
X120650000Y-109058198D02*
X120650000Y-109065933D01*
X120870686Y-109490249D02*
X120911877Y-109515341D01*
X120652596Y-109126931D02*
X120655795Y-109151920D01*
X120651466Y-109114309D02*
X120652596Y-109126931D01*
X120689527Y-109270422D02*
X120710659Y-109314124D01*
X120672623Y-109224466D02*
X120689527Y-109270422D01*
X120650000Y-109074870D02*
X120650001Y-109077080D01*
X120650001Y-109077080D02*
X120650042Y-109082427D01*
X120655795Y-109151920D02*
X120660222Y-109176532D01*
X120650654Y-109101610D02*
X120651466Y-109114309D01*
X120650164Y-109088838D02*
X120650654Y-109101610D01*
X120650042Y-109082427D02*
X120650164Y-109088838D01*
X120650000Y-109065933D02*
X120650000Y-109071503D01*
X120650000Y-109071503D02*
X120650000Y-109074870D01*
X120832246Y-109461457D02*
X120870686Y-109490249D01*
X120796787Y-109429213D02*
X120832246Y-109461457D01*
X120764543Y-109393755D02*
X120796787Y-109429213D01*
X120650000Y-109006304D02*
X120650000Y-109036370D01*
X120650000Y-109036370D02*
X120650000Y-109058198D01*
X120650000Y-108106313D02*
X120650000Y-108315023D01*
X120650000Y-104309380D02*
X120650000Y-104833617D01*
X120650000Y-103136664D02*
X120650000Y-103277193D01*
X120650000Y-107112383D02*
X120650000Y-107636621D01*
X120650000Y-106551783D02*
X120650000Y-107112383D01*
X120650000Y-105394218D02*
X120650000Y-105973000D01*
X120650000Y-104833617D02*
X120650000Y-105394218D01*
X120650000Y-102939696D02*
X120650000Y-102977716D01*
X120650000Y-102977716D02*
X120650000Y-103023407D01*
X120650000Y-103442722D02*
X120650000Y-103839687D01*
X120650000Y-103839687D02*
X120650000Y-104309380D01*
X120650000Y-103277193D02*
X120650000Y-103442722D01*
X120650000Y-103023407D02*
X120650000Y-103136664D01*
X120650000Y-108315023D02*
X120650000Y-108503279D01*
X120650000Y-107636621D02*
X120650000Y-108106313D01*
X120650000Y-108968284D02*
X120650000Y-109006304D01*
X120650000Y-108922593D02*
X120650000Y-108968284D01*
X120650000Y-108809337D02*
X120650000Y-108922593D01*
X120650000Y-108668808D02*
X120650000Y-108809337D01*
X120650000Y-102909630D02*
X120650000Y-102939696D01*
X120650000Y-102887803D02*
X120650000Y-102909630D01*
X120650000Y-108503279D02*
X120650000Y-108668808D01*
X120650000Y-105973000D02*
X120650000Y-106551783D01*
X118157378Y-131509423D02*
X118130503Y-131706875D01*
X118306425Y-130414365D02*
X118287395Y-130554182D01*
X118490232Y-129913240D02*
X118456519Y-129947446D01*
X118426101Y-129984876D02*
X118399267Y-130025329D01*
X118055888Y-132255071D02*
X118049151Y-132304567D01*
X118032937Y-132499482D02*
X118035243Y-132524215D01*
X118033561Y-132423954D02*
X118032653Y-132436647D01*
X118034799Y-132411233D02*
X118034139Y-132417596D01*
X118130503Y-131706875D02*
X118105371Y-131891519D01*
X118333604Y-130214685D02*
X118333028Y-130218914D01*
X118526963Y-129882454D02*
X118490232Y-129913240D01*
X118456519Y-129947446D02*
X118426101Y-129984876D01*
X118264878Y-130719615D02*
X118239746Y-130904259D01*
X118032070Y-132449306D02*
X118031871Y-132474498D01*
X118036422Y-132398092D02*
X118036221Y-132399566D01*
X118566446Y-129855287D02*
X118526963Y-129882454D01*
X118675467Y-129804565D02*
X118663983Y-129808465D01*
X118036583Y-132396906D02*
X118036422Y-132398092D01*
X118049151Y-132304567D02*
X118043722Y-132344458D01*
X118357568Y-130114409D02*
X118333882Y-130212644D01*
X118399267Y-130025329D02*
X118357568Y-130114409D01*
X118082854Y-132056952D02*
X118063824Y-132196769D01*
X118330540Y-130237192D02*
X118326527Y-130266676D01*
X118321098Y-130306567D02*
X118314361Y-130356063D01*
X118083665Y-132686818D02*
X118107009Y-132728790D01*
X118287395Y-130554182D02*
X118264878Y-130719615D01*
X118043722Y-132344458D02*
X118041531Y-132360551D01*
X118064357Y-132642619D02*
X118083665Y-132686818D01*
X118032653Y-132436647D02*
X118032070Y-132449306D01*
X118333028Y-130218914D02*
X118331982Y-130226602D01*
X118063824Y-132196769D02*
X118055888Y-132255071D01*
X118212871Y-131101711D02*
X118185125Y-131305567D01*
X118239746Y-130904259D02*
X118212871Y-131101711D01*
X118641373Y-129817071D02*
X118630256Y-129821770D01*
X118034139Y-132417596D02*
X118033561Y-132423954D01*
X118037221Y-132392220D02*
X118036850Y-132394945D01*
X118587137Y-129843123D02*
X118566446Y-129855287D01*
X118331982Y-130226602D02*
X118330540Y-130237192D01*
X118652617Y-129812635D02*
X118641373Y-129817071D01*
X118630256Y-129821770D02*
X118608418Y-129831942D01*
X118049312Y-132596467D02*
X118064357Y-132642619D01*
X118038760Y-132548650D02*
X118049312Y-132596467D01*
X118031871Y-132474498D02*
X118032937Y-132499482D01*
X118039709Y-132373942D02*
X118038267Y-132384532D01*
X118333882Y-130212644D02*
X118333604Y-130214685D01*
X118105371Y-131891519D02*
X118082854Y-132056952D01*
X118314361Y-130356063D02*
X118306425Y-130414365D01*
X118185125Y-131305567D02*
X118157378Y-131509423D01*
X118035541Y-132404864D02*
X118034799Y-132411233D01*
X118036221Y-132399566D02*
X118035541Y-132404864D01*
X118326527Y-130266676D02*
X118321098Y-130306567D01*
X118608418Y-129831942D02*
X118587137Y-129843123D01*
X118036850Y-132394945D02*
X118036583Y-132396906D01*
X118663983Y-129808465D02*
X118652617Y-129812635D01*
X118035243Y-132524215D02*
X118038760Y-132548650D01*
X118038267Y-132384532D02*
X118037221Y-132392220D01*
X118041531Y-132360551D02*
X118039709Y-132373942D01*
X118687064Y-129800938D02*
X118681251Y-129802717D01*
X118692903Y-129799229D02*
X118687064Y-129800938D01*
X118712062Y-129794170D02*
X118708731Y-129794988D01*
X118695833Y-129798400D02*
X118692903Y-129799229D01*
X118861358Y-129781476D02*
X118834072Y-129780481D01*
X118697300Y-129797992D02*
X118695833Y-129798400D01*
X119062769Y-129838052D02*
X119051869Y-129832439D01*
X118699598Y-129797364D02*
X118699183Y-129797476D01*
X118703744Y-129796261D02*
X118702085Y-129796697D01*
X118994577Y-129808189D02*
X118994173Y-129808047D01*
X118718739Y-129792608D02*
X118715398Y-129793377D01*
X119003757Y-129811513D02*
X119000841Y-129810435D01*
X119029579Y-129821990D02*
X119018198Y-129817163D01*
X118806765Y-129780934D02*
X118793126Y-129781707D01*
X118985244Y-129805024D02*
X118981985Y-129803969D01*
X118702085Y-129796697D02*
X118700426Y-129797140D01*
X118725434Y-129791142D02*
X118718739Y-129792608D01*
X118793126Y-129781707D02*
X118779508Y-129782847D01*
X118732146Y-129789774D02*
X118725434Y-129791142D01*
X118765921Y-129784358D02*
X118752373Y-129786241D01*
X118779508Y-129782847D02*
X118765921Y-129784358D01*
X118962290Y-129798140D02*
X118955678Y-129796386D01*
X118942389Y-129793156D02*
X118929022Y-129790297D01*
X118888553Y-129783916D02*
X118861358Y-129781476D01*
X118902095Y-129785679D02*
X118888553Y-129783916D01*
X118915588Y-129787806D02*
X118902095Y-129785679D01*
X118978718Y-129802938D02*
X118975445Y-129801931D01*
X118993363Y-129807765D02*
X118992553Y-129807484D01*
X119104652Y-129862981D02*
X119084062Y-129850031D01*
X118991743Y-129807205D02*
X118990121Y-129806650D01*
X119051869Y-129832439D02*
X119040805Y-129827083D01*
X119084062Y-129850031D02*
X119062769Y-129838052D01*
X118929022Y-129790297D02*
X118915588Y-129787806D01*
X118992553Y-129807484D02*
X118991743Y-129807205D01*
X118981985Y-129803969D02*
X118978718Y-129802938D01*
X118988497Y-129806102D02*
X118985244Y-129805024D01*
X118994982Y-129808331D02*
X118994577Y-129808189D01*
X119196150Y-129940996D02*
X119161944Y-129907282D01*
X119124514Y-129876864D02*
X119104652Y-129862981D01*
X118997916Y-129809374D02*
X118996450Y-129808851D01*
X119000841Y-129810435D02*
X118997916Y-129809374D01*
X119018198Y-129817163D02*
X119012450Y-129814852D01*
X119040805Y-129827083D02*
X119029579Y-129821990D01*
X119161944Y-129907282D02*
X119124514Y-129876864D01*
X119012450Y-129814852D02*
X119006664Y-129812609D01*
X119226936Y-129977727D02*
X119196150Y-129940996D01*
X118705405Y-129795830D02*
X118703744Y-129796261D01*
X119006664Y-129812609D02*
X119003757Y-129811513D01*
X118955678Y-129796386D02*
X118942389Y-129793156D01*
X118698769Y-129797589D02*
X118697300Y-129797992D01*
X118975445Y-129801931D02*
X118968880Y-129799989D01*
X118699183Y-129797476D02*
X118698769Y-129797589D01*
X118700426Y-129797140D02*
X118699598Y-129797364D01*
X118715398Y-129793377D02*
X118712062Y-129794170D01*
X118738874Y-129788501D02*
X118732146Y-129789774D01*
X118752373Y-129786241D02*
X118738874Y-129788501D01*
X118990121Y-129806650D02*
X118988497Y-129806102D01*
X118834072Y-129780481D02*
X118806765Y-129780934D01*
X118968880Y-129799989D02*
X118962290Y-129798140D01*
X118996450Y-129808851D02*
X118994982Y-129808331D01*
X119254103Y-130017210D02*
X119226936Y-129977727D01*
X118708731Y-129794988D02*
X118705405Y-129795830D01*
X118994173Y-129808047D02*
X118993363Y-129807765D01*
X118681251Y-129802717D02*
X118675467Y-129804565D01*
X119322353Y-130197350D02*
X119311801Y-130149533D01*
X119328460Y-130309353D02*
X119329043Y-130296694D01*
X134891870Y-124029040D02*
X134891861Y-124028611D01*
X119027509Y-132531314D02*
X119028085Y-132527085D01*
X134891825Y-124027088D02*
X134891784Y-124025566D01*
X119324691Y-130347908D02*
X119324892Y-130346434D01*
X119296755Y-130103381D02*
X119277448Y-130059182D01*
X119329043Y-130296694D02*
X119329242Y-130271502D01*
X119324530Y-130349094D02*
X119324691Y-130347908D01*
X119311962Y-130441433D02*
X119317391Y-130401542D01*
X119148242Y-131644289D02*
X119175988Y-131440433D01*
X119027231Y-132533356D02*
X119027509Y-132531314D01*
X134851090Y-123841375D02*
X134830107Y-123798286D01*
X119297289Y-130549231D02*
X119305225Y-130490929D01*
X119054688Y-132331635D02*
X119073718Y-132191817D01*
X119327552Y-130322046D02*
X119328460Y-130309353D01*
X119305225Y-130490929D02*
X119311962Y-130441433D01*
X134830107Y-123798286D02*
X134805075Y-123757298D01*
X119326974Y-130328404D02*
X119327552Y-130322046D01*
X119203735Y-131236577D02*
X119230610Y-131039125D01*
X134776117Y-123718727D02*
X134743360Y-123682902D01*
X119322846Y-130361468D02*
X119323892Y-130353780D01*
X119046752Y-132389936D02*
X119054688Y-132331635D01*
X134874691Y-123909278D02*
X134867896Y-123886259D01*
X119325572Y-130341136D02*
X119326314Y-130334767D01*
X119324892Y-130346434D02*
X119325572Y-130341136D01*
X119255742Y-130854481D02*
X119278259Y-130689048D01*
X134743360Y-123682902D02*
X134667018Y-123620887D01*
X134667018Y-123620887D02*
X134577433Y-123574134D01*
X134884977Y-123956283D02*
X134880391Y-123932633D01*
X134891784Y-124025566D02*
X134891689Y-124022523D01*
X119323892Y-130353780D02*
X119324263Y-130351056D01*
X134867896Y-123886259D02*
X134851090Y-123841375D01*
X119321404Y-130372058D02*
X119322846Y-130361468D01*
X119096235Y-132026385D02*
X119121367Y-131841741D01*
X119030573Y-132508808D02*
X119034586Y-132479323D01*
X119319582Y-130385449D02*
X119321404Y-130372058D01*
X119317391Y-130401542D02*
X119319582Y-130385449D01*
X134888430Y-123980190D02*
X134886846Y-123968207D01*
X119073718Y-132191817D02*
X119096235Y-132026385D01*
X119278259Y-130689048D02*
X119297289Y-130549231D01*
X119028085Y-132527085D02*
X119029131Y-132519398D01*
X119277448Y-130059182D02*
X119254103Y-130017210D01*
X119121367Y-131841741D02*
X119148242Y-131644289D01*
X134891124Y-124010373D02*
X134890731Y-124004313D01*
X134891444Y-124016443D02*
X134891124Y-124010373D01*
X119311801Y-130149533D02*
X119296755Y-130103381D01*
X119325870Y-130221786D02*
X119322353Y-130197350D01*
X119230610Y-131039125D02*
X119255742Y-130854481D01*
X119175988Y-131440433D02*
X119203735Y-131236577D01*
X134886846Y-123968207D02*
X134884977Y-123956283D01*
X119029131Y-132519398D02*
X119030573Y-132508808D01*
X134891689Y-124022523D02*
X134891444Y-124016443D01*
X134889726Y-123992227D02*
X134888430Y-123980190D01*
X119328176Y-130246518D02*
X119325870Y-130221786D01*
X119034586Y-132479323D02*
X119040015Y-132439433D01*
X119329242Y-130271502D02*
X119328176Y-130246518D01*
X134890731Y-124004313D02*
X134889726Y-123992227D01*
X134880391Y-123932633D02*
X134874691Y-123909278D01*
X134891861Y-124028611D02*
X134891825Y-124027088D01*
X119324263Y-130351056D02*
X119324530Y-130349094D01*
X134805075Y-123757298D02*
X134776117Y-123718727D01*
X119326314Y-130334767D02*
X119326974Y-130328404D01*
X119040015Y-132439433D02*
X119046752Y-132389936D01*
X122884249Y-115267664D02*
X122952986Y-115363436D01*
X122773202Y-115112939D02*
X122787908Y-115133429D01*
X122683794Y-114643460D02*
X122677125Y-114666516D01*
X122730448Y-114538882D02*
X122727382Y-114544137D01*
X122828853Y-115190479D02*
X122884249Y-115267664D01*
X122787908Y-115133429D02*
X122828853Y-115190479D01*
X122758742Y-115092792D02*
X122762525Y-115098064D01*
X122762525Y-115098064D02*
X122773202Y-115112939D01*
X122756018Y-115088996D02*
X122758742Y-115092792D01*
X122754531Y-115086925D02*
X122756018Y-115088996D01*
X122691567Y-114620711D02*
X122683794Y-114643460D01*
X122705283Y-114587259D02*
X122700437Y-114598313D01*
X122660621Y-114809012D02*
X122664253Y-114857106D01*
X122664253Y-114857106D02*
X122672566Y-114904932D01*
X122667119Y-114713387D02*
X122661598Y-114760994D01*
X122753818Y-115085931D02*
X122754531Y-115086925D01*
X122710400Y-114576309D02*
X122705283Y-114587259D01*
X122715790Y-114565468D02*
X122710400Y-114576309D01*
X122721451Y-114554742D02*
X122715790Y-114565468D01*
X122677125Y-114666516D02*
X122667119Y-114713387D01*
X122672566Y-114904932D02*
X122703504Y-114998297D01*
X122703504Y-114998297D02*
X122753818Y-115085931D01*
X122732792Y-114534961D02*
X122732007Y-114536266D01*
X122727382Y-114544137D02*
X122724382Y-114549424D01*
X122661598Y-114760994D02*
X122660621Y-114809012D01*
X122724382Y-114549424D02*
X122721451Y-114554742D01*
X122732007Y-114536266D02*
X122730448Y-114538882D01*
X122700437Y-114598313D02*
X122691567Y-114620711D01*
X126396588Y-119481612D02*
X126398012Y-119480984D01*
X126364918Y-119494211D02*
X126376502Y-119489894D01*
X126353264Y-119498227D02*
X126364918Y-119494211D01*
X125838297Y-119373669D02*
X125856245Y-119391084D01*
X125821127Y-119355233D02*
X125838297Y-119373669D01*
X125658891Y-119133636D02*
X125714287Y-119210821D01*
X123033950Y-115476245D02*
X123124363Y-115602219D01*
X123124363Y-115602219D02*
X123228115Y-115746781D01*
X122952986Y-115363436D02*
X123033950Y-115476245D01*
X125780615Y-119303237D02*
X125784398Y-119308509D01*
X123988474Y-116806206D02*
X124129281Y-117002395D01*
X124129281Y-117002395D02*
X124271570Y-117200650D01*
X123714270Y-116424152D02*
X123849148Y-116612081D01*
X123849148Y-116612081D02*
X123988474Y-116806206D01*
X126400219Y-119480003D02*
X126401001Y-119479652D01*
X126329770Y-119505356D02*
X126341546Y-119501942D01*
X126306071Y-119511290D02*
X126329770Y-119505356D01*
X126258245Y-119519603D02*
X126282214Y-119516036D01*
X126282214Y-119516036D02*
X126306071Y-119511290D01*
X125714287Y-119210821D02*
X125736636Y-119241960D01*
X126162133Y-119522258D02*
X126210151Y-119523235D01*
X125977447Y-119473456D02*
X126021850Y-119492290D01*
X125315025Y-118654520D02*
X125417110Y-118796758D01*
X126021850Y-119492290D02*
X126067655Y-119506732D01*
X126114525Y-119516738D02*
X126162133Y-119522258D01*
X125856245Y-119391084D02*
X125894268Y-119422795D01*
X125793103Y-119320567D02*
X125796941Y-119325704D01*
X125736636Y-119241960D02*
X125755232Y-119267871D01*
X125804786Y-119335794D02*
X125812850Y-119345638D01*
X126414956Y-119473091D02*
X126418025Y-119471573D01*
X125788770Y-119314599D02*
X125789953Y-119316248D01*
X126411875Y-119474588D02*
X126414956Y-119473091D01*
X125590155Y-119037864D02*
X125658891Y-119133636D01*
X125934797Y-119450274D02*
X125977447Y-119473456D01*
X123228115Y-115746781D02*
X123337796Y-115899602D01*
X123337796Y-115899602D02*
X123457853Y-116066880D01*
X125085287Y-118334421D02*
X125205343Y-118501698D01*
X125205343Y-118501698D02*
X125315025Y-118654520D01*
X126067655Y-119506732D02*
X126114525Y-119516738D01*
X126408782Y-119476062D02*
X126411875Y-119474588D01*
X126405678Y-119477515D02*
X126408782Y-119476062D01*
X126404122Y-119478233D02*
X126405678Y-119477515D01*
X126399436Y-119480353D02*
X126399827Y-119480178D01*
X126393734Y-119482852D02*
X126396588Y-119481612D01*
X125894268Y-119422795D02*
X125934797Y-119450274D01*
X125796941Y-119325704D02*
X125804786Y-119335794D01*
X125417110Y-118796758D02*
X125509191Y-118925055D01*
X124828870Y-117977149D02*
X124960784Y-118160947D01*
X124960784Y-118160947D02*
X125085287Y-118334421D01*
X123457853Y-116066880D02*
X123647942Y-116331735D01*
X123647942Y-116331735D02*
X123714270Y-116424152D01*
X125787123Y-119312304D02*
X125788770Y-119314599D01*
X126402563Y-119478945D02*
X126404122Y-119478233D01*
X126401782Y-119479299D02*
X126402563Y-119478945D01*
X126399827Y-119480178D02*
X126400219Y-119480003D01*
X125784398Y-119308509D02*
X125787123Y-119312304D01*
X126382266Y-119487622D02*
X126388010Y-119485275D01*
X124271570Y-117200650D02*
X124413859Y-117398905D01*
X124413859Y-117398905D02*
X124554667Y-117595095D01*
X125509191Y-118925055D02*
X125590155Y-119037864D01*
X125755232Y-119267871D02*
X125769938Y-119288361D01*
X126401001Y-119479652D02*
X126401782Y-119479299D01*
X126398012Y-119480984D02*
X126399436Y-119480353D01*
X126390875Y-119484073D02*
X126393734Y-119482852D01*
X125789953Y-119316248D02*
X125793103Y-119320567D01*
X126388010Y-119485275D02*
X126390875Y-119484073D01*
X124554667Y-117595095D02*
X124693991Y-117789219D01*
X124693991Y-117789219D02*
X124828870Y-117977149D01*
X126376502Y-119489894D02*
X126382266Y-119487622D01*
X125769938Y-119288361D02*
X125780615Y-119303237D01*
X126341546Y-119501942D02*
X126353264Y-119498227D01*
X126210151Y-119523235D02*
X126258245Y-119519603D01*
X125812850Y-119345638D02*
X125821127Y-119355233D01*
X123517260Y-114444554D02*
X123499312Y-114427139D01*
X124270270Y-115483802D02*
X124150213Y-115316524D01*
X124150213Y-115316524D02*
X124040532Y-115163703D01*
X123568434Y-114505918D02*
X123566787Y-114503623D01*
X123565604Y-114501974D02*
X123562454Y-114497656D01*
X123846366Y-114893167D02*
X123765402Y-114780358D01*
X123696666Y-114684586D02*
X123641270Y-114607401D01*
X123420760Y-114367948D02*
X123378110Y-114344766D01*
X123499312Y-114427139D02*
X123461289Y-114395428D01*
X123585619Y-114529861D02*
X123574942Y-114514985D01*
X123542707Y-114472584D02*
X123534430Y-114462989D01*
X123938447Y-115021465D02*
X123846366Y-114893167D01*
X123618921Y-114576263D02*
X123600325Y-114550351D01*
X123641270Y-114607401D02*
X123618921Y-114576263D01*
X123562454Y-114497656D02*
X123558616Y-114492519D01*
X123550771Y-114482429D02*
X123542707Y-114472584D01*
X123566787Y-114503623D02*
X123565604Y-114501974D01*
X122973291Y-114330600D02*
X122967547Y-114332948D01*
X123002293Y-114319996D02*
X122990639Y-114324011D01*
X124800890Y-116223127D02*
X124661565Y-116029003D01*
X124661565Y-116029003D02*
X124526687Y-115841074D01*
X123287902Y-114311491D02*
X123241032Y-114301485D01*
X124040532Y-115163703D02*
X123938447Y-115021465D01*
X123025787Y-114312866D02*
X123014011Y-114316281D01*
X122979055Y-114328328D02*
X122973291Y-114330600D01*
X122990639Y-114324011D02*
X122979055Y-114328328D01*
X123014011Y-114316281D02*
X123002293Y-114319996D01*
X123049486Y-114306932D02*
X123025787Y-114312866D01*
X123073343Y-114302186D02*
X123049486Y-114306932D01*
X123097312Y-114298619D02*
X123073343Y-114302186D01*
X123765402Y-114780358D02*
X123696666Y-114684586D01*
X123333707Y-114325933D02*
X123287902Y-114311491D01*
X125367083Y-117012017D02*
X125226276Y-116815827D01*
X125226276Y-116815827D02*
X125083987Y-116617572D01*
X123145406Y-114294987D02*
X123097312Y-114298619D01*
X123193424Y-114295964D02*
X123145406Y-114294987D01*
X125641287Y-117394071D02*
X125506408Y-117206141D01*
X125506408Y-117206141D02*
X125367083Y-117012017D01*
X123241032Y-114301485D02*
X123193424Y-114295964D01*
X123378110Y-114344766D02*
X123333707Y-114325933D01*
X123534430Y-114462989D02*
X123517260Y-114444554D01*
X123571159Y-114509714D02*
X123568434Y-114505918D01*
X123600325Y-114550351D02*
X123585619Y-114529861D01*
X124526687Y-115841074D02*
X124394773Y-115657274D01*
X124394773Y-115657274D02*
X124270270Y-115483802D01*
X123461289Y-114395428D02*
X123420760Y-114367948D01*
X123558616Y-114492519D02*
X123550771Y-114482429D01*
X123574942Y-114514985D02*
X123571159Y-114509714D01*
X126127442Y-118071442D02*
X126017760Y-117918620D01*
X126017760Y-117918620D02*
X125897704Y-117751343D01*
X125083987Y-116617572D02*
X124941697Y-116419317D01*
X124941697Y-116419317D02*
X124800890Y-116223127D01*
X125897704Y-117751343D02*
X125773200Y-117577869D01*
X125773200Y-117577869D02*
X125641287Y-117394071D01*
X134891663Y-124056043D02*
X134891862Y-124049193D01*
X134889901Y-124083368D02*
X134890974Y-124069723D01*
X134888450Y-124096969D02*
X134889901Y-124083368D01*
X134884439Y-124124007D02*
X134886628Y-124110518D01*
X134824173Y-124290113D02*
X134827561Y-124284167D01*
X134881889Y-124137427D02*
X134884439Y-124124007D01*
X134843221Y-124253785D02*
X134848889Y-124241353D01*
X134827561Y-124284167D02*
X134830864Y-124278176D01*
X134891367Y-124062887D02*
X134891663Y-124056043D01*
X134830864Y-124278176D02*
X134837213Y-124266063D01*
X134859204Y-124216063D02*
X134868153Y-124190266D01*
X134891879Y-124029469D02*
X134891870Y-124029040D01*
X134891896Y-124030328D02*
X134891879Y-124029469D01*
X134891924Y-124032044D02*
X134891896Y-124030328D01*
X134891962Y-124042337D02*
X134891974Y-124038907D01*
X134891924Y-124045765D02*
X134891962Y-124042337D01*
X134891862Y-124049193D02*
X134891924Y-124045765D01*
X134854217Y-124228776D02*
X134859204Y-124216063D01*
X134837213Y-124266063D02*
X134843221Y-124253785D01*
X134891946Y-124033760D02*
X134891924Y-124032044D01*
X134886628Y-124110518D02*
X134888450Y-124096969D01*
X134868153Y-124190266D02*
X134875721Y-124164032D01*
X134875721Y-124164032D02*
X134881889Y-124137427D01*
X134891974Y-124038907D02*
X134891962Y-124035476D01*
X134890974Y-124069723D02*
X134891367Y-124062887D01*
X134848889Y-124241353D02*
X134854217Y-124228776D01*
X134891962Y-124035476D02*
X134891946Y-124033760D01*
X134820700Y-124296013D02*
X134824173Y-124290113D01*
X134811172Y-124311270D02*
X134811639Y-124310551D01*
X134810704Y-124311988D02*
X134811172Y-124311270D01*
X134809763Y-124313421D02*
X134809998Y-124313063D01*
X134810234Y-124312705D02*
X134810704Y-124311988D01*
X134808903Y-124314720D02*
X134809763Y-124313421D01*
X132617903Y-123868882D02*
X132797204Y-123940430D01*
X132797204Y-123940430D02*
X132970783Y-124009695D01*
X134809998Y-124313063D02*
X134810234Y-124312705D01*
X134806303Y-124318597D02*
X134808040Y-124316016D01*
X134788138Y-124343686D02*
X134795575Y-124333810D01*
X134802785Y-124323721D02*
X134804552Y-124321165D01*
X134795575Y-124333810D02*
X134799209Y-124328792D01*
X134139009Y-124475862D02*
X134162942Y-124485412D01*
X134780480Y-124353345D02*
X134788138Y-124343686D01*
X134772606Y-124362784D02*
X134780480Y-124353345D01*
X134730200Y-124406609D02*
X134747747Y-124389764D01*
X134589274Y-124497493D02*
X134632363Y-124476511D01*
X134303974Y-124530684D02*
X134328529Y-124534431D01*
X134203982Y-124501789D02*
X134206102Y-124502635D01*
X134632363Y-124476511D02*
X134673352Y-124451478D01*
X134110249Y-124464385D02*
X134139009Y-124475862D01*
X134212798Y-124505262D02*
X134218797Y-124507524D01*
X134402038Y-124538264D02*
X134450460Y-124534833D01*
X133950499Y-124400639D02*
X134038958Y-124435937D01*
X133596428Y-124259351D02*
X133727804Y-124311775D01*
X134450460Y-124534833D02*
X134498017Y-124526794D01*
X134195607Y-124498447D02*
X134200476Y-124500390D01*
X134162942Y-124485412D02*
X134181868Y-124492964D01*
X134038958Y-124435937D02*
X134110249Y-124464385D01*
X134279474Y-124525674D02*
X134303974Y-124530684D01*
X134200476Y-124500390D02*
X134203982Y-124501789D01*
X134673352Y-124451478D02*
X134711923Y-124422521D01*
X134544391Y-124514300D02*
X134589274Y-124497493D01*
X134498017Y-124526794D02*
X134544391Y-124514300D01*
X134353089Y-124536932D02*
X134402038Y-124538264D01*
X134255079Y-124519384D02*
X134279474Y-124525674D01*
X134242937Y-124515756D02*
X134255079Y-124519384D01*
X131206387Y-123305633D02*
X131366613Y-123369569D01*
X131366613Y-123369569D02*
X131536376Y-123437311D01*
X134224812Y-124509704D02*
X134230841Y-124511803D01*
X134218797Y-124507524D02*
X134224812Y-124509704D01*
X132253580Y-123723503D02*
X132436695Y-123796573D01*
X132436695Y-123796573D02*
X132617903Y-123868882D01*
X133846305Y-124359062D02*
X133950499Y-124400639D01*
X134207819Y-124503320D02*
X134212798Y-124505262D01*
X134181868Y-124492964D02*
X134195607Y-124498447D01*
X131536376Y-123437311D02*
X131709955Y-123506575D01*
X131709955Y-123506575D02*
X131889256Y-123578124D01*
X133300772Y-124141373D02*
X133455276Y-124203026D01*
X133455276Y-124203026D02*
X133596428Y-124259351D01*
X134818931Y-124298946D02*
X134820700Y-124296013D01*
X134206102Y-124502635D02*
X134207819Y-124503320D01*
X134817140Y-124301866D02*
X134818931Y-124298946D01*
X134328529Y-124534431D02*
X134353089Y-124536932D01*
X134764522Y-124372003D02*
X134772606Y-124362784D01*
X134799209Y-124328792D02*
X134802785Y-124323721D01*
X134230841Y-124511803D02*
X134242937Y-124515756D01*
X134815328Y-124304773D02*
X134817140Y-124301866D01*
X134813494Y-124307669D02*
X134815328Y-124304773D01*
X134808040Y-124316016D02*
X134808903Y-124314720D01*
X134804552Y-124321165D02*
X134806303Y-124318597D01*
X130910731Y-123187655D02*
X131206387Y-123305633D01*
X132970783Y-124009695D02*
X133140546Y-124077437D01*
X133140546Y-124077437D02*
X133300772Y-124141373D01*
X134812570Y-124309112D02*
X134813494Y-124307669D01*
X134811639Y-124310551D02*
X134812570Y-124309112D01*
X134747747Y-124389764D02*
X134764522Y-124372003D01*
X133727804Y-124311775D02*
X133846305Y-124359062D01*
X131889256Y-123578124D02*
X132070463Y-123650433D01*
X132070463Y-123650433D02*
X132253580Y-123723503D01*
X134711923Y-124422521D02*
X134730200Y-124406609D01*
X130068876Y-122203502D02*
X130068016Y-122204800D01*
X130073227Y-122197056D02*
X130071476Y-122199624D01*
X130147580Y-122111613D02*
X130130032Y-122128458D01*
X130074994Y-122194501D02*
X130073227Y-122197056D01*
X130097299Y-122164877D02*
X130089641Y-122174536D01*
X130113257Y-122146219D02*
X130105173Y-122155437D01*
X130333389Y-122003922D02*
X130288505Y-122020729D01*
X130427320Y-121983389D02*
X130379763Y-121991428D01*
X130067781Y-122205159D02*
X130067545Y-122205517D01*
X130245416Y-122041711D02*
X130204428Y-122066743D01*
X130069739Y-122202206D02*
X130068876Y-122203502D01*
X130078570Y-122189430D02*
X130074994Y-122194501D01*
X130204428Y-122066743D02*
X130165856Y-122095701D01*
X130082204Y-122184411D02*
X130078570Y-122189430D01*
X130165856Y-122095701D02*
X130147580Y-122111613D01*
X130379763Y-121991428D02*
X130333389Y-122003922D01*
X130288505Y-122020729D02*
X130245416Y-122041711D01*
X130475741Y-121979958D02*
X130427320Y-121983389D01*
X130071476Y-122199624D02*
X130069739Y-122202206D01*
X130130032Y-122128458D02*
X130113257Y-122146219D01*
X130065209Y-122209110D02*
X130064285Y-122210553D01*
X130067545Y-122205517D02*
X130067075Y-122206234D01*
X130066140Y-122207670D02*
X130065209Y-122209110D01*
X130089641Y-122174536D02*
X130082204Y-122184411D01*
X130105173Y-122155437D02*
X130097299Y-122164877D01*
X130066607Y-122206952D02*
X130066140Y-122207670D01*
X130067075Y-122206234D02*
X130066607Y-122206952D01*
X130068016Y-122204800D02*
X130067781Y-122205159D01*
X129986335Y-122501779D02*
X129986655Y-122507849D01*
X129985917Y-122469029D02*
X129985855Y-122472457D01*
X130047672Y-122719936D02*
X130072704Y-122760924D01*
X130003088Y-122608944D02*
X130009883Y-122631963D01*
X129990933Y-122550016D02*
X129992802Y-122561939D01*
X129986090Y-122495700D02*
X129986335Y-122501779D01*
X129985883Y-122487895D02*
X129985900Y-122488753D01*
X130023562Y-122289446D02*
X130018574Y-122302158D01*
X130058848Y-122219276D02*
X130057079Y-122222208D01*
X129985954Y-122491134D02*
X129985995Y-122492656D01*
X129985918Y-122489611D02*
X129985954Y-122491134D01*
X130660855Y-123087944D02*
X130910731Y-123187655D01*
X130556660Y-123046367D02*
X130660855Y-123087944D01*
X130468202Y-123011069D02*
X130556660Y-123046367D01*
X130396910Y-122982621D02*
X130468202Y-123011069D01*
X129985805Y-122479316D02*
X129985817Y-122482747D01*
X130325292Y-122954042D02*
X130344217Y-122961594D01*
X130300346Y-122944088D02*
X130301264Y-122944454D01*
X130101662Y-122799495D02*
X130134419Y-122835320D01*
X129995890Y-122380795D02*
X129993340Y-122394216D01*
X130046915Y-122240046D02*
X130040566Y-122252159D01*
X129985855Y-122472457D02*
X129985817Y-122475886D01*
X130026689Y-122676847D02*
X130047672Y-122719936D01*
X130040566Y-122252159D02*
X130034558Y-122264436D01*
X130344217Y-122961594D02*
X130396910Y-122982621D01*
X129986412Y-122455335D02*
X129986116Y-122462179D01*
X130018574Y-122302158D02*
X130009626Y-122327956D01*
X130072704Y-122760924D02*
X130101662Y-122799495D01*
X129987878Y-122434854D02*
X129986805Y-122448499D01*
X129997388Y-122585590D02*
X130003088Y-122608944D01*
X129985900Y-122488753D02*
X129985909Y-122489182D01*
X129985833Y-122484462D02*
X129985855Y-122486178D01*
X130311552Y-122948559D02*
X130325292Y-122954042D01*
X130306683Y-122946616D02*
X130311552Y-122948559D01*
X129992802Y-122561939D02*
X129997388Y-122585590D01*
X130002058Y-122354190D02*
X129995890Y-122380795D01*
X130057079Y-122222208D02*
X130053606Y-122228108D01*
X129986116Y-122462179D02*
X129985917Y-122469029D01*
X129985817Y-122475886D02*
X129985805Y-122479316D01*
X130303177Y-122945217D02*
X130306683Y-122946616D01*
X130028890Y-122276868D02*
X130023562Y-122289446D01*
X130009883Y-122631963D02*
X130026689Y-122676847D01*
X129985909Y-122489182D02*
X129985918Y-122489611D01*
X129985817Y-122482747D02*
X129985833Y-122484462D01*
X130301264Y-122944454D02*
X130303177Y-122945217D01*
X129989349Y-122538033D02*
X129990933Y-122550016D01*
X130210761Y-122897335D02*
X130300346Y-122944088D01*
X129986655Y-122507849D02*
X129987048Y-122513909D01*
X130134419Y-122835320D02*
X130210761Y-122897335D01*
X129987048Y-122513909D02*
X129988053Y-122525995D01*
X129985995Y-122492656D02*
X129986090Y-122495700D01*
X130034558Y-122264436D02*
X130028890Y-122276868D01*
X129993340Y-122394216D02*
X129991151Y-122407704D01*
X129988053Y-122525995D02*
X129989349Y-122538033D01*
X129989329Y-122421253D02*
X129987878Y-122434854D01*
X129991151Y-122407704D02*
X129989329Y-122421253D01*
X130064285Y-122210553D02*
X130062451Y-122213448D01*
X130050218Y-122234055D02*
X130046915Y-122240046D01*
X130053606Y-122228108D02*
X130050218Y-122234055D01*
X130062451Y-122213448D02*
X130060639Y-122216356D01*
X129985855Y-122486178D02*
X129985883Y-122487895D01*
X129986805Y-122448499D02*
X129986412Y-122455335D01*
X130009626Y-122327956D02*
X130002058Y-122354190D01*
X130060639Y-122216356D02*
X130058848Y-122219276D01*
X121388125Y-102430659D02*
X121366572Y-102419581D01*
X121196374Y-102372278D02*
X121182744Y-102371248D01*
X121209977Y-102373685D02*
X121196374Y-102372278D01*
X121243807Y-102378887D02*
X121240439Y-102378257D01*
X121250533Y-102380221D02*
X121250113Y-102380135D01*
X121253581Y-102380859D02*
X121252058Y-102380538D01*
X121429315Y-102455751D02*
X121388125Y-102430659D01*
X121033592Y-102384030D02*
X121020332Y-102387359D01*
X121467756Y-102484543D02*
X121429315Y-102455751D01*
X121250113Y-102380135D02*
X121249693Y-102380049D01*
X121321710Y-102400528D02*
X121310152Y-102396436D01*
X121046931Y-102381064D02*
X121033592Y-102384030D01*
X121262685Y-102382884D02*
X121259657Y-102382191D01*
X121268721Y-102384326D02*
X121262685Y-102382884D01*
X121169097Y-102370591D02*
X121155441Y-102370303D01*
X121216766Y-102374532D02*
X121209977Y-102373685D01*
X121298466Y-102392622D02*
X121286657Y-102389089D01*
X121248013Y-102379709D02*
X121247172Y-102379542D01*
X121286657Y-102389089D02*
X121274728Y-102385841D01*
X121259657Y-102382191D02*
X121256623Y-102381516D01*
X121503214Y-102516787D02*
X121467756Y-102484543D01*
X121230312Y-102376515D02*
X121223545Y-102375475D01*
X121245490Y-102379211D02*
X121243807Y-102378887D01*
X121233691Y-102377071D02*
X121230312Y-102376515D01*
X121256623Y-102381516D02*
X121253581Y-102380859D01*
X121589342Y-102631876D02*
X121564250Y-102590685D01*
X121344423Y-102409526D02*
X121321710Y-102400528D01*
X121060341Y-102378458D02*
X121046931Y-102381064D01*
X121087337Y-102374327D02*
X121060341Y-102378458D01*
X121114508Y-102371633D02*
X121087337Y-102374327D01*
X121141785Y-102370383D02*
X121114508Y-102371633D01*
X121182744Y-102371248D02*
X121169097Y-102370591D01*
X121248853Y-102379878D02*
X121248013Y-102379709D01*
X121366572Y-102419581D02*
X121344423Y-102409526D01*
X121223545Y-102375475D02*
X121216766Y-102374532D01*
X121252058Y-102380538D02*
X121250533Y-102380221D01*
X121247172Y-102379542D02*
X121245490Y-102379211D01*
X121310152Y-102396436D02*
X121298466Y-102392622D01*
X121564250Y-102590685D02*
X121535458Y-102552245D01*
X121535458Y-102552245D02*
X121503214Y-102516787D01*
X121237067Y-102377652D02*
X121233691Y-102377071D01*
X121249693Y-102380049D02*
X121248853Y-102379878D01*
X121155441Y-102370303D02*
X121141785Y-102370383D01*
X121610474Y-102675578D02*
X121589342Y-102631876D01*
X121240439Y-102378257D02*
X121237067Y-102377652D01*
X121274728Y-102385841D02*
X121268721Y-102384326D01*
X121056194Y-109567113D02*
X121059563Y-109567743D01*
X121031281Y-109561673D02*
X121037316Y-109563115D01*
X121059563Y-109567743D02*
X121062935Y-109568348D01*
X121054511Y-109566788D02*
X121056194Y-109567113D01*
X121043379Y-109564484D02*
X121046420Y-109565140D01*
X121062935Y-109568348D02*
X121066311Y-109568929D01*
X121051989Y-109566290D02*
X121052829Y-109566458D01*
X121051148Y-109566121D02*
X121051989Y-109566290D01*
X120955579Y-109536474D02*
X120978292Y-109545471D01*
X121049888Y-109565865D02*
X121050308Y-109565951D01*
X121040344Y-109563809D02*
X121043379Y-109564484D01*
X121037316Y-109563115D02*
X121040344Y-109563809D01*
X121001535Y-109553378D02*
X121013345Y-109556911D01*
X121046420Y-109565140D02*
X121047944Y-109565462D01*
X121013345Y-109556911D02*
X121025273Y-109560158D01*
X121025273Y-109560158D02*
X121031281Y-109561673D01*
X121050308Y-109565951D02*
X121051148Y-109566121D01*
X121049468Y-109565778D02*
X121049888Y-109565865D01*
X121047944Y-109565462D02*
X121049468Y-109565778D01*
X121052829Y-109566458D02*
X121054511Y-109566788D01*
X120989849Y-109549563D02*
X121001535Y-109553378D01*
X120978292Y-109545471D02*
X120989849Y-109549563D01*
X120933429Y-109526419D02*
X120955579Y-109536474D01*
X121650000Y-108503279D02*
X121650000Y-108106313D01*
X121650000Y-109058198D02*
X121650000Y-109036370D01*
X121639779Y-109176532D02*
X121650000Y-109076001D01*
X121650000Y-109074542D02*
X121650000Y-109071503D01*
X121650000Y-108922593D02*
X121650000Y-108809337D01*
X121589342Y-109314124D02*
X121610474Y-109270422D01*
X121650000Y-107112383D02*
X121650000Y-106551783D01*
X121650000Y-107636621D02*
X121650000Y-107112383D01*
X121650000Y-108968284D02*
X121650000Y-108922593D01*
X121650000Y-108668808D02*
X121650000Y-108503279D01*
X121650000Y-108809337D02*
X121650000Y-108668808D01*
X121650000Y-109065933D02*
X121650000Y-109058198D01*
X121650000Y-109071503D02*
X121650000Y-109065933D01*
X121564250Y-109355314D02*
X121589342Y-109314124D01*
X121610474Y-109270422D02*
X121639779Y-109176532D01*
X121650000Y-105394218D02*
X121650000Y-104833617D01*
X121650000Y-104833617D02*
X121650000Y-104309380D01*
X121650000Y-109006304D02*
X121650000Y-108968284D01*
X121650000Y-105973000D02*
X121650000Y-105394218D01*
X121650000Y-109076001D02*
X121650000Y-109074542D01*
X121650000Y-109036370D02*
X121650000Y-109006304D01*
X121650000Y-106551783D02*
X121650000Y-105973000D01*
X121650000Y-108106313D02*
X121650000Y-107636621D01*
X121650000Y-103023407D02*
X121650000Y-102977716D01*
X121650000Y-102871130D02*
X121650000Y-102868920D01*
X121650000Y-102887803D02*
X121650000Y-102880067D01*
X121649837Y-102857162D02*
X121649347Y-102844391D01*
X121650000Y-102939696D02*
X121650000Y-102909630D01*
X121650000Y-102880067D02*
X121650000Y-102874498D01*
X121650000Y-102977716D02*
X121650000Y-102939696D01*
X121650000Y-103277193D02*
X121650000Y-103136664D01*
X121650000Y-103136664D02*
X121650000Y-103023407D01*
X121650000Y-103442722D02*
X121650000Y-103277193D01*
X121644206Y-102794080D02*
X121639779Y-102769468D01*
X121650000Y-103839687D02*
X121650000Y-103630977D01*
X121650000Y-102874498D02*
X121650000Y-102871130D01*
X121649959Y-102863573D02*
X121649837Y-102857162D01*
X121627378Y-102721535D02*
X121610474Y-102675578D01*
X121649347Y-102844391D02*
X121648535Y-102831691D01*
X121639779Y-102769468D02*
X121627378Y-102721535D01*
X121648535Y-102831691D02*
X121647405Y-102819069D01*
X121647405Y-102819069D02*
X121644206Y-102794080D01*
X121650000Y-102868920D02*
X121649959Y-102863573D01*
X121650000Y-102909630D02*
X121650000Y-102887803D01*
X121650000Y-103630977D02*
X121650000Y-103442722D01*
X121650000Y-104309380D02*
X121650000Y-103839687D01*
X120650000Y-102880067D02*
X120650000Y-102887803D01*
X120650000Y-102874498D02*
X120650000Y-102880067D01*
X120650000Y-102871458D02*
X120650000Y-102874498D01*
X120650000Y-102870000D02*
X120650000Y-102871458D01*
M02*
