G04 #@! TF.GenerationSoftware,KiCad,Pcbnew,(5.1.2)-1*
G04 #@! TF.CreationDate,2019-05-11T17:28:29-07:00*
G04 #@! TF.ProjectId,ExportTemplate,4578706f-7274-4546-956d-706c6174652e,rev?*
G04 #@! TF.SameCoordinates,Original*
G04 #@! TF.FileFunction,Profile,NP*
%FSLAX46Y46*%
G04 Gerber Fmt 4.6, Leading zero omitted, Abs format (unit mm)*
G04 Created by KiCad (PCBNEW (5.1.2)-1) date 2019-05-11 17:28:29*
%MOMM*%
%LPD*%
G04 APERTURE LIST*
%ADD10C,0.200000*%
G04 APERTURE END LIST*
D10*
X113599278Y-97046090D02*
X113588235Y-97054176D01*
X113443190Y-97124672D02*
X113420036Y-97130993D01*
X113466053Y-97117243D02*
X113443190Y-97124672D01*
X113488582Y-97108711D02*
X113466053Y-97117243D01*
X113746895Y-96869329D02*
X113745353Y-96872387D01*
X113499708Y-97104033D02*
X113488582Y-97108711D01*
X113537826Y-97085505D02*
X113532465Y-97088356D01*
X113630977Y-97020080D02*
X113620653Y-97029033D01*
X113610085Y-97037706D02*
X113599278Y-97046090D01*
X113553729Y-97076544D02*
X113552414Y-97077314D01*
X113555207Y-97075671D02*
X113554468Y-97076108D01*
X113620653Y-97029033D02*
X113610085Y-97037706D01*
X113678780Y-96971392D02*
X113660442Y-96991622D01*
X113733958Y-96893457D02*
X113726991Y-96905225D01*
X113696020Y-96950218D02*
X113678780Y-96971392D01*
X113712111Y-96928148D02*
X113704213Y-96939292D01*
X113726991Y-96905225D02*
X113719706Y-96916791D01*
X113751758Y-96859308D02*
X113751392Y-96860083D01*
X113755431Y-96851314D02*
X113754148Y-96854149D01*
X113753500Y-96855564D02*
X113752847Y-96856978D01*
X113510734Y-97099081D02*
X113499708Y-97104033D01*
X113532465Y-97088356D02*
X113521655Y-97093855D01*
X113543158Y-97082586D02*
X113537826Y-97085505D01*
X113743788Y-96875433D02*
X113740596Y-96881490D01*
X113558153Y-97073909D02*
X113556682Y-97074793D01*
X113548459Y-97079599D02*
X113543158Y-97082586D01*
X113551098Y-97078080D02*
X113548459Y-97079599D01*
X113552414Y-97077314D02*
X113551098Y-97078080D01*
X113660442Y-96991622D02*
X113641053Y-97010855D01*
X113752122Y-96858532D02*
X113751758Y-96859308D01*
X113752485Y-96857755D02*
X113752122Y-96858532D01*
X113554468Y-97076108D02*
X113554098Y-97076326D01*
X113562546Y-97071228D02*
X113559621Y-97073021D01*
X113565457Y-97069414D02*
X113562546Y-97071228D01*
X113568354Y-97067579D02*
X113565457Y-97069414D01*
X113571237Y-97065725D02*
X113568354Y-97067579D01*
X113737318Y-96887498D02*
X113733958Y-96893457D01*
X113756695Y-96848474D02*
X113755431Y-96851314D01*
X113704213Y-96939292D02*
X113696020Y-96950218D01*
X113582627Y-97058105D02*
X113576961Y-97061954D01*
X113745353Y-96872387D02*
X113743788Y-96875433D01*
X113740596Y-96881490D02*
X113737318Y-96887498D01*
X113749915Y-96863177D02*
X113748416Y-96866259D01*
X113521655Y-97093855D02*
X113510734Y-97099081D01*
X113559621Y-97073021D02*
X113558153Y-97073909D01*
X113748416Y-96866259D02*
X113746895Y-96869329D01*
X113719706Y-96916791D02*
X113712111Y-96928148D01*
X113554098Y-97076326D02*
X113553729Y-97076544D01*
X113556682Y-97074793D02*
X113555207Y-97075671D01*
X113754148Y-96854149D02*
X113753500Y-96855564D01*
X113641053Y-97010855D02*
X113630977Y-97020080D01*
X113751392Y-96860083D02*
X113750656Y-96861631D01*
X113750656Y-96861631D02*
X113749915Y-96863177D01*
X113576961Y-97061954D02*
X113571237Y-97065725D01*
X113588235Y-97054176D02*
X113582627Y-97058105D01*
X113752847Y-96856978D02*
X113752666Y-96857367D01*
X113752666Y-96857367D02*
X113752485Y-96857755D01*
X113583737Y-96234573D02*
X113591081Y-96240013D01*
X112553140Y-95471131D02*
X112747857Y-95615373D01*
X113112825Y-95885733D02*
X113233631Y-95975223D01*
X113233631Y-95975223D02*
X113270842Y-96002788D01*
X111598923Y-94764269D02*
X111646200Y-94799291D01*
X111515199Y-94702249D02*
X111522543Y-94707688D01*
X107613009Y-88239365D02*
X107645798Y-88274737D01*
X113617259Y-96260219D02*
X113626981Y-96268430D01*
X113771414Y-96811080D02*
X113767224Y-96822673D01*
X113794219Y-96716395D02*
X113790291Y-96740307D01*
X113671768Y-96312504D02*
X113687864Y-96331423D01*
X113595557Y-96243329D02*
X113596690Y-96244168D01*
X111701889Y-94840544D02*
X111835438Y-94939474D01*
X113775305Y-96799420D02*
X113771414Y-96811080D01*
X113785187Y-96764090D02*
X113778897Y-96787697D01*
X113790291Y-96740307D02*
X113785187Y-96764090D01*
X113798575Y-96668360D02*
X113794219Y-96716395D01*
X113702903Y-96351001D02*
X113729769Y-96391940D01*
X113460080Y-96142971D02*
X113507357Y-96177993D01*
X113607288Y-96252223D02*
X113612304Y-96256194D01*
X113687864Y-96331423D02*
X113702903Y-96351001D01*
X111511160Y-94699256D02*
X111512659Y-94700367D01*
X113597942Y-96245096D02*
X113602210Y-96248308D01*
X113654625Y-96294297D02*
X113671768Y-96312504D01*
X113507357Y-96177993D02*
X113545460Y-96206218D01*
X107645798Y-88274737D02*
X107675207Y-88313358D01*
X113545460Y-96206218D02*
X113560831Y-96217605D01*
X111522543Y-94707688D02*
X111532658Y-94715181D01*
X111993455Y-95056529D02*
X112169822Y-95187178D01*
X113757940Y-96845628D02*
X113756695Y-96848474D01*
X113760374Y-96839920D02*
X113757940Y-96845628D01*
X113762733Y-96834191D02*
X113760374Y-96839920D01*
X113767224Y-96822673D02*
X113762733Y-96834191D01*
X113341057Y-96054802D02*
X113404392Y-96101718D01*
X113798321Y-96620333D02*
X113798575Y-96668360D01*
X111560820Y-94736044D02*
X111598923Y-94764269D01*
X111532658Y-94715181D02*
X111560820Y-94736044D01*
X107577142Y-88207425D02*
X107613009Y-88239365D01*
X113778897Y-96787697D02*
X113775305Y-96799420D01*
X113793518Y-96572648D02*
X113798321Y-96620333D01*
X113404392Y-96101718D02*
X113460080Y-96142971D01*
X113770469Y-96479615D02*
X113784219Y-96525632D01*
X113729769Y-96391940D02*
X113752306Y-96434934D01*
X112936458Y-95755084D02*
X113112825Y-95885733D01*
X112747857Y-95615373D02*
X112936458Y-95755084D01*
X112358423Y-95326889D02*
X112553140Y-95471131D01*
X111646200Y-94799291D02*
X111701889Y-94840544D01*
X111512659Y-94700367D02*
X111515199Y-94702249D01*
X112169822Y-95187178D02*
X112358423Y-95326889D01*
X107675207Y-88313358D02*
X107722613Y-88399536D01*
X111835438Y-94939474D02*
X111993455Y-95056529D01*
X113784219Y-96525632D02*
X113793518Y-96572648D01*
X113596690Y-96244168D02*
X113597942Y-96245096D01*
X107722613Y-88399536D02*
X107752640Y-88496022D01*
X113591081Y-96240013D02*
X113593683Y-96241941D01*
X113270842Y-96002788D02*
X113341057Y-96054802D01*
X113560831Y-96217605D02*
X113573622Y-96227080D01*
X113752306Y-96434934D02*
X113770469Y-96479615D01*
X113636450Y-96276851D02*
X113654625Y-96294297D01*
X113573622Y-96227080D02*
X113583737Y-96234573D01*
X113626981Y-96268430D02*
X113636450Y-96276851D01*
X113612304Y-96256194D02*
X113617259Y-96260219D01*
X113602210Y-96248308D02*
X113607288Y-96252223D01*
X113593683Y-96241941D02*
X113595557Y-96243329D01*
X111509210Y-94697812D02*
X111511160Y-94699256D01*
X107266332Y-88095877D02*
X107279995Y-88096129D01*
X107307293Y-88097750D02*
X107320910Y-88099127D01*
X107144526Y-88109930D02*
X107157852Y-88106930D01*
X107067030Y-88135410D02*
X107067425Y-88135242D01*
X107044044Y-88145902D02*
X107049629Y-88143221D01*
X107098595Y-88123281D02*
X107105079Y-88121100D01*
X107358156Y-88104912D02*
X107359839Y-88105246D01*
X107356471Y-88104585D02*
X107358156Y-88104912D01*
X107334494Y-88100888D02*
X107341270Y-88101915D01*
X107076137Y-88131644D02*
X107079321Y-88130379D01*
X107069004Y-88134574D02*
X107069794Y-88134243D01*
X107497319Y-88154553D02*
X107538485Y-88179094D01*
X107475880Y-88143762D02*
X107497319Y-88154553D01*
X107431463Y-88125259D02*
X107453916Y-88133989D01*
X107420064Y-88121293D02*
X107431463Y-88125259D01*
X107396942Y-88114176D02*
X107408555Y-88117598D01*
X107385229Y-88111031D02*
X107396942Y-88114176D01*
X107360681Y-88105415D02*
X107361101Y-88105501D01*
X107131282Y-88113290D02*
X107144526Y-88109930D01*
X107379336Y-88109564D02*
X107385229Y-88111031D01*
X107063776Y-88136810D02*
X107065204Y-88136192D01*
X107373421Y-88108167D02*
X107379336Y-88109564D01*
X107367482Y-88106841D02*
X107373421Y-88108167D01*
X107364505Y-88106205D02*
X107367482Y-88106841D01*
X107071377Y-88133584D02*
X107072961Y-88132932D01*
X107225393Y-88097317D02*
X107252671Y-88095993D01*
X107072961Y-88132932D02*
X107076137Y-88131644D01*
X107363014Y-88105893D02*
X107364505Y-88106205D01*
X107361522Y-88105586D02*
X107363014Y-88105893D01*
X107361101Y-88105501D02*
X107361522Y-88105586D01*
X107359839Y-88105246D02*
X107360681Y-88105415D01*
X107354785Y-88104263D02*
X107356471Y-88104585D01*
X107348035Y-88103040D02*
X107351412Y-88103639D01*
X107344654Y-88102465D02*
X107348035Y-88103040D01*
X107341270Y-88101915D02*
X107344654Y-88102465D01*
X107252671Y-88095993D02*
X107266332Y-88095877D01*
X107079321Y-88130379D02*
X107082514Y-88129138D01*
X107069794Y-88134243D02*
X107071377Y-88133584D01*
X107327707Y-88099959D02*
X107334494Y-88100888D01*
X107118130Y-88117013D02*
X107131282Y-88113290D01*
X107320910Y-88099127D02*
X107327707Y-88099959D01*
X107060926Y-88138058D02*
X107063776Y-88136810D01*
X107293652Y-88096752D02*
X107307293Y-88097750D01*
X107092140Y-88125555D02*
X107098595Y-88123281D01*
X107066636Y-88135578D02*
X107067030Y-88135410D01*
X107085715Y-88127920D02*
X107092140Y-88125555D01*
X107055257Y-88140606D02*
X107058086Y-88139324D01*
X107022130Y-88157271D02*
X107033000Y-88151458D01*
X107033000Y-88151458D02*
X107044044Y-88145902D01*
X107198230Y-88100086D02*
X107225393Y-88097317D01*
X107082514Y-88129138D02*
X107085715Y-88127920D01*
X107351412Y-88103639D02*
X107354785Y-88104263D01*
X107105079Y-88121100D02*
X107118130Y-88117013D01*
X107058086Y-88139324D02*
X107060926Y-88138058D01*
X107049629Y-88143221D02*
X107055257Y-88140606D01*
X107067425Y-88135242D02*
X107068214Y-88134907D01*
X107538485Y-88179094D02*
X107577142Y-88207425D01*
X107065204Y-88136192D02*
X107066636Y-88135578D01*
X107453916Y-88133989D02*
X107475880Y-88143762D01*
X107408555Y-88117598D02*
X107420064Y-88121293D01*
X107279995Y-88096129D02*
X107293652Y-88096752D01*
X107171250Y-88104290D02*
X107198230Y-88100086D01*
X107068214Y-88134907D02*
X107069004Y-88134574D01*
X107157852Y-88106930D02*
X107171250Y-88104290D01*
X84858513Y-91013248D02*
X84880277Y-90833123D01*
X84880277Y-90833123D02*
X84933708Y-90685529D01*
X84933708Y-90685529D02*
X85009877Y-90561354D01*
X85009877Y-90561354D02*
X85105476Y-90456947D01*
X85105476Y-90456947D02*
X85221058Y-90370945D01*
X85221058Y-90370945D02*
X85356838Y-90306513D01*
X85356838Y-90306513D02*
X85521801Y-90268203D01*
X85521801Y-90268203D02*
X85608513Y-90263248D01*
X110063069Y-93894275D02*
X109992466Y-94025471D01*
X109992466Y-94025471D02*
X109911736Y-94147607D01*
X109911736Y-94147607D02*
X109822475Y-94259464D01*
X109822475Y-94259464D02*
X109723667Y-94362958D01*
X109723667Y-94362958D02*
X109616068Y-94457303D01*
X109616068Y-94457303D02*
X109499519Y-94542453D01*
X109499519Y-94542453D02*
X109373214Y-94618361D01*
X109373214Y-94618361D02*
X109237023Y-94684073D01*
X109237023Y-94684073D02*
X109090864Y-94738342D01*
X109090864Y-94738342D02*
X108931168Y-94780359D01*
X108931168Y-94780359D02*
X108756662Y-94807185D01*
X108756662Y-94807185D02*
X108562700Y-94814630D01*
X108562700Y-94814630D02*
X108377324Y-94799913D01*
X108377324Y-94799913D02*
X108204798Y-94766481D01*
X108204798Y-94766481D02*
X108048108Y-94718617D01*
X108048108Y-94718617D02*
X107906600Y-94659840D01*
X107906600Y-94659840D02*
X107894153Y-94653915D01*
X103997402Y-119235470D02*
X103975628Y-119415587D01*
X103975628Y-119415587D02*
X103922199Y-119563181D01*
X103922199Y-119563181D02*
X103845349Y-119688253D01*
X103845349Y-119688253D02*
X103749597Y-119792517D01*
X103749597Y-119792517D02*
X103633759Y-119878421D01*
X103633759Y-119878421D02*
X103497176Y-119942868D01*
X103497176Y-119942868D02*
X103334108Y-119980508D01*
X103334108Y-119980508D02*
X103247402Y-119985470D01*
X85608513Y-118485470D02*
X85788630Y-118507234D01*
X85788630Y-118507234D02*
X85935968Y-118560540D01*
X85935968Y-118560540D02*
X86061296Y-118637514D01*
X86061296Y-118637514D02*
X86165560Y-118733267D01*
X86165560Y-118733267D02*
X86251392Y-118848983D01*
X86251392Y-118848983D02*
X86316293Y-118986772D01*
X86316293Y-118986772D02*
X86353686Y-119149936D01*
X86353686Y-119149936D02*
X86358513Y-119235470D01*
X84858513Y-119235470D02*
X84880277Y-119055345D01*
X84880277Y-119055345D02*
X84933708Y-118907751D01*
X84933708Y-118907751D02*
X85009877Y-118783576D01*
X85009877Y-118783576D02*
X85105476Y-118679169D01*
X85105476Y-118679169D02*
X85221058Y-118593167D01*
X85221058Y-118593167D02*
X85356838Y-118528735D01*
X85356838Y-118528735D02*
X85521801Y-118490425D01*
X85521801Y-118490425D02*
X85608513Y-118485470D01*
X99479736Y-97422053D02*
X99409133Y-97553249D01*
X99409133Y-97553249D02*
X99328403Y-97675385D01*
X99328403Y-97675385D02*
X99239142Y-97787242D01*
X99239142Y-97787242D02*
X99140334Y-97890736D01*
X99140334Y-97890736D02*
X99032735Y-97985080D01*
X99032735Y-97985080D02*
X98916186Y-98070230D01*
X98916186Y-98070230D02*
X98789881Y-98146138D01*
X98789881Y-98146138D02*
X98653690Y-98211850D01*
X98653690Y-98211850D02*
X98507531Y-98266119D01*
X98507531Y-98266119D02*
X98347835Y-98308136D01*
X98347835Y-98308136D02*
X98173329Y-98334963D01*
X98173329Y-98334963D02*
X97979366Y-98342408D01*
X97979366Y-98342408D02*
X97793990Y-98327691D01*
X97793990Y-98327691D02*
X97621464Y-98294259D01*
X97621464Y-98294259D02*
X97464774Y-98246395D01*
X97464774Y-98246395D02*
X97323266Y-98187618D01*
X97323266Y-98187618D02*
X97310819Y-98181693D01*
X107894153Y-94653915D02*
X107764057Y-94583975D01*
X107764057Y-94583975D02*
X107643379Y-94504446D01*
X107643379Y-94504446D02*
X107531789Y-94415793D01*
X107531789Y-94415793D02*
X107428685Y-94317870D01*
X107428685Y-94317870D02*
X107334206Y-94210757D01*
X107334206Y-94210757D02*
X107248344Y-94093936D01*
X107248344Y-94093936D02*
X107172679Y-93968889D01*
X107172679Y-93968889D02*
X107106507Y-93832910D01*
X107106507Y-93832910D02*
X107051749Y-93686932D01*
X107051749Y-93686932D02*
X107009449Y-93528579D01*
X107009449Y-93528579D02*
X106981910Y-93354210D01*
X106981910Y-93354210D02*
X106973646Y-93160948D01*
X106973646Y-93160948D02*
X106987833Y-92973114D01*
X106987833Y-92973114D02*
X107021174Y-92798711D01*
X107021174Y-92798711D02*
X107068496Y-92642584D01*
X107068496Y-92642584D02*
X107127466Y-92499821D01*
X107127466Y-92499821D02*
X107134513Y-92484999D01*
X86358513Y-91013248D02*
X86336739Y-91193365D01*
X86336739Y-91193365D02*
X86283310Y-91340959D01*
X86283310Y-91340959D02*
X86206460Y-91466031D01*
X86206460Y-91466031D02*
X86110708Y-91570295D01*
X86110708Y-91570295D02*
X85994870Y-91656199D01*
X85994870Y-91656199D02*
X85858287Y-91720646D01*
X85858287Y-91720646D02*
X85695219Y-91758286D01*
X85695219Y-91758286D02*
X85608513Y-91763248D01*
X85668236Y-105675748D02*
X85858651Y-105686782D01*
X85858651Y-105686782D02*
X86029994Y-105716157D01*
X86029994Y-105716157D02*
X86186465Y-105760129D01*
X86186465Y-105760129D02*
X86330785Y-105816507D01*
X86330785Y-105816507D02*
X86464823Y-105884057D01*
X86464823Y-105884057D02*
X86592170Y-105963792D01*
X86592170Y-105963792D02*
X86706109Y-106050314D01*
X86706109Y-106050314D02*
X86814047Y-106148470D01*
X86814047Y-106148470D02*
X86910441Y-106253052D01*
X86910441Y-106253052D02*
X86998540Y-106367282D01*
X86998540Y-106367282D02*
X87077326Y-106490826D01*
X87077326Y-106490826D02*
X87145846Y-106623573D01*
X87145846Y-106623573D02*
X87203610Y-106767193D01*
X87203610Y-106767193D02*
X87248884Y-106922104D01*
X87248884Y-106922104D02*
X87279934Y-107091873D01*
X87279934Y-107091873D02*
X87293109Y-107280398D01*
X87293109Y-107280398D02*
X87293236Y-107300748D01*
X103247402Y-119985470D02*
X103067277Y-119963696D01*
X103067277Y-119963696D02*
X102918661Y-119909769D01*
X102918661Y-119909769D02*
X102793713Y-119832735D01*
X102793713Y-119832735D02*
X102689029Y-119736202D01*
X102689029Y-119736202D02*
X102602769Y-119619039D01*
X102602769Y-119619039D02*
X102538480Y-119480907D01*
X102538480Y-119480907D02*
X102501829Y-119317462D01*
X102501829Y-119317462D02*
X102497402Y-119235470D01*
X86358513Y-119235470D02*
X86336739Y-119415587D01*
X86336739Y-119415587D02*
X86283310Y-119563181D01*
X86283310Y-119563181D02*
X86206460Y-119688253D01*
X86206460Y-119688253D02*
X86110708Y-119792517D01*
X86110708Y-119792517D02*
X85994870Y-119878421D01*
X85994870Y-119878421D02*
X85858287Y-119942868D01*
X85858287Y-119942868D02*
X85695219Y-119980508D01*
X85695219Y-119980508D02*
X85608513Y-119985470D01*
X114595096Y-81847581D02*
X114725461Y-81917679D01*
X114725461Y-81917679D02*
X114848428Y-81998907D01*
X114848428Y-81998907D02*
X114960285Y-82088163D01*
X114960285Y-82088163D02*
X115063566Y-82186749D01*
X115063566Y-82186749D02*
X115157158Y-82293370D01*
X115157158Y-82293370D02*
X115241915Y-82409079D01*
X115241915Y-82409079D02*
X115317727Y-82534740D01*
X115317727Y-82534740D02*
X115383213Y-82669694D01*
X115383213Y-82669694D02*
X115437864Y-82815715D01*
X115437864Y-82815715D02*
X115480297Y-82975293D01*
X115480297Y-82975293D02*
X115507547Y-83149408D01*
X115507547Y-83149408D02*
X115515549Y-83343007D01*
X115515549Y-83343007D02*
X115501323Y-83528993D01*
X115501323Y-83528993D02*
X115469131Y-83698482D01*
X115469131Y-83698482D02*
X115422260Y-83854667D01*
X115422260Y-83854667D02*
X115363444Y-83998108D01*
X115363444Y-83998108D02*
X115354736Y-84016498D01*
X115502451Y-99746411D02*
X115326466Y-99720243D01*
X115326466Y-99720243D02*
X115166786Y-99679008D01*
X115166786Y-99679008D02*
X115020110Y-99625114D01*
X115020110Y-99625114D02*
X114884087Y-99559850D01*
X114884087Y-99559850D02*
X114758288Y-99484527D01*
X114758288Y-99484527D02*
X114642349Y-99400174D01*
X114642349Y-99400174D02*
X114535099Y-99306715D01*
X114535099Y-99306715D02*
X114435368Y-99203110D01*
X114435368Y-99203110D02*
X114345533Y-99091691D01*
X114345533Y-99091691D02*
X114264769Y-98971159D01*
X114264769Y-98971159D02*
X114193800Y-98841401D01*
X114193800Y-98841401D02*
X114133275Y-98701387D01*
X114133275Y-98701387D02*
X114083914Y-98547828D01*
X114083914Y-98547828D02*
X114048939Y-98382639D01*
X114048939Y-98382639D02*
X114030713Y-98199891D01*
X114030713Y-98199891D02*
X114034313Y-98001469D01*
X114034313Y-98001469D02*
X114036461Y-97976630D01*
X85608513Y-119985470D02*
X85428388Y-119963696D01*
X85428388Y-119963696D02*
X85279772Y-119909769D01*
X85279772Y-119909769D02*
X85154824Y-119832735D01*
X85154824Y-119832735D02*
X85050140Y-119736202D01*
X85050140Y-119736202D02*
X84963880Y-119619039D01*
X84963880Y-119619039D02*
X84899591Y-119480907D01*
X84899591Y-119480907D02*
X84862940Y-119317462D01*
X84862940Y-119317462D02*
X84858513Y-119235470D01*
X119827958Y-111871581D02*
X119647833Y-111849807D01*
X119647833Y-111849807D02*
X119499217Y-111795880D01*
X119499217Y-111795880D02*
X119374269Y-111718846D01*
X119374269Y-111718846D02*
X119269585Y-111622313D01*
X119269585Y-111622313D02*
X119183325Y-111505150D01*
X119183325Y-111505150D02*
X119119036Y-111367018D01*
X119119036Y-111367018D02*
X119082385Y-111203573D01*
X119082385Y-111203573D02*
X119077958Y-111121581D01*
X109303429Y-91725359D02*
X109433794Y-91795457D01*
X109433794Y-91795457D02*
X109556761Y-91876685D01*
X109556761Y-91876685D02*
X109668618Y-91965941D01*
X109668618Y-91965941D02*
X109771899Y-92064527D01*
X109771899Y-92064527D02*
X109865492Y-92171148D01*
X109865492Y-92171148D02*
X109950249Y-92286857D01*
X109950249Y-92286857D02*
X110026061Y-92412518D01*
X110026061Y-92412518D02*
X110091547Y-92547472D01*
X110091547Y-92547472D02*
X110146198Y-92693493D01*
X110146198Y-92693493D02*
X110188631Y-92853071D01*
X110188631Y-92853071D02*
X110215880Y-93027186D01*
X110215880Y-93027186D02*
X110223882Y-93220785D01*
X110223882Y-93220785D02*
X110209656Y-93406771D01*
X110209656Y-93406771D02*
X110177464Y-93576260D01*
X110177464Y-93576260D02*
X110130593Y-93732445D01*
X110130593Y-93732445D02*
X110071777Y-93875885D01*
X110071777Y-93875885D02*
X110063069Y-93894275D01*
X87293236Y-107300748D02*
X87282269Y-107490525D01*
X87282269Y-107490525D02*
X87252956Y-107661889D01*
X87252956Y-107661889D02*
X87208051Y-107821339D01*
X87208051Y-107821339D02*
X87149939Y-107968929D01*
X87149939Y-107968929D02*
X87082199Y-108102141D01*
X87082199Y-108102141D02*
X87004836Y-108225185D01*
X87004836Y-108225185D02*
X86917881Y-108339558D01*
X86917881Y-108339558D02*
X86820293Y-108446775D01*
X86820293Y-108446775D02*
X86715924Y-108542953D01*
X86715924Y-108542953D02*
X86601941Y-108630878D01*
X86601941Y-108630878D02*
X86478149Y-108709838D01*
X86478149Y-108709838D02*
X86344841Y-108778616D01*
X86344841Y-108778616D02*
X86200018Y-108836734D01*
X86200018Y-108836734D02*
X86044421Y-108881980D01*
X86044421Y-108881980D02*
X85873926Y-108912851D01*
X85873926Y-108912851D02*
X85685958Y-108925651D01*
X85685958Y-108925651D02*
X85668236Y-108925748D01*
X98720096Y-95253137D02*
X98850461Y-95323235D01*
X98850461Y-95323235D02*
X98973428Y-95404463D01*
X98973428Y-95404463D02*
X99085285Y-95493719D01*
X99085285Y-95493719D02*
X99188566Y-95592305D01*
X99188566Y-95592305D02*
X99282158Y-95698926D01*
X99282158Y-95698926D02*
X99366915Y-95814635D01*
X99366915Y-95814635D02*
X99442727Y-95940296D01*
X99442727Y-95940296D02*
X99508213Y-96075250D01*
X99508213Y-96075250D02*
X99562864Y-96221271D01*
X99562864Y-96221271D02*
X99605297Y-96380849D01*
X99605297Y-96380849D02*
X99632547Y-96554964D01*
X99632547Y-96554964D02*
X99640549Y-96748563D01*
X99640549Y-96748563D02*
X99626323Y-96934549D01*
X99626323Y-96934549D02*
X99594131Y-97104038D01*
X99594131Y-97104038D02*
X99547260Y-97260223D01*
X99547260Y-97260223D02*
X99488444Y-97403663D01*
X99488444Y-97403663D02*
X99479736Y-97422053D01*
X85608513Y-91763248D02*
X85428388Y-91741474D01*
X85428388Y-91741474D02*
X85279772Y-91687547D01*
X85279772Y-91687547D02*
X85154824Y-91610513D01*
X85154824Y-91610513D02*
X85050140Y-91513980D01*
X85050140Y-91513980D02*
X84963880Y-91396817D01*
X84963880Y-91396817D02*
X84899591Y-91258685D01*
X84899591Y-91258685D02*
X84862940Y-91095240D01*
X84862940Y-91095240D02*
X84858513Y-91013248D01*
X117272232Y-98280422D02*
X117246064Y-98456399D01*
X117246064Y-98456399D02*
X117204640Y-98616682D01*
X117204640Y-98616682D02*
X117150691Y-98763329D01*
X117150691Y-98763329D02*
X117085671Y-98898782D01*
X117085671Y-98898782D02*
X117010348Y-99024576D01*
X117010348Y-99024576D02*
X116925803Y-99140753D01*
X116925803Y-99140753D02*
X116830642Y-99249752D01*
X116830642Y-99249752D02*
X116727102Y-99349106D01*
X116727102Y-99349106D02*
X116615548Y-99438776D01*
X116615548Y-99438776D02*
X116494108Y-99519834D01*
X116494108Y-99519834D02*
X116363921Y-99590677D01*
X116363921Y-99590677D02*
X116222885Y-99651213D01*
X116222885Y-99651213D02*
X116070949Y-99699667D01*
X116070949Y-99699667D02*
X115904734Y-99734507D01*
X115904734Y-99734507D02*
X115721239Y-99752336D01*
X115721239Y-99752336D02*
X115524679Y-99748346D01*
X115524679Y-99748346D02*
X115502451Y-99746411D01*
X120577958Y-111121581D02*
X120556184Y-111301698D01*
X120556184Y-111301698D02*
X120502755Y-111449292D01*
X120502755Y-111449292D02*
X120425905Y-111574364D01*
X120425905Y-111574364D02*
X120330152Y-111678628D01*
X120330152Y-111678628D02*
X120214314Y-111764532D01*
X120214314Y-111764532D02*
X120077731Y-111828979D01*
X120077731Y-111828979D02*
X119914664Y-111866619D01*
X119914664Y-111866619D02*
X119827958Y-111871581D01*
X85608513Y-90263248D02*
X85788630Y-90285012D01*
X85788630Y-90285012D02*
X85935968Y-90338318D01*
X85935968Y-90338318D02*
X86061296Y-90415292D01*
X86061296Y-90415292D02*
X86165560Y-90511045D01*
X86165560Y-90511045D02*
X86251392Y-90626761D01*
X86251392Y-90626761D02*
X86316293Y-90764550D01*
X86316293Y-90764550D02*
X86353686Y-90927714D01*
X86353686Y-90927714D02*
X86358513Y-91013248D01*
X112426180Y-82607221D02*
X112496113Y-82477125D01*
X112496113Y-82477125D02*
X112575640Y-82356447D01*
X112575640Y-82356447D02*
X112665526Y-82243439D01*
X112665526Y-82243439D02*
X112763557Y-82140462D01*
X112763557Y-82140462D02*
X112870769Y-82046113D01*
X112870769Y-82046113D02*
X112986659Y-81961071D01*
X112986659Y-81961071D02*
X113112267Y-81885163D01*
X113112267Y-81885163D02*
X113248293Y-81819094D01*
X113248293Y-81819094D02*
X113395474Y-81764073D01*
X113395474Y-81764073D02*
X113553892Y-81722008D01*
X113553892Y-81722008D02*
X113727094Y-81694853D01*
X113727094Y-81694853D02*
X113919138Y-81686714D01*
X113919138Y-81686714D02*
X114106355Y-81700817D01*
X114106355Y-81700817D02*
X114274625Y-81732576D01*
X114274625Y-81732576D02*
X114429026Y-81778547D01*
X114429026Y-81778547D02*
X114573139Y-81837210D01*
X114573139Y-81837210D02*
X114595096Y-81847581D01*
X114036461Y-97976630D02*
X114062300Y-97802219D01*
X114062300Y-97802219D02*
X114103480Y-97642171D01*
X114103480Y-97642171D02*
X114157751Y-97494289D01*
X114157751Y-97494289D02*
X114223019Y-97358266D01*
X114223019Y-97358266D02*
X114298339Y-97232467D01*
X114298339Y-97232467D02*
X114383261Y-97115810D01*
X114383261Y-97115810D02*
X114477200Y-97008172D01*
X114477200Y-97008172D02*
X114579524Y-96909748D01*
X114579524Y-96909748D02*
X114697071Y-96815387D01*
X114697071Y-96815387D02*
X114817451Y-96735473D01*
X114817451Y-96735473D02*
X114948071Y-96664764D01*
X114948071Y-96664764D02*
X115090997Y-96603898D01*
X115090997Y-96603898D02*
X115243744Y-96555795D01*
X115243744Y-96555795D02*
X115410166Y-96521584D01*
X115410166Y-96521584D02*
X115594479Y-96504442D01*
X115594479Y-96504442D02*
X115791197Y-96509294D01*
X115791197Y-96509294D02*
X115806243Y-96510641D01*
X113185819Y-84776137D02*
X113055723Y-84706197D01*
X113055723Y-84706197D02*
X112935045Y-84626668D01*
X112935045Y-84626668D02*
X112823455Y-84538015D01*
X112823455Y-84538015D02*
X112720352Y-84440092D01*
X112720352Y-84440092D02*
X112625873Y-84332979D01*
X112625873Y-84332979D02*
X112540011Y-84216158D01*
X112540011Y-84216158D02*
X112464346Y-84091111D01*
X112464346Y-84091111D02*
X112398174Y-83955132D01*
X112398174Y-83955132D02*
X112343416Y-83809154D01*
X112343416Y-83809154D02*
X112301116Y-83650801D01*
X112301116Y-83650801D02*
X112273577Y-83476432D01*
X112273577Y-83476432D02*
X112265313Y-83283170D01*
X112265313Y-83283170D02*
X112279500Y-83095336D01*
X112279500Y-83095336D02*
X112312841Y-82920933D01*
X112312841Y-82920933D02*
X112360163Y-82764806D01*
X112360163Y-82764806D02*
X112419133Y-82622043D01*
X112419133Y-82622043D02*
X112426180Y-82607221D01*
X115354736Y-84016498D02*
X115284133Y-84147694D01*
X115284133Y-84147694D02*
X115203403Y-84269830D01*
X115203403Y-84269830D02*
X115114142Y-84381687D01*
X115114142Y-84381687D02*
X115015334Y-84485181D01*
X115015334Y-84485181D02*
X114907735Y-84579525D01*
X114907735Y-84579525D02*
X114791186Y-84664675D01*
X114791186Y-84664675D02*
X114664881Y-84740583D01*
X114664881Y-84740583D02*
X114528690Y-84806295D01*
X114528690Y-84806295D02*
X114382531Y-84860564D01*
X114382531Y-84860564D02*
X114222835Y-84902581D01*
X114222835Y-84902581D02*
X114048329Y-84929407D01*
X114048329Y-84929407D02*
X113854366Y-84936852D01*
X113854366Y-84936852D02*
X113668990Y-84922135D01*
X113668990Y-84922135D02*
X113496464Y-84888703D01*
X113496464Y-84888703D02*
X113339774Y-84840839D01*
X113339774Y-84840839D02*
X113198266Y-84782062D01*
X113198266Y-84782062D02*
X113185819Y-84776137D01*
X107134513Y-92484999D02*
X107204446Y-92354903D01*
X107204446Y-92354903D02*
X107283973Y-92234225D01*
X107283973Y-92234225D02*
X107373859Y-92121217D01*
X107373859Y-92121217D02*
X107471890Y-92018240D01*
X107471890Y-92018240D02*
X107579102Y-91923891D01*
X107579102Y-91923891D02*
X107694992Y-91838849D01*
X107694992Y-91838849D02*
X107820600Y-91762941D01*
X107820600Y-91762941D02*
X107956626Y-91696872D01*
X107956626Y-91696872D02*
X108103807Y-91641851D01*
X108103807Y-91641851D02*
X108262225Y-91599786D01*
X108262225Y-91599786D02*
X108435427Y-91572631D01*
X108435427Y-91572631D02*
X108627471Y-91564492D01*
X108627471Y-91564492D02*
X108814688Y-91578595D01*
X108814688Y-91578595D02*
X108982958Y-91610354D01*
X108982958Y-91610354D02*
X109137359Y-91656325D01*
X109137359Y-91656325D02*
X109281472Y-91714988D01*
X109281472Y-91714988D02*
X109303429Y-91725359D01*
X97310819Y-98181693D02*
X97180723Y-98111753D01*
X97180723Y-98111753D02*
X97060045Y-98032224D01*
X97060045Y-98032224D02*
X96948455Y-97943571D01*
X96948455Y-97943571D02*
X96845352Y-97845648D01*
X96845352Y-97845648D02*
X96750873Y-97738535D01*
X96750873Y-97738535D02*
X96665011Y-97621714D01*
X96665011Y-97621714D02*
X96589346Y-97496667D01*
X96589346Y-97496667D02*
X96523174Y-97360688D01*
X96523174Y-97360688D02*
X96468416Y-97214710D01*
X96468416Y-97214710D02*
X96426116Y-97056357D01*
X96426116Y-97056357D02*
X96398577Y-96881988D01*
X96398577Y-96881988D02*
X96390313Y-96688725D01*
X96390313Y-96688725D02*
X96404500Y-96500891D01*
X96404500Y-96500891D02*
X96437841Y-96326488D01*
X96437841Y-96326488D02*
X96485163Y-96170361D01*
X96485163Y-96170361D02*
X96544133Y-96027598D01*
X96544133Y-96027598D02*
X96551180Y-96012776D01*
X84043236Y-107300748D02*
X84054270Y-107110325D01*
X84054270Y-107110325D02*
X84083855Y-106938061D01*
X84083855Y-106938061D02*
X84128413Y-106780150D01*
X84128413Y-106780150D02*
X84185258Y-106635373D01*
X84185258Y-106635373D02*
X84252751Y-106502013D01*
X84252751Y-106502013D02*
X84330062Y-106378563D01*
X84330062Y-106378563D02*
X84417802Y-106262867D01*
X84417802Y-106262867D02*
X84513170Y-106157743D01*
X84513170Y-106157743D02*
X84618213Y-106060502D01*
X84618213Y-106060502D02*
X84732024Y-105972368D01*
X84732024Y-105972368D02*
X84854597Y-105893796D01*
X84854597Y-105893796D02*
X84988818Y-105824160D01*
X84988818Y-105824160D02*
X85131743Y-105766389D01*
X85131743Y-105766389D02*
X85287143Y-105720677D01*
X85287143Y-105720677D02*
X85459361Y-105689044D01*
X85459361Y-105689044D02*
X85651819Y-105675827D01*
X85651819Y-105675827D02*
X85668236Y-105675748D01*
X102497402Y-119235470D02*
X102519166Y-119055345D01*
X102519166Y-119055345D02*
X102572597Y-118907751D01*
X102572597Y-118907751D02*
X102648766Y-118783576D01*
X102648766Y-118783576D02*
X102744365Y-118679169D01*
X102744365Y-118679169D02*
X102859947Y-118593167D01*
X102859947Y-118593167D02*
X102995727Y-118528735D01*
X102995727Y-118528735D02*
X103160690Y-118490425D01*
X103160690Y-118490425D02*
X103247402Y-118485470D01*
X115806243Y-96510641D02*
X115982220Y-96536801D01*
X115982220Y-96536801D02*
X116142503Y-96578226D01*
X116142503Y-96578226D02*
X116288862Y-96632051D01*
X116288862Y-96632051D02*
X116424603Y-96697198D01*
X116424603Y-96697198D02*
X116550397Y-96772518D01*
X116550397Y-96772518D02*
X116666336Y-96856869D01*
X116666336Y-96856869D02*
X116774912Y-96951589D01*
X116774912Y-96951589D02*
X116877738Y-97058970D01*
X116877738Y-97058970D02*
X116968014Y-97171988D01*
X116968014Y-97171988D02*
X117049589Y-97295294D01*
X117049589Y-97295294D02*
X117119698Y-97425561D01*
X117119698Y-97425561D02*
X117179823Y-97567487D01*
X117179823Y-97567487D02*
X117227852Y-97720930D01*
X117227852Y-97720930D02*
X117261700Y-97887144D01*
X117261700Y-97887144D02*
X117278512Y-98071218D01*
X117278512Y-98071218D02*
X117273293Y-98268646D01*
X117273293Y-98268646D02*
X117272232Y-98280422D01*
X96551180Y-96012776D02*
X96621113Y-95882680D01*
X96621113Y-95882680D02*
X96700640Y-95762002D01*
X96700640Y-95762002D02*
X96790526Y-95648994D01*
X96790526Y-95648994D02*
X96888557Y-95546018D01*
X96888557Y-95546018D02*
X96995769Y-95451669D01*
X96995769Y-95451669D02*
X97111659Y-95366627D01*
X97111659Y-95366627D02*
X97237267Y-95290719D01*
X97237267Y-95290719D02*
X97373293Y-95224650D01*
X97373293Y-95224650D02*
X97520474Y-95169629D01*
X97520474Y-95169629D02*
X97678892Y-95127564D01*
X97678892Y-95127564D02*
X97852094Y-95100409D01*
X97852094Y-95100409D02*
X98044138Y-95092270D01*
X98044138Y-95092270D02*
X98231355Y-95106373D01*
X98231355Y-95106373D02*
X98399625Y-95138132D01*
X98399625Y-95138132D02*
X98554026Y-95184103D01*
X98554026Y-95184103D02*
X98698139Y-95242766D01*
X98698139Y-95242766D02*
X98720096Y-95253137D01*
X119827958Y-110371581D02*
X120008074Y-110393345D01*
X120008074Y-110393345D02*
X120155412Y-110446651D01*
X120155412Y-110446651D02*
X120280740Y-110523625D01*
X120280740Y-110523625D02*
X120385004Y-110619378D01*
X120385004Y-110619378D02*
X120470837Y-110735094D01*
X120470837Y-110735094D02*
X120535738Y-110872883D01*
X120535738Y-110872883D02*
X120573131Y-111036047D01*
X120573131Y-111036047D02*
X120577958Y-111121581D01*
X119077958Y-111121581D02*
X119099722Y-110941456D01*
X119099722Y-110941456D02*
X119153153Y-110793862D01*
X119153153Y-110793862D02*
X119229322Y-110669687D01*
X119229322Y-110669687D02*
X119324921Y-110565280D01*
X119324921Y-110565280D02*
X119440503Y-110479278D01*
X119440503Y-110479278D02*
X119576283Y-110414846D01*
X119576283Y-110414846D02*
X119741246Y-110376536D01*
X119741246Y-110376536D02*
X119827958Y-110371581D01*
X85668236Y-108925748D02*
X85478450Y-108914781D01*
X85478450Y-108914781D02*
X85307394Y-108885539D01*
X85307394Y-108885539D02*
X85149998Y-108841357D01*
X85149998Y-108841357D02*
X85005114Y-108784729D01*
X85005114Y-108784729D02*
X84871637Y-108717429D01*
X84871637Y-108717429D02*
X84748315Y-108640472D01*
X84748315Y-108640472D02*
X84633642Y-108553898D01*
X84633642Y-108553898D02*
X84528481Y-108459017D01*
X84528481Y-108459017D02*
X84430754Y-108354014D01*
X84430754Y-108354014D02*
X84342329Y-108240440D01*
X84342329Y-108240440D02*
X84263596Y-108118353D01*
X84263596Y-108118353D02*
X84194370Y-107986031D01*
X84194370Y-107986031D02*
X84135423Y-107841633D01*
X84135423Y-107841633D02*
X84089201Y-107686116D01*
X84089201Y-107686116D02*
X84057442Y-107516596D01*
X84057442Y-107516596D02*
X84043478Y-107329279D01*
X84043478Y-107329279D02*
X84043236Y-107300748D01*
X103247402Y-118485470D02*
X103427519Y-118507234D01*
X103427519Y-118507234D02*
X103574857Y-118560540D01*
X103574857Y-118560540D02*
X103700185Y-118637514D01*
X103700185Y-118637514D02*
X103804449Y-118733267D01*
X103804449Y-118733267D02*
X103890281Y-118848983D01*
X103890281Y-118848983D02*
X103955182Y-118986772D01*
X103955182Y-118986772D02*
X103992575Y-119149936D01*
X103992575Y-119149936D02*
X103997402Y-119235470D01*
X83741419Y-97926687D02*
X83745391Y-97922077D01*
X83761790Y-97904177D02*
X83770288Y-97895554D01*
X83677664Y-98022783D02*
X83684009Y-98010686D01*
X83726786Y-97944747D02*
X83728888Y-97942038D01*
X107833513Y-116016026D02*
X108013630Y-116037790D01*
X108013630Y-116037790D02*
X108160968Y-116091096D01*
X108160968Y-116091096D02*
X108286296Y-116168070D01*
X108286296Y-116168070D02*
X108390560Y-116263823D01*
X108390560Y-116263823D02*
X108476392Y-116379539D01*
X108476392Y-116379539D02*
X108541293Y-116517328D01*
X108541293Y-116517328D02*
X108578686Y-116680492D01*
X108578686Y-116680492D02*
X108583513Y-116766026D01*
X83735316Y-97933999D02*
X83736405Y-97932672D01*
X107083513Y-116766026D02*
X107105277Y-116585901D01*
X107105277Y-116585901D02*
X107158708Y-116438307D01*
X107158708Y-116438307D02*
X107234877Y-116314132D01*
X107234877Y-116314132D02*
X107330476Y-116209725D01*
X107330476Y-116209725D02*
X107446058Y-116123723D01*
X107446058Y-116123723D02*
X107581838Y-116059291D01*
X107581838Y-116059291D02*
X107746801Y-116020981D01*
X107746801Y-116020981D02*
X107833513Y-116016026D01*
X83770288Y-97895554D02*
X83778978Y-97887153D01*
X83885831Y-97810035D02*
X83929053Y-97789328D01*
X83737499Y-97931349D02*
X83738474Y-97930179D01*
X83733153Y-97936663D02*
X83734232Y-97935329D01*
X83724704Y-97947470D02*
X83726786Y-97944747D01*
X107833513Y-117516026D02*
X107653388Y-117494252D01*
X107653388Y-117494252D02*
X107504772Y-117440325D01*
X107504772Y-117440325D02*
X107379824Y-117363291D01*
X107379824Y-117363291D02*
X107275140Y-117266757D01*
X107275140Y-117266757D02*
X107188880Y-117149594D01*
X107188880Y-117149594D02*
X107124591Y-117011462D01*
X107124591Y-117011462D02*
X107087940Y-116848018D01*
X107087940Y-116848018D02*
X107083513Y-116766026D01*
X108583513Y-116766026D02*
X108561739Y-116946142D01*
X108561739Y-116946142D02*
X108508310Y-117093736D01*
X108508310Y-117093736D02*
X108431460Y-117218808D01*
X108431460Y-117218808D02*
X108335708Y-117323072D01*
X108335708Y-117323072D02*
X108219870Y-117408977D01*
X108219870Y-117408977D02*
X108083287Y-117473424D01*
X108083287Y-117473424D02*
X107920219Y-117511064D01*
X107920219Y-117511064D02*
X107833513Y-117516026D01*
X120886291Y-93438248D02*
X121066408Y-93460012D01*
X121066408Y-93460012D02*
X121213746Y-93513318D01*
X121213746Y-93513318D02*
X121339074Y-93590292D01*
X121339074Y-93590292D02*
X121443338Y-93686045D01*
X121443338Y-93686045D02*
X121529170Y-93801761D01*
X121529170Y-93801761D02*
X121594071Y-93939550D01*
X121594071Y-93939550D02*
X121631464Y-94102714D01*
X121631464Y-94102714D02*
X121636291Y-94188248D01*
X83778978Y-97887153D02*
X83787855Y-97878975D01*
X83734232Y-97935329D02*
X83735316Y-97933999D01*
X120136291Y-94188248D02*
X120158055Y-94008123D01*
X120158055Y-94008123D02*
X120211486Y-93860529D01*
X120211486Y-93860529D02*
X120287655Y-93736354D01*
X120287655Y-93736354D02*
X120383254Y-93631947D01*
X120383254Y-93631947D02*
X120498836Y-93545945D01*
X120498836Y-93545945D02*
X120634616Y-93481513D01*
X120634616Y-93481513D02*
X120799579Y-93443203D01*
X120799579Y-93443203D02*
X120886291Y-93438248D01*
X83684009Y-98010686D02*
X83690680Y-97998759D01*
X120886291Y-94938248D02*
X120706166Y-94916474D01*
X120706166Y-94916474D02*
X120557550Y-94862547D01*
X120557550Y-94862547D02*
X120432602Y-94785513D01*
X120432602Y-94785513D02*
X120327918Y-94688980D01*
X120327918Y-94688980D02*
X120241658Y-94571817D01*
X120241658Y-94571817D02*
X120177369Y-94433685D01*
X120177369Y-94433685D02*
X120140718Y-94270240D01*
X120140718Y-94270240D02*
X120136291Y-94188248D01*
X121636291Y-94188248D02*
X121614517Y-94368365D01*
X121614517Y-94368365D02*
X121561088Y-94515959D01*
X121561088Y-94515959D02*
X121484238Y-94641031D01*
X121484238Y-94641031D02*
X121388486Y-94745295D01*
X121388486Y-94745295D02*
X121272648Y-94831199D01*
X121272648Y-94831199D02*
X121136065Y-94895646D01*
X121136065Y-94895646D02*
X120972997Y-94933286D01*
X120972997Y-94933286D02*
X120886291Y-94938248D01*
X83716578Y-97958504D02*
X83720600Y-97952959D01*
X83638905Y-98124702D02*
X83642551Y-98111538D01*
X84167082Y-97751759D02*
X84266316Y-97770829D01*
X84068731Y-97752876D02*
X84167082Y-97751759D01*
X84020802Y-97760573D02*
X84068731Y-97752876D01*
X83736405Y-97932672D02*
X83736951Y-97932010D01*
X83753489Y-97913019D02*
X83761790Y-97904177D01*
X83844765Y-97834744D02*
X83885831Y-97810035D01*
X83787855Y-97878975D02*
X83806149Y-97863301D01*
X83646547Y-98098480D02*
X83655575Y-98072711D01*
X83749414Y-97917521D02*
X83753489Y-97913019D01*
X83665956Y-98047457D02*
X83677664Y-98022783D01*
X83745391Y-97922077D02*
X83749414Y-97917521D01*
X83697676Y-97987014D02*
X83704994Y-97975458D01*
X83737225Y-97931680D02*
X83737499Y-97931349D01*
X83731010Y-97939343D02*
X83733153Y-97936663D01*
X83655575Y-98072711D02*
X83665956Y-98047457D01*
X83712636Y-97964103D02*
X83716578Y-97958504D01*
X83728888Y-97942038D02*
X83731010Y-97939343D01*
X83704994Y-97975458D02*
X83712636Y-97964103D01*
X83974141Y-97772784D02*
X84020802Y-97760573D01*
X83929053Y-97789328D02*
X83974141Y-97772784D01*
X83739452Y-97929011D02*
X83741419Y-97926687D01*
X83736951Y-97932010D02*
X83737225Y-97931680D01*
X83825132Y-97848551D02*
X83844765Y-97834744D01*
X83720600Y-97952959D02*
X83724704Y-97947470D01*
X83690680Y-97998759D02*
X83697676Y-97987014D01*
X83635617Y-98137964D02*
X83638905Y-98124702D01*
X83806149Y-97863301D02*
X83825132Y-97848551D01*
X83738474Y-97930179D02*
X83739452Y-97929011D01*
X83642551Y-98111538D02*
X83646547Y-98098480D01*
X83624789Y-98205048D02*
X83624828Y-98204621D01*
X83624243Y-98211680D02*
X83624488Y-98208578D01*
X83622870Y-98254951D02*
X83622875Y-98242624D01*
X83768547Y-98602268D02*
X83736293Y-98566407D01*
X83983480Y-98730008D02*
X83981130Y-98729303D01*
X84220899Y-98801162D02*
X84151052Y-98780229D01*
X83645776Y-98398415D02*
X83633566Y-98351754D01*
X84151052Y-98780229D02*
X84091754Y-98762457D01*
X83981130Y-98729303D02*
X83979709Y-98728878D01*
X83625869Y-98303826D02*
X83623770Y-98279485D01*
X84091754Y-98762457D02*
X84043964Y-98748135D01*
X83623814Y-98217880D02*
X83624019Y-98214781D01*
X84043964Y-98748135D02*
X84024684Y-98742357D01*
X83623189Y-98230265D02*
X83623463Y-98224076D01*
X83864303Y-98677752D02*
X83843511Y-98664443D01*
X83885866Y-98690082D02*
X83864303Y-98677752D01*
X83954888Y-98720757D02*
X83942956Y-98716333D01*
X83966982Y-98724892D02*
X83960915Y-98722861D01*
X83978193Y-98728423D02*
X83973087Y-98726850D01*
X84024684Y-98742357D02*
X84008641Y-98737549D01*
X84388404Y-98851363D02*
X84300336Y-98824969D01*
X85044358Y-99047952D02*
X84807806Y-98977057D01*
X83622875Y-98242624D02*
X83623189Y-98230265D01*
X83623770Y-98279485D02*
X83623169Y-98267240D01*
X83629141Y-98327929D02*
X83625869Y-98303826D01*
X83908172Y-98701388D02*
X83885866Y-98690082D01*
X83942956Y-98716333D02*
X83931190Y-98711627D01*
X84300336Y-98824969D02*
X84220899Y-98801162D01*
X83632691Y-98151315D02*
X83635617Y-98137964D01*
X83633566Y-98351754D02*
X83629141Y-98327929D01*
X83630134Y-98164750D02*
X83632691Y-98151315D01*
X83628996Y-98171496D02*
X83630134Y-98164750D01*
X83627953Y-98178260D02*
X83628996Y-98171496D01*
X83624488Y-98208578D02*
X83624617Y-98207027D01*
X83662321Y-98443503D02*
X83645776Y-98398415D01*
X83736293Y-98566407D02*
X83707737Y-98527791D01*
X83627006Y-98185041D02*
X83627953Y-98178260D01*
X83626569Y-98188438D02*
X83627006Y-98185041D01*
X83625768Y-98195242D02*
X83626156Y-98191838D01*
X83995955Y-98733746D02*
X83986744Y-98730986D01*
X83624985Y-98202914D02*
X83625065Y-98202061D01*
X83979709Y-98728878D02*
X83978193Y-98728423D01*
X83624752Y-98205475D02*
X83624789Y-98205048D01*
X83624019Y-98214781D02*
X83624243Y-98211680D01*
X84807806Y-98977057D02*
X84586597Y-98910761D01*
X83804342Y-98635057D02*
X83768547Y-98602268D01*
X83623169Y-98267240D02*
X83622870Y-98254951D01*
X83623463Y-98224076D02*
X83623814Y-98217880D01*
X83707737Y-98527791D02*
X83683028Y-98486725D01*
X83625404Y-98198650D02*
X83625768Y-98195242D01*
X83960915Y-98722861D02*
X83954888Y-98720757D01*
X83626156Y-98191838D02*
X83626569Y-98188438D01*
X83625065Y-98202061D02*
X83625232Y-98200355D01*
X83986744Y-98730986D02*
X83983480Y-98730008D01*
X83624617Y-98207027D02*
X83624752Y-98205475D01*
X83973087Y-98726850D02*
X83966982Y-98724892D01*
X83624905Y-98203768D02*
X83624985Y-98202914D01*
X83683028Y-98486725D02*
X83662321Y-98443503D01*
X84008641Y-98737549D02*
X83995955Y-98733746D01*
X83843511Y-98664443D02*
X83804342Y-98635057D01*
X83625232Y-98200355D02*
X83625404Y-98198650D01*
X83624828Y-98204621D02*
X83624905Y-98203768D01*
X83931190Y-98711627D02*
X83908172Y-98701388D01*
X84586597Y-98910761D02*
X84388404Y-98851363D01*
X86581211Y-99508545D02*
X86568525Y-99504743D01*
X85990569Y-99331530D02*
X85769360Y-99265234D01*
X87058100Y-99421085D02*
X87039118Y-99435835D01*
X86533202Y-99494156D02*
X86485412Y-99479834D01*
X86843448Y-99523812D02*
X86795519Y-99531510D01*
X86978419Y-99474350D02*
X86935196Y-99495058D01*
X87019485Y-99449641D02*
X86978419Y-99474350D01*
X87122831Y-99357699D02*
X87118859Y-99362308D01*
X87217702Y-99185906D02*
X87208674Y-99211675D01*
X87102459Y-99380208D02*
X87093961Y-99388831D01*
X87124797Y-99355374D02*
X87122831Y-99357699D01*
X87166574Y-99297372D02*
X87159255Y-99308927D01*
X87151613Y-99320282D02*
X87147672Y-99325881D01*
X87143649Y-99331426D02*
X87139546Y-99336915D01*
X87228633Y-99146422D02*
X87225344Y-99159684D01*
X86188762Y-99390928D02*
X85990569Y-99331530D01*
X87130017Y-99349056D02*
X87128933Y-99350387D01*
X87198294Y-99236929D02*
X87186586Y-99261602D01*
X87236297Y-99106125D02*
X87235254Y-99112889D01*
X86356267Y-99441129D02*
X86188762Y-99390928D01*
X86485412Y-99479834D02*
X86426114Y-99462062D01*
X87225344Y-99159684D02*
X87221699Y-99172848D01*
X86795519Y-99531510D02*
X86697168Y-99532626D01*
X87127024Y-99352706D02*
X87126750Y-99353036D01*
X87234116Y-99119635D02*
X87231559Y-99133070D01*
X86568525Y-99504743D02*
X86533202Y-99494156D01*
X87128933Y-99350387D02*
X87127844Y-99351713D01*
X86590422Y-99511305D02*
X86581211Y-99508545D01*
X87235254Y-99112889D02*
X87234116Y-99119635D01*
X87039118Y-99435835D02*
X87019485Y-99449641D01*
X87133239Y-99345042D02*
X87131096Y-99347722D01*
X87085271Y-99397233D02*
X87076395Y-99405410D01*
X87110760Y-99371366D02*
X87102459Y-99380208D01*
X86593608Y-99512260D02*
X86590422Y-99511305D01*
X86595488Y-99512824D02*
X86593608Y-99512260D01*
X87127298Y-99352375D02*
X87127024Y-99352706D01*
X87127844Y-99351713D02*
X87127298Y-99352375D01*
X86597934Y-99513557D02*
X86595488Y-99512824D01*
X87076395Y-99405410D02*
X87058100Y-99421085D01*
X87093961Y-99388831D02*
X87085271Y-99397233D01*
X87131096Y-99347722D02*
X87130017Y-99349056D01*
X87135362Y-99342348D02*
X87133239Y-99345042D01*
X87159255Y-99308927D02*
X87151613Y-99320282D01*
X87147672Y-99325881D02*
X87143649Y-99331426D01*
X86890108Y-99511602D02*
X86843448Y-99523812D01*
X87221699Y-99172848D02*
X87217702Y-99185906D01*
X87114835Y-99366864D02*
X87110760Y-99371366D01*
X87139546Y-99336915D02*
X87137464Y-99339639D01*
X87186586Y-99261602D02*
X87180240Y-99273700D01*
X87231559Y-99133070D02*
X87228633Y-99146422D01*
X87118859Y-99362308D02*
X87114835Y-99366864D01*
X85288583Y-99121146D02*
X85044358Y-99047952D01*
X85532808Y-99194339D02*
X85288583Y-99121146D01*
X85769360Y-99265234D02*
X85532808Y-99194339D01*
X86426114Y-99462062D02*
X86356267Y-99441129D01*
X87180240Y-99273700D02*
X87173569Y-99285626D01*
X86697168Y-99532626D02*
X86597933Y-99513556D01*
X86935196Y-99495058D02*
X86890108Y-99511602D01*
X87237243Y-99099345D02*
X87236297Y-99106125D01*
X87126750Y-99353036D02*
X87125775Y-99354207D01*
X87125775Y-99354207D02*
X87124797Y-99355374D01*
X87173569Y-99285626D02*
X87166574Y-99297372D01*
X87208674Y-99211675D02*
X87198294Y-99236929D01*
X87137464Y-99339639D02*
X87135362Y-99342348D01*
X87235108Y-98956457D02*
X87238381Y-98980560D01*
X87218473Y-98885971D02*
X87230684Y-98932631D01*
X87095703Y-98682118D02*
X87127956Y-98717979D01*
X86891161Y-98557535D02*
X86897267Y-98559493D01*
X86877505Y-98553400D02*
X86880769Y-98554378D01*
X87239184Y-99082325D02*
X87239018Y-99084031D01*
X87239265Y-99081471D02*
X87239184Y-99082325D01*
X86909360Y-98563629D02*
X86921292Y-98568052D01*
X86772494Y-98521928D02*
X86820284Y-98536251D01*
X85331442Y-98090046D02*
X85575666Y-98163240D01*
X86643349Y-98483223D02*
X86713196Y-98504157D01*
X87181222Y-98797660D02*
X87201929Y-98840883D01*
X87240231Y-99069605D02*
X87240006Y-99072705D01*
X87127956Y-98717979D02*
X87156513Y-98756594D01*
X86884540Y-98555508D02*
X86886056Y-98555962D01*
X86839564Y-98542029D02*
X86855607Y-98546837D01*
X87241060Y-99054120D02*
X87240787Y-99060310D01*
X87239344Y-99080618D02*
X87239265Y-99081471D01*
X87239498Y-99078910D02*
X87239460Y-99079337D01*
X87239422Y-99079764D02*
X87239344Y-99080618D01*
X86999946Y-98606633D02*
X87020738Y-98619943D01*
X86886056Y-98555962D02*
X86891161Y-98557535D01*
X87241374Y-99041762D02*
X87241060Y-99054120D01*
X86956077Y-98582997D02*
X86978383Y-98594303D01*
X86921292Y-98568052D02*
X86933058Y-98572758D01*
X86903333Y-98561525D02*
X86909360Y-98563629D01*
X86820284Y-98536251D02*
X86839564Y-98542029D01*
X87020738Y-98619943D02*
X87059907Y-98649329D01*
X87239633Y-99077359D02*
X87239498Y-99078910D01*
X87201929Y-98840883D02*
X87218473Y-98885971D01*
X87240006Y-99072705D02*
X87239762Y-99075807D01*
X87240436Y-99066505D02*
X87240231Y-99069605D01*
X87241380Y-99029435D02*
X87241374Y-99041762D01*
X87240479Y-99004900D02*
X87241081Y-99017146D01*
X86855607Y-98546837D02*
X86868294Y-98550639D01*
X86713196Y-98504157D02*
X86772494Y-98521928D01*
X86563913Y-98459416D02*
X86643349Y-98483223D01*
X86475845Y-98433022D02*
X86563913Y-98459416D01*
X87241081Y-99017146D02*
X87241380Y-99029435D01*
X87230684Y-98932631D02*
X87235108Y-98956457D01*
X87156513Y-98756594D02*
X87181222Y-98797660D01*
X85819891Y-98236434D02*
X86056443Y-98307328D01*
X87059907Y-98649329D02*
X87095703Y-98682118D01*
X86978383Y-98594303D02*
X86999946Y-98606633D01*
X86933058Y-98572758D02*
X86956077Y-98582997D01*
X86880769Y-98554378D02*
X86883119Y-98555082D01*
X85575666Y-98163240D02*
X85819891Y-98236434D01*
X86056443Y-98307328D02*
X86277652Y-98373624D01*
X84675488Y-97893457D02*
X84873680Y-97952855D01*
X86883119Y-98555082D02*
X86884540Y-98555508D01*
X86277652Y-98373624D02*
X86475845Y-98433022D01*
X87239460Y-99079337D02*
X87239422Y-99079764D01*
X87237681Y-99095948D02*
X87237243Y-99099345D01*
X87238093Y-99092548D02*
X87237681Y-99095948D01*
X86897267Y-98559493D02*
X86903333Y-98561525D01*
X87238482Y-99089144D02*
X87238093Y-99092548D01*
X87238845Y-99085736D02*
X87238482Y-99089144D01*
X87239018Y-99084031D02*
X87238845Y-99085736D01*
X84873680Y-97952855D02*
X85094889Y-98019151D01*
X87239762Y-99075807D02*
X87239633Y-99077359D01*
X87240787Y-99060310D02*
X87240436Y-99066505D01*
X85094889Y-98019151D02*
X85331442Y-98090046D01*
X87238381Y-98980560D02*
X87240479Y-99004900D01*
X86868294Y-98550639D02*
X86877505Y-98553400D01*
X88348694Y-102107495D02*
X88349922Y-102108694D01*
X84295725Y-97779643D02*
X84331048Y-97790229D01*
X84283038Y-97775841D02*
X84295725Y-97779643D01*
X88393699Y-102157753D02*
X88401010Y-102167356D01*
X88108001Y-101977815D02*
X88111341Y-101978568D01*
X88220505Y-102017525D02*
X88244677Y-102030224D01*
X88312705Y-102075829D02*
X88323295Y-102084500D01*
X88279597Y-102051640D02*
X88290846Y-102059398D01*
X88118004Y-101980146D02*
X88124640Y-101981817D01*
X88111341Y-101978568D02*
X88118004Y-101980146D01*
X88386148Y-102148315D02*
X88393699Y-102157753D01*
X88338726Y-102098072D02*
X88341243Y-102100399D01*
X88351145Y-102109898D02*
X88352364Y-102111106D01*
X84268761Y-97771562D02*
X84270642Y-97772125D01*
X88414903Y-102187037D02*
X88427812Y-102207317D01*
X88497091Y-102410362D02*
X88500269Y-102458800D01*
X88378358Y-102139047D02*
X88386148Y-102148315D01*
X88244677Y-102030224D02*
X88268146Y-102044190D01*
X88354653Y-102113400D02*
X88355723Y-102114483D01*
X88353578Y-102112320D02*
X88354653Y-102113400D01*
X88131250Y-101983581D02*
X88144387Y-101987384D01*
X88170302Y-101996063D02*
X88183067Y-102000924D01*
X88353275Y-102112016D02*
X88353578Y-102112320D01*
X88290846Y-102059398D02*
X88301886Y-102067461D01*
X84507983Y-97843256D02*
X84675488Y-97893457D01*
X84378838Y-97804552D02*
X84438136Y-97822323D01*
X88460478Y-102271354D02*
X88477049Y-102316325D01*
X88124640Y-101981817D02*
X88131250Y-101983581D01*
X84273828Y-97773080D02*
X84283038Y-97775841D01*
X88096261Y-101975369D02*
X88097942Y-101975700D01*
X84266316Y-97770829D02*
X84268761Y-97771562D01*
X88492176Y-102556824D02*
X88463903Y-102653838D01*
X88301886Y-102067461D02*
X88312705Y-102075829D01*
X88352364Y-102111106D02*
X88352972Y-102111712D01*
X88500269Y-102458800D02*
X88492176Y-102556824D01*
X88101301Y-101976381D02*
X88104654Y-101977086D01*
X88104654Y-101977086D02*
X88108001Y-101977815D01*
X88157406Y-101991547D02*
X88170302Y-101996063D01*
X88489301Y-102362763D02*
X88497091Y-102410362D01*
X88427812Y-102207317D02*
X88439721Y-102228156D01*
X88401010Y-102167356D02*
X88414903Y-102187037D01*
X88357854Y-102116658D02*
X88362071Y-102121044D01*
X88355723Y-102114483D02*
X88357854Y-102116658D01*
X88097942Y-101975700D02*
X88101301Y-101976381D01*
X88349922Y-102108694D02*
X88351145Y-102109898D01*
X88183067Y-102000924D02*
X88195694Y-102006125D01*
X84438136Y-97822323D02*
X84507983Y-97843256D01*
X88346227Y-102105111D02*
X88348694Y-102107495D01*
X88343743Y-102102746D02*
X88346227Y-102105111D01*
X88144387Y-101987384D02*
X88157406Y-101991547D01*
X88341243Y-102100399D02*
X88343743Y-102102746D01*
X84270642Y-97772125D02*
X84273828Y-97773080D01*
X84331048Y-97790229D02*
X84378838Y-97804552D01*
X88352972Y-102111712D02*
X88353275Y-102112016D01*
X88195694Y-102006125D02*
X88220505Y-102017525D01*
X88366230Y-102125477D02*
X88370332Y-102129955D01*
X88333645Y-102093472D02*
X88338726Y-102098072D01*
X88268146Y-102044190D02*
X88279597Y-102051640D01*
X88328501Y-102088949D02*
X88333645Y-102093472D01*
X88477049Y-102316325D02*
X88489301Y-102362763D01*
X88439721Y-102228156D02*
X88460478Y-102271354D01*
X88370332Y-102129955D02*
X88378358Y-102139047D01*
X88362071Y-102121044D02*
X88366230Y-102125477D01*
X88323295Y-102084500D02*
X88328501Y-102088949D01*
X87395914Y-102626796D02*
X87453700Y-102484157D01*
X87850709Y-101989538D02*
X87897147Y-101977287D01*
X87613781Y-102149256D02*
X87646704Y-102113009D01*
X87570946Y-102210176D02*
X87584290Y-102189026D01*
X86843206Y-103991123D02*
X86919517Y-103802752D01*
X87544632Y-102260678D02*
X87547290Y-102254875D01*
X87536414Y-102279981D02*
X87536905Y-102278771D01*
X87251231Y-102983938D02*
X87327543Y-102795568D01*
X87536905Y-102278771D02*
X87537477Y-102277359D01*
X86919517Y-103802752D02*
X86980334Y-103652627D01*
X86980334Y-103652627D02*
X87001122Y-103601315D01*
X87547290Y-102254875D02*
X87552811Y-102243409D01*
X87521389Y-102317070D02*
X87526924Y-102303408D01*
X87558598Y-102232135D02*
X87570946Y-102210176D01*
X88089676Y-101974132D02*
X88091208Y-101974411D01*
X87534478Y-102284762D02*
X87535604Y-102281982D01*
X87805738Y-102006110D02*
X87850709Y-101989538D01*
X87682699Y-102080440D02*
X87721421Y-102051684D01*
X88085078Y-101973325D02*
X88088143Y-101973858D01*
X88082012Y-101972811D02*
X88085078Y-101973325D01*
X88078945Y-101972317D02*
X88082012Y-101972811D01*
X87944746Y-101969497D02*
X87968881Y-101967321D01*
X87535604Y-102281982D02*
X87536414Y-102279981D01*
X87897147Y-101977287D02*
X87944746Y-101969497D01*
X87498252Y-102374183D02*
X87514738Y-102333488D01*
X87584290Y-102189026D02*
X87598584Y-102168712D01*
X87539520Y-102272423D02*
X87542041Y-102266528D01*
X87514738Y-102333488D02*
X87521389Y-102317070D01*
X86639448Y-104494086D02*
X86643825Y-104483282D01*
X87453700Y-102484157D02*
X87477795Y-102424679D01*
X88072809Y-101971387D02*
X88078945Y-101972317D01*
X88066673Y-101970536D02*
X88072809Y-101971387D01*
X87993184Y-101966319D02*
X88017614Y-101966508D01*
X86717049Y-104302533D02*
X86774834Y-104159894D01*
X88054398Y-101969067D02*
X88066673Y-101970536D01*
X86672497Y-104412507D02*
X86692953Y-104362012D01*
X88029863Y-101967055D02*
X88042126Y-101967907D01*
X87762540Y-102026867D02*
X87805738Y-102006110D01*
X87598584Y-102168712D02*
X87613781Y-102149256D01*
X87552811Y-102243409D02*
X87558598Y-102232135D01*
X87537477Y-102277359D02*
X87539520Y-102272423D01*
X86656010Y-104453203D02*
X86672497Y-104412507D01*
X87327543Y-102795568D02*
X87395914Y-102626796D01*
X87001122Y-103601315D02*
X87085374Y-103393345D01*
X87169626Y-103185375D02*
X87251231Y-102983938D01*
X87968881Y-101967321D02*
X87993184Y-101966319D01*
X87721421Y-102051684D02*
X87762540Y-102026867D01*
X87646704Y-102113009D02*
X87682699Y-102080440D01*
X86692953Y-104362012D02*
X86717049Y-104302533D01*
X87526924Y-102303408D02*
X87531300Y-102292605D01*
X87531300Y-102292605D02*
X87534478Y-102284762D01*
X87542041Y-102266528D02*
X87544632Y-102260678D01*
X88094578Y-101975043D02*
X88096261Y-101975369D01*
X88093736Y-101974883D02*
X88094578Y-101975043D01*
X86643825Y-104483282D02*
X86656010Y-104453203D01*
X88092893Y-101974724D02*
X88093736Y-101974883D01*
X88092051Y-101974567D02*
X88092893Y-101974724D01*
X88091629Y-101974489D02*
X88092051Y-101974567D01*
X88091208Y-101974411D02*
X88091629Y-101974489D01*
X87477795Y-102424679D02*
X87498252Y-102374183D01*
X88088143Y-101973858D02*
X88089676Y-101974132D01*
X86774834Y-104159894D02*
X86843206Y-103991123D01*
X87085374Y-103393345D02*
X87169626Y-103185375D01*
X88042126Y-101967907D02*
X88054398Y-101969067D01*
X88017614Y-101966508D02*
X88029863Y-101967055D01*
X95834424Y-97865445D02*
X95841395Y-97875611D01*
X95804292Y-97826847D02*
X95819797Y-97845727D01*
X95787953Y-97808827D02*
X95804292Y-97826847D01*
X95141318Y-97718578D02*
X95197030Y-97700709D01*
X92696678Y-98502667D02*
X92927727Y-98428561D01*
X111422344Y-94646184D02*
X111509210Y-94697812D01*
X92350851Y-98613587D02*
X92419979Y-98591415D01*
X92228433Y-98652852D02*
X92239170Y-98649408D01*
X95819797Y-97845727D02*
X95827223Y-97855483D01*
X93746084Y-98166083D02*
X94030796Y-98074765D01*
X95610048Y-97688528D02*
X95653660Y-97708402D01*
X92220393Y-98655430D02*
X92221888Y-98654951D01*
X95271937Y-97676683D02*
X95273526Y-97676174D01*
X95219506Y-97693500D02*
X95238209Y-97687501D01*
X95273526Y-97676174D02*
X95278625Y-97674581D01*
X95197030Y-97700709D02*
X95219506Y-97693500D01*
X94898158Y-97796568D02*
X94990764Y-97766866D01*
X92419979Y-98591415D02*
X92501405Y-98565299D01*
X94564442Y-97903604D02*
X94795491Y-97829498D01*
X95695192Y-97732318D02*
X95734349Y-97760128D01*
X95653660Y-97708402D02*
X95695192Y-97732318D01*
X95371343Y-97655534D02*
X95396099Y-97653496D01*
X95564651Y-97672852D02*
X95610048Y-97688528D01*
X93185606Y-98345849D02*
X93461373Y-98257400D01*
X95396099Y-97653496D02*
X95420774Y-97652703D01*
X95290919Y-97670982D02*
X95297078Y-97669306D01*
X95284768Y-97672740D02*
X95290919Y-97670982D01*
X94030796Y-98074765D02*
X94306563Y-97986316D01*
X95263736Y-97679313D02*
X95267541Y-97678093D01*
X95827223Y-97855483D02*
X95834424Y-97865445D01*
X95238209Y-97687501D02*
X95252999Y-97682757D01*
X95770822Y-97791688D02*
X95787953Y-97808827D01*
X95734349Y-97760128D02*
X95770822Y-97791688D01*
X95420774Y-97652703D02*
X95469697Y-97654763D01*
X95321783Y-97663421D02*
X95346555Y-97658836D01*
X95252999Y-97682757D02*
X95263736Y-97679313D01*
X95072190Y-97740750D02*
X95141318Y-97718578D01*
X94990764Y-97766866D02*
X95072190Y-97740750D01*
X111329456Y-94613844D02*
X111422344Y-94646184D01*
X92927727Y-98428561D02*
X93118900Y-98367244D01*
X93118900Y-98367244D02*
X93185606Y-98345849D01*
X92239170Y-98649408D02*
X92253960Y-98644664D01*
X92224628Y-98654072D02*
X92228433Y-98652852D01*
X95469697Y-97654763D02*
X95564651Y-97672852D01*
X95270281Y-97677214D02*
X95271937Y-97676683D01*
X94795491Y-97829498D02*
X94898158Y-97796568D01*
X93461373Y-98257400D02*
X93746084Y-98166083D01*
X94306563Y-97986316D02*
X94502394Y-97923504D01*
X94502394Y-97923504D02*
X94564442Y-97903604D01*
X95309419Y-97666200D02*
X95321783Y-97663421D01*
X92501405Y-98565299D02*
X92696678Y-98502667D01*
X95346555Y-97658836D02*
X95371343Y-97655534D01*
X92253960Y-98644664D02*
X92295139Y-98631457D01*
X95297078Y-97669306D02*
X95309419Y-97666200D01*
X92295139Y-98631457D02*
X92350851Y-98613587D01*
X95278625Y-97674581D02*
X95284768Y-97672740D01*
X95267541Y-97678093D02*
X95270281Y-97677214D01*
X92221888Y-98654951D02*
X92224628Y-98654072D01*
X92219675Y-98655661D02*
X92220393Y-98655430D01*
X110758187Y-94888829D02*
X110758368Y-94888440D01*
X110959937Y-94667727D02*
X110962575Y-94666208D01*
X110942680Y-94678227D02*
X110945577Y-94676393D01*
X110939797Y-94680082D02*
X110942680Y-94678227D01*
X111138014Y-94605513D02*
X111185699Y-94600710D01*
X111067844Y-94621134D02*
X111090998Y-94614813D01*
X110957306Y-94669263D02*
X110958620Y-94668493D01*
X110750660Y-94905887D02*
X110753094Y-94900179D01*
X110900949Y-94708101D02*
X110911756Y-94699716D01*
X111000300Y-94646726D02*
X111011326Y-94641774D01*
X110890382Y-94716774D02*
X110900949Y-94708101D01*
X111044981Y-94628563D02*
X111067844Y-94621134D01*
X110962575Y-94666208D02*
X110967876Y-94663221D01*
X110754339Y-94897333D02*
X110755603Y-94894492D01*
X110954353Y-94671014D02*
X110955827Y-94670136D01*
X110958620Y-94668493D02*
X110959937Y-94667727D01*
X110928408Y-94687702D02*
X110934074Y-94683852D01*
X110967876Y-94663221D02*
X110973208Y-94660302D01*
X110922799Y-94691630D02*
X110928408Y-94687702D01*
X110911756Y-94699716D02*
X110922799Y-94691630D01*
X110764139Y-94876478D02*
X110765681Y-94873420D01*
X110761119Y-94882630D02*
X110762618Y-94879548D01*
X110755603Y-94894492D02*
X110756886Y-94891658D01*
X110759642Y-94885724D02*
X110760378Y-94884175D01*
X111011326Y-94641774D02*
X111022452Y-94637095D01*
X110989379Y-94651952D02*
X111000300Y-94646726D01*
X110973208Y-94660302D02*
X110978569Y-94657450D01*
X110956936Y-94669481D02*
X110957306Y-94669263D01*
X110770439Y-94864317D02*
X110773716Y-94858309D01*
X110956566Y-94669699D02*
X110956936Y-94669481D01*
X110955827Y-94670136D02*
X110956566Y-94669699D01*
X110952881Y-94671897D02*
X110954353Y-94671014D01*
X110880058Y-94725727D02*
X110890382Y-94716774D01*
X110798924Y-94817658D02*
X110806822Y-94806514D01*
X110869982Y-94734952D02*
X110880058Y-94725727D01*
X110758912Y-94887275D02*
X110759276Y-94886499D01*
X110945577Y-94676393D02*
X110948488Y-94674579D01*
X110934074Y-94683852D02*
X110939797Y-94680082D01*
X110850593Y-94754185D02*
X110869982Y-94734952D01*
X110832255Y-94774414D02*
X110850593Y-94754185D01*
X110756886Y-94891658D02*
X110757534Y-94890243D01*
X110759276Y-94886499D02*
X110759642Y-94885724D01*
X110815014Y-94795588D02*
X110832255Y-94774414D01*
X110777076Y-94852350D02*
X110784043Y-94840581D01*
X110806822Y-94806514D02*
X110815014Y-94795588D01*
X110791328Y-94829016D02*
X110798924Y-94817658D01*
X110773716Y-94858309D02*
X110777076Y-94852350D01*
X110767246Y-94870374D02*
X110770439Y-94864317D01*
X110765681Y-94873420D02*
X110767246Y-94870374D01*
X110753094Y-94900179D02*
X110754339Y-94897333D01*
X110758549Y-94888051D02*
X110758912Y-94887275D01*
X111281761Y-94604812D02*
X111329456Y-94613844D01*
X111090998Y-94614813D02*
X111138014Y-94605513D01*
X111022452Y-94637095D02*
X111044981Y-94628563D01*
X110784043Y-94840581D02*
X110791328Y-94829016D01*
X110757534Y-94890243D02*
X110758187Y-94888829D01*
X111233726Y-94600456D02*
X111281761Y-94604812D01*
X110948488Y-94674579D02*
X110951413Y-94672786D01*
X110762618Y-94879548D02*
X110764139Y-94876478D01*
X110760378Y-94884175D02*
X110761119Y-94882630D01*
X111185699Y-94600710D02*
X111233726Y-94600456D01*
X110978569Y-94657450D02*
X110989379Y-94651952D01*
X110951413Y-94672786D02*
X110952881Y-94671897D01*
X110758368Y-94888440D02*
X110758549Y-94888051D01*
X110915478Y-95502477D02*
X110914345Y-95501638D01*
X110908825Y-95497498D02*
X110903747Y-95493583D01*
X110950203Y-95528201D02*
X110937412Y-95518726D01*
X110913093Y-95500710D02*
X110908825Y-95497498D01*
X113277308Y-97145350D02*
X113229273Y-97140993D01*
X111050955Y-95602835D02*
X111003677Y-95567813D01*
X110725848Y-94981717D02*
X110732138Y-94958110D01*
X112995834Y-97043557D02*
X112988491Y-97038118D01*
X110726816Y-95220174D02*
X110717517Y-95173158D01*
X113001824Y-97047994D02*
X112999874Y-97046550D01*
X111763177Y-96130433D02*
X111574576Y-95990722D01*
X110717517Y-95173158D02*
X110712713Y-95125473D01*
X110937412Y-95518726D02*
X110927297Y-95511233D01*
X110965575Y-95539588D02*
X110950203Y-95528201D01*
X113420036Y-97130993D02*
X113373020Y-97140293D01*
X110716816Y-95029412D02*
X110720743Y-95005500D01*
X110839267Y-95433302D02*
X110823171Y-95414383D01*
X111003677Y-95567813D02*
X110965575Y-95539588D01*
X111169977Y-95691004D02*
X111106643Y-95644088D01*
X111574576Y-95990722D02*
X111398209Y-95860073D01*
X113088690Y-97099622D02*
X113001824Y-97047994D01*
X112341212Y-96558628D02*
X112200654Y-96454506D01*
X112200654Y-96454506D02*
X112152612Y-96418917D01*
X113325335Y-97145096D02*
X113277308Y-97145350D01*
X112675596Y-96806332D02*
X112517579Y-96689277D01*
X112999874Y-97046550D02*
X112998374Y-97045439D01*
X113181578Y-97131961D02*
X113088690Y-97099622D01*
X113373020Y-97140293D02*
X113325335Y-97145096D01*
X110898730Y-95489613D02*
X110893776Y-95485587D01*
X112978376Y-97030625D02*
X112950213Y-97009762D01*
X110748302Y-94911616D02*
X110750660Y-94905887D01*
X110743811Y-94923134D02*
X110748302Y-94911616D01*
X110739620Y-94934727D02*
X110743811Y-94923134D01*
X110732138Y-94958110D02*
X110735729Y-94946387D01*
X110712459Y-95077446D02*
X110716816Y-95029412D01*
X110781266Y-95353866D02*
X110758729Y-95310872D01*
X110893776Y-95485587D02*
X110884054Y-95477376D01*
X110884054Y-95477376D02*
X110874585Y-95468955D01*
X110735729Y-94946387D02*
X110739620Y-94934727D01*
X110712713Y-95125473D02*
X110712459Y-95077446D01*
X110874585Y-95468955D02*
X110856410Y-95451509D01*
X112864833Y-96946515D02*
X112809145Y-96905262D01*
X110758729Y-95310872D02*
X110740566Y-95266191D01*
X110808132Y-95394805D02*
X110781266Y-95353866D01*
X110903747Y-95493583D02*
X110898730Y-95489613D01*
X112152612Y-96418917D02*
X111957894Y-96274675D01*
X110927297Y-95511233D02*
X110919954Y-95505793D01*
X111106643Y-95644088D02*
X111050955Y-95602835D01*
X112988491Y-97038118D02*
X112978376Y-97030625D01*
X111957894Y-96274675D02*
X111763177Y-96130433D01*
X110823171Y-95414383D02*
X110808132Y-95394805D01*
X110914345Y-95501638D02*
X110913093Y-95500710D01*
X110917352Y-95503865D02*
X110915478Y-95502477D01*
X110919954Y-95505793D02*
X110917352Y-95503865D01*
X112517579Y-96689277D02*
X112341212Y-96558628D01*
X112809145Y-96905262D02*
X112675596Y-96806332D01*
X112950213Y-97009762D02*
X112912111Y-96981537D01*
X112998374Y-97045439D02*
X112995834Y-97043557D01*
X112912111Y-96981537D02*
X112864833Y-96946515D01*
X113229273Y-97140993D02*
X113181578Y-97131961D01*
X110720743Y-95005500D02*
X110725848Y-94981717D01*
X110740566Y-95266191D02*
X110726816Y-95220174D01*
X110856410Y-95451509D02*
X110839267Y-95433302D01*
X111398209Y-95860073D02*
X111240193Y-95743018D01*
X111240193Y-95743018D02*
X111169977Y-95691004D01*
X86711434Y-105013849D02*
X86703883Y-105004411D01*
X86731352Y-105036687D02*
X86727250Y-105032209D01*
X86735511Y-105041119D02*
X86731352Y-105036687D01*
X86972942Y-105180346D02*
X86966332Y-105178582D01*
X86806736Y-105102766D02*
X86795696Y-105094702D01*
X86756339Y-105061764D02*
X86753839Y-105059418D01*
X86817986Y-105110524D02*
X86806736Y-105102766D01*
X86877077Y-105144639D02*
X86852906Y-105131940D01*
X86901889Y-105156039D02*
X86877077Y-105144639D01*
X86636271Y-104501929D02*
X86639448Y-104494086D01*
X86605406Y-104605340D02*
X86633679Y-104508326D01*
X86703883Y-105004411D02*
X86696572Y-104994808D01*
X86635172Y-104504642D02*
X86636271Y-104501929D01*
X86634523Y-104506243D02*
X86635172Y-104504642D01*
X86620533Y-104845839D02*
X86608281Y-104799400D01*
X86741859Y-105047681D02*
X86739728Y-105045505D01*
X86914516Y-105161240D02*
X86901889Y-105156039D01*
X86979579Y-105182018D02*
X86972942Y-105180346D01*
X86829436Y-105117974D02*
X86817986Y-105110524D01*
X86744307Y-105050148D02*
X86744004Y-105049844D01*
X86763937Y-105068691D02*
X86758856Y-105064092D01*
X86657861Y-104934008D02*
X86637104Y-104890810D01*
X86744004Y-105049844D02*
X86742929Y-105048764D01*
X86682679Y-104975127D02*
X86669770Y-104954847D01*
X86719224Y-105023116D02*
X86711434Y-105013849D01*
X86745218Y-105051057D02*
X86744610Y-105050451D01*
X86953195Y-105174779D02*
X86940176Y-105170616D01*
X86747660Y-105053469D02*
X86746437Y-105052266D01*
X86669770Y-104954847D02*
X86657861Y-104934008D01*
X86696572Y-104994808D02*
X86682679Y-104975127D01*
X86758856Y-105064092D02*
X86756339Y-105061764D01*
X86727250Y-105032209D02*
X86719224Y-105023116D01*
X86753839Y-105059418D02*
X86751355Y-105057053D01*
X86746437Y-105052266D02*
X86745218Y-105051057D01*
X86795696Y-105094702D02*
X86784877Y-105086334D01*
X86739728Y-105045505D02*
X86735511Y-105041119D01*
X86742929Y-105048764D02*
X86741859Y-105047681D01*
X86784877Y-105086334D02*
X86774287Y-105077664D01*
X86744610Y-105050451D02*
X86744307Y-105050148D01*
X86769081Y-105073215D02*
X86763937Y-105068691D01*
X86633679Y-104508326D02*
X86634523Y-104506243D01*
X86940176Y-105170616D02*
X86927280Y-105166101D01*
X86608281Y-104799400D02*
X86600491Y-104751802D01*
X86751355Y-105057053D02*
X86748888Y-105054668D01*
X86927280Y-105166101D02*
X86914516Y-105161240D01*
X86852906Y-105131940D02*
X86829436Y-105117974D01*
X86774287Y-105077664D02*
X86769081Y-105073215D01*
X86600491Y-104751802D02*
X86597313Y-104703363D01*
X86637104Y-104890810D02*
X86620533Y-104845839D01*
X86748888Y-105054668D02*
X86747660Y-105053469D01*
X86966332Y-105178582D02*
X86953195Y-105174779D01*
X86597313Y-104703363D02*
X86605406Y-104605340D01*
X87846351Y-104178225D02*
X87770039Y-104366596D01*
X87005953Y-105187675D02*
X87005532Y-105187597D01*
X87015571Y-105189353D02*
X87012505Y-105188839D01*
X87043185Y-105193097D02*
X87030910Y-105191628D01*
X87055457Y-105194257D02*
X87043185Y-105193097D01*
X87414884Y-105081724D02*
X87376162Y-105110480D01*
X87483802Y-105012907D02*
X87450879Y-105049155D01*
X88012208Y-103768818D02*
X87927956Y-103976788D01*
X87376162Y-105110480D02*
X87335043Y-105135297D01*
X88254376Y-103171041D02*
X88178065Y-103359412D01*
X87563104Y-104877402D02*
X87561978Y-104880182D01*
X87544771Y-104918754D02*
X87538985Y-104930028D01*
X87701668Y-104535368D02*
X87643882Y-104678007D01*
X86986241Y-105183595D02*
X86979579Y-105182018D01*
X86989582Y-105184348D02*
X86986241Y-105183595D01*
X86999640Y-105186464D02*
X86996281Y-105185783D01*
X87246874Y-105172625D02*
X87200435Y-105184877D01*
X86992929Y-105185078D02*
X86989582Y-105184348D01*
X87007907Y-105188031D02*
X87006375Y-105187752D01*
X87335043Y-105135297D02*
X87291844Y-105156054D01*
X87582844Y-104828676D02*
X87576193Y-104845094D01*
X87561978Y-104880182D02*
X87561168Y-104882183D01*
X87576193Y-104845094D02*
X87570658Y-104858755D01*
X87599330Y-104787980D02*
X87582844Y-104828676D01*
X86996281Y-105185783D02*
X86992929Y-105185078D01*
X87001322Y-105186795D02*
X86999640Y-105186464D01*
X87003005Y-105187120D02*
X87001322Y-105186795D01*
X87005532Y-105187597D02*
X87004689Y-105187439D01*
X87550292Y-104907289D02*
X87544771Y-104918754D01*
X87006375Y-105187752D02*
X87005953Y-105187675D01*
X87128702Y-105194842D02*
X87104398Y-105195845D01*
X87018638Y-105189847D02*
X87015571Y-105189353D01*
X87024773Y-105190777D02*
X87018638Y-105189847D01*
X87643882Y-104678007D02*
X87619787Y-104737485D01*
X87104398Y-105195845D02*
X87079968Y-105195656D01*
X87079968Y-105195656D02*
X87067720Y-105195109D01*
X87152837Y-105192667D02*
X87128702Y-105194842D01*
X87200435Y-105184877D02*
X87152837Y-105192667D01*
X87498999Y-104993452D02*
X87483802Y-105012907D01*
X87513293Y-104973137D02*
X87498999Y-104993452D01*
X87552951Y-104901485D02*
X87550292Y-104907289D01*
X88096460Y-103560848D02*
X88012208Y-103768818D01*
X87560105Y-104884804D02*
X87558062Y-104889740D01*
X87561168Y-104882183D02*
X87560677Y-104883393D01*
X87570658Y-104858755D02*
X87566282Y-104869559D01*
X87770039Y-104366596D02*
X87701668Y-104535368D01*
X88178065Y-103359412D02*
X88117246Y-103509535D01*
X88117246Y-103509535D02*
X88096460Y-103560848D01*
X87927956Y-103976788D02*
X87846351Y-104178225D01*
X87566282Y-104869559D02*
X87563104Y-104877402D01*
X87526637Y-104951987D02*
X87513293Y-104973137D01*
X87555541Y-104895635D02*
X87552951Y-104901485D01*
X87067720Y-105195109D02*
X87055457Y-105194257D01*
X87003847Y-105187281D02*
X87003005Y-105187120D01*
X87450879Y-105049155D02*
X87414884Y-105081724D01*
X87619787Y-104737485D02*
X87599330Y-104787980D01*
X87004689Y-105187439D02*
X87003847Y-105187281D01*
X87009439Y-105188306D02*
X87007907Y-105188031D01*
X87291844Y-105156054D02*
X87246874Y-105172625D01*
X87558062Y-104889740D02*
X87555541Y-104895635D01*
X87012505Y-105188839D02*
X87009439Y-105188306D01*
X87030910Y-105191628D02*
X87024773Y-105190777D01*
X88322748Y-103002269D02*
X88254376Y-103171041D01*
X87538985Y-104930028D02*
X87526637Y-104951987D01*
X87560677Y-104883393D02*
X87560105Y-104884804D01*
X88078493Y-108519453D02*
X88079965Y-108518570D01*
X88455068Y-108461401D02*
X88547956Y-108493741D01*
X88407373Y-108452369D02*
X88455068Y-108461401D01*
X88359338Y-108448013D02*
X88407373Y-108452369D01*
X88311311Y-108448267D02*
X88359338Y-108448013D01*
X88170593Y-108476119D02*
X88193456Y-108468690D01*
X88136938Y-108489330D02*
X88148064Y-108484651D01*
X88071189Y-108523949D02*
X88074100Y-108522135D01*
X88125912Y-108494282D02*
X88136938Y-108489330D01*
X88093488Y-108510777D02*
X88098820Y-108507858D01*
X87916940Y-108676572D02*
X87924536Y-108665214D01*
X88082918Y-108516819D02*
X88084232Y-108516049D01*
X88088187Y-108513764D02*
X88093488Y-108510777D01*
X88114991Y-108499508D02*
X88125912Y-108494282D01*
X88065409Y-108527638D02*
X88068292Y-108525783D01*
X87924536Y-108665214D02*
X87932434Y-108654070D01*
X88082548Y-108517037D02*
X88082918Y-108516819D01*
X88082178Y-108517255D02*
X88082548Y-108517037D01*
X87940626Y-108643144D02*
X87957867Y-108621971D01*
X88079965Y-108518570D02*
X88081440Y-108517692D01*
X88074100Y-108522135D02*
X88077026Y-108520342D01*
X87909655Y-108688137D02*
X87916940Y-108676572D01*
X87889751Y-108724034D02*
X87891293Y-108720976D01*
X87995594Y-108582508D02*
X88005670Y-108573283D01*
X87888230Y-108727104D02*
X87889751Y-108724034D01*
X88068292Y-108525783D02*
X88071189Y-108523949D01*
X88054020Y-108535258D02*
X88059686Y-108531408D01*
X88048411Y-108539186D02*
X88054020Y-108535258D01*
X87957867Y-108621971D02*
X87976205Y-108601741D01*
X88005670Y-108573283D02*
X88015994Y-108564330D01*
X87976205Y-108601741D02*
X87995594Y-108582508D01*
X87891293Y-108720976D02*
X87892858Y-108717930D01*
X87886731Y-108730186D02*
X87888230Y-108727104D01*
X88380533Y-102859630D02*
X88322748Y-103002269D01*
X88404629Y-102800152D02*
X88380533Y-102859630D01*
X88015994Y-108564330D02*
X88026561Y-108555657D01*
X88425085Y-102749657D02*
X88404629Y-102800152D01*
X88441572Y-102708961D02*
X88425085Y-102749657D01*
X88463059Y-102655921D02*
X88462410Y-102657522D01*
X87932434Y-108654070D02*
X87940626Y-108643144D01*
X88547956Y-108493741D02*
X88634822Y-108545369D01*
X88216610Y-108462369D02*
X88263626Y-108453070D01*
X88193456Y-108468690D02*
X88216610Y-108462369D01*
X88077026Y-108520342D02*
X88078493Y-108519453D01*
X88148064Y-108484651D02*
X88170593Y-108476119D01*
X88098820Y-108507858D02*
X88104181Y-108505006D01*
X88263626Y-108453070D02*
X88311311Y-108448267D01*
X88084232Y-108516049D02*
X88085549Y-108515283D01*
X87892858Y-108717930D02*
X87896051Y-108711873D01*
X88085549Y-108515283D02*
X88088187Y-108513764D01*
X88453757Y-102678881D02*
X88441572Y-102708961D01*
X88463903Y-102653838D02*
X88463059Y-102655921D01*
X88458134Y-102668078D02*
X88453757Y-102678881D01*
X88104181Y-108505006D02*
X88114991Y-108499508D01*
X87885990Y-108731732D02*
X87886731Y-108730186D01*
X87902688Y-108699906D02*
X87909655Y-108688137D01*
X88081440Y-108517692D02*
X88082178Y-108517255D01*
X87899328Y-108705865D02*
X87902688Y-108699906D01*
X88037368Y-108547272D02*
X88048411Y-108539186D01*
X88461311Y-102660235D02*
X88458134Y-102668078D01*
X88462410Y-102657522D02*
X88461311Y-102660235D01*
X88059686Y-108531408D02*
X88065409Y-108527638D01*
X88026561Y-108555657D02*
X88037368Y-108547272D01*
X87896051Y-108711873D02*
X87899328Y-108705865D01*
X88213878Y-109478030D02*
X88153724Y-109433470D01*
X87865232Y-108782283D02*
X87869423Y-108770690D01*
X87846355Y-108853056D02*
X87851460Y-108829273D01*
X87948783Y-109261940D02*
X87933744Y-109242362D01*
X89367835Y-110332853D02*
X89243311Y-110240609D01*
X89243311Y-110240609D02*
X89120084Y-110149325D01*
X87838325Y-108973030D02*
X87838071Y-108925003D01*
X87906878Y-109201423D02*
X87866178Y-109113748D01*
X88365318Y-109590213D02*
X88284734Y-109530519D01*
X88019388Y-109333144D02*
X88009666Y-109324932D01*
X89120084Y-110149325D02*
X88998154Y-110059002D01*
X88998154Y-110059002D02*
X88880115Y-109971562D01*
X90581947Y-111232237D02*
X90521792Y-111187676D01*
X88056541Y-109361479D02*
X88047197Y-109354557D01*
X88000197Y-109316511D02*
X87982022Y-109299066D01*
X88029359Y-109341139D02*
X88024343Y-109337169D01*
X88041502Y-109350339D02*
X88040061Y-109349271D01*
X88034437Y-109345054D02*
X88029359Y-109341139D01*
X90679130Y-111304228D02*
X90666260Y-111294694D01*
X87879951Y-108744889D02*
X87881215Y-108742049D01*
X87882498Y-108739214D02*
X87883146Y-108737799D01*
X87885254Y-108733280D02*
X87885990Y-108731732D01*
X87861341Y-108793943D02*
X87865232Y-108782283D01*
X88040061Y-109349271D02*
X88038706Y-109348267D01*
X87842428Y-108876968D02*
X87846355Y-108853056D01*
X88085686Y-109383069D02*
X88069411Y-109371012D01*
X87851460Y-108829273D02*
X87857750Y-108805666D01*
X87884888Y-108734055D02*
X87885254Y-108733280D01*
X88024343Y-109337169D02*
X88019388Y-109333144D01*
X88069411Y-109371012D02*
X88056541Y-109361479D01*
X88153724Y-109433470D02*
X88105244Y-109397557D01*
X87884524Y-108734831D02*
X87884888Y-108734055D01*
X87884161Y-108735608D02*
X87884524Y-108734831D01*
X87843129Y-109020715D02*
X87838325Y-108973030D01*
X89855555Y-110694144D02*
X89737517Y-110606704D01*
X89737517Y-110606704D02*
X89615587Y-110516381D01*
X87883980Y-108735996D02*
X87884161Y-108735608D01*
X90281013Y-111009313D02*
X90079958Y-110860376D01*
X87869423Y-108770690D02*
X87873914Y-108759172D01*
X87883799Y-108736385D02*
X87883980Y-108735996D01*
X87883146Y-108737799D02*
X87883799Y-108736385D01*
X87873914Y-108759172D02*
X87876272Y-108753443D01*
X87964879Y-109280858D02*
X87948783Y-109261940D01*
X90450937Y-111135188D02*
X90281013Y-111009313D01*
X88284734Y-109530519D02*
X88213878Y-109478030D01*
X88880115Y-109971562D02*
X88764671Y-109886044D01*
X88764671Y-109886044D02*
X88655712Y-109805330D01*
X88454658Y-109656394D02*
X88365318Y-109590213D01*
X87857750Y-108805666D02*
X87861341Y-108793943D01*
X88009666Y-109324932D02*
X88000197Y-109316511D01*
X87852428Y-109067731D02*
X87843129Y-109020715D01*
X90079958Y-110860376D02*
X89855555Y-110694144D01*
X88047197Y-109354557D02*
X88043886Y-109352105D01*
X88043886Y-109352105D02*
X88041502Y-109350339D01*
X87881215Y-108742049D02*
X87882498Y-108739214D01*
X87878706Y-108747735D02*
X87879951Y-108744889D01*
X87838071Y-108925003D02*
X87842428Y-108876968D01*
X90521792Y-111187676D02*
X90450937Y-111135188D01*
X87866178Y-109113748D02*
X87852428Y-109067731D01*
X90666260Y-111294694D02*
X90630427Y-111268150D01*
X87933744Y-109242362D02*
X87906878Y-109201423D01*
X88038706Y-109348267D02*
X88034437Y-109345054D01*
X88105244Y-109397557D02*
X88085686Y-109383069D01*
X87982022Y-109299066D02*
X87964879Y-109280858D01*
X89615587Y-110516381D02*
X89492359Y-110425098D01*
X89492359Y-110425098D02*
X89367835Y-110332853D01*
X88655712Y-109805330D02*
X88454658Y-109656394D01*
X90630427Y-111268150D02*
X90581947Y-111232237D01*
X87876272Y-108753443D02*
X87878706Y-108747735D01*
X91249477Y-111344471D02*
X91248738Y-111344908D01*
X91282505Y-111322976D02*
X91276896Y-111326904D01*
X91293548Y-111314890D02*
X91282505Y-111322976D01*
X91445661Y-111128883D02*
X91444926Y-111130432D01*
X91325246Y-111288880D02*
X91314922Y-111297833D01*
X91354711Y-111260422D02*
X91335322Y-111279655D01*
X91428227Y-111162257D02*
X91421261Y-111174026D01*
X91431588Y-111156298D02*
X91428227Y-111162257D01*
X91446935Y-111126167D02*
X91446754Y-111126556D01*
X91446027Y-111128108D02*
X91445661Y-111128883D01*
X91446754Y-111126556D02*
X91446392Y-111127332D01*
X91444185Y-111131977D02*
X91442686Y-111135059D01*
X91446392Y-111127332D02*
X91446027Y-111128108D01*
X90688473Y-111311149D02*
X90679130Y-111304228D01*
X91253891Y-111341820D02*
X91252423Y-111342709D01*
X91406380Y-111196949D02*
X91398482Y-111208093D01*
X91444926Y-111130432D02*
X91444185Y-111131977D01*
X90696094Y-111316794D02*
X90695470Y-111316332D01*
X90694168Y-111315368D02*
X90691784Y-111313602D01*
X91114306Y-111399794D02*
X91067290Y-111409093D01*
X91271230Y-111330754D02*
X91265507Y-111334524D01*
X91226735Y-111357156D02*
X91215925Y-111362655D01*
X91441165Y-111138129D02*
X91439622Y-111141187D01*
X90695470Y-111316332D02*
X90694168Y-111315368D01*
X91442686Y-111135059D02*
X91441165Y-111138129D01*
X91373049Y-111240192D02*
X91354711Y-111260422D01*
X90782960Y-111368422D02*
X90696094Y-111316794D01*
X90691784Y-111313602D02*
X90688473Y-111311149D01*
X91182852Y-111377511D02*
X91160323Y-111386043D01*
X90875848Y-111400762D02*
X90782960Y-111368422D01*
X91019605Y-111413896D02*
X90971578Y-111414150D01*
X91245368Y-111346879D02*
X91242729Y-111348398D01*
X91390289Y-111219019D02*
X91373049Y-111240192D01*
X90923543Y-111409794D02*
X90875848Y-111400762D01*
X91247998Y-111345343D02*
X91246684Y-111346114D01*
X90971578Y-111414150D02*
X90923543Y-111409794D01*
X91314922Y-111297833D02*
X91304355Y-111306506D01*
X91193978Y-111372833D02*
X91182852Y-111377511D01*
X91215925Y-111362655D02*
X91205004Y-111367880D01*
X91398482Y-111208093D02*
X91390289Y-111219019D01*
X91248368Y-111345126D02*
X91247998Y-111345343D01*
X91232096Y-111354305D02*
X91226735Y-111357156D01*
X91421261Y-111174026D02*
X91413976Y-111185591D01*
X91246684Y-111346114D02*
X91245368Y-111346879D01*
X91439622Y-111141187D02*
X91438058Y-111144233D01*
X91259727Y-111338214D02*
X91256816Y-111340027D01*
X91262624Y-111336379D02*
X91259727Y-111338214D01*
X91304355Y-111306506D02*
X91293548Y-111314890D01*
X91438058Y-111144233D02*
X91434865Y-111150290D01*
X91067290Y-111409093D02*
X91019605Y-111413896D01*
X91205004Y-111367880D02*
X91193978Y-111372833D01*
X91137460Y-111393472D02*
X91114306Y-111399794D01*
X91160323Y-111386043D02*
X91137460Y-111393472D01*
X91248738Y-111344908D02*
X91248368Y-111345126D01*
X91237428Y-111351386D02*
X91232096Y-111354305D01*
X91252423Y-111342709D02*
X91250952Y-111343593D01*
X91413976Y-111185591D02*
X91406380Y-111196949D01*
X91256816Y-111340027D02*
X91253891Y-111341820D01*
X91434865Y-111150290D02*
X91431588Y-111156298D01*
X91242729Y-111348398D02*
X91237428Y-111351386D01*
X91335322Y-111279655D02*
X91325246Y-111288880D01*
X91250952Y-111343593D02*
X91249477Y-111344471D01*
X91265507Y-111334524D02*
X91262624Y-111336379D01*
X91276896Y-111326904D02*
X91271230Y-111330754D01*
X89715330Y-109345782D02*
X89838557Y-109437065D01*
X89838557Y-109437065D02*
X89963081Y-109529310D01*
X91488488Y-110985195D02*
X91484561Y-111009107D01*
X91306574Y-110524994D02*
X91311528Y-110529019D01*
X91487787Y-110841448D02*
X91492590Y-110889133D01*
X91366037Y-110581305D02*
X91382133Y-110600223D01*
X91289414Y-110511824D02*
X91290855Y-110512892D01*
X91311528Y-110529019D02*
X91321250Y-110537231D01*
X89250958Y-109001787D02*
X89475361Y-109168019D01*
X91225672Y-110464606D02*
X91245231Y-110479094D01*
X88809124Y-108674487D02*
X88879979Y-108726975D01*
X88651786Y-108557936D02*
X88664656Y-108567469D01*
X91296479Y-110517109D02*
X91301558Y-110521024D01*
X90210832Y-109712838D02*
X90332762Y-109803160D01*
X90332762Y-109803160D02*
X90450801Y-109890600D01*
X91478488Y-110794432D02*
X91487787Y-110841448D01*
X91301558Y-110521024D02*
X91306574Y-110524994D01*
X91290855Y-110512892D02*
X91292210Y-110513896D01*
X91473166Y-111056497D02*
X91469574Y-111068220D01*
X91292210Y-110513896D02*
X91296479Y-110517109D01*
X91283719Y-110507605D02*
X91287030Y-110510058D01*
X91245231Y-110479094D02*
X91261505Y-110491150D01*
X90965598Y-110271949D02*
X91046182Y-110331644D01*
X91046182Y-110331644D02*
X91117038Y-110384132D01*
X88636748Y-108546795D02*
X88639132Y-108548561D01*
X90876259Y-110205769D02*
X90965598Y-110271949D01*
X91492844Y-110937160D02*
X91488488Y-110985195D01*
X91447116Y-111125778D02*
X91446935Y-111126167D01*
X91457002Y-111102991D02*
X91454643Y-111108720D01*
X91492590Y-110889133D02*
X91492844Y-110937160D01*
X91447769Y-111124365D02*
X91447116Y-111125778D01*
X91448418Y-111122949D02*
X91447769Y-111124365D01*
X88634822Y-108545369D02*
X88635447Y-108545832D01*
X91449701Y-111120115D02*
X91448418Y-111122949D01*
X88639132Y-108548561D02*
X88642443Y-108551014D01*
X90450801Y-109890600D02*
X90566245Y-109976118D01*
X90566245Y-109976118D02*
X90675204Y-110056832D01*
X91461493Y-111091473D02*
X91457002Y-111102991D01*
X91464738Y-110748415D02*
X91478488Y-110794432D01*
X91382133Y-110600223D02*
X91397172Y-110619801D01*
X91330720Y-110545652D02*
X91348894Y-110563097D01*
X91321250Y-110537231D02*
X91330720Y-110545652D01*
X91287030Y-110510058D02*
X91289414Y-110511824D01*
X91261505Y-110491150D02*
X91274375Y-110500684D01*
X89049903Y-108852851D02*
X89250958Y-109001787D01*
X91177192Y-110428693D02*
X91225672Y-110464606D01*
X91117038Y-110384132D02*
X91177192Y-110428693D01*
X89475361Y-109168019D02*
X89593399Y-109255459D01*
X89593399Y-109255459D02*
X89715330Y-109345782D01*
X88635447Y-108545832D02*
X88636748Y-108546795D01*
X88879979Y-108726975D02*
X89049903Y-108852851D01*
X88664656Y-108567469D02*
X88700489Y-108594014D01*
X88642443Y-108551014D02*
X88651786Y-108557936D01*
X91450965Y-111117274D02*
X91449701Y-111120115D01*
X91452210Y-111114428D02*
X91450965Y-111117274D01*
X91454643Y-111108720D02*
X91452210Y-111114428D01*
X91465683Y-111079880D02*
X91461493Y-111091473D01*
X91469574Y-111068220D02*
X91465683Y-111079880D01*
X90675204Y-110056832D02*
X90828913Y-110170697D01*
X90828913Y-110170697D02*
X90876259Y-110205769D01*
X91479456Y-111032890D02*
X91473166Y-111056497D01*
X91484561Y-111009107D02*
X91479456Y-111032890D01*
X89963081Y-109529310D02*
X90087605Y-109621554D01*
X90087605Y-109621554D02*
X90210832Y-109712838D01*
X88700489Y-108594014D02*
X88748970Y-108629927D01*
X91424038Y-110660740D02*
X91464738Y-110748415D01*
X91397172Y-110619801D02*
X91424038Y-110660740D01*
X88748970Y-108629927D02*
X88809124Y-108674487D01*
X91348894Y-110563097D02*
X91366037Y-110581305D01*
X91274375Y-110500684D02*
X91283719Y-110507605D01*
X107045869Y-96010165D02*
X107050822Y-96021192D01*
X107032294Y-95983073D02*
X107035145Y-95988435D01*
X107024868Y-95969802D02*
X107026387Y-95972441D01*
X106822221Y-95777112D02*
X106828277Y-95780305D01*
X107024102Y-95968486D02*
X107024868Y-95969802D01*
X107008743Y-95943939D02*
X107012513Y-95949663D01*
X106975821Y-95900247D02*
X106984494Y-95910815D01*
X106852013Y-95793909D02*
X106863579Y-95801194D01*
X106816116Y-95774005D02*
X106819174Y-95775548D01*
X107019809Y-95961279D02*
X107020698Y-95962747D01*
X106957643Y-95879848D02*
X106966868Y-95889924D01*
X107026387Y-95972441D02*
X107029374Y-95977742D01*
X106886080Y-95816688D02*
X106897006Y-95824880D01*
X107022897Y-95966432D02*
X107023115Y-95966801D01*
X107000965Y-95932665D02*
X107004893Y-95938273D01*
X107020698Y-95962747D02*
X107021581Y-95964218D01*
X107014368Y-95952546D02*
X107016202Y-95955443D01*
X106992879Y-95921622D02*
X107000965Y-95932665D01*
X106938410Y-95860459D02*
X106957643Y-95879848D01*
X106874936Y-95808790D02*
X106886080Y-95816688D01*
X107046411Y-96432210D02*
X106994784Y-96519076D01*
X107092140Y-96243592D02*
X107087783Y-96291626D01*
X107035145Y-95988435D02*
X107040644Y-95999245D01*
X107040644Y-95999245D02*
X107045869Y-96010165D01*
X107022459Y-95965693D02*
X107022897Y-95966432D01*
X106840244Y-95786943D02*
X106852013Y-95793909D01*
X107021581Y-95964218D02*
X107022459Y-95965693D01*
X107016202Y-95955443D02*
X107018016Y-95958354D01*
X107078751Y-96339322D02*
X107046411Y-96432210D01*
X107087783Y-96291626D02*
X107078751Y-96339322D01*
X107071462Y-96077710D02*
X107077783Y-96100864D01*
X107064032Y-96054847D02*
X107071462Y-96077710D01*
X107029374Y-95977742D02*
X107032294Y-95983073D01*
X106966868Y-95889924D02*
X106975821Y-95900247D01*
X106897006Y-95824880D02*
X106918180Y-95842121D01*
X106834285Y-95783582D02*
X106840244Y-95786943D01*
X106819174Y-95775548D02*
X106822221Y-95777112D01*
X106813046Y-95772485D02*
X106816116Y-95774005D01*
X106918180Y-95842121D02*
X106938410Y-95860459D01*
X106828277Y-95780305D02*
X106834285Y-95783582D01*
X107012513Y-95949663D02*
X107014368Y-95952546D01*
X107091885Y-96195565D02*
X107092140Y-96243592D01*
X107087082Y-96147880D02*
X107091885Y-96195565D01*
X107077783Y-96100864D02*
X107087082Y-96147880D01*
X107050822Y-96021192D02*
X107055500Y-96032318D01*
X107023115Y-95966801D02*
X107023332Y-95967171D01*
X107023332Y-95967171D02*
X107024102Y-95968486D01*
X107018016Y-95958354D02*
X107019809Y-95961279D01*
X107055500Y-96032318D02*
X107064032Y-96054847D01*
X107004893Y-95938273D02*
X107008743Y-95943939D01*
X106863579Y-95801194D02*
X106874936Y-95808790D01*
X106984494Y-95910815D02*
X106992879Y-95921622D01*
X106746207Y-95745596D02*
X106757868Y-95749487D01*
X106687095Y-95730610D02*
X106710877Y-95735715D01*
X106175251Y-95945415D02*
X106184056Y-95933528D01*
X106567121Y-95722581D02*
X106615148Y-95722327D01*
X106297789Y-95818000D02*
X106338728Y-95791134D01*
X106129351Y-96007377D02*
X106147784Y-95982494D01*
X106615148Y-95722327D02*
X106663182Y-95726683D01*
X106199012Y-95913615D02*
X106202982Y-95908598D01*
X106259293Y-95849135D02*
X106278211Y-95833039D01*
X106426403Y-95750434D02*
X106472420Y-95736684D01*
X105610571Y-96707701D02*
X105709590Y-96574031D01*
X105709590Y-96574031D02*
X105800052Y-96451913D01*
X106381722Y-95768597D02*
X106426403Y-95750434D01*
X103918688Y-98991647D02*
X104078830Y-98775464D01*
X106184056Y-95933528D02*
X106187177Y-95929315D01*
X106163122Y-95961789D02*
X106175251Y-95945415D01*
X106147784Y-95982494D02*
X106163122Y-95961789D01*
X106223640Y-95884453D02*
X106241085Y-95866278D01*
X106207007Y-95903644D02*
X106215219Y-95893922D01*
X106189424Y-95926282D02*
X106190782Y-95924448D01*
X106026971Y-96145585D02*
X106083662Y-96069055D01*
X104705951Y-97928886D02*
X104822085Y-97772112D01*
X104822085Y-97772112D02*
X104939441Y-97613688D01*
X105800052Y-96451913D02*
X105884249Y-96338252D01*
X104939441Y-97613688D02*
X105056797Y-97455264D01*
X105056797Y-97455264D02*
X105172930Y-97298491D01*
X104479797Y-98234182D02*
X104591040Y-98084009D01*
X104591040Y-98084009D02*
X104705951Y-97928886D01*
X106769460Y-95753677D02*
X106780978Y-95758168D01*
X103795220Y-99158322D02*
X103851911Y-99081792D01*
X106809964Y-95770986D02*
X106813046Y-95772485D01*
X106808419Y-95770244D02*
X106809964Y-95770986D01*
X106187177Y-95929315D02*
X106189424Y-95926282D01*
X106806871Y-95769509D02*
X106808419Y-95770244D01*
X106806096Y-95769143D02*
X106806871Y-95769509D01*
X106805320Y-95768779D02*
X106806096Y-95769143D01*
X106195097Y-95918693D02*
X106199012Y-95913615D01*
X104078830Y-98775464D02*
X104169292Y-98653345D01*
X104169292Y-98653345D02*
X104268311Y-98519675D01*
X106804543Y-95768416D02*
X106805320Y-95768779D01*
X106804154Y-95768235D02*
X106804543Y-95768416D01*
X106803766Y-95768054D02*
X106804154Y-95768235D01*
X106802352Y-95767401D02*
X106803766Y-95768054D01*
X106800937Y-95766752D02*
X106802352Y-95767401D01*
X106734484Y-95742004D02*
X106746207Y-95745596D01*
X106241085Y-95866278D02*
X106259293Y-95849135D01*
X106202982Y-95908598D02*
X106207007Y-95903644D01*
X106519436Y-95727384D02*
X106567121Y-95722581D01*
X105884249Y-96338252D02*
X105960194Y-96235730D01*
X105172930Y-97298491D02*
X105287841Y-97143367D01*
X105287841Y-97143367D02*
X105399085Y-96993194D01*
X106190782Y-95924448D02*
X106191883Y-95922963D01*
X106083662Y-96069055D02*
X106129351Y-96007377D01*
X106472420Y-95736684D02*
X106519436Y-95727384D01*
X105399085Y-96993194D02*
X105559685Y-96776392D01*
X105559685Y-96776392D02*
X105610571Y-96707701D01*
X106798102Y-95765470D02*
X106800937Y-95766752D01*
X106795262Y-95764206D02*
X106798102Y-95765470D01*
X106792416Y-95762961D02*
X106795262Y-95764206D01*
X106786708Y-95760527D02*
X106792416Y-95762961D01*
X106780978Y-95758168D02*
X106786708Y-95760527D01*
X104268311Y-98519675D02*
X104370997Y-98381054D01*
X104370997Y-98381054D02*
X104479797Y-98234182D01*
X106757868Y-95749487D02*
X106769460Y-95753677D01*
X106710877Y-95735715D02*
X106734484Y-95742004D01*
X103851911Y-99081792D02*
X103918688Y-98991647D01*
X106663182Y-95726683D02*
X106687095Y-95730610D01*
X106338728Y-95791134D02*
X106381722Y-95768597D01*
X106191883Y-95922963D02*
X106195097Y-95918693D01*
X106215219Y-95893922D02*
X106223640Y-95884453D01*
X106278211Y-95833039D02*
X106297789Y-95818000D01*
X105960194Y-96235730D02*
X106026971Y-96145585D01*
X103626927Y-99790302D02*
X103618395Y-99767773D01*
X103664411Y-99864265D02*
X103662618Y-99861340D01*
X103659095Y-99855448D02*
X103658325Y-99854134D01*
X103681462Y-99889955D02*
X103677534Y-99884346D01*
X103724784Y-99942772D02*
X103715559Y-99932696D01*
X103691705Y-99298061D02*
X103694825Y-99293849D01*
X103689458Y-99301094D02*
X103691705Y-99298061D01*
X103688232Y-99302750D02*
X103689458Y-99301094D01*
X103687643Y-99303544D02*
X103688232Y-99302750D01*
X103610966Y-99744910D02*
X103604644Y-99721756D01*
X103661729Y-99859872D02*
X103660846Y-99858401D01*
X103764247Y-99980499D02*
X103744017Y-99962161D01*
X103830414Y-100028711D02*
X103818848Y-100021426D01*
X103876331Y-100053477D02*
X103875556Y-100053111D01*
X103636016Y-99390409D02*
X103687644Y-99303543D01*
X103653053Y-99844877D02*
X103650133Y-99839546D01*
X103657559Y-99852817D02*
X103656040Y-99850178D01*
X103658325Y-99854134D02*
X103657559Y-99852817D01*
X103668059Y-99870074D02*
X103666225Y-99867177D01*
X103818848Y-100021426D02*
X103807491Y-100013830D01*
X103863252Y-100047072D02*
X103860206Y-100045508D01*
X103603676Y-99483297D02*
X103636016Y-99390409D01*
X103860206Y-100045508D02*
X103854150Y-100042315D01*
X103673684Y-99878680D02*
X103669914Y-99872957D01*
X103594644Y-99530993D02*
X103603676Y-99483297D01*
X103590288Y-99579027D02*
X103594644Y-99530993D01*
X103636558Y-99812454D02*
X103631605Y-99801428D01*
X103590542Y-99627054D02*
X103590288Y-99579027D01*
X103669914Y-99872957D02*
X103668059Y-99870074D01*
X103604644Y-99721756D02*
X103595345Y-99674740D01*
X103796346Y-100005932D02*
X103785421Y-99997739D01*
X103641784Y-99823375D02*
X103636558Y-99812454D01*
X103660846Y-99858401D02*
X103659968Y-99856926D01*
X103872463Y-100051635D02*
X103869381Y-100050136D01*
X103785421Y-99997739D02*
X103764247Y-99980499D01*
X103875556Y-100053111D02*
X103874008Y-100052376D01*
X103706606Y-99922372D02*
X103697933Y-99911804D01*
X103631605Y-99801428D02*
X103626927Y-99790302D01*
X103866311Y-100048615D02*
X103863252Y-100047072D01*
X103647282Y-99834184D02*
X103641784Y-99823375D01*
X103656040Y-99850178D02*
X103653053Y-99844877D01*
X103715559Y-99932696D02*
X103706606Y-99922372D01*
X103874008Y-100052376D02*
X103872463Y-100051635D01*
X103689548Y-99900997D02*
X103681462Y-99889955D01*
X103659531Y-99856188D02*
X103659313Y-99855818D01*
X103666225Y-99867177D02*
X103664411Y-99864265D01*
X103807491Y-100013830D02*
X103796346Y-100005932D01*
X103697933Y-99911804D02*
X103689548Y-99900997D01*
X103848141Y-100039038D02*
X103842182Y-100035677D01*
X103749530Y-99220000D02*
X103795220Y-99158322D01*
X103715760Y-99265588D02*
X103749530Y-99220000D01*
X103703631Y-99281962D02*
X103715760Y-99265588D01*
X103662618Y-99861340D02*
X103661729Y-99859872D01*
X103694825Y-99293849D02*
X103703631Y-99281962D01*
X103650133Y-99839546D02*
X103647282Y-99834184D01*
X103659968Y-99856926D02*
X103659531Y-99856188D01*
X103595345Y-99674740D02*
X103590542Y-99627054D01*
X103854150Y-100042315D02*
X103848141Y-100039038D01*
X103842182Y-100035677D02*
X103830414Y-100028711D01*
X103618395Y-99767773D02*
X103610966Y-99744910D01*
X103744017Y-99962161D02*
X103724784Y-99942772D01*
X103677534Y-99884346D02*
X103673684Y-99878680D01*
X103659313Y-99855818D02*
X103659095Y-99855448D01*
X103869381Y-100050136D02*
X103866311Y-100048615D01*
X103877107Y-100053841D02*
X103876331Y-100053477D01*
X103878661Y-100054566D02*
X103878272Y-100054385D01*
X103880075Y-100055219D02*
X103878661Y-100054566D01*
X104479445Y-99914022D02*
X104475420Y-99918976D01*
X106932897Y-96602619D02*
X106887208Y-96664297D01*
X103895719Y-100062093D02*
X103890011Y-100059660D01*
X104067279Y-100100294D02*
X104019245Y-100095938D01*
X105509497Y-98524129D02*
X105394585Y-98679252D01*
X105394585Y-98679252D02*
X105283342Y-98829425D01*
X103901449Y-100064452D02*
X103895719Y-100062093D01*
X103947942Y-100080616D02*
X103936220Y-100077024D01*
X104210007Y-100085937D02*
X104162991Y-100095236D01*
X104256024Y-100072186D02*
X104210007Y-100085937D01*
X103881490Y-100055868D02*
X103880075Y-100055219D01*
X103887165Y-100058414D02*
X103884325Y-100057150D01*
X103924559Y-100073133D02*
X103912967Y-100068943D01*
X104798178Y-99484368D02*
X104722233Y-99586890D01*
X105976476Y-97893734D02*
X105860342Y-98050507D01*
X105860342Y-98050507D02*
X105742986Y-98208931D01*
X106887208Y-96664297D02*
X106830516Y-96740828D01*
X105742986Y-98208931D02*
X105625630Y-98367355D01*
X105625630Y-98367355D02*
X105509497Y-98524129D01*
X106414116Y-97302944D02*
X106311429Y-97441565D01*
X106311429Y-97441565D02*
X106202631Y-97588437D01*
X106830516Y-96740828D02*
X106763739Y-96830973D01*
X104115306Y-100100039D02*
X104067279Y-100100294D01*
X104498370Y-99889092D02*
X104495250Y-99893305D01*
X104404216Y-99989581D02*
X104384638Y-100004620D01*
X103884325Y-100057150D02*
X103881490Y-100055868D01*
X104490544Y-99899657D02*
X104487330Y-99903927D01*
X103936220Y-100077024D02*
X103924559Y-100073133D01*
X104483415Y-99909005D02*
X104479445Y-99914022D01*
X106603597Y-97047155D02*
X106513135Y-97169273D01*
X106513135Y-97169273D02*
X106414116Y-97302944D01*
X104300705Y-100054023D02*
X104256024Y-100072186D01*
X104493003Y-99896338D02*
X104491644Y-99898172D01*
X104487330Y-99903927D02*
X104483415Y-99909005D01*
X105283342Y-98829425D02*
X105174542Y-98976297D01*
X105174542Y-98976297D02*
X105071856Y-99114919D01*
X106978797Y-96540657D02*
X106966668Y-96557031D01*
X104384638Y-100004620D02*
X104343699Y-100031486D01*
X104162991Y-100095236D02*
X104115306Y-100100039D01*
X104441341Y-99956342D02*
X104423134Y-99973485D01*
X103877884Y-100054204D02*
X103877107Y-100053841D01*
X103878272Y-100054385D02*
X103877884Y-100054204D01*
X103890011Y-100059660D02*
X103887165Y-100058414D01*
X103912967Y-100068943D02*
X103901449Y-100064452D01*
X106763739Y-96830973D02*
X106603597Y-97047155D01*
X106987602Y-96528771D02*
X106978797Y-96540657D01*
X103995332Y-100092010D02*
X103971549Y-100086906D01*
X104019245Y-100095938D02*
X103995332Y-100092010D01*
X104475420Y-99918976D02*
X104467208Y-99928698D01*
X104458787Y-99938167D02*
X104441341Y-99956342D01*
X104882375Y-99370707D02*
X104798178Y-99484368D01*
X104598765Y-99753565D02*
X104553075Y-99815243D01*
X106202631Y-97588437D02*
X106091387Y-97738610D01*
X106091387Y-97738610D02*
X105976476Y-97893734D01*
X104519305Y-99860832D02*
X104507176Y-99877205D01*
X103971549Y-100086906D02*
X103947942Y-100080616D01*
X104343699Y-100031486D02*
X104300705Y-100054023D01*
X104423134Y-99973485D02*
X104404216Y-99989581D01*
X104467208Y-99928698D02*
X104458787Y-99938167D01*
X105071856Y-99114919D02*
X104972837Y-99248588D01*
X104972837Y-99248588D02*
X104882375Y-99370707D01*
X104495250Y-99893305D02*
X104493003Y-99896338D01*
X104655456Y-99677035D02*
X104598765Y-99753565D01*
X104553075Y-99815243D02*
X104534643Y-99840126D01*
X104491644Y-99898172D02*
X104490544Y-99899657D01*
X104507176Y-99877205D02*
X104498370Y-99889092D01*
X104534643Y-99840126D02*
X104519305Y-99860832D01*
X104722233Y-99586890D02*
X104655456Y-99677035D01*
X106966668Y-96557031D02*
X106932897Y-96602619D01*
X106184524Y-94036317D02*
X106184686Y-94043165D01*
X106184264Y-94029474D02*
X106184524Y-94036317D01*
X106164846Y-94189570D02*
X106157601Y-94212453D01*
X106178151Y-94130891D02*
X106176049Y-94142776D01*
X106182742Y-94094868D02*
X106181500Y-94106932D01*
X106139920Y-94256998D02*
X106118098Y-94299669D01*
X106184532Y-94065450D02*
X106184477Y-94067165D01*
X106163806Y-93908508D02*
X106170859Y-93934885D01*
X106180717Y-93988603D02*
X106182274Y-94002185D01*
X106178792Y-93975074D02*
X106180717Y-93988603D01*
X106116719Y-93798886D02*
X106118430Y-93801852D01*
X106109203Y-93786412D02*
X106109656Y-93787140D01*
X106184750Y-94050018D02*
X106184745Y-94053447D01*
X106145545Y-93857053D02*
X106150626Y-93869732D01*
X106990723Y-96524558D02*
X106987602Y-96528771D01*
X106992970Y-96521525D02*
X106990723Y-96524558D01*
X106994196Y-96519870D02*
X106992970Y-96521525D01*
X106183253Y-94088817D02*
X106182742Y-94094868D01*
X106184582Y-94063735D02*
X106184532Y-94065450D01*
X106184661Y-94060305D02*
X106184582Y-94063735D01*
X106183458Y-94015811D02*
X106184264Y-94029474D01*
X106155364Y-93882540D02*
X106163806Y-93908508D01*
X106109656Y-93787140D02*
X106110558Y-93788597D01*
X106108065Y-93784596D02*
X106108293Y-93784959D01*
X106125059Y-93813830D02*
X106128244Y-93819885D01*
X106184686Y-94043165D02*
X106184750Y-94050018D01*
X106181500Y-94106932D02*
X106179969Y-94118941D01*
X106182274Y-94002185D02*
X106183458Y-94015811D01*
X106029110Y-94413334D02*
X105951569Y-94473844D01*
X106062562Y-94378157D02*
X106029110Y-94413334D01*
X106092269Y-94340160D02*
X106062562Y-94378157D01*
X106184477Y-94067165D02*
X106184415Y-94068881D01*
X106184745Y-94053447D02*
X106184716Y-94056875D01*
X106118430Y-93801852D02*
X106121788Y-93807819D01*
X106994784Y-96519075D02*
X106994196Y-96519870D01*
X106121788Y-93807819D02*
X106125059Y-93813830D01*
X106107836Y-93784234D02*
X106108065Y-93784596D01*
X105951569Y-94473844D02*
X105861087Y-94518835D01*
X106128244Y-93819885D02*
X106134354Y-93832120D01*
X106171001Y-94166332D02*
X106164846Y-94189570D01*
X106179969Y-94118941D02*
X106178151Y-94130891D01*
X106140122Y-93844513D02*
X106145545Y-93857053D01*
X106184210Y-94073639D02*
X106184056Y-94076680D01*
X106184347Y-94070596D02*
X106184281Y-94072118D01*
X106184415Y-94068881D02*
X106184381Y-94069738D01*
X106176505Y-93961606D02*
X106178792Y-93975074D01*
X106134354Y-93832120D02*
X106140122Y-93844513D01*
X106113231Y-93792988D02*
X106114986Y-93795931D01*
X106111455Y-93790058D02*
X106113231Y-93792988D01*
X106110558Y-93788597D02*
X106111455Y-93790058D01*
X106170859Y-93934885D02*
X106176505Y-93961606D01*
X106183691Y-94082754D02*
X106183253Y-94088817D01*
X106114986Y-93795931D02*
X106116719Y-93798886D01*
X106150626Y-93869732D02*
X106155364Y-93882540D01*
X106184716Y-94056875D02*
X106184661Y-94060305D01*
X106118098Y-94299669D02*
X106092269Y-94340160D01*
X106184056Y-94076680D02*
X106183691Y-94082754D01*
X106184281Y-94072118D02*
X106184210Y-94073639D01*
X106184381Y-94069738D02*
X106184364Y-94070167D01*
X106108293Y-93784959D02*
X106108749Y-93785685D01*
X106108749Y-93785685D02*
X106109203Y-93786412D01*
X106176049Y-94142776D02*
X106171001Y-94166332D01*
X106184364Y-94070167D02*
X106184347Y-94070596D01*
X106157601Y-94212453D02*
X106139920Y-94256998D01*
X106097585Y-93768659D02*
X106101061Y-93773799D01*
X105494734Y-93588238D02*
X105500807Y-93585952D01*
X105424146Y-93614817D02*
X105453994Y-93603578D01*
X104378711Y-94008451D02*
X104571405Y-93935896D01*
X104571405Y-93935896D02*
X104747448Y-93869612D01*
X105059090Y-93752270D02*
X105189039Y-93703341D01*
X106079340Y-93743745D02*
X106086808Y-93753552D01*
X106012149Y-93673241D02*
X106030111Y-93689508D01*
X105846445Y-93578202D02*
X105890991Y-93595884D01*
X105520782Y-93578606D02*
X105532907Y-93574563D01*
X105800325Y-93564803D02*
X105846445Y-93578202D01*
X105299363Y-93661801D02*
X105388276Y-93628323D01*
X102618292Y-94671297D02*
X102844292Y-94586201D01*
X102844292Y-94586201D02*
X103072671Y-94500211D01*
X105532907Y-93574563D02*
X105545078Y-93570848D01*
X106107002Y-93782918D02*
X106107836Y-93784234D01*
X106104479Y-93778991D02*
X106106165Y-93781606D01*
X100637776Y-95417015D02*
X100640162Y-95416116D01*
X105933662Y-93617705D02*
X105974152Y-93643534D01*
X105388276Y-93628323D02*
X105424146Y-93614817D01*
X106106165Y-93781606D02*
X106107002Y-93782918D01*
X106102778Y-93776389D02*
X106104479Y-93778991D01*
X106101061Y-93773799D02*
X106102778Y-93776389D01*
X103527049Y-94329125D02*
X103750670Y-94244926D01*
X103750670Y-94244926D02*
X103967154Y-94163414D01*
X106094050Y-93763571D02*
X106097585Y-93768659D01*
X106086808Y-93753552D02*
X106094050Y-93763571D01*
X106071652Y-93734153D02*
X106079340Y-93743745D01*
X106063750Y-93724779D02*
X106071652Y-93734153D01*
X105514739Y-93580750D02*
X105520782Y-93578606D01*
X106030111Y-93689508D02*
X106047326Y-93706693D01*
X106047326Y-93706693D02*
X106063750Y-93724779D01*
X105974152Y-93643534D02*
X106012149Y-93673241D01*
X101397893Y-95130810D02*
X101573935Y-95064525D01*
X101573935Y-95064525D02*
X101766630Y-94991971D01*
X105890991Y-93595884D02*
X105933662Y-93617705D01*
X105752934Y-93555835D02*
X105800325Y-93564803D01*
X105704589Y-93551457D02*
X105752934Y-93555835D01*
X105655624Y-93551832D02*
X105704589Y-93551457D01*
X105606395Y-93557117D02*
X105655624Y-93551832D01*
X103967154Y-94163414D02*
X104178880Y-94083693D01*
X104178880Y-94083693D02*
X104378711Y-94008451D01*
X105545078Y-93570848D02*
X105557288Y-93567458D01*
X101766630Y-94991971D02*
X101966461Y-94916728D01*
X101966461Y-94916728D02*
X102178187Y-94837008D01*
X102178187Y-94837008D02*
X102394671Y-94755496D01*
X102394671Y-94755496D02*
X102618292Y-94671297D01*
X105507823Y-93583310D02*
X105509722Y-93582595D01*
X105500807Y-93585952D02*
X105505179Y-93584305D01*
X105477598Y-93594690D02*
X105494734Y-93588238D01*
X100956302Y-95297081D02*
X101086252Y-95248151D01*
X105189039Y-93703341D02*
X105299363Y-93661801D01*
X100845978Y-95338621D02*
X100956302Y-95297081D01*
X100757065Y-95372099D02*
X100845978Y-95338621D01*
X100636631Y-95417446D02*
X100637776Y-95417015D01*
X100650607Y-95412183D02*
X100667743Y-95405731D01*
X105453994Y-93603578D02*
X105477598Y-93594690D01*
X104747448Y-93869612D02*
X104911298Y-93807918D01*
X101086252Y-95248151D02*
X101397893Y-95130810D01*
X100691347Y-95396844D02*
X100757065Y-95372099D01*
X105581802Y-93561647D02*
X105606395Y-93557117D01*
X105509722Y-93582595D02*
X105514739Y-93580750D01*
X100468608Y-95522947D02*
X100546149Y-95462437D01*
X105557288Y-93567458D02*
X105581802Y-93561647D01*
X100644535Y-95414470D02*
X100650607Y-95412183D01*
X100667743Y-95405731D02*
X100691347Y-95396844D01*
X105505179Y-93584305D02*
X105507823Y-93583310D01*
X104911298Y-93807918D02*
X105059090Y-93752270D01*
X103072671Y-94500211D02*
X103301049Y-94414220D01*
X103301049Y-94414220D02*
X103527049Y-94329125D01*
X100546149Y-95462437D02*
X100636631Y-95417446D01*
X100640162Y-95416116D02*
X100644535Y-95414470D01*
X91908296Y-98946921D02*
X91928170Y-98903310D01*
X91899923Y-98969415D02*
X91908296Y-98946921D01*
X91883717Y-99027360D02*
X91886407Y-99015595D01*
X91927005Y-99358961D02*
X91923948Y-99352835D01*
X91876529Y-99069129D02*
X91877341Y-99063111D01*
X91874818Y-99084240D02*
X91875124Y-99081210D01*
X91898224Y-99289565D02*
X91894129Y-99276537D01*
X91874531Y-99087273D02*
X91874672Y-99085756D01*
X91873105Y-99107805D02*
X91873280Y-99104381D01*
X91886988Y-99250182D02*
X91881255Y-99223487D01*
X91902668Y-99302480D02*
X91898224Y-99289565D01*
X91892620Y-98992319D02*
X91899923Y-98969415D01*
X91886407Y-99015595D02*
X91892620Y-98992319D01*
X91881307Y-99039205D02*
X91883717Y-99027360D01*
X91879181Y-99051123D02*
X91881307Y-99039205D01*
X91936289Y-99376337D02*
X91935870Y-99375589D01*
X91877341Y-99063111D02*
X91879181Y-99051123D01*
X91875790Y-99075162D02*
X91876529Y-99069129D01*
X91934208Y-99372591D02*
X91933385Y-99371087D01*
X91875329Y-99182953D02*
X91874080Y-99169345D01*
X91912605Y-99327939D02*
X91907461Y-99315275D01*
X91875124Y-99081210D02*
X91875790Y-99075162D01*
X91874672Y-99085756D02*
X91874818Y-99084240D01*
X91874090Y-99092403D02*
X91874230Y-99090693D01*
X91935453Y-99374841D02*
X91935036Y-99374091D01*
X91874377Y-99088982D02*
X91874453Y-99088127D01*
X91872828Y-99114653D02*
X91873105Y-99107805D01*
X91874080Y-99169345D02*
X91873200Y-99155703D01*
X91894129Y-99276537D02*
X91886988Y-99250182D01*
X91873200Y-99155703D02*
X91872694Y-99142034D01*
X91928566Y-99362009D02*
X91927005Y-99358961D01*
X91930150Y-99365046D02*
X91928566Y-99362009D01*
X91873705Y-99097535D02*
X91873955Y-99094114D01*
X91936710Y-99377084D02*
X91936499Y-99376711D01*
X91936499Y-99376711D02*
X91936289Y-99376337D01*
X91876944Y-99196519D02*
X91875329Y-99182953D01*
X91933385Y-99371087D02*
X91931757Y-99368072D01*
X91873480Y-99100958D02*
X91873705Y-99097535D01*
X91939802Y-99382487D02*
X91938248Y-99379792D01*
X91872568Y-99128348D02*
X91872650Y-99121501D01*
X91920980Y-99346668D02*
X91918100Y-99340462D01*
X91881255Y-99223487D02*
X91876944Y-99196519D01*
X91907461Y-99315275D02*
X91902668Y-99302480D01*
X91931757Y-99368072D02*
X91930150Y-99365046D01*
X91935870Y-99375589D02*
X91935453Y-99374841D01*
X91874492Y-99087700D02*
X91874531Y-99087273D01*
X91874453Y-99088127D02*
X91874492Y-99087700D01*
X91874230Y-99090693D02*
X91874377Y-99088982D01*
X91873280Y-99104381D02*
X91873480Y-99100958D01*
X91935036Y-99374091D02*
X91934208Y-99372591D01*
X91873955Y-99094114D02*
X91874090Y-99092403D01*
X91872650Y-99121501D02*
X91872828Y-99114653D01*
X91938248Y-99379792D02*
X91937477Y-99378440D01*
X91923948Y-99352835D02*
X91920980Y-99346668D01*
X91872694Y-99142034D02*
X91872568Y-99128348D01*
X91918100Y-99340462D02*
X91912605Y-99327939D01*
X91937477Y-99378440D02*
X91936710Y-99377084D01*
X92026759Y-99492698D02*
X92009628Y-99475558D01*
X92063233Y-99524257D02*
X92026759Y-99492698D01*
X92525645Y-99607702D02*
X92524056Y-99608212D01*
X95377603Y-98692970D02*
X95296177Y-98719086D01*
X92512814Y-99611645D02*
X92506663Y-99613404D01*
X93002091Y-99454888D02*
X92899424Y-99487817D01*
X92143922Y-99575984D02*
X92102389Y-99552067D01*
X92600552Y-99583677D02*
X92578076Y-99590886D01*
X94051498Y-99118303D02*
X93837405Y-99186970D01*
X93837405Y-99186970D02*
X93766787Y-99209621D01*
X92524056Y-99608212D02*
X92518957Y-99609805D01*
X94869856Y-98855824D02*
X94611976Y-98938536D01*
X92544583Y-99601628D02*
X92533846Y-99605072D01*
X92376808Y-99631683D02*
X92327884Y-99629622D01*
X92500504Y-99615080D02*
X92488163Y-99618186D01*
X95817686Y-98461765D02*
X95786126Y-98498238D01*
X92806818Y-99517519D02*
X92725393Y-99543636D01*
X95670513Y-98588288D02*
X95577907Y-98628725D01*
X95569149Y-98631534D02*
X95558412Y-98634978D01*
X92401483Y-99630889D02*
X92376808Y-99631683D01*
X92475799Y-99620965D02*
X92451027Y-99625550D01*
X92527301Y-99607171D02*
X92525645Y-99607702D01*
X92533846Y-99605072D02*
X92530041Y-99606292D01*
X92559373Y-99596884D02*
X92544583Y-99601628D01*
X95558412Y-98634978D02*
X95543622Y-98639721D01*
X95572954Y-98630313D02*
X95569149Y-98631534D01*
X94336209Y-99026985D02*
X94051498Y-99118303D01*
X95543622Y-98639721D02*
X95502443Y-98652929D01*
X91941372Y-99385171D02*
X91939802Y-99382487D01*
X91942957Y-99387843D02*
X91941372Y-99385171D01*
X92656264Y-99565808D02*
X92600552Y-99583677D01*
X91946173Y-99393149D02*
X91942957Y-99387843D01*
X93491019Y-99298070D02*
X93233140Y-99380782D01*
X95575694Y-98629435D02*
X95572954Y-98630313D01*
X91949451Y-99398407D02*
X91946173Y-99393149D01*
X91956186Y-99408774D02*
X91949451Y-99398407D01*
X95577907Y-98628725D02*
X95577189Y-98628955D01*
X92451027Y-99625550D02*
X92426238Y-99628852D01*
X91970359Y-99428902D02*
X91963157Y-99418940D01*
X91977785Y-99438658D02*
X91970359Y-99428902D01*
X92488163Y-99618186D02*
X92475799Y-99620965D01*
X92009628Y-99475558D02*
X91993289Y-99457538D01*
X92102389Y-99552067D02*
X92063233Y-99524257D01*
X92725393Y-99543636D02*
X92656264Y-99565808D01*
X92578076Y-99590886D02*
X92559373Y-99596884D01*
X92187533Y-99595858D02*
X92143922Y-99575984D01*
X92232931Y-99611534D02*
X92187533Y-99595858D01*
X92506663Y-99613404D02*
X92500504Y-99615080D01*
X93766787Y-99209621D02*
X93491019Y-99298070D01*
X95750967Y-98531708D02*
X95670513Y-98588288D01*
X95786126Y-98498238D02*
X95750967Y-98531708D01*
X92518957Y-99609805D02*
X92512814Y-99611645D01*
X92899424Y-99487817D02*
X92806818Y-99517519D01*
X94611976Y-98938536D02*
X94336209Y-99026985D01*
X95296177Y-98719086D02*
X95100904Y-98781718D01*
X95577189Y-98628955D02*
X95575694Y-98629435D01*
X95502443Y-98652929D02*
X95446731Y-98670798D01*
X92327884Y-99629622D02*
X92232931Y-99611534D01*
X92426238Y-99628852D02*
X92401483Y-99630889D01*
X95446731Y-98670798D02*
X95377603Y-98692970D01*
X91963157Y-99418940D02*
X91956186Y-99408774D01*
X93233140Y-99380782D02*
X93002091Y-99454888D01*
X91993289Y-99457538D02*
X91977785Y-99438658D01*
X95100904Y-98781718D02*
X94869856Y-98855824D01*
X92530041Y-99606292D02*
X92527301Y-99607171D01*
X95862545Y-97910294D02*
X95863374Y-97911794D01*
X95922458Y-98203175D02*
X95921792Y-98209223D01*
X95854625Y-97896543D02*
X95856210Y-97899214D01*
X95924932Y-98162884D02*
X95924754Y-98169733D01*
X95867431Y-97919339D02*
X95869015Y-97922376D01*
X95923493Y-98191982D02*
X95923352Y-98193693D01*
X95925014Y-98156038D02*
X95924932Y-98162884D01*
X95861711Y-97908796D02*
X95862129Y-97909544D01*
X95873634Y-97931550D02*
X95876602Y-97937717D01*
X95922253Y-98101432D02*
X95923502Y-98115040D01*
X95863374Y-97911794D02*
X95864196Y-97913298D01*
X95856210Y-97899214D02*
X95857779Y-97901898D01*
X95921053Y-98215256D02*
X95920241Y-98221274D01*
X95924888Y-98142351D02*
X95925014Y-98156038D01*
X95923205Y-98195403D02*
X95923129Y-98196258D01*
X95876602Y-97937717D02*
X95879482Y-97943923D01*
X95860872Y-97907301D02*
X95861082Y-97907674D01*
X95916327Y-98060899D02*
X95920638Y-98087867D01*
X95921792Y-98209223D02*
X95921053Y-98215256D01*
X95923352Y-98193693D02*
X95923205Y-98195403D01*
X95920638Y-98087867D02*
X95922253Y-98101432D01*
X95851408Y-97891236D02*
X95854625Y-97896543D01*
X95923877Y-98186850D02*
X95923627Y-98190272D01*
X95864196Y-97913298D02*
X95865825Y-97916313D01*
X95869015Y-97922376D02*
X95870577Y-97925424D01*
X95869413Y-98381076D02*
X95845496Y-98422608D01*
X95897659Y-98314970D02*
X95889286Y-98337464D01*
X95904962Y-98292067D02*
X95897659Y-98314970D01*
X95841395Y-97875611D02*
X95848131Y-97885978D01*
X95861292Y-97908048D02*
X95861711Y-97908796D01*
X95911175Y-98268791D02*
X95904962Y-98292067D01*
X95923051Y-98197113D02*
X95922910Y-98198630D01*
X95923090Y-98196685D02*
X95923051Y-98197113D01*
X95923129Y-98196258D02*
X95923090Y-98196685D01*
X95924102Y-98183427D02*
X95923877Y-98186850D01*
X95848131Y-97885978D02*
X95851408Y-97891236D01*
X95924478Y-98176581D02*
X95924302Y-98180004D01*
X95894914Y-97981905D02*
X95899358Y-97994821D01*
X95924302Y-98180004D02*
X95924102Y-98183427D01*
X95865825Y-97916313D02*
X95867431Y-97919339D01*
X95859334Y-97904593D02*
X95860105Y-97905946D01*
X95910594Y-98034203D02*
X95916327Y-98060899D01*
X95861082Y-97907674D02*
X95861292Y-97908048D01*
X95862129Y-97909544D02*
X95862545Y-97910294D01*
X95899358Y-97994821D02*
X95903453Y-98007848D01*
X95879482Y-97943923D02*
X95884977Y-97956446D01*
X95923627Y-98190272D02*
X95923493Y-98191982D01*
X95870577Y-97925424D02*
X95873634Y-97931550D01*
X95903453Y-98007848D02*
X95910594Y-98034203D01*
X95924382Y-98128683D02*
X95924888Y-98142351D01*
X95845496Y-98422608D02*
X95817686Y-98461765D01*
X95857779Y-97901898D02*
X95859334Y-97904593D01*
X95918402Y-98233262D02*
X95916275Y-98245180D01*
X95922764Y-98200146D02*
X95922458Y-98203175D01*
X95884977Y-97956446D02*
X95890120Y-97969110D01*
X95860105Y-97905946D02*
X95860872Y-97907301D01*
X95890120Y-97969110D02*
X95894914Y-97981905D01*
X95889286Y-98337464D02*
X95869413Y-98381076D01*
X95913865Y-98257025D02*
X95911175Y-98268791D01*
X95916275Y-98245180D02*
X95913865Y-98257025D01*
X95920241Y-98221274D02*
X95918402Y-98233262D01*
X95922910Y-98198630D02*
X95922764Y-98200146D01*
X95924754Y-98169733D02*
X95924478Y-98176581D01*
X95923502Y-98115040D02*
X95924382Y-98128683D01*
X107579155Y-91241916D02*
X107567442Y-91238772D01*
X107585048Y-91243384D02*
X107579155Y-91241916D01*
X107643474Y-91253821D02*
X107636677Y-91252988D01*
X107942254Y-91195678D02*
X107931384Y-91201491D01*
X107846254Y-91235936D02*
X107833102Y-91239658D01*
X107888247Y-91221305D02*
X107885063Y-91222570D01*
X107900608Y-91216139D02*
X107899180Y-91216757D01*
X107906298Y-91213625D02*
X107903458Y-91214890D01*
X107909127Y-91212342D02*
X107906298Y-91213625D01*
X107601370Y-91247054D02*
X107599879Y-91246743D01*
X107698052Y-91257071D02*
X107684389Y-91256819D01*
X107599879Y-91246743D02*
X107596902Y-91246107D01*
X107881870Y-91223811D02*
X107878669Y-91225028D01*
X107903458Y-91214890D02*
X107900608Y-91216139D01*
X107590963Y-91244781D02*
X107585048Y-91243384D01*
X107609599Y-91248685D02*
X107607913Y-91248363D01*
X107623114Y-91251033D02*
X107619730Y-91250483D01*
X107657091Y-91255198D02*
X107643474Y-91253821D01*
X107612972Y-91249309D02*
X107609599Y-91248685D01*
X107859305Y-91231848D02*
X107846254Y-91235936D01*
X107865789Y-91229667D02*
X107859305Y-91231848D01*
X107806532Y-91246018D02*
X107793134Y-91248658D01*
X107914755Y-91209728D02*
X107909127Y-91212342D01*
X107766154Y-91252862D02*
X107738991Y-91255631D01*
X107596902Y-91246107D02*
X107590963Y-91244781D01*
X107602862Y-91247361D02*
X107601370Y-91247054D01*
X107603703Y-91247532D02*
X107603283Y-91247447D01*
X107604545Y-91247702D02*
X107603703Y-91247532D01*
X107607913Y-91248363D02*
X107606229Y-91248036D01*
X107616350Y-91249908D02*
X107612972Y-91249309D01*
X107895380Y-91218374D02*
X107894590Y-91218706D01*
X107636677Y-91252988D02*
X107629890Y-91252059D01*
X107619730Y-91250483D02*
X107616350Y-91249908D01*
X107629890Y-91252059D02*
X107623114Y-91251033D01*
X107878669Y-91225028D02*
X107872244Y-91227394D01*
X107793134Y-91248658D02*
X107766154Y-91252862D01*
X107833102Y-91239658D02*
X107819858Y-91243018D01*
X107920341Y-91207047D02*
X107914755Y-91209728D01*
X107872244Y-91227394D02*
X107865789Y-91229667D01*
X107893007Y-91219365D02*
X107891423Y-91220017D01*
X107896170Y-91218041D02*
X107895380Y-91218374D01*
X107896960Y-91217707D02*
X107896170Y-91218041D01*
X107897354Y-91217539D02*
X107896960Y-91217707D01*
X107899180Y-91216757D02*
X107897748Y-91217371D01*
X107897748Y-91217371D02*
X107897354Y-91217539D01*
X107670732Y-91256196D02*
X107657091Y-91255198D01*
X107684389Y-91256819D02*
X107670732Y-91256196D01*
X107931384Y-91201491D02*
X107920341Y-91207047D01*
X107885063Y-91222570D02*
X107881870Y-91223811D01*
X107894590Y-91218706D02*
X107893007Y-91219365D01*
X107567442Y-91238772D02*
X107555829Y-91235350D01*
X107738991Y-91255631D02*
X107711712Y-91256955D01*
X107603283Y-91247447D02*
X107602862Y-91247361D01*
X107891423Y-91220017D02*
X107888247Y-91221305D01*
X107711712Y-91256955D02*
X107698052Y-91257071D01*
X107606229Y-91248036D02*
X107604545Y-91247702D01*
X107819858Y-91243018D02*
X107806532Y-91246018D01*
X107952947Y-91189613D02*
X107942254Y-91195678D01*
X107983926Y-91169964D02*
X107963459Y-91183303D01*
X108196191Y-90683108D02*
X108197923Y-90695715D01*
X107763494Y-88549460D02*
X107771507Y-88588913D01*
X108192973Y-90664187D02*
X108194129Y-90670495D01*
X108052802Y-89973855D02*
X108089893Y-90156473D01*
X107963459Y-91183303D02*
X107952947Y-91189613D01*
X108457126Y-84845995D02*
X108481042Y-84804462D01*
X108415363Y-84958280D02*
X108421576Y-84935004D01*
X108003631Y-91155702D02*
X107983926Y-91169964D01*
X108022547Y-91140556D02*
X108003631Y-91155702D01*
X108057919Y-91107767D02*
X108022547Y-91140556D01*
X108142731Y-90992077D02*
X108118190Y-91033244D01*
X108163296Y-90948675D02*
X108142731Y-90992077D01*
X108421576Y-84935004D02*
X108428879Y-84912101D01*
X108191698Y-90856280D02*
X108179687Y-90903314D01*
X108199116Y-90807878D02*
X108191698Y-90856280D01*
X108201167Y-90733435D02*
X108201728Y-90758436D01*
X108191654Y-90657488D02*
X108191950Y-90658945D01*
X108201036Y-90783266D02*
X108199116Y-90807878D01*
X108201728Y-90758436D02*
X108201036Y-90783266D01*
X108199328Y-90708309D02*
X108201167Y-90733435D01*
X108428879Y-84912101D02*
X108437252Y-84889607D01*
X108195201Y-90676802D02*
X108196191Y-90683108D01*
X108191416Y-90656315D02*
X108191654Y-90657488D01*
X108191022Y-90654375D02*
X108191416Y-90656315D01*
X108190474Y-90651680D02*
X108191022Y-90654375D01*
X108186803Y-90633603D02*
X108188930Y-90644076D01*
X108184113Y-90620358D02*
X108186803Y-90633603D01*
X108180880Y-90604442D02*
X108184113Y-90620358D01*
X108172867Y-90564989D02*
X108180880Y-90604442D01*
X108412673Y-84970046D02*
X108415363Y-84958280D01*
X108151212Y-90458374D02*
X108162924Y-90516036D01*
X107931236Y-89375332D02*
X107972187Y-89576951D01*
X108013138Y-89778570D02*
X108052802Y-89973855D01*
X108508852Y-84765306D02*
X108540412Y-84728832D01*
X107753050Y-88498040D02*
X107753900Y-88502222D01*
X107891572Y-89180047D02*
X107931236Y-89375332D01*
X107854481Y-88997429D02*
X107891572Y-89180047D01*
X107821249Y-88833811D02*
X107854481Y-88997429D01*
X107781450Y-88637866D02*
X107793162Y-88695528D01*
X107757571Y-88520299D02*
X107763494Y-88549460D01*
X108656025Y-84638782D02*
X108748632Y-84598346D01*
X108575571Y-84695362D02*
X108656025Y-84638782D01*
X107755444Y-88509826D02*
X107757571Y-88520299D01*
X107752640Y-88496021D02*
X107753050Y-88498040D01*
X108540412Y-84728832D02*
X108575571Y-84695362D01*
X108481042Y-84804462D02*
X108508852Y-84765306D01*
X108437252Y-84889607D02*
X108457126Y-84845995D01*
X107793162Y-88695528D02*
X107821249Y-88833811D01*
X108197923Y-90695715D02*
X108199328Y-90708309D01*
X108188930Y-90644076D02*
X108190474Y-90651680D01*
X108194129Y-90670495D02*
X108195201Y-90676802D01*
X107771507Y-88588913D02*
X107781450Y-88637866D01*
X107972187Y-89576951D02*
X108013138Y-89778570D01*
X108410263Y-84981891D02*
X108412673Y-84970046D01*
X108179687Y-90903314D02*
X108163296Y-90948675D01*
X108123126Y-90320091D02*
X108151212Y-90458374D01*
X108089860Y-91071900D02*
X108057919Y-91107767D01*
X108118190Y-91033244D02*
X108089860Y-91071900D01*
X108191950Y-90658945D02*
X108192973Y-90664187D01*
X108162924Y-90516036D02*
X108172867Y-90564989D01*
X108089893Y-90156473D02*
X108123126Y-90320091D01*
X107753900Y-88502222D02*
X107755444Y-88509826D01*
X106772687Y-88496669D02*
X106784698Y-88449636D01*
X106762657Y-88594513D02*
X106763349Y-88569684D01*
X106765056Y-88644640D02*
X106763218Y-88619514D01*
X106765269Y-88545071D02*
X106772687Y-88496669D01*
X107171222Y-90657418D02*
X107143136Y-90519136D01*
X107241771Y-90953411D02*
X107211744Y-90856925D01*
X107555829Y-91235350D02*
X107544320Y-91231655D01*
X106768193Y-88669841D02*
X106766461Y-88657234D01*
X106992197Y-89775997D02*
X106951247Y-89574378D01*
X107510468Y-91218959D02*
X107488504Y-91209186D01*
X107210485Y-90850724D02*
X107208940Y-90843121D01*
X106980458Y-88182985D02*
X107000926Y-88169646D01*
X106784698Y-88449636D02*
X106801089Y-88404275D01*
X106763218Y-88619514D02*
X106762657Y-88594513D01*
X106766461Y-88657234D02*
X106765056Y-88644640D01*
X106773910Y-88701270D02*
X106773363Y-88698575D01*
X107109904Y-90355518D02*
X107072812Y-90172901D01*
X107072812Y-90172901D02*
X107033148Y-89977615D01*
X106772434Y-88694004D02*
X106771411Y-88688761D01*
X106772969Y-88696635D02*
X106772730Y-88695462D01*
X107208940Y-90843121D02*
X107206813Y-90832647D01*
X107532921Y-91227689D02*
X107510468Y-91218959D01*
X107544320Y-91231655D02*
X107532921Y-91227689D01*
X106773363Y-88698575D02*
X106772969Y-88696635D01*
X106874491Y-89196475D02*
X106841259Y-89032858D01*
X106801460Y-88836913D02*
X106791518Y-88787960D01*
X106951247Y-89574378D02*
X106911582Y-89379093D01*
X107467065Y-91198394D02*
X107425899Y-91173853D01*
X106906465Y-88245182D02*
X106941837Y-88212393D01*
X106960753Y-88197247D02*
X106980458Y-88182985D01*
X106941837Y-88212393D02*
X106960753Y-88197247D01*
X106783504Y-88748507D02*
X106780272Y-88732591D01*
X106777582Y-88719347D02*
X106775454Y-88708873D01*
X106874525Y-88281049D02*
X106906465Y-88245182D01*
X106763349Y-88569684D02*
X106765269Y-88545071D01*
X106770256Y-88682454D02*
X106769183Y-88676147D01*
X107289178Y-91039589D02*
X107241771Y-90953411D01*
X106771411Y-88688761D02*
X106770256Y-88682454D01*
X107182934Y-90715080D02*
X107171222Y-90657418D01*
X106775454Y-88708873D02*
X106773910Y-88701270D01*
X107318586Y-91078210D02*
X107289178Y-91039589D01*
X106791518Y-88787960D02*
X106783504Y-88748507D01*
X107033148Y-89977615D02*
X106992197Y-89775997D01*
X107192877Y-90764034D02*
X107182934Y-90715080D01*
X107211744Y-90856926D02*
X107211334Y-90854907D01*
X107200890Y-90803486D02*
X107192877Y-90764034D01*
X107488504Y-91209186D02*
X107467065Y-91198394D01*
X107211334Y-90854907D02*
X107210485Y-90850724D01*
X107425899Y-91173853D02*
X107387242Y-91145523D01*
X106841259Y-89032858D02*
X106813172Y-88894575D01*
X107143136Y-90519136D02*
X107109904Y-90355518D01*
X106846194Y-88319706D02*
X106874525Y-88281049D01*
X106772730Y-88695462D02*
X106772434Y-88694004D01*
X106911582Y-89379093D02*
X106874491Y-89196475D01*
X106780272Y-88732591D02*
X106777582Y-88719347D01*
X107351375Y-91113582D02*
X107318586Y-91078210D01*
X107011437Y-88163336D02*
X107022130Y-88157271D01*
X107000926Y-88169646D02*
X107011437Y-88163336D01*
X106821653Y-88360873D02*
X106846194Y-88319706D01*
X106801089Y-88404275D02*
X106821653Y-88360873D01*
X106769183Y-88676147D02*
X106768193Y-88669841D01*
X106813172Y-88894575D02*
X106801460Y-88836913D01*
X107206813Y-90832647D02*
X107200890Y-90803486D01*
X107387242Y-91145523D02*
X107351375Y-91113582D01*
X111327703Y-84779807D02*
X111247249Y-84836387D01*
X111394422Y-84709864D02*
X111362863Y-84746337D01*
X111446148Y-84629174D02*
X111422232Y-84670707D01*
X111422232Y-84670707D02*
X111394422Y-84709864D01*
X111141229Y-84881126D02*
X111131052Y-84884390D01*
X111131052Y-84884390D02*
X111102717Y-84893478D01*
X111064383Y-84905774D02*
X111016817Y-84921030D01*
X110960789Y-84939000D02*
X110826424Y-84982096D01*
X111016817Y-84921030D02*
X110960789Y-84939000D01*
X111466022Y-84585563D02*
X111446148Y-84629174D01*
X111487911Y-84516889D02*
X111481698Y-84540165D01*
X111102717Y-84893478D02*
X111064383Y-84905774D01*
X111495137Y-84481360D02*
X111493011Y-84493279D01*
X111493011Y-84493279D02*
X111490601Y-84505123D01*
X111490601Y-84505123D02*
X111487911Y-84516889D01*
X111148617Y-84878757D02*
X111141229Y-84881126D01*
X111152681Y-84877453D02*
X111148617Y-84878757D01*
X111362863Y-84746337D02*
X111327703Y-84779807D01*
X111154643Y-84876824D02*
X111152681Y-84877453D01*
X111247249Y-84836387D02*
X111154643Y-84876824D01*
X111474395Y-84563069D02*
X111466022Y-84585563D01*
X111481698Y-84540165D02*
X111474395Y-84563069D01*
X111496977Y-84469373D02*
X111495137Y-84481360D01*
X111500228Y-84440081D02*
X111500087Y-84441791D01*
X111501038Y-84428103D02*
X111500838Y-84431526D01*
X111500838Y-84431526D02*
X111500613Y-84434948D01*
X111501668Y-84410983D02*
X111501490Y-84417831D01*
X111480189Y-84255947D02*
X111487330Y-84282302D01*
X111456218Y-84192022D02*
X111461713Y-84204545D01*
X111498988Y-84349531D02*
X111500238Y-84363139D01*
X111501118Y-84376781D02*
X111501623Y-84390450D01*
X111497374Y-84335966D02*
X111498988Y-84349531D01*
X111466856Y-84217209D02*
X111471650Y-84230004D01*
X111497789Y-84463355D02*
X111496977Y-84469373D01*
X111500363Y-84438370D02*
X111500228Y-84440081D01*
X111501490Y-84417831D02*
X111501213Y-84424679D01*
X111499194Y-84451273D02*
X111498528Y-84457321D01*
X111499826Y-84444784D02*
X111499787Y-84445211D01*
X111500087Y-84441791D02*
X111499940Y-84443501D01*
X111500613Y-84434948D02*
X111500363Y-84438370D01*
X111501623Y-84390450D02*
X111501749Y-84404136D01*
X111501213Y-84424679D02*
X111501038Y-84428103D01*
X111487330Y-84282302D02*
X111493063Y-84308998D01*
X111461713Y-84204545D02*
X111466856Y-84217209D01*
X111476094Y-84242920D02*
X111480189Y-84255947D01*
X111498528Y-84457321D02*
X111497789Y-84463355D01*
X111499787Y-84445211D02*
X111499646Y-84446728D01*
X111493063Y-84308998D02*
X111497374Y-84335966D01*
X111471650Y-84230004D02*
X111476094Y-84242920D01*
X111499500Y-84448244D02*
X111499194Y-84451273D01*
X111500238Y-84363139D02*
X111501118Y-84376781D01*
X111499646Y-84446728D02*
X111499500Y-84448244D01*
X111499864Y-84444356D02*
X111499826Y-84444784D01*
X111499940Y-84443501D02*
X111499864Y-84444356D01*
X111501749Y-84404136D02*
X111501668Y-84410983D01*
X101750269Y-96066670D02*
X101586419Y-96128363D01*
X100467605Y-96246773D02*
X100450391Y-96229587D01*
X105099824Y-94805471D02*
X104923782Y-94871755D01*
X104923782Y-94871755D02*
X104731088Y-94944310D01*
X100606725Y-96340398D02*
X100564055Y-96318576D01*
X105740653Y-94564181D02*
X105651740Y-94597660D01*
X100744782Y-96380446D02*
X100697391Y-96371478D01*
X100651271Y-96358079D02*
X100606725Y-96340398D01*
X105651740Y-94597660D02*
X105541416Y-94639199D01*
X101020119Y-96341591D02*
X101002983Y-96348043D01*
X101109441Y-96307959D02*
X101073571Y-96321465D01*
X100915915Y-96374634D02*
X100891321Y-96379165D01*
X100952639Y-96365434D02*
X100940428Y-96368824D01*
X101198354Y-96274481D02*
X101109441Y-96307959D01*
X100450391Y-96229587D02*
X100433967Y-96211501D01*
X100485567Y-96263039D02*
X100467605Y-96246773D01*
X101002983Y-96348043D02*
X100996910Y-96350330D01*
X100891321Y-96379165D02*
X100842093Y-96384450D01*
X100523564Y-96292746D02*
X100485567Y-96263039D01*
X100564055Y-96318576D02*
X100523564Y-96292746D01*
X100697391Y-96371478D02*
X100651271Y-96358079D01*
X100793127Y-96384824D02*
X100744782Y-96380446D01*
X100842093Y-96384450D02*
X100793127Y-96384824D01*
X100940428Y-96368824D02*
X100915915Y-96374634D01*
X100964810Y-96361718D02*
X100952639Y-96365434D01*
X100976935Y-96357676D02*
X100964810Y-96361718D01*
X100982978Y-96355532D02*
X100976935Y-96357676D01*
X100989894Y-96352971D02*
X100987995Y-96353687D01*
X100992538Y-96351976D02*
X100989894Y-96352971D01*
X101438627Y-96184011D02*
X101308678Y-96232941D01*
X101043723Y-96332704D02*
X101020119Y-96341591D01*
X101073571Y-96321465D02*
X101043723Y-96332704D01*
X101308678Y-96232941D02*
X101198354Y-96274481D01*
X105829975Y-94530549D02*
X105806371Y-94539437D01*
X101586419Y-96128363D02*
X101438627Y-96184011D01*
X102970668Y-95607156D02*
X102747047Y-95691355D01*
X102747047Y-95691355D02*
X102530563Y-95772868D01*
X102119006Y-95927830D02*
X101926311Y-96000385D01*
X101926311Y-96000385D02*
X101750269Y-96066670D01*
X103425047Y-95436070D02*
X103196668Y-95522061D01*
X103196668Y-95522061D02*
X102970668Y-95607156D01*
X103879425Y-95264984D02*
X103653425Y-95350079D01*
X103653425Y-95350079D02*
X103425047Y-95436070D01*
X104319530Y-95099273D02*
X104103046Y-95180785D01*
X104103046Y-95180785D02*
X103879425Y-95264984D01*
X105411466Y-94688129D02*
X105099824Y-94805471D01*
X102530563Y-95772868D02*
X102318837Y-95852588D01*
X102318837Y-95852588D02*
X102119006Y-95927830D01*
X100403667Y-96172709D02*
X100400132Y-96167620D01*
X100987995Y-96353687D02*
X100982978Y-96355532D01*
X105806371Y-94539437D02*
X105740653Y-94564181D01*
X105541416Y-94639199D02*
X105411466Y-94688129D01*
X100418377Y-96192535D02*
X100410909Y-96182728D01*
X100996910Y-96350330D02*
X100992538Y-96351976D01*
X105847111Y-94524097D02*
X105829975Y-94530549D01*
X100410909Y-96182728D02*
X100403667Y-96172709D01*
X100426065Y-96202127D02*
X100418377Y-96192535D01*
X100433967Y-96211501D02*
X100426065Y-96202127D01*
X104731088Y-94944310D02*
X104531256Y-95019552D01*
X104531256Y-95019552D02*
X104319530Y-95099273D01*
X100658423Y-104732397D02*
X100664111Y-104736207D01*
X100798269Y-104870956D02*
X100805787Y-104882374D01*
X100641387Y-104721675D02*
X100641754Y-104721896D01*
X100868588Y-105271915D02*
X100854606Y-105318401D01*
X100882737Y-105176812D02*
X100877955Y-105224601D01*
X100838325Y-104942100D02*
X100838503Y-104942491D01*
X100707527Y-104769427D02*
X100717782Y-104778449D01*
X100686291Y-104752225D02*
X100697029Y-104760682D01*
X100669743Y-104740097D02*
X100675317Y-104744063D01*
X100839131Y-104943879D02*
X100839755Y-104945268D01*
X100697029Y-104760682D02*
X100707527Y-104769427D01*
X100863665Y-105010650D02*
X100869788Y-105033950D01*
X105857556Y-94520164D02*
X105853183Y-94521810D01*
X100641754Y-104721896D02*
X100642488Y-104722338D01*
X100641019Y-104721454D02*
X100641387Y-104721675D01*
X105853183Y-94521810D02*
X105847111Y-94524097D01*
X100838503Y-104942491D02*
X100839131Y-104943879D01*
X100860178Y-104999095D02*
X100863665Y-105010650D01*
X105859942Y-94519266D02*
X105857556Y-94520164D01*
X100836347Y-104937815D02*
X100837071Y-104939371D01*
X100643222Y-104722782D02*
X100643954Y-104723226D01*
X100823194Y-104911819D02*
X100826429Y-104917858D01*
X100675317Y-104744063D02*
X100686291Y-104752225D01*
X100645417Y-104724120D02*
X100646876Y-104725019D01*
X100848022Y-104964876D02*
X100852357Y-104976202D01*
X105861087Y-94518835D02*
X105859942Y-94519266D01*
X100649784Y-104726833D02*
X100652678Y-104728668D01*
X100812707Y-105407387D02*
X100752258Y-105488363D01*
X100642488Y-104722338D02*
X100643222Y-104722782D01*
X100882959Y-105128886D02*
X100882737Y-105176812D01*
X100837071Y-104939371D02*
X100837790Y-104940929D01*
X100839755Y-104945268D02*
X100840989Y-104948052D01*
X100835617Y-104936262D02*
X100836347Y-104937815D01*
X100727789Y-104787742D02*
X100747039Y-104807107D01*
X100829579Y-104923945D02*
X100831121Y-104927006D01*
X100747039Y-104807107D02*
X100765235Y-104827464D01*
X100652678Y-104728668D02*
X100655557Y-104730522D01*
X100845748Y-104959245D02*
X100848022Y-104964876D01*
X100877955Y-105224601D02*
X100868588Y-105271915D01*
X100837790Y-104940929D02*
X100838147Y-104941710D01*
X100856409Y-104987611D02*
X100860178Y-104999095D01*
X100854606Y-105318401D02*
X100812707Y-105407387D01*
X100826429Y-104917858D02*
X100829579Y-104923945D01*
X100765235Y-104827464D02*
X100782330Y-104848763D01*
X100852357Y-104976202D02*
X100856409Y-104987611D01*
X100878639Y-105081155D02*
X100882959Y-105128886D01*
X100819876Y-104905830D02*
X100823194Y-104911819D01*
X100874780Y-105057465D02*
X100878639Y-105081155D01*
X100869788Y-105033950D02*
X100874780Y-105057465D01*
X100843404Y-104953637D02*
X100845748Y-104959245D01*
X100838147Y-104941710D02*
X100838325Y-104942100D01*
X100840989Y-104948052D02*
X100843404Y-104953637D01*
X100643954Y-104723226D02*
X100645417Y-104724120D01*
X100834140Y-104933165D02*
X100835617Y-104936262D01*
X100832642Y-104930080D02*
X100834140Y-104933165D01*
X100812992Y-104894001D02*
X100819876Y-104905830D01*
X100831121Y-104927006D02*
X100832642Y-104930080D01*
X100805787Y-104882374D02*
X100812992Y-104894001D01*
X100790447Y-104859750D02*
X100798269Y-104870956D01*
X100782330Y-104848763D02*
X100790447Y-104859750D01*
X100717782Y-104778449D02*
X100727789Y-104787742D01*
X100664111Y-104736207D02*
X100669743Y-104740097D01*
X100655557Y-104730522D02*
X100658423Y-104732397D01*
X100646876Y-104725019D02*
X100649784Y-104726833D01*
X97146851Y-107937618D02*
X97333315Y-107734464D01*
X97333315Y-107734464D02*
X97525927Y-107524612D01*
X100091047Y-104745014D02*
X100132595Y-104718086D01*
X100635657Y-104718290D02*
X100638342Y-104719863D01*
X100024339Y-104802819D02*
X100033336Y-104793741D01*
X100016268Y-104811371D02*
X100019913Y-104807459D01*
X100014773Y-104812999D02*
X100016268Y-104811371D01*
X99628265Y-105234102D02*
X99740195Y-105112154D01*
X96474758Y-108669867D02*
X96626389Y-108504665D01*
X96626389Y-108504665D02*
X96792363Y-108323835D01*
X99359838Y-105526555D02*
X99500967Y-105372794D01*
X99500967Y-105372794D02*
X99628265Y-105234102D01*
X95819058Y-109384256D02*
X95820045Y-109383182D01*
X100639681Y-104720657D02*
X100641019Y-104721454D01*
X100574850Y-104688286D02*
X100586132Y-104693087D01*
X99988740Y-104841363D02*
X100003499Y-104825282D01*
X100632965Y-104716736D02*
X100635657Y-104718290D01*
X99968409Y-104863513D02*
X99988740Y-104841363D01*
X100051888Y-104776400D02*
X100071143Y-104760154D01*
X100630265Y-104715199D02*
X100632965Y-104716736D01*
X99942700Y-104891523D02*
X99968409Y-104863513D01*
X100586132Y-104693087D02*
X100597320Y-104698178D01*
X100267583Y-104664375D02*
X100314788Y-104655524D01*
X100624844Y-104712180D02*
X100630265Y-104715199D01*
X100619393Y-104709235D02*
X100624844Y-104712180D01*
X100608410Y-104703561D02*
X100619393Y-104709235D01*
X100132595Y-104718086D02*
X100176124Y-104695659D01*
X99911804Y-104925185D02*
X99942700Y-104891523D01*
X99835220Y-105008623D02*
X99911804Y-104925185D01*
X100552033Y-104679556D02*
X100574850Y-104688286D01*
X97525927Y-107524612D02*
X97720588Y-107312528D01*
X97720588Y-107312528D02*
X97917298Y-107098211D01*
X100012496Y-104815480D02*
X100014773Y-104812999D01*
X100528916Y-104671987D02*
X100552033Y-104679556D01*
X100410445Y-104651426D02*
X100458234Y-104656207D01*
X95845856Y-109355060D02*
X95866187Y-109332910D01*
X100176124Y-104695659D02*
X100221244Y-104677754D01*
X95825866Y-109376839D02*
X95831097Y-109371141D01*
X95758610Y-109465231D02*
X95819059Y-109384256D01*
X100362519Y-104651204D02*
X100410445Y-104651426D01*
X100314788Y-104655524D02*
X100362519Y-104651204D01*
X100019913Y-104807459D02*
X100024339Y-104802819D01*
X99740195Y-105112154D02*
X99835220Y-105008623D01*
X95822100Y-109380942D02*
X95825866Y-109376839D01*
X96792363Y-108323835D02*
X96964484Y-108136307D01*
X96964484Y-108136307D02*
X97146851Y-107937618D01*
X95999376Y-109187799D02*
X96094401Y-109084269D01*
X96206331Y-108962320D02*
X96331324Y-108826140D01*
X96331324Y-108826140D02*
X96474758Y-108669867D01*
X100042521Y-104784934D02*
X100051888Y-104776400D01*
X100008730Y-104819583D02*
X100012496Y-104815480D01*
X98308669Y-106671810D02*
X98501281Y-106461958D01*
X98501281Y-106461958D02*
X98687745Y-106258804D01*
X95831097Y-109371141D02*
X95845856Y-109355060D01*
X100071143Y-104760154D02*
X100091047Y-104745014D01*
X100597320Y-104698178D02*
X100608410Y-104703561D01*
X100458234Y-104656207D02*
X100505547Y-104665575D01*
X100221244Y-104677754D02*
X100267583Y-104664375D01*
X100003499Y-104825282D02*
X100008730Y-104819583D01*
X95820045Y-109383182D02*
X95822100Y-109380942D01*
X95922792Y-109271238D02*
X95999376Y-109187799D01*
X95891896Y-109304899D02*
X95922792Y-109271238D01*
X99042233Y-105872588D02*
X99208207Y-105691758D01*
X99208207Y-105691758D02*
X99359838Y-105526555D01*
X100505547Y-104665575D02*
X100528916Y-104671987D01*
X97917298Y-107098211D02*
X98114008Y-106883894D01*
X98114008Y-106883894D02*
X98308669Y-106671810D01*
X100033336Y-104793741D02*
X100042521Y-104784934D01*
X95866187Y-109332910D02*
X95891896Y-109304899D01*
X96094401Y-109084269D02*
X96206331Y-108962320D01*
X98687745Y-106258804D02*
X98870112Y-106060114D01*
X98870112Y-106060114D02*
X99042233Y-105872588D01*
X100638342Y-104719863D02*
X100639681Y-104720657D01*
X95824277Y-110065512D02*
X95806081Y-110045154D01*
X95723294Y-109907742D02*
X95718959Y-109896416D01*
X95885025Y-110120394D02*
X95874287Y-110111937D01*
X95941050Y-110157420D02*
X95938350Y-110155883D01*
X95853533Y-110094169D02*
X95843526Y-110084877D01*
X95915758Y-110142097D02*
X95912893Y-110140222D01*
X95731561Y-109927350D02*
X95730327Y-109924566D01*
X95928827Y-110150281D02*
X95928094Y-110149837D01*
X95773047Y-110001662D02*
X95765529Y-109990244D01*
X95930297Y-110151164D02*
X95929929Y-110150944D01*
X95740195Y-109945612D02*
X95738674Y-109942538D01*
X95806081Y-110045154D02*
X95788986Y-110023855D01*
X95924439Y-110147599D02*
X95921532Y-110145786D01*
X95716711Y-109554218D02*
X95758610Y-109465231D01*
X95718959Y-109896416D02*
X95714907Y-109885007D01*
X95702729Y-109600704D02*
X95716711Y-109554218D01*
X95692677Y-109791463D02*
X95688358Y-109743732D01*
X95693361Y-109648017D02*
X95702729Y-109600704D01*
X95688580Y-109695806D02*
X95693361Y-109648017D01*
X95688358Y-109743732D02*
X95688580Y-109695806D01*
X95727912Y-109918981D02*
X95725568Y-109913373D01*
X95929929Y-110150944D02*
X95929561Y-110150723D01*
X95765529Y-109990244D02*
X95758324Y-109978618D01*
X95780868Y-110012868D02*
X95773047Y-110001662D01*
X95907204Y-110136411D02*
X95901573Y-110132522D01*
X95696537Y-109815153D02*
X95692677Y-109791463D01*
X95701528Y-109838668D02*
X95696537Y-109815153D01*
X95707652Y-109861968D02*
X95701528Y-109838668D01*
X95927361Y-110149392D02*
X95925898Y-110148499D01*
X95711138Y-109873523D02*
X95707652Y-109861968D01*
X95714907Y-109885007D02*
X95711138Y-109873523D01*
X95734969Y-109934803D02*
X95734245Y-109933247D01*
X95737175Y-109939453D02*
X95735699Y-109936356D01*
X95912893Y-110140222D02*
X95907204Y-110136411D01*
X95874287Y-110111937D02*
X95863788Y-110103192D01*
X95921532Y-110145786D02*
X95918638Y-110143951D01*
X95725568Y-109913373D02*
X95723294Y-109907742D01*
X95730327Y-109924566D02*
X95727912Y-109918981D01*
X95843526Y-110084877D02*
X95824277Y-110065512D01*
X95935658Y-110154328D02*
X95932973Y-110152756D01*
X95738674Y-109942538D02*
X95737175Y-109939453D01*
X95732185Y-109928739D02*
X95731561Y-109927350D01*
X95732991Y-109930518D02*
X95732813Y-109930127D01*
X95751440Y-109966788D02*
X95748121Y-109960799D01*
X95901573Y-110132522D02*
X95895999Y-110128556D01*
X95732813Y-109930127D02*
X95732185Y-109928739D01*
X95735699Y-109936356D02*
X95734969Y-109934803D01*
X95928094Y-110149837D02*
X95927361Y-110149392D01*
X95758324Y-109978618D02*
X95751440Y-109966788D01*
X95733169Y-109930908D02*
X95732991Y-109930518D01*
X95938350Y-110155883D02*
X95935658Y-110154328D01*
X95733526Y-109931688D02*
X95733169Y-109930908D01*
X95734245Y-109933247D02*
X95733526Y-109931688D01*
X95925898Y-110148499D02*
X95924439Y-110147599D01*
X95741737Y-109948673D02*
X95740195Y-109945612D01*
X95918638Y-110143951D02*
X95915758Y-110142097D01*
X95929561Y-110150723D02*
X95928827Y-110150281D01*
X95744887Y-109954760D02*
X95741737Y-109948673D01*
X95932973Y-110152756D02*
X95931634Y-110151962D01*
X95748121Y-109960799D02*
X95744887Y-109954760D01*
X95788986Y-110023855D02*
X95780868Y-110012868D01*
X95931634Y-110151962D02*
X95930297Y-110151164D01*
X95863788Y-110103192D02*
X95853533Y-110094169D01*
X95895999Y-110128556D02*
X95885025Y-110120394D01*
X95951922Y-110163384D02*
X95946472Y-110160439D01*
X96019283Y-110193063D02*
X95996465Y-110184333D01*
X99424466Y-106935001D02*
X99238001Y-107138155D01*
X99238001Y-107138155D02*
X99045390Y-107348007D01*
X96395192Y-110176961D02*
X96350072Y-110194867D01*
X96567818Y-110047338D02*
X96562587Y-110053037D01*
X100476916Y-105788350D02*
X100364986Y-105910299D01*
X95973995Y-110174441D02*
X95962906Y-110169058D01*
X96562587Y-110053037D02*
X96558821Y-110057140D01*
X100364986Y-105910299D02*
X100169299Y-106123498D01*
X100169299Y-106123498D02*
X100096558Y-106202752D01*
X95985184Y-110179532D02*
X95973995Y-110174441D01*
X100740220Y-105501478D02*
X100725460Y-105517559D01*
X96736097Y-109863996D02*
X96659513Y-109947435D01*
X100725460Y-105517559D02*
X100705130Y-105539709D01*
X91928170Y-98903310D02*
X91952086Y-98861777D01*
X96659513Y-109947435D02*
X96628617Y-109981096D01*
X100705130Y-105539709D02*
X100679421Y-105567720D01*
X96065769Y-110207045D02*
X96042400Y-110200633D01*
X96546978Y-110069800D02*
X96537981Y-110078878D01*
X95962906Y-110169058D02*
X95951922Y-110163384D01*
X95996465Y-110184333D02*
X95985184Y-110179532D01*
X96537981Y-110078878D02*
X96528796Y-110087686D01*
X96042400Y-110200633D02*
X96019283Y-110193063D01*
X96113082Y-110216412D02*
X96065769Y-110207045D01*
X100749217Y-105491676D02*
X100745451Y-105495779D01*
X96160871Y-110221194D02*
X96113082Y-110216412D01*
X96208797Y-110221416D02*
X96160871Y-110221194D01*
X96256528Y-110217097D02*
X96208797Y-110221416D01*
X100751272Y-105489437D02*
X100749217Y-105491676D01*
X96303733Y-110208246D02*
X96256528Y-110217097D01*
X96519428Y-110096220D02*
X96500174Y-110112466D01*
X97070350Y-109499825D02*
X96943052Y-109638517D01*
X96556544Y-110059621D02*
X96555049Y-110061249D01*
X96350072Y-110194867D02*
X96303733Y-110208246D01*
X96480269Y-110127606D02*
X96438721Y-110154534D01*
X96500174Y-110112466D02*
X96480269Y-110127606D01*
X96528796Y-110087686D02*
X96519428Y-110096220D01*
X96602908Y-110009107D02*
X96582577Y-110031257D01*
X96831122Y-109760466D02*
X96736097Y-109863996D01*
X96943052Y-109638517D02*
X96831122Y-109760466D01*
X100648525Y-105601381D02*
X100571941Y-105684820D01*
X97529084Y-109000032D02*
X97363109Y-109180862D01*
X97363109Y-109180862D02*
X97211479Y-109346064D01*
X97883572Y-108613815D02*
X97701205Y-108812504D01*
X97701205Y-108812504D02*
X97529084Y-109000032D01*
X98262648Y-108200809D02*
X98070036Y-108410660D01*
X98070036Y-108410660D02*
X97883572Y-108613815D01*
X98654019Y-107774408D02*
X98457309Y-107988725D01*
X98457309Y-107988725D02*
X98262648Y-108200809D01*
X99778954Y-106548784D02*
X99606832Y-106736311D01*
X99606832Y-106736311D02*
X99424466Y-106935001D01*
X100752258Y-105488362D02*
X100751272Y-105489437D01*
X91952086Y-98861777D02*
X91979896Y-98822620D01*
X100745451Y-105495779D02*
X100740220Y-105501478D01*
X92011456Y-98786147D02*
X92046615Y-98752677D01*
X95946472Y-110160439D02*
X95941050Y-110157420D01*
X96558821Y-110057140D02*
X96556544Y-110059621D01*
X97211479Y-109346064D02*
X97070350Y-109499825D01*
X96582577Y-110031257D02*
X96567818Y-110047338D01*
X100571941Y-105684820D02*
X100476916Y-105788350D01*
X100096558Y-106202752D02*
X99944928Y-106367954D01*
X99944928Y-106367954D02*
X99778954Y-106548784D01*
X96551403Y-110065160D02*
X96546978Y-110069800D01*
X96555049Y-110061249D02*
X96551403Y-110065160D01*
X96628617Y-109981096D02*
X96602908Y-110009107D01*
X100679421Y-105567720D02*
X100648525Y-105601381D01*
X92127069Y-98696097D02*
X92219675Y-98655661D01*
X96438721Y-110154534D02*
X96395192Y-110176961D01*
X91979896Y-98822620D02*
X92011456Y-98786147D01*
X99045390Y-107348007D02*
X98850729Y-107560091D01*
X98850729Y-107560091D02*
X98654019Y-107774408D01*
X92046615Y-98752677D02*
X92127069Y-98696097D01*
X100321669Y-95793504D02*
X100326717Y-95769948D01*
X100315444Y-95934095D02*
X100314259Y-95920469D01*
X100316218Y-95829348D02*
X100317749Y-95817339D01*
X100347091Y-96066548D02*
X100342354Y-96053740D01*
X100363363Y-96104160D02*
X100357596Y-96091767D01*
X100388061Y-96149140D02*
X100387159Y-96147682D01*
X100313437Y-95864162D02*
X100313507Y-95862640D01*
X100313194Y-95899963D02*
X100313032Y-95893115D01*
X100391552Y-96154674D02*
X100390715Y-96153361D01*
X100400132Y-96167620D02*
X100396656Y-96162480D01*
X100390715Y-96153361D02*
X100389881Y-96152046D01*
X100314026Y-95853526D02*
X100314465Y-95847463D01*
X100313336Y-95866541D02*
X100313353Y-95866113D01*
X100389881Y-96152046D02*
X100389653Y-96151683D01*
X100313002Y-95879404D02*
X100313056Y-95875975D01*
X100389653Y-96151683D02*
X100389424Y-96151320D01*
X100313453Y-95906806D02*
X100313194Y-95899963D01*
X100379287Y-96134428D02*
X100375930Y-96128461D01*
X100321212Y-95974675D02*
X100318925Y-95961207D01*
X100384486Y-96143291D02*
X100382731Y-96140348D01*
X100394940Y-96159891D02*
X100393238Y-96157289D01*
X100380998Y-96137394D02*
X100379287Y-96134428D01*
X100352172Y-96079227D02*
X100347091Y-96066548D01*
X100393238Y-96157289D02*
X100391552Y-96154674D01*
X100318925Y-95961207D02*
X100317001Y-95947677D01*
X100313662Y-95859600D02*
X100314026Y-95853526D01*
X100342354Y-96053740D02*
X100333912Y-96027773D01*
X100435156Y-95558123D02*
X100468608Y-95522947D01*
X100314465Y-95847463D02*
X100314976Y-95841412D01*
X100405449Y-95596121D02*
X100435156Y-95558123D01*
X100317001Y-95947677D02*
X100315444Y-95934095D01*
X100379620Y-95636611D02*
X100405449Y-95596121D01*
X100387159Y-96147682D02*
X100386263Y-96146222D01*
X100396656Y-96162480D02*
X100394940Y-96159891D01*
X100357798Y-95679282D02*
X100379620Y-95636611D01*
X100312967Y-95886261D02*
X100312972Y-95882833D01*
X100333912Y-96027773D02*
X100326858Y-96001395D01*
X100340116Y-95723828D02*
X100357798Y-95679282D01*
X100313032Y-95893115D02*
X100312967Y-95886261D01*
X100388968Y-96150594D02*
X100388514Y-96149868D01*
X100332872Y-95746710D02*
X100340116Y-95723828D01*
X100386263Y-96146222D02*
X100384486Y-96143291D01*
X100313136Y-95872545D02*
X100313185Y-95870830D01*
X100313056Y-95875975D02*
X100313136Y-95872545D01*
X100312972Y-95882833D02*
X100313002Y-95879404D01*
X100326717Y-95769948D02*
X100332872Y-95746710D01*
X100313303Y-95867399D02*
X100313336Y-95866541D01*
X100314259Y-95920469D02*
X100313453Y-95906806D01*
X100319567Y-95805389D02*
X100321669Y-95793504D01*
X100317749Y-95817339D02*
X100319567Y-95805389D01*
X100313371Y-95865684D02*
X100313437Y-95864162D01*
X100313241Y-95869114D02*
X100313303Y-95867399D01*
X100369474Y-96116394D02*
X100363363Y-96104160D01*
X100388514Y-96149868D02*
X100388061Y-96149140D01*
X100357596Y-96091767D02*
X100352172Y-96079227D01*
X100382731Y-96140348D02*
X100380998Y-96137394D01*
X100313185Y-95870830D02*
X100313241Y-95869114D01*
X100326858Y-96001395D02*
X100321212Y-95974675D01*
X100389424Y-96151320D02*
X100388968Y-96150594D01*
X100314976Y-95841412D02*
X100316218Y-95829348D01*
X100375930Y-96128461D02*
X100372659Y-96122449D01*
X100313507Y-95862640D02*
X100313662Y-95859600D01*
X100313353Y-95866113D02*
X100313371Y-95865684D01*
X100372659Y-96122449D02*
X100369474Y-96116394D01*
X124587689Y-99603896D02*
X125687689Y-99603896D01*
X124087689Y-120103896D02*
G75*
G02X124587689Y-119603896I0J500000D01*
G01*
X72487690Y-129753896D02*
X72487690Y-134603896D01*
X119087688Y-134603896D02*
X124087689Y-134603896D01*
X124587689Y-114603896D02*
G75*
G02X124087689Y-114103896I-500000J0D01*
G01*
X124587689Y-114603896D02*
X125687689Y-114603896D01*
X124587689Y-129603896D02*
X125687689Y-129603896D01*
X73587689Y-114453896D02*
G75*
G02X74087689Y-114953896I500000J0D01*
G01*
X74087689Y-114953896D02*
X74087689Y-119253896D01*
X124087689Y-90103897D02*
X124087689Y-94103897D01*
X124087689Y-120103896D02*
X124087689Y-124103896D01*
X124087689Y-100103897D02*
X124087689Y-104103897D01*
X124587689Y-104603897D02*
X125687689Y-104603897D01*
X125687689Y-104603897D02*
X125687689Y-109603896D01*
X125687689Y-114603896D02*
X125687689Y-119603896D01*
X124587689Y-119603896D02*
X125687689Y-119603896D01*
X124587689Y-124603896D02*
X125687689Y-124603896D01*
X124087689Y-130103896D02*
X124087689Y-134603896D01*
X74087689Y-129253897D02*
G75*
G02X73587690Y-129753896I0J-499999D01*
G01*
X73587689Y-124453896D02*
G75*
G02X74087689Y-124953896I500000J0D01*
G01*
X72487690Y-124453896D02*
X73587690Y-124453896D01*
X124587689Y-124603896D02*
G75*
G02X124087689Y-124103896I-500000J0D01*
G01*
X125687689Y-124603896D02*
X125687689Y-129603896D01*
X124587689Y-84603896D02*
G75*
G02X124087689Y-84103896I-500000J0D01*
G01*
X124587689Y-84603896D02*
X125687689Y-84603896D01*
X124087689Y-110103896D02*
X124087689Y-114103896D01*
X74087689Y-119253897D02*
G75*
G02X73587690Y-119753896I0J-499999D01*
G01*
X124087689Y-130103896D02*
G75*
G02X124587689Y-129603896I0J500000D01*
G01*
X116737688Y-74603897D02*
X125687689Y-74603897D01*
X124587689Y-79603896D02*
X125687689Y-79603896D01*
X125687689Y-94603897D02*
X125687689Y-99603896D01*
X72487690Y-134603896D02*
X79087689Y-134603896D01*
X124587689Y-109603896D02*
X125687689Y-109603896D01*
X72487690Y-119753896D02*
X72487690Y-124453896D01*
X124087689Y-90103897D02*
G75*
G02X124587689Y-89603897I0J500000D01*
G01*
X125687689Y-74603897D02*
X125687689Y-79603896D01*
X116737688Y-75903896D02*
G75*
G02X116237688Y-76403896I0J-500000D01*
G01*
X124587689Y-89603897D02*
X125687689Y-89603897D01*
X124587689Y-104603897D02*
G75*
G02X124087689Y-104103897I-500000J0D01*
G01*
X74087689Y-124953896D02*
X74087689Y-129253896D01*
X116737688Y-74603897D02*
X116737688Y-75903896D01*
X124087689Y-80103896D02*
G75*
G02X124587689Y-79603896I0J500000D01*
G01*
X124087689Y-80103897D02*
X124087689Y-84103896D01*
X125687689Y-84603896D02*
X125687689Y-89603897D01*
X124587689Y-94603897D02*
G75*
G02X124087689Y-94103897I-500000J0D01*
G01*
X124087689Y-110103896D02*
G75*
G02X124587689Y-109603896I0J500000D01*
G01*
X72487690Y-119753896D02*
X73587690Y-119753896D01*
X124587689Y-94603897D02*
X125687689Y-94603897D01*
X124087689Y-100103896D02*
G75*
G02X124587689Y-99603896I0J500000D01*
G01*
X79087687Y-134603896D02*
G75*
G02X119087688Y-134603896I20000002J-60900001D01*
G01*
X72487690Y-129753896D02*
X73587690Y-129753896D01*
X111450370Y-84179649D02*
X111453338Y-84185816D01*
X111424867Y-84134077D02*
X111428144Y-84139335D01*
X111453338Y-84185816D02*
X111456218Y-84192022D01*
X111447313Y-84173523D02*
X111450370Y-84179649D01*
X111411160Y-84113544D02*
X111418131Y-84123710D01*
X111445751Y-84170475D02*
X111447313Y-84173523D01*
X111442561Y-84164412D02*
X111444167Y-84167438D01*
X111440932Y-84161397D02*
X111442561Y-84164412D01*
X111440110Y-84159893D02*
X111440932Y-84161397D01*
X111438865Y-84157643D02*
X111439281Y-84158393D01*
X111428144Y-84139335D02*
X111431361Y-84144642D01*
X111436070Y-84152692D02*
X111436841Y-84154045D01*
X111438447Y-84156895D02*
X111438865Y-84157643D01*
X111438028Y-84156147D02*
X111438447Y-84156895D01*
X111434515Y-84149997D02*
X111436070Y-84152692D01*
X111403959Y-84103582D02*
X111411160Y-84113544D01*
X111186784Y-83936627D02*
X111230396Y-83956501D01*
X111141387Y-83920951D02*
X111186784Y-83936627D01*
X111439281Y-84158393D02*
X111440110Y-84159893D01*
X111437818Y-84155773D02*
X111438028Y-84156147D01*
X111437608Y-84155400D02*
X111437818Y-84155773D01*
X111436841Y-84154045D02*
X111437608Y-84155400D01*
X111418131Y-84123710D02*
X111424867Y-84134077D01*
X111364689Y-84056926D02*
X111381028Y-84074946D01*
X111431361Y-84144642D02*
X111432946Y-84147313D01*
X111381028Y-84074946D02*
X111396533Y-84093826D01*
X111347558Y-84039787D02*
X111364689Y-84056926D01*
X111311085Y-84008227D02*
X111347558Y-84039787D01*
X111271928Y-83980417D02*
X111311085Y-84008227D01*
X111432946Y-84147313D02*
X111434515Y-84149997D01*
X111396533Y-84093826D02*
X111403959Y-84103582D01*
X111230396Y-83956501D02*
X111271928Y-83980417D01*
X111444167Y-84167438D02*
X111445751Y-84170475D01*
X109718686Y-85337390D02*
X109541243Y-85394302D01*
X109541243Y-85394302D02*
X109382262Y-85445294D01*
X110362029Y-84080867D02*
X110521010Y-84029876D01*
X108762045Y-84594043D02*
X108772222Y-84590779D01*
X116237688Y-122103897D02*
G75*
G02X116737688Y-122603897I500000J0D01*
G01*
X109798930Y-84261475D02*
X109994835Y-84198640D01*
X108886458Y-84554139D02*
X108942485Y-84536169D01*
X110812769Y-83936298D02*
X110825638Y-83932170D01*
X110855361Y-83922680D02*
X110861503Y-83920839D01*
X110711402Y-83968810D02*
X110758968Y-83953553D01*
X108772222Y-84590779D02*
X108800557Y-84581691D01*
X108748631Y-84598346D02*
X108750593Y-84597716D01*
X108942485Y-84536169D02*
X109076850Y-84493073D01*
X110184586Y-84137780D02*
X110362029Y-84080867D01*
X108838892Y-84569396D02*
X108886458Y-84554139D01*
X110843203Y-83926536D02*
X110845821Y-83925696D01*
X110655375Y-83986780D02*
X110711402Y-83968810D01*
X110948079Y-83903633D02*
X110972834Y-83901595D01*
X109994835Y-84198640D02*
X110184586Y-84137780D01*
X111937688Y-122103897D02*
X116237688Y-122103897D01*
X111094500Y-83909638D02*
X111141387Y-83920951D01*
X111046433Y-83902862D02*
X111094500Y-83909638D01*
X110997509Y-83900802D02*
X111046433Y-83902862D01*
X110972834Y-83901595D02*
X110997509Y-83900802D01*
X109235831Y-84442082D02*
X109413274Y-84385169D01*
X108800557Y-84581691D02*
X108838892Y-84569396D01*
X108754657Y-84596413D02*
X108762045Y-84594043D01*
X111437688Y-122603897D02*
G75*
G02X111937688Y-122103897I0J500000D01*
G01*
X110923290Y-83906935D02*
X110948079Y-83903633D01*
X110898518Y-83911520D02*
X110923290Y-83906935D01*
X110886154Y-83914299D02*
X110898518Y-83911520D01*
X110873813Y-83917404D02*
X110886154Y-83914299D01*
X108750593Y-84597716D02*
X108754657Y-84596413D01*
X110867654Y-83919081D02*
X110873813Y-83917404D01*
X110861503Y-83920839D02*
X110867654Y-83919081D01*
X110850262Y-83924272D02*
X110855361Y-83922680D01*
X110848846Y-83924726D02*
X110850262Y-83924272D01*
X110847706Y-83925092D02*
X110848846Y-83924726D01*
X110845821Y-83925696D02*
X110847706Y-83925092D01*
X109413274Y-84385169D02*
X109603025Y-84324309D01*
X110835814Y-83928906D02*
X110843203Y-83926536D01*
X110825638Y-83932170D02*
X110835814Y-83928906D01*
X110521010Y-84029876D02*
X110655375Y-83986780D01*
X109603025Y-84324309D02*
X109798930Y-84261475D01*
X110797303Y-83941258D02*
X110812769Y-83936298D01*
X109076850Y-84493073D02*
X109235831Y-84442082D01*
X110758968Y-83953553D02*
X110797303Y-83941258D01*
X81937689Y-123903897D02*
G75*
G02X81437689Y-123403897I-500000J0D01*
G01*
X111437688Y-122603897D02*
X111437688Y-123403897D01*
X91437688Y-122603897D02*
G75*
G02X91937688Y-122103897I0J500000D01*
G01*
X96237688Y-122103897D02*
G75*
G02X96737688Y-122603897I500000J0D01*
G01*
X81437689Y-122603897D02*
G75*
G02X81937689Y-122103897I0J500000D01*
G01*
X81437689Y-122603897D02*
X81437689Y-123403897D01*
X111937688Y-123903897D02*
G75*
G02X111437688Y-123403897I-500000J0D01*
G01*
X111937688Y-123903897D02*
X116237688Y-123903897D01*
X91937688Y-122103897D02*
X96237688Y-122103897D01*
X101437688Y-122603897D02*
G75*
G02X101937688Y-122103897I0J500000D01*
G01*
X101937688Y-123903897D02*
X106237688Y-123903897D01*
X116737688Y-123403897D02*
G75*
G02X116237688Y-123903897I0J-500000D01*
G01*
X116737688Y-122603897D02*
X116737688Y-123403897D01*
X96737688Y-122603897D02*
X96737688Y-123403897D01*
X91937688Y-123903897D02*
G75*
G02X91437688Y-123403897I-500000J0D01*
G01*
X106737688Y-122603897D02*
X106737688Y-123403897D01*
X106237688Y-122103897D02*
G75*
G02X106737688Y-122603897I500000J0D01*
G01*
X101937688Y-122103897D02*
X106237688Y-122103897D01*
X96737688Y-123403897D02*
G75*
G02X96237688Y-123903897I0J-500000D01*
G01*
X86737689Y-123403897D02*
G75*
G02X86237689Y-123903897I0J-500000D01*
G01*
X101437688Y-122603897D02*
X101437688Y-123403897D01*
X81937689Y-123903897D02*
X86237689Y-123903897D01*
X101937688Y-123903897D02*
G75*
G02X101437688Y-123403897I-500000J0D01*
G01*
X91437688Y-122603897D02*
X91437688Y-123403897D01*
X91937688Y-123903897D02*
X96237688Y-123903897D01*
X86237689Y-122103897D02*
G75*
G02X86737689Y-122603897I500000J0D01*
G01*
X106737688Y-123403897D02*
G75*
G02X106237688Y-123903897I0J-500000D01*
G01*
X81937689Y-122103897D02*
X86237689Y-122103897D01*
X101937688Y-76403896D02*
X106237688Y-76403896D01*
X111937688Y-76403897D02*
G75*
G02X111437688Y-75903897I-500000J0D01*
G01*
X86737688Y-74603897D02*
X86737689Y-75903896D01*
X101937688Y-76403897D02*
G75*
G02X101437688Y-75903897I-500000J0D01*
G01*
X111937688Y-76403896D02*
X116237688Y-76403896D01*
X111437688Y-74603897D02*
X111437688Y-75903897D01*
X91937688Y-76403897D02*
G75*
G02X91437688Y-75903897I-500000J0D01*
G01*
X91937688Y-76403896D02*
X96237688Y-76403896D01*
X96737688Y-75903896D02*
G75*
G02X96237688Y-76403896I0J-500000D01*
G01*
X106737688Y-75903896D02*
G75*
G02X106237688Y-76403896I0J-500000D01*
G01*
X106737688Y-74603897D02*
X111437688Y-74603897D01*
X96737688Y-74603897D02*
X101437688Y-74603897D01*
X106737688Y-74603897D02*
X106737688Y-75903896D01*
X101437688Y-74603897D02*
X101437688Y-75903897D01*
X86737689Y-122603897D02*
X86737689Y-123403897D01*
X86737688Y-75903896D02*
G75*
G02X86237688Y-76403896I0J-500000D01*
G01*
X86737688Y-74603897D02*
X91437688Y-74603897D01*
X91437688Y-74603897D02*
X91437688Y-75903897D01*
X96737688Y-74603897D02*
X96737688Y-75903896D01*
X108403186Y-85033378D02*
X108403334Y-85031668D01*
X108402061Y-85050491D02*
X108402236Y-85047067D01*
X108410210Y-85166172D02*
X108405900Y-85139204D01*
X108402911Y-85036799D02*
X108403046Y-85035089D01*
X108401650Y-85084720D02*
X108401524Y-85071033D01*
X108403036Y-85112031D02*
X108402156Y-85098388D01*
X108403334Y-85031668D02*
X108403409Y-85030813D01*
X108406297Y-85005797D02*
X108408137Y-84993809D01*
X108402156Y-85098388D02*
X108401650Y-85084720D01*
X108403487Y-85029958D02*
X108403628Y-85028442D01*
X108403774Y-85026926D02*
X108404080Y-85023896D01*
X108403046Y-85035089D02*
X108403186Y-85033378D01*
X108402661Y-85040221D02*
X108402911Y-85036799D01*
X108401784Y-85057338D02*
X108402061Y-85050491D01*
X108404285Y-85125639D02*
X108403036Y-85112031D01*
X108408137Y-84993809D02*
X108410263Y-84981891D01*
X108404080Y-85023896D02*
X108404746Y-85017848D01*
X108403628Y-85028442D02*
X108403774Y-85026926D01*
X108402236Y-85047067D02*
X108402436Y-85043644D01*
X108405485Y-85011815D02*
X108406297Y-85005797D01*
X108401606Y-85064186D02*
X108401784Y-85057338D01*
X108405900Y-85139204D02*
X108404285Y-85125639D01*
X108403409Y-85030813D02*
X108403448Y-85030386D01*
X108401524Y-85071033D02*
X108401606Y-85064186D01*
X108404746Y-85017848D02*
X108405485Y-85011815D01*
X108403448Y-85030386D02*
X108403487Y-85029958D01*
X108402436Y-85043644D02*
X108402661Y-85040221D01*
X108415944Y-85192868D02*
X108410210Y-85166172D01*
X109053010Y-85550897D02*
X109047912Y-85552490D01*
X109029459Y-85557765D02*
X109017118Y-85560871D01*
X108468758Y-85325174D02*
X108467204Y-85322478D01*
X108467204Y-85322478D02*
X108466432Y-85321126D01*
X108478407Y-85341093D02*
X108475129Y-85335835D01*
X108979982Y-85568235D02*
X108955194Y-85571537D01*
X109247898Y-85488389D02*
X109191870Y-85506360D01*
X108631345Y-85494753D02*
X108592188Y-85466943D01*
X108672877Y-85518669D02*
X108631345Y-85494753D01*
X109077634Y-85542999D02*
X109067458Y-85546263D01*
X109191870Y-85506360D02*
X109144304Y-85521616D01*
X108427179Y-85232250D02*
X108423084Y-85219222D01*
X109004754Y-85563650D02*
X108979982Y-85568235D01*
X109382262Y-85445294D02*
X109247898Y-85488389D01*
X108538584Y-85418244D02*
X108522245Y-85400224D01*
X108856840Y-85572308D02*
X108808772Y-85565532D01*
X108555715Y-85435383D02*
X108538584Y-85418244D01*
X108592188Y-85466943D02*
X108555715Y-85435383D01*
X109017118Y-85560871D02*
X109004754Y-85563650D01*
X109047912Y-85552490D02*
X109041769Y-85554330D01*
X109055566Y-85550078D02*
X109054426Y-85550443D01*
X108905763Y-85574368D02*
X108856840Y-85572308D01*
X108475129Y-85335835D02*
X108471912Y-85330529D01*
X108431623Y-85245166D02*
X108427179Y-85232250D01*
X108436417Y-85257961D02*
X108431623Y-85245166D01*
X108449935Y-85289354D02*
X108447055Y-85283148D01*
X108464826Y-85318275D02*
X108464408Y-85317527D01*
X108452903Y-85295521D02*
X108449935Y-85289354D01*
X108455960Y-85301647D02*
X108452903Y-85295521D01*
X108463163Y-85315277D02*
X108462341Y-85313774D01*
X108499314Y-85371588D02*
X108492113Y-85361626D01*
X109054426Y-85550443D02*
X109053010Y-85550897D01*
X109035618Y-85556089D02*
X109029459Y-85557765D01*
X109144304Y-85521616D02*
X109105969Y-85533911D01*
X108459106Y-85307732D02*
X108457522Y-85304695D01*
X108463992Y-85316778D02*
X108463163Y-85315277D01*
X108716489Y-85538543D02*
X108672877Y-85518669D01*
X108761886Y-85554219D02*
X108716489Y-85538543D01*
X108470327Y-85327857D02*
X108468758Y-85325174D01*
X108955194Y-85571537D02*
X108930438Y-85573574D01*
X108492113Y-85361626D02*
X108485142Y-85351460D01*
X109105969Y-85533911D02*
X109090504Y-85538872D01*
X109041769Y-85554330D02*
X109035618Y-85556089D01*
X108808772Y-85565532D02*
X108761886Y-85554219D01*
X108471912Y-85330529D02*
X108470327Y-85327857D01*
X109067458Y-85546263D02*
X109060070Y-85548633D01*
X108506740Y-85381344D02*
X108499314Y-85371588D01*
X109060070Y-85548633D02*
X109057451Y-85549473D01*
X109057451Y-85549473D02*
X109055566Y-85550078D01*
X108522245Y-85400224D02*
X108506740Y-85381344D01*
X108457522Y-85304695D02*
X108455960Y-85301647D01*
X108460712Y-85310758D02*
X108459106Y-85307732D01*
X108465245Y-85319023D02*
X108464826Y-85318275D01*
X108465455Y-85319397D02*
X108465245Y-85319023D01*
X108485142Y-85351460D02*
X108478407Y-85341093D01*
X108466432Y-85321126D02*
X108465665Y-85319770D01*
X108423084Y-85219222D02*
X108415944Y-85192868D01*
X108441560Y-85270625D02*
X108436417Y-85257961D01*
X108447055Y-85283148D02*
X108441560Y-85270625D01*
X108462341Y-85313774D02*
X108460712Y-85310758D01*
X108464408Y-85317527D02*
X108463992Y-85316778D01*
X108465665Y-85319770D02*
X108465455Y-85319397D01*
X109090504Y-85538872D02*
X109077634Y-85542999D01*
X108930438Y-85573574D02*
X108905763Y-85574368D01*
X74087689Y-104953896D02*
X74087689Y-109253896D01*
X72487690Y-114453896D02*
X73587690Y-114453896D01*
X72487690Y-109753896D02*
X72487690Y-114453896D01*
X72487690Y-109753896D02*
X73587690Y-109753896D01*
X73587689Y-104453896D02*
G75*
G02X74087689Y-104953896I500000J0D01*
G01*
X72487689Y-104453896D02*
X73587690Y-104453896D01*
X72487690Y-99753896D02*
X72487689Y-104453896D01*
X72487690Y-99753896D02*
X73587690Y-99753896D01*
X74087689Y-109253897D02*
G75*
G02X73587690Y-109753896I0J-499999D01*
G01*
X85608513Y-84707693D02*
X85428388Y-84685919D01*
X85428388Y-84685919D02*
X85279772Y-84631992D01*
X85279772Y-84631992D02*
X85154824Y-84554958D01*
X85154824Y-84554958D02*
X85050140Y-84458424D01*
X85050140Y-84458424D02*
X84963880Y-84341261D01*
X84963880Y-84341261D02*
X84899591Y-84203129D01*
X84899591Y-84203129D02*
X84862940Y-84039685D01*
X84862940Y-84039685D02*
X84858513Y-83957693D01*
X107525180Y-105124359D02*
X107503406Y-105304476D01*
X107503406Y-105304476D02*
X107449977Y-105452070D01*
X107449977Y-105452070D02*
X107373127Y-105577142D01*
X107373127Y-105577142D02*
X107277375Y-105681406D01*
X107277375Y-105681406D02*
X107161537Y-105767310D01*
X107161537Y-105767310D02*
X107024954Y-105831757D01*
X107024954Y-105831757D02*
X106861886Y-105869397D01*
X106861886Y-105869397D02*
X106775180Y-105874359D01*
X102953429Y-100897581D02*
X103083794Y-100967679D01*
X103083794Y-100967679D02*
X103206761Y-101048907D01*
X103206761Y-101048907D02*
X103318618Y-101138163D01*
X103318618Y-101138163D02*
X103421899Y-101236749D01*
X103421899Y-101236749D02*
X103515492Y-101343370D01*
X103515492Y-101343370D02*
X103600249Y-101459079D01*
X103600249Y-101459079D02*
X103676061Y-101584740D01*
X103676061Y-101584740D02*
X103741547Y-101719694D01*
X103741547Y-101719694D02*
X103796198Y-101865715D01*
X103796198Y-101865715D02*
X103838631Y-102025293D01*
X103838631Y-102025293D02*
X103865880Y-102199408D01*
X103865880Y-102199408D02*
X103873882Y-102393007D01*
X103873882Y-102393007D02*
X103859656Y-102578993D01*
X103859656Y-102578993D02*
X103827464Y-102748482D01*
X103827464Y-102748482D02*
X103780593Y-102904667D01*
X103780593Y-102904667D02*
X103721777Y-103048108D01*
X103721777Y-103048108D02*
X103713069Y-103066498D01*
X106775180Y-104374359D02*
X106955297Y-104396123D01*
X106955297Y-104396123D02*
X107102635Y-104449429D01*
X107102635Y-104449429D02*
X107227963Y-104526403D01*
X107227963Y-104526403D02*
X107332227Y-104622156D01*
X107332227Y-104622156D02*
X107418059Y-104737872D01*
X107418059Y-104737872D02*
X107482960Y-104875661D01*
X107482960Y-104875661D02*
X107520353Y-105038825D01*
X107520353Y-105038825D02*
X107525180Y-105124359D01*
X99719624Y-76857693D02*
X99899741Y-76879457D01*
X99899741Y-76879457D02*
X100047079Y-76932763D01*
X100047079Y-76932763D02*
X100172407Y-77009737D01*
X100172407Y-77009737D02*
X100276671Y-77105490D01*
X100276671Y-77105490D02*
X100362503Y-77221206D01*
X100362503Y-77221206D02*
X100427404Y-77358995D01*
X100427404Y-77358995D02*
X100464797Y-77522159D01*
X100464797Y-77522159D02*
X100469624Y-77607693D01*
X77141847Y-115310470D02*
X77321963Y-115332234D01*
X77321963Y-115332234D02*
X77469301Y-115385540D01*
X77469301Y-115385540D02*
X77594629Y-115462514D01*
X77594629Y-115462514D02*
X77698893Y-115558267D01*
X77698893Y-115558267D02*
X77784726Y-115673983D01*
X77784726Y-115673983D02*
X77849627Y-115811772D01*
X77849627Y-115811772D02*
X77887020Y-115974936D01*
X77887020Y-115974936D02*
X77891847Y-116060470D01*
X99719624Y-78357693D02*
X99539499Y-78335919D01*
X99539499Y-78335919D02*
X99390883Y-78281992D01*
X99390883Y-78281992D02*
X99265935Y-78204958D01*
X99265935Y-78204958D02*
X99161251Y-78108424D01*
X99161251Y-78108424D02*
X99074991Y-77991261D01*
X99074991Y-77991261D02*
X99010702Y-77853129D01*
X99010702Y-77853129D02*
X98974051Y-77689685D01*
X98974051Y-77689685D02*
X98969624Y-77607693D01*
X106025180Y-105124359D02*
X106046944Y-104944234D01*
X106046944Y-104944234D02*
X106100375Y-104796640D01*
X106100375Y-104796640D02*
X106176544Y-104672465D01*
X106176544Y-104672465D02*
X106272143Y-104568058D01*
X106272143Y-104568058D02*
X106387725Y-104482056D01*
X106387725Y-104482056D02*
X106523505Y-104417624D01*
X106523505Y-104417624D02*
X106688468Y-104379314D01*
X106688468Y-104379314D02*
X106775180Y-104374359D01*
X74087689Y-99253897D02*
G75*
G02X73587690Y-99753896I0J-499999D01*
G01*
X74087689Y-94953896D02*
X74087689Y-99253896D01*
X83059902Y-96717415D02*
X83048935Y-96907192D01*
X83048935Y-96907192D02*
X83019622Y-97078556D01*
X83019622Y-97078556D02*
X82974717Y-97238006D01*
X82974717Y-97238006D02*
X82916605Y-97385596D01*
X82916605Y-97385596D02*
X82848865Y-97518808D01*
X82848865Y-97518808D02*
X82771502Y-97641852D01*
X82771502Y-97641852D02*
X82684547Y-97756225D01*
X82684547Y-97756225D02*
X82586959Y-97863442D01*
X82586959Y-97863442D02*
X82482590Y-97959620D01*
X82482590Y-97959620D02*
X82368607Y-98047545D01*
X82368607Y-98047545D02*
X82244815Y-98126505D01*
X82244815Y-98126505D02*
X82111507Y-98195283D01*
X82111507Y-98195283D02*
X81966684Y-98253401D01*
X81966684Y-98253401D02*
X81811087Y-98298647D01*
X81811087Y-98298647D02*
X81640592Y-98329518D01*
X81640592Y-98329518D02*
X81452624Y-98342318D01*
X81452624Y-98342318D02*
X81434902Y-98342415D01*
X72487689Y-79753897D02*
X72487689Y-84453897D01*
X81937689Y-76403896D02*
X86237688Y-76403896D01*
X103713069Y-103066498D02*
X103642466Y-103197694D01*
X103642466Y-103197694D02*
X103561736Y-103319830D01*
X103561736Y-103319830D02*
X103472475Y-103431687D01*
X103472475Y-103431687D02*
X103373667Y-103535181D01*
X103373667Y-103535181D02*
X103266068Y-103629525D01*
X103266068Y-103629525D02*
X103149519Y-103714675D01*
X103149519Y-103714675D02*
X103023214Y-103790583D01*
X103023214Y-103790583D02*
X102887023Y-103856295D01*
X102887023Y-103856295D02*
X102740864Y-103910564D01*
X102740864Y-103910564D02*
X102581168Y-103952581D01*
X102581168Y-103952581D02*
X102406662Y-103979407D01*
X102406662Y-103979407D02*
X102212700Y-103986852D01*
X102212700Y-103986852D02*
X102027324Y-103972135D01*
X102027324Y-103972135D02*
X101854798Y-103938703D01*
X101854798Y-103938703D02*
X101698108Y-103890839D01*
X101698108Y-103890839D02*
X101556600Y-103832062D01*
X101556600Y-103832062D02*
X101544153Y-103826137D01*
X79809902Y-96717415D02*
X79820936Y-96526992D01*
X79820936Y-96526992D02*
X79850521Y-96354728D01*
X79850521Y-96354728D02*
X79895079Y-96196817D01*
X79895079Y-96196817D02*
X79951924Y-96052040D01*
X79951924Y-96052040D02*
X80019417Y-95918680D01*
X80019417Y-95918680D02*
X80096728Y-95795230D01*
X80096728Y-95795230D02*
X80184468Y-95679534D01*
X80184468Y-95679534D02*
X80279836Y-95574410D01*
X80279836Y-95574410D02*
X80384879Y-95477169D01*
X80384879Y-95477169D02*
X80498690Y-95389035D01*
X80498690Y-95389035D02*
X80621263Y-95310463D01*
X80621263Y-95310463D02*
X80755484Y-95240827D01*
X80755484Y-95240827D02*
X80898409Y-95183056D01*
X80898409Y-95183056D02*
X81053809Y-95137344D01*
X81053809Y-95137344D02*
X81226027Y-95105711D01*
X81226027Y-95105711D02*
X81418485Y-95092494D01*
X81418485Y-95092494D02*
X81434902Y-95092415D01*
X80008513Y-81488248D02*
X79986739Y-81668365D01*
X79986739Y-81668365D02*
X79933310Y-81815959D01*
X79933310Y-81815959D02*
X79856460Y-81941031D01*
X79856460Y-81941031D02*
X79760708Y-82045295D01*
X79760708Y-82045295D02*
X79644870Y-82131199D01*
X79644870Y-82131199D02*
X79508287Y-82195646D01*
X79508287Y-82195646D02*
X79345219Y-82233286D01*
X79345219Y-82233286D02*
X79258513Y-82238248D01*
X117358513Y-117868804D02*
X117178388Y-117847030D01*
X117178388Y-117847030D02*
X117029772Y-117793103D01*
X117029772Y-117793103D02*
X116904824Y-117716069D01*
X116904824Y-117716069D02*
X116800140Y-117619535D01*
X116800140Y-117619535D02*
X116713880Y-117502372D01*
X116713880Y-117502372D02*
X116649591Y-117364240D01*
X116649591Y-117364240D02*
X116612940Y-117200796D01*
X116612940Y-117200796D02*
X116608513Y-117118804D01*
X73587689Y-94453896D02*
G75*
G02X74087689Y-94953896I500000J0D01*
G01*
X72487689Y-94453896D02*
X73587689Y-94453896D01*
X77141847Y-116810470D02*
X76961722Y-116788696D01*
X76961722Y-116788696D02*
X76813106Y-116734769D01*
X76813106Y-116734769D02*
X76688158Y-116657735D01*
X76688158Y-116657735D02*
X76583474Y-116561202D01*
X76583474Y-116561202D02*
X76497214Y-116444039D01*
X76497214Y-116444039D02*
X76432925Y-116305907D01*
X76432925Y-116305907D02*
X76396274Y-116142462D01*
X76396274Y-116142462D02*
X76391847Y-116060470D01*
X74087689Y-74603897D02*
X74087689Y-79253896D01*
X79258513Y-82238248D02*
X79078388Y-82216474D01*
X79078388Y-82216474D02*
X78929772Y-82162547D01*
X78929772Y-82162547D02*
X78804824Y-82085513D01*
X78804824Y-82085513D02*
X78700140Y-81988980D01*
X78700140Y-81988980D02*
X78613880Y-81871817D01*
X78613880Y-81871817D02*
X78549591Y-81733685D01*
X78549591Y-81733685D02*
X78512940Y-81570240D01*
X78512940Y-81570240D02*
X78508513Y-81488248D01*
X72487689Y-89753896D02*
X72487689Y-94453896D01*
X72487689Y-89753896D02*
X73587689Y-89753896D01*
X74087689Y-74603897D02*
X81437688Y-74603897D01*
X74087689Y-89253896D02*
G75*
G02X73587689Y-89753896I0J-500000D01*
G01*
X74087689Y-84953897D02*
X74087689Y-89253896D01*
X81437688Y-74603897D02*
X81437688Y-75903896D01*
X78508513Y-81488248D02*
X78530277Y-81308123D01*
X78530277Y-81308123D02*
X78583708Y-81160529D01*
X78583708Y-81160529D02*
X78659877Y-81036354D01*
X78659877Y-81036354D02*
X78755476Y-80931947D01*
X78755476Y-80931947D02*
X78871058Y-80845945D01*
X78871058Y-80845945D02*
X79006838Y-80781513D01*
X79006838Y-80781513D02*
X79171801Y-80743203D01*
X79171801Y-80743203D02*
X79258513Y-80738248D01*
X87923791Y-99892415D02*
X87934825Y-99701992D01*
X87934825Y-99701992D02*
X87964410Y-99529728D01*
X87964410Y-99529728D02*
X88008968Y-99371817D01*
X88008968Y-99371817D02*
X88065813Y-99227040D01*
X88065813Y-99227040D02*
X88133306Y-99093680D01*
X88133306Y-99093680D02*
X88210617Y-98970230D01*
X88210617Y-98970230D02*
X88298357Y-98854534D01*
X88298357Y-98854534D02*
X88393725Y-98749410D01*
X88393725Y-98749410D02*
X88498768Y-98652169D01*
X88498768Y-98652169D02*
X88612579Y-98564035D01*
X88612579Y-98564035D02*
X88735152Y-98485463D01*
X88735152Y-98485463D02*
X88869373Y-98415827D01*
X88869373Y-98415827D02*
X89012298Y-98358056D01*
X89012298Y-98358056D02*
X89167698Y-98312344D01*
X89167698Y-98312344D02*
X89339916Y-98280711D01*
X89339916Y-98280711D02*
X89532374Y-98267494D01*
X89532374Y-98267494D02*
X89548791Y-98267415D01*
X105017847Y-85429443D02*
X105087780Y-85299347D01*
X105087780Y-85299347D02*
X105167307Y-85178669D01*
X105167307Y-85178669D02*
X105257193Y-85065661D01*
X105257193Y-85065661D02*
X105355224Y-84962685D01*
X105355224Y-84962685D02*
X105462436Y-84868336D01*
X105462436Y-84868336D02*
X105578326Y-84783294D01*
X105578326Y-84783294D02*
X105703934Y-84707386D01*
X105703934Y-84707386D02*
X105839960Y-84641317D01*
X105839960Y-84641317D02*
X105987140Y-84586296D01*
X105987140Y-84586296D02*
X106145558Y-84544231D01*
X106145558Y-84544231D02*
X106318760Y-84517076D01*
X106318760Y-84517076D02*
X106510804Y-84508937D01*
X106510804Y-84508937D02*
X106698021Y-84523040D01*
X106698021Y-84523040D02*
X106866291Y-84554799D01*
X106866291Y-84554799D02*
X107020692Y-84600770D01*
X107020692Y-84600770D02*
X107164806Y-84659433D01*
X107164806Y-84659433D02*
X107186763Y-84669804D01*
X91173791Y-99892415D02*
X91162824Y-100082192D01*
X91162824Y-100082192D02*
X91133511Y-100253556D01*
X91133511Y-100253556D02*
X91088606Y-100413006D01*
X91088606Y-100413006D02*
X91030494Y-100560596D01*
X91030494Y-100560596D02*
X90962754Y-100693808D01*
X90962754Y-100693808D02*
X90885391Y-100816852D01*
X90885391Y-100816852D02*
X90798436Y-100931225D01*
X90798436Y-100931225D02*
X90700848Y-101038442D01*
X90700848Y-101038442D02*
X90596479Y-101134620D01*
X90596479Y-101134620D02*
X90482496Y-101222545D01*
X90482496Y-101222545D02*
X90358704Y-101301505D01*
X90358704Y-101301505D02*
X90225396Y-101370283D01*
X90225396Y-101370283D02*
X90080573Y-101428401D01*
X90080573Y-101428401D02*
X89924976Y-101473647D01*
X89924976Y-101473647D02*
X89754481Y-101504518D01*
X89754481Y-101504518D02*
X89566513Y-101517318D01*
X89566513Y-101517318D02*
X89548791Y-101517415D01*
X92509902Y-111886859D02*
X92520936Y-111696436D01*
X92520936Y-111696436D02*
X92550521Y-111524172D01*
X92550521Y-111524172D02*
X92595079Y-111366261D01*
X92595079Y-111366261D02*
X92651924Y-111221484D01*
X92651924Y-111221484D02*
X92719417Y-111088124D01*
X92719417Y-111088124D02*
X92796728Y-110964674D01*
X92796728Y-110964674D02*
X92884468Y-110848978D01*
X92884468Y-110848978D02*
X92979836Y-110743854D01*
X92979836Y-110743854D02*
X93084879Y-110646613D01*
X93084879Y-110646613D02*
X93198690Y-110558479D01*
X93198690Y-110558479D02*
X93321263Y-110479907D01*
X93321263Y-110479907D02*
X93455484Y-110410271D01*
X93455484Y-110410271D02*
X93598409Y-110352500D01*
X93598409Y-110352500D02*
X93753809Y-110306788D01*
X93753809Y-110306788D02*
X93926027Y-110275155D01*
X93926027Y-110275155D02*
X94118485Y-110261938D01*
X94118485Y-110261938D02*
X94134902Y-110261859D01*
X94134902Y-113511859D02*
X93945116Y-113500892D01*
X93945116Y-113500892D02*
X93774060Y-113471650D01*
X93774060Y-113471650D02*
X93616664Y-113427468D01*
X93616664Y-113427468D02*
X93471780Y-113370840D01*
X93471780Y-113370840D02*
X93338303Y-113303540D01*
X93338303Y-113303540D02*
X93214981Y-113226583D01*
X93214981Y-113226583D02*
X93100308Y-113140009D01*
X93100308Y-113140009D02*
X92995147Y-113045128D01*
X92995147Y-113045128D02*
X92897420Y-112940125D01*
X92897420Y-112940125D02*
X92808995Y-112826551D01*
X92808995Y-112826551D02*
X92730262Y-112704464D01*
X92730262Y-112704464D02*
X92661036Y-112572142D01*
X92661036Y-112572142D02*
X92602089Y-112427744D01*
X92602089Y-112427744D02*
X92555867Y-112272227D01*
X92555867Y-112272227D02*
X92524108Y-112102707D01*
X92524108Y-112102707D02*
X92510144Y-111915390D01*
X92510144Y-111915390D02*
X92509902Y-111886859D01*
X100469624Y-77607693D02*
X100447850Y-77787809D01*
X100447850Y-77787809D02*
X100394421Y-77935403D01*
X100394421Y-77935403D02*
X100317571Y-78060475D01*
X100317571Y-78060475D02*
X100221819Y-78164739D01*
X100221819Y-78164739D02*
X100105981Y-78250644D01*
X100105981Y-78250644D02*
X99969398Y-78315091D01*
X99969398Y-78315091D02*
X99806330Y-78352731D01*
X99806330Y-78352731D02*
X99719624Y-78357693D01*
X76391847Y-116060470D02*
X76413611Y-115880345D01*
X76413611Y-115880345D02*
X76467042Y-115732751D01*
X76467042Y-115732751D02*
X76543211Y-115608576D01*
X76543211Y-115608576D02*
X76638810Y-115504169D01*
X76638810Y-115504169D02*
X76754392Y-115418167D01*
X76754392Y-115418167D02*
X76890172Y-115353735D01*
X76890172Y-115353735D02*
X77055135Y-115315425D01*
X77055135Y-115315425D02*
X77141847Y-115310470D01*
X107946402Y-86838720D02*
X107875799Y-86969916D01*
X107875799Y-86969916D02*
X107795069Y-87092052D01*
X107795069Y-87092052D02*
X107705808Y-87203909D01*
X107705808Y-87203909D02*
X107607000Y-87307403D01*
X107607000Y-87307403D02*
X107499401Y-87401747D01*
X107499401Y-87401747D02*
X107382852Y-87486897D01*
X107382852Y-87486897D02*
X107256547Y-87562805D01*
X107256547Y-87562805D02*
X107120356Y-87628517D01*
X107120356Y-87628517D02*
X106974197Y-87682786D01*
X106974197Y-87682786D02*
X106814501Y-87724803D01*
X106814501Y-87724803D02*
X106639995Y-87751629D01*
X106639995Y-87751629D02*
X106446033Y-87759074D01*
X106446033Y-87759074D02*
X106260657Y-87744357D01*
X106260657Y-87744357D02*
X106088131Y-87710925D01*
X106088131Y-87710925D02*
X105931441Y-87663061D01*
X105931441Y-87663061D02*
X105789933Y-87604284D01*
X105789933Y-87604284D02*
X105777486Y-87598359D01*
X95759902Y-111886859D02*
X95748935Y-112076636D01*
X95748935Y-112076636D02*
X95719622Y-112248000D01*
X95719622Y-112248000D02*
X95674717Y-112407450D01*
X95674717Y-112407450D02*
X95616605Y-112555040D01*
X95616605Y-112555040D02*
X95548865Y-112688252D01*
X95548865Y-112688252D02*
X95471502Y-112811296D01*
X95471502Y-112811296D02*
X95384547Y-112925669D01*
X95384547Y-112925669D02*
X95286959Y-113032886D01*
X95286959Y-113032886D02*
X95182590Y-113129064D01*
X95182590Y-113129064D02*
X95068607Y-113216989D01*
X95068607Y-113216989D02*
X94944815Y-113295949D01*
X94944815Y-113295949D02*
X94811507Y-113364727D01*
X94811507Y-113364727D02*
X94666684Y-113422845D01*
X94666684Y-113422845D02*
X94511087Y-113468091D01*
X94511087Y-113468091D02*
X94340592Y-113498962D01*
X94340592Y-113498962D02*
X94152624Y-113511762D01*
X94152624Y-113511762D02*
X94134902Y-113511859D01*
X98969624Y-77607693D02*
X98991388Y-77427568D01*
X98991388Y-77427568D02*
X99044819Y-77279974D01*
X99044819Y-77279974D02*
X99120988Y-77155799D01*
X99120988Y-77155799D02*
X99216587Y-77051392D01*
X99216587Y-77051392D02*
X99332169Y-76965390D01*
X99332169Y-76965390D02*
X99467949Y-76900958D01*
X99467949Y-76900958D02*
X99632912Y-76862648D01*
X99632912Y-76862648D02*
X99719624Y-76857693D01*
X73587689Y-84453897D02*
G75*
G02X74087689Y-84953897I500000J0D01*
G01*
X72487689Y-84453897D02*
X73587689Y-84453897D01*
X72487689Y-79753897D02*
X73587689Y-79753897D01*
X116608513Y-117118804D02*
X116630277Y-116938679D01*
X116630277Y-116938679D02*
X116683708Y-116791085D01*
X116683708Y-116791085D02*
X116759877Y-116666910D01*
X116759877Y-116666910D02*
X116855476Y-116562503D01*
X116855476Y-116562503D02*
X116971058Y-116476501D01*
X116971058Y-116476501D02*
X117106838Y-116412069D01*
X117106838Y-116412069D02*
X117271801Y-116373759D01*
X117271801Y-116373759D02*
X117358513Y-116368804D01*
X86358513Y-83957693D02*
X86336739Y-84137809D01*
X86336739Y-84137809D02*
X86283310Y-84285403D01*
X86283310Y-84285403D02*
X86206460Y-84410475D01*
X86206460Y-84410475D02*
X86110708Y-84514739D01*
X86110708Y-84514739D02*
X85994870Y-84600644D01*
X85994870Y-84600644D02*
X85858287Y-84665091D01*
X85858287Y-84665091D02*
X85695219Y-84702731D01*
X85695219Y-84702731D02*
X85608513Y-84707693D01*
X84858513Y-83957693D02*
X84880277Y-83777568D01*
X84880277Y-83777568D02*
X84933708Y-83629974D01*
X84933708Y-83629974D02*
X85009877Y-83505799D01*
X85009877Y-83505799D02*
X85105476Y-83401392D01*
X85105476Y-83401392D02*
X85221058Y-83315390D01*
X85221058Y-83315390D02*
X85356838Y-83250958D01*
X85356838Y-83250958D02*
X85521801Y-83212648D01*
X85521801Y-83212648D02*
X85608513Y-83207693D01*
X100784513Y-101657221D02*
X100854446Y-101527125D01*
X100854446Y-101527125D02*
X100933973Y-101406447D01*
X100933973Y-101406447D02*
X101023859Y-101293439D01*
X101023859Y-101293439D02*
X101121890Y-101190462D01*
X101121890Y-101190462D02*
X101229102Y-101096113D01*
X101229102Y-101096113D02*
X101344992Y-101011071D01*
X101344992Y-101011071D02*
X101470600Y-100935163D01*
X101470600Y-100935163D02*
X101606626Y-100869094D01*
X101606626Y-100869094D02*
X101753807Y-100814073D01*
X101753807Y-100814073D02*
X101912225Y-100772008D01*
X101912225Y-100772008D02*
X102085427Y-100744853D01*
X102085427Y-100744853D02*
X102277471Y-100736714D01*
X102277471Y-100736714D02*
X102464688Y-100750817D01*
X102464688Y-100750817D02*
X102632958Y-100782576D01*
X102632958Y-100782576D02*
X102787359Y-100828547D01*
X102787359Y-100828547D02*
X102931472Y-100887210D01*
X102931472Y-100887210D02*
X102953429Y-100897581D01*
X77891847Y-116060470D02*
X77870073Y-116240587D01*
X77870073Y-116240587D02*
X77816644Y-116388181D01*
X77816644Y-116388181D02*
X77739794Y-116513253D01*
X77739794Y-116513253D02*
X77644041Y-116617517D01*
X77644041Y-116617517D02*
X77528203Y-116703421D01*
X77528203Y-116703421D02*
X77391620Y-116767868D01*
X77391620Y-116767868D02*
X77228553Y-116805508D01*
X77228553Y-116805508D02*
X77141847Y-116810470D01*
X74087689Y-79253897D02*
G75*
G02X73587689Y-79753897I0J-500000D01*
G01*
X89548791Y-101517415D02*
X89359005Y-101506448D01*
X89359005Y-101506448D02*
X89187949Y-101477206D01*
X89187949Y-101477206D02*
X89030553Y-101433024D01*
X89030553Y-101433024D02*
X88885669Y-101376396D01*
X88885669Y-101376396D02*
X88752192Y-101309096D01*
X88752192Y-101309096D02*
X88628870Y-101232139D01*
X88628870Y-101232139D02*
X88514197Y-101145565D01*
X88514197Y-101145565D02*
X88409036Y-101050684D01*
X88409036Y-101050684D02*
X88311309Y-100945681D01*
X88311309Y-100945681D02*
X88222884Y-100832107D01*
X88222884Y-100832107D02*
X88144151Y-100710020D01*
X88144151Y-100710020D02*
X88074925Y-100577698D01*
X88074925Y-100577698D02*
X88015978Y-100433300D01*
X88015978Y-100433300D02*
X87969756Y-100277783D01*
X87969756Y-100277783D02*
X87937997Y-100108263D01*
X87937997Y-100108263D02*
X87924033Y-99920946D01*
X87924033Y-99920946D02*
X87923791Y-99892415D01*
X105777486Y-87598359D02*
X105647390Y-87528419D01*
X105647390Y-87528419D02*
X105526712Y-87448890D01*
X105526712Y-87448890D02*
X105415122Y-87360237D01*
X105415122Y-87360237D02*
X105312018Y-87262314D01*
X105312018Y-87262314D02*
X105217539Y-87155201D01*
X105217539Y-87155201D02*
X105131677Y-87038380D01*
X105131677Y-87038380D02*
X105056012Y-86913333D01*
X105056012Y-86913333D02*
X104989840Y-86777354D01*
X104989840Y-86777354D02*
X104935082Y-86631376D01*
X104935082Y-86631376D02*
X104892782Y-86473023D01*
X104892782Y-86473023D02*
X104865243Y-86298654D01*
X104865243Y-86298654D02*
X104856979Y-86105392D01*
X104856979Y-86105392D02*
X104871166Y-85917558D01*
X104871166Y-85917558D02*
X104904508Y-85743155D01*
X104904508Y-85743155D02*
X104951830Y-85587028D01*
X104951830Y-85587028D02*
X105010800Y-85444265D01*
X105010800Y-85444265D02*
X105017847Y-85429443D01*
X81937689Y-76403895D02*
G75*
G02X81437688Y-75903896I-500000J-1D01*
G01*
X79258513Y-80738248D02*
X79438630Y-80760012D01*
X79438630Y-80760012D02*
X79585968Y-80813318D01*
X79585968Y-80813318D02*
X79711296Y-80890292D01*
X79711296Y-80890292D02*
X79815560Y-80986045D01*
X79815560Y-80986045D02*
X79901392Y-81101761D01*
X79901392Y-81101761D02*
X79966293Y-81239550D01*
X79966293Y-81239550D02*
X80003686Y-81402714D01*
X80003686Y-81402714D02*
X80008513Y-81488248D01*
X81434902Y-95092415D02*
X81625317Y-95103449D01*
X81625317Y-95103449D02*
X81796660Y-95132824D01*
X81796660Y-95132824D02*
X81953131Y-95176796D01*
X81953131Y-95176796D02*
X82097451Y-95233174D01*
X82097451Y-95233174D02*
X82231489Y-95300724D01*
X82231489Y-95300724D02*
X82358836Y-95380459D01*
X82358836Y-95380459D02*
X82472775Y-95466981D01*
X82472775Y-95466981D02*
X82580713Y-95565137D01*
X82580713Y-95565137D02*
X82677107Y-95669719D01*
X82677107Y-95669719D02*
X82765206Y-95783949D01*
X82765206Y-95783949D02*
X82843992Y-95907493D01*
X82843992Y-95907493D02*
X82912512Y-96040240D01*
X82912512Y-96040240D02*
X82970276Y-96183860D01*
X82970276Y-96183860D02*
X83015550Y-96338771D01*
X83015550Y-96338771D02*
X83046600Y-96508540D01*
X83046600Y-96508540D02*
X83059775Y-96697065D01*
X83059775Y-96697065D02*
X83059902Y-96717415D01*
X81434902Y-98342415D02*
X81245116Y-98331448D01*
X81245116Y-98331448D02*
X81074060Y-98302206D01*
X81074060Y-98302206D02*
X80916664Y-98258024D01*
X80916664Y-98258024D02*
X80771780Y-98201396D01*
X80771780Y-98201396D02*
X80638303Y-98134096D01*
X80638303Y-98134096D02*
X80514981Y-98057139D01*
X80514981Y-98057139D02*
X80400308Y-97970565D01*
X80400308Y-97970565D02*
X80295147Y-97875684D01*
X80295147Y-97875684D02*
X80197420Y-97770681D01*
X80197420Y-97770681D02*
X80108995Y-97657107D01*
X80108995Y-97657107D02*
X80030262Y-97535020D01*
X80030262Y-97535020D02*
X79961036Y-97402698D01*
X79961036Y-97402698D02*
X79902089Y-97258300D01*
X79902089Y-97258300D02*
X79855867Y-97102783D01*
X79855867Y-97102783D02*
X79824108Y-96933263D01*
X79824108Y-96933263D02*
X79810144Y-96745946D01*
X79810144Y-96745946D02*
X79809902Y-96717415D01*
X94134902Y-110261859D02*
X94325317Y-110272893D01*
X94325317Y-110272893D02*
X94496660Y-110302268D01*
X94496660Y-110302268D02*
X94653131Y-110346240D01*
X94653131Y-110346240D02*
X94797451Y-110402618D01*
X94797451Y-110402618D02*
X94931489Y-110470168D01*
X94931489Y-110470168D02*
X95058836Y-110549903D01*
X95058836Y-110549903D02*
X95172775Y-110636425D01*
X95172775Y-110636425D02*
X95280713Y-110734581D01*
X95280713Y-110734581D02*
X95377107Y-110839163D01*
X95377107Y-110839163D02*
X95465206Y-110953393D01*
X95465206Y-110953393D02*
X95543992Y-111076937D01*
X95543992Y-111076937D02*
X95612512Y-111209684D01*
X95612512Y-111209684D02*
X95670276Y-111353304D01*
X95670276Y-111353304D02*
X95715550Y-111508215D01*
X95715550Y-111508215D02*
X95746600Y-111677984D01*
X95746600Y-111677984D02*
X95759775Y-111866509D01*
X95759775Y-111866509D02*
X95759902Y-111886859D01*
X107186763Y-84669804D02*
X107317128Y-84739902D01*
X107317128Y-84739902D02*
X107440095Y-84821130D01*
X107440095Y-84821130D02*
X107551952Y-84910386D01*
X107551952Y-84910386D02*
X107655233Y-85008972D01*
X107655233Y-85008972D02*
X107748825Y-85115593D01*
X107748825Y-85115593D02*
X107833582Y-85231302D01*
X107833582Y-85231302D02*
X107909394Y-85356963D01*
X107909394Y-85356963D02*
X107974880Y-85491917D01*
X107974880Y-85491917D02*
X108029531Y-85637937D01*
X108029531Y-85637937D02*
X108071964Y-85797515D01*
X108071964Y-85797515D02*
X108099213Y-85971630D01*
X108099213Y-85971630D02*
X108107215Y-86165229D01*
X108107215Y-86165229D02*
X108092989Y-86351215D01*
X108092989Y-86351215D02*
X108060797Y-86520704D01*
X108060797Y-86520704D02*
X108013926Y-86676889D01*
X108013926Y-86676889D02*
X107955110Y-86820330D01*
X107955110Y-86820330D02*
X107946402Y-86838720D01*
X101544153Y-103826137D02*
X101414057Y-103756197D01*
X101414057Y-103756197D02*
X101293379Y-103676668D01*
X101293379Y-103676668D02*
X101181789Y-103588015D01*
X101181789Y-103588015D02*
X101078685Y-103490092D01*
X101078685Y-103490092D02*
X100984206Y-103382979D01*
X100984206Y-103382979D02*
X100898344Y-103266158D01*
X100898344Y-103266158D02*
X100822679Y-103141111D01*
X100822679Y-103141111D02*
X100756507Y-103005132D01*
X100756507Y-103005132D02*
X100701749Y-102859154D01*
X100701749Y-102859154D02*
X100659449Y-102700801D01*
X100659449Y-102700801D02*
X100631910Y-102526432D01*
X100631910Y-102526432D02*
X100623646Y-102333170D01*
X100623646Y-102333170D02*
X100637833Y-102145336D01*
X100637833Y-102145336D02*
X100671174Y-101970933D01*
X100671174Y-101970933D02*
X100718496Y-101814806D01*
X100718496Y-101814806D02*
X100777466Y-101672043D01*
X100777466Y-101672043D02*
X100784513Y-101657221D01*
X117358513Y-116368804D02*
X117538630Y-116390568D01*
X117538630Y-116390568D02*
X117685968Y-116443874D01*
X117685968Y-116443874D02*
X117811296Y-116520848D01*
X117811296Y-116520848D02*
X117915560Y-116616601D01*
X117915560Y-116616601D02*
X118001392Y-116732317D01*
X118001392Y-116732317D02*
X118066293Y-116870106D01*
X118066293Y-116870106D02*
X118103686Y-117033270D01*
X118103686Y-117033270D02*
X118108513Y-117118804D01*
X85608513Y-83207693D02*
X85788630Y-83229457D01*
X85788630Y-83229457D02*
X85935968Y-83282763D01*
X85935968Y-83282763D02*
X86061296Y-83359737D01*
X86061296Y-83359737D02*
X86165560Y-83455490D01*
X86165560Y-83455490D02*
X86251392Y-83571206D01*
X86251392Y-83571206D02*
X86316293Y-83708995D01*
X86316293Y-83708995D02*
X86353686Y-83872159D01*
X86353686Y-83872159D02*
X86358513Y-83957693D01*
X118108513Y-117118804D02*
X118086739Y-117298920D01*
X118086739Y-117298920D02*
X118033310Y-117446514D01*
X118033310Y-117446514D02*
X117956460Y-117571586D01*
X117956460Y-117571586D02*
X117860708Y-117675850D01*
X117860708Y-117675850D02*
X117744870Y-117761755D01*
X117744870Y-117761755D02*
X117608287Y-117826202D01*
X117608287Y-117826202D02*
X117445219Y-117863842D01*
X117445219Y-117863842D02*
X117358513Y-117868804D01*
X89548791Y-98267415D02*
X89739206Y-98278449D01*
X89739206Y-98278449D02*
X89910549Y-98307824D01*
X89910549Y-98307824D02*
X90067020Y-98351796D01*
X90067020Y-98351796D02*
X90211340Y-98408174D01*
X90211340Y-98408174D02*
X90345378Y-98475724D01*
X90345378Y-98475724D02*
X90472725Y-98555459D01*
X90472725Y-98555459D02*
X90586664Y-98641981D01*
X90586664Y-98641981D02*
X90694602Y-98740137D01*
X90694602Y-98740137D02*
X90790996Y-98844719D01*
X90790996Y-98844719D02*
X90879095Y-98958949D01*
X90879095Y-98958949D02*
X90957881Y-99082493D01*
X90957881Y-99082493D02*
X91026401Y-99215240D01*
X91026401Y-99215240D02*
X91084165Y-99358860D01*
X91084165Y-99358860D02*
X91129439Y-99513771D01*
X91129439Y-99513771D02*
X91160489Y-99683540D01*
X91160489Y-99683540D02*
X91173664Y-99872065D01*
X91173664Y-99872065D02*
X91173791Y-99892415D01*
X106775180Y-105874359D02*
X106595055Y-105852585D01*
X106595055Y-105852585D02*
X106446439Y-105798658D01*
X106446439Y-105798658D02*
X106321491Y-105721624D01*
X106321491Y-105721624D02*
X106216807Y-105625091D01*
X106216807Y-105625091D02*
X106130547Y-105507928D01*
X106130547Y-105507928D02*
X106066258Y-105369796D01*
X106066258Y-105369796D02*
X106029607Y-105206351D01*
X106029607Y-105206351D02*
X106025180Y-105124359D01*
X110667443Y-85033087D02*
X110490000Y-85090000D01*
X110826424Y-84982096D02*
X110667443Y-85033087D01*
X110104343Y-85213695D02*
X109908438Y-85276529D01*
X109908438Y-85276529D02*
X109718686Y-85337390D01*
X110300249Y-85150860D02*
X110104343Y-85213695D01*
X110490000Y-85090000D02*
X110300249Y-85150860D01*
M02*
